# OBJ written from D:\Projekty\Diagooo\4_Implementacja\DiagoUnity\DiagoUnity\Assets\_Diago\_Art\Meshes\Frost Land\FrostLandSpikes.obj
# Units	meters

o Mesh
v 0.361072 -0.545238 0.320778
v 0.240276 -0.545479 -0.301214
v -0.325539 -0.544388 -0.188838
v -0.21393 -0.545694 0.395497
v 0.089283 -0.322816 -0.044472
v -0.063591 -0.322971 -0.093424
v -0.091182 -0.322604 0.066523
v 0.061583 -0.322623 0.116332
v 0.469718 -0.533031 -0.005805
v 0.086291 -0.468561 0.469615
v -0.418638 -0.497104 -0.034994
v 0.025711 -0.467628 -0.257105
v 0.333385 -0.525888 0.120838
v -0.053632 -0.526011 0.415968
v -0.301286 -0.525885 -0.075275
v 0.076372 -0.525754 -0.303914
v 0.016457 -0.552817 0.01427
v 0.046392 -0.595115 -0.289985
v -0.098695 -0.595115 -0.126324
v -0.30442 -0.595115 -0.057811
v -0.214114 -0.595115 0.133539
v -0.045731 -0.595115 0.391464
v 0.183847 -0.595115 0.333922
v 0.371218 -0.595115 0.05661
v 0.281594 -0.595115 -0.114674
v 0.009628 0.626975 0.007063
v 0.120493 -0.492461 0.597589
v 0.612522 -0.511551 -0.110431
v -0.103811 -0.51046 -0.58937
v -0.603125 -0.511766 0.145714
v 0.160832 -0.408265 -0.001913
v -0.000368 -0.40842 -0.179415
v -0.155522 -0.408053 0.006888
v 0.025279 -0.408072 0.227064
v 0.542843 -0.499103 0.443939
v -0.220255 -0.499976 0.64775
v -0.496563 -0.528519 -0.382145
v 0.389383 -0.499043 -0.519415
v -0.126038 -0.542556 0.350781
v -0.31467 -0.5573 -0.346606
v 0.344644 -0.557169 -0.360316
v 0.029493 -0.584233 0.006547
v 0.016457 -0.552817 0.01427
v 0.025711 -0.467628 -0.257105
v 0.025711 -0.467628 -0.257105
v 0.016457 -0.552817 0.01427
v 0.016457 -0.552817 0.01427
v -0.418638 -0.497104 -0.034994
v -0.418638 -0.497104 -0.034994
v 0.016457 -0.552817 0.01427
v 0.016457 -0.552817 0.01427
v 0.086291 -0.468561 0.469615
v 0.086291 -0.468561 0.469615
v 0.016457 -0.552817 0.01427
v 0.389383 -0.499043 -0.519415
v 0.029493 -0.584233 0.006547
v 0.029493 -0.584233 0.006547
v 0.389383 -0.499043 -0.519415
v -0.496563 -0.528519 -0.382145
v 0.029493 -0.584233 0.006547
v 0.029493 -0.584233 0.006547
v -0.496563 -0.528519 -0.382145
v -0.063591 -0.322971 -0.093424
v -0.091182 -0.322604 0.066523
v 0.061583 -0.322623 0.116332
v 0.086291 -0.468561 0.469615
v -0.418638 -0.497104 -0.034994
v 0.025711 -0.467628 -0.257105
v -0.053632 -0.526011 0.415968
v -0.301286 -0.525885 -0.075275
v 0.076372 -0.525754 -0.303914
v 0.016457 -0.552817 0.01427
v 0.160832 -0.408265 -0.001913
v -0.000368 -0.40842 -0.179415
v -0.220255 -0.499976 0.64775
v -0.496563 -0.528519 -0.382145
v 0.389383 -0.499043 -0.519415
v -0.31467 -0.5573 -0.346606
v 0.344644 -0.557169 -0.360316
v 0.029493 -0.584233 0.006547
v 0.016457 -0.552817 0.01427
v 0.029493 -0.584233 0.006547
vn -0.366706 0.698594 -0.614404
vn -0.446471 0.743038 -0.498556
vn -0.278962 0.63895 -0.716885
vn 0.325339 0.800677 -0.503062
vn 0.1661 0.791234 -0.588523
vn 0.507992 0.854645 -0.107357
vn -0.426017 0.81466 0.393495
vn -0.324327 0.834717 0.44504
vn -0.521999 0.783687 0.336678
vn 0.455155 0.851483 0.260406
vn 0.412616 0.851722 0.322981
vn -0.0583095 0.414162 -0.908334
vn -0.325953 0.329517 0.8861
vn -0.952354 0.261425 -0.157096
vn 0.908844 0.388131 0.152832
vn 0.812631 0.547535 0.199591
vn -0.226984 0.347272 0.90988
vn 0.143555 0.282407 -0.948493
vn 0.150451 0.957557 -0.245865
vn 0.909094 0.395039 0.132259
vn -0.982602 0.137053 0.125337
vn -0.336935 0.933708 -0.121097
vn -0.741194 0.137415 -0.657076
vn -0.545513 0.13857 -0.826568
vn -0.313271 0.130438 -0.940663
vn -0.885088 0.205273 0.41771
vn -0.854226 0.205803 0.477434
vn -0.819502 0.205404 0.535001
vn 0.233245 0.282145 0.930587
vn 0.800376 0.258739 0.540789
vn 0.860909 0.236461 -0.450469
vn 0.740378 0.227763 -0.632427
vn 0.584522 0.208199 -0.784211
vn -0.069832 0.972011 -0.224318
vn -0.151389 0.967486 -0.202613
vn 0.0122236 0.969592 -0.244421
vn 0.214186 0.976073 -0.0374978
vn 0.203588 0.975681 -0.0812367
vn 0.244405 0.960577 -0.13251
vn -0.219768 0.975345 0.0200761
vn -0.188374 0.974643 0.120772
vn -0.038452 0.995232 -0.0896324
vn 0.0494231 0.976515 0.209706
vn 0.0107848 0.975571 0.21942
vn 0.157271 0.982094 0.103716
vn 0.587166 0.633162 0.504322
vn 0.503328 0.729829 0.462613
vn 0.410373 0.813276 0.412524
vn -0.769792 0.491448 -0.407306
vn -0.767223 0.527136 -0.365371
vn -0.762323 0.561222 -0.322325
vn -0.611913 0.486693 0.623452
vn 0.53046 0.558296 -0.637901
vn 0.173551 0.980293 -0.0943713
vn 0.449518 0.892359 0.0403586
vn -0.737319 0.530193 -0.418636
vn -0.410373 -0.813276 -0.412524
vn 0.679616 0.713366 0.17097
vn 0.369513 0.729439 -0.575655
vn 0.313858 0.90053 -0.300896
vn -0.420118 0.624779 0.658142
vn -0.173551 -0.980293 0.0943713
vt 0.453711 0.976049
vt 0.445649 0.993209
vt 0.420528 0.961218
vt 0.436285 0.942966
vt 0.452353 0.874686
vt 0.481819 0.874373
vt 0.481234 0.898302
vt 0.444713 0.919175
vt 0.372967 0.913814
vt 0.379395 0.946209
vt 0.334037 0.932421
vt 0.327666 0.892941
vt 0.495901 0.931394
vt 0.486759 0.972366
vt 0.455844 0.955397
vt 0.461448 0.920767
vt 0.496551 0.907215
vt 0.488496 0.869098
vt 0.460234 0.992099
vt 0.467912 0.970437
vt 0.487541 0.987364
vt 0.285711 0.983724
vt 0.255513 0.993171
vt 0.258016 0.984751
vt 0.402247 0.980592
vt 0.434202 0.99026
vt 0.371663 0.960166
vt 0.34298 0.984266
vt 0.328794 0.963357
vt 0.294924 0.987783
vt 0.327007 0.984434
vt 0.337826 0.9905
vt 0.33117 0.955868
vt 0.371506 0.953005
vt 0.295465 0.973702
vt 0.258251 0.976283
vt 0.255621 0.951509
vt 0.450978 0.756354
vt 0.490761 0.757449
vt 0.493504 0.772836
vt 0.364718 0.890113
vt 0.344042 0.884995
vt 0.37027 0.767704
vt 0.323232 0.881405
vt 0.255516 0.770355
vt 0.275149 0.764096
vt 0.310331 0.880518
vt 0.303977 0.755797
vt 0.326979 0.757274
vt 0.358389 0.76598
vt 0.411754 0.884783
vt 0.393211 0.888041
vt 0.420308 0.949268
vt 0.384595 0.973722
vt 0.38928 0.920432
vt 0.437694 0.903965
vt 0.458755 0.853818
vt 0.431512 0.890854
vt 0.415266 0.836991
vt 0.459316 0.798075
vt 0.318911 0.908151
vt 0.324784 0.972784
vt 0.277299 0.930179
vt 0.271731 0.87882
vt 0.404769 0.801264
vt 0.389609 0.755938
vt 0.423461 0.768805
vt 0.375225 0.899646
vt 0.422302 0.896604
vt 0.397555 0.826122
vt 0.386605 0.788595
vt 0.258298 0.944572
vt 0.260067 0.894468
vt 0.474912 0.795642
vt 0.432058 0.759905
vt 0.490875 0.781389
vt 0.361572 0.985231
vt 0.408379 0.991109
vt 0.345763 0.991649
vt 0.291209 0.871183
vt 0.266573 0.866422
vt 0.264815 0.812955
vt 0.470102 0.861974
vt 0.466982 0.843976
vt 0.487389 0.800425
usemtl Default
g FrostLandSpikes
f 3/1/1 67/2/2 6/3/1
f 6/3/1 12/4/3 3/1/1
f 2/5/4 68/6/5 5/7/4
f 5/7/4 9/8/6 2/5/4
f 4/9/7 66/10/8 7/11/7
f 7/11/7 11/12/9 4/9/7
f 8/13/10 10/14/11 1/15/10
f 1/15/10 9/8/6 8/13/10
f 8/13/12 9/8/12 13/16/12 17/17/12
f 17/17/13 13/16/13 9/8/13 5/7/13
f 17/17/14 5/7/14 68/6/14 16/18/14
f 44/19/15 63/20/15 43/21/15
f 46/22/16 71/23/16 45/24/16
f 72/25/17 6/3/17 67/2/17 15/26/17
f 48/27/18 64/28/18 47/29/18
f 50/30/19 70/31/19 49/32/19
f 81/33/20 7/11/20 66/10/20 14/34/20
f 52/35/21 65/36/21 51/37/21
f 54/38/22 69/39/22 53/40/22
f 18/41/23 19/42/24 26/43/24
f 19/42/24 20/44/25 26/43/24
f 20/45/26 21/46/27 26/47/27
f 21/46/27 22/48/28 26/47/27
f 22/48/29 23/49/29 26/47/29
f 23/49/30 24/50/30 26/47/30
f 24/51/31 25/52/32 26/43/32
f 25/52/32 18/41/33 26/43/32
f 29/53/34 37/54/35 32/55/34
f 32/55/34 38/56/36 29/53/34
f 28/57/37 77/58/38 31/59/37
f 31/59/37 35/60/39 28/57/37
f 30/61/40 75/62/41 33/63/40
f 33/63/40 76/64/42 30/61/40
f 34/65/43 36/66/44 27/67/43
f 27/67/43 35/60/45 34/65/43
f 32/55/46 42/68/47 38/56/47
f 41/69/48 38/56/47 42/68/47
f 80/70/49 39/71/50 34/65/50
f 36/66/51 34/65/50 39/71/50
f 31/59/52 80/70/52 35/60/52
f 33/63/53 82/72/53 76/64/53
f 40/73/54 76/64/42 82/72/55
f 73/74/56 55/75/56 56/76/56
f 79/77/57 57/78/57 58/79/57
f 82/72/55 33/63/58 75/62/58
f 34/65/59 35/60/60 80/70/59
f 60/80/61 74/81/61 59/82/61
f 62/83/62 78/84/62 61/85/62
