# OBJ written from D:\Projekty\Diagooo\4_Implementacja\DiagoUnity\DiagoUnity\Assets\_Diago\_Art\Meshes\Frost Land\Kra1_1.obj
# Units	meters

o Kra1_1.obj
v -0.361045 -0.125131 0.039404
v -0.139695 -0.125131 -0.428595
v -0.361045 0.074215 0.039404
v 0.355998 0.074215 0.220509
v 0.37619 0.074214 -0.143363
v 0.335027 0.074214 -0.376813
v 0.328746 -0.12513 -0.412432
v 0.335027 -0.12513 -0.376813
v 0.355998 -0.125131 0.220509
v -0.402067 -0.125131 -0.260431
v -0.402067 0.074215 -0.260431
v -0.139695 0.074215 -0.428595
v 0.37619 -0.12513 -0.143363
v 0.328746 0.074214 -0.412432
vn 0.46571 0.617986 0.633409
vn 0.891654 0.449585 -0.053159
vn 0.696366 0.707104 -0.122792
vn -0.360503 0.875262 0.322418
vn -0.182682 -0.723309 -0.665921
vn 0.55157 -0.541131 -0.634782
vn 0.696364 -0.707106 -0.122791
vn -0.360505 -0.875261 0.322418
vn 0.891653 -0.449587 -0.053159
vn 0.465705 -0.617987 0.633412
vn -0.780867 -0.510243 -0.360415
vn -0.780867 0.510243 -0.360415
vn -0.182682 0.723309 -0.665921
vn 0.55157 0.541131 -0.634782
vt 0.435544 0.185422
vt 0.394653 0.190913
vt 0.372582 0.174663
vt 0.437594 0.110965
vt 0.309657 0.173547
vt 0.323025 0.256585
vt 0.316979 0.259008
vt 0.219776 0.151084
vt 0.277303 0.274558
vt 0.212305 0.283013
vt 0.0192005 0.156334
vt 0.0187955 0.216628
vt 0.008257 0.216577
vt 0.008639 0.156114
vt 0.183354 0.176103
vt 0.189712 0.237124
vt 0.179265 0.238693
vt 0.172832 0.176104
vt 0.017706 0.364204
vt 0.0172365 0.436744
vt 0.006684 0.43694
vt 0.0071775 0.364096
vt 0.370226 0.171131
vt 0.373201 0.119414
vt 0.270712 0.133249
vt 0.191433 0.08371
vt 0.181038 0.0823535
vt 0.404175 0.101805
vt 0.020295 0.48361
vt 0.009796 0.484441
vt 0.020466 0.491013
vt 0.0102655 0.491443
usemtl defaultMat
g Kra1_1
f 4/1/1 5/2/2 6/3/3 3/4/4
f 2/5/5 7/6/6 8/7/7 1/8/8
f 1/8/8 8/7/7 13/9/9 9/10/10
f 10/11/11 1/12/8 3/13/4 11/14/12
f 2/15/5 10/16/11 11/17/12 12/18/13
f 9/19/10 13/20/9 5/21/2 4/22/1
f 1/12/8 9/19/10 4/22/1 3/13/4
f 3/4/4 6/3/3 14/23/14 12/24/13
f 2/5/5 1/8/8 10/25/11
f 7/26/6 2/15/5 12/18/13 14/27/14
f 3/4/4 12/24/13 11/28/12
f 5/21/2 13/20/9 8/29/7 6/30/3
f 8/29/7 7/31/6 14/32/14 6/30/3
