# OBJ written from D:\Projekty\Diagooo\4_Implementacja\DiagoUnity\DiagoUnity\Assets\_Diago\_Art\Meshes\Frost Land\Kra2_1.obj
# Units	meters

o Kra2_1.obj
v -0.339628 -0.125131 0.021029
v 0.015658 -0.125131 0.104819
v -0.356904 -0.125131 -0.342928
v 0.049433 -0.125131 -0.251049
v 0.01307 -0.125131 -0.363115
v -0.339628 0.074215 0.021029
v -0.356904 0.074215 -0.342928
v 0.049433 0.074215 -0.251049
v 0.015658 0.074215 0.104819
v 0.01307 0.074215 -0.363115
vn 0.463858 -0.605572 0.64662
vn -0.651897 -0.53068 0.541672
vn -0.429525 -0.815535 -0.387828
vn 0.69545 -0.71449 -0.076506
vn 0.478436 -0.533554 -0.697437
vn 0.463858 0.605572 0.64662
vn -0.651897 0.53068 0.541672
vn -0.429525 0.815535 -0.387828
vn 0.69545 0.71449 -0.076506
vn 0.478436 0.533554 -0.697437
vt 0.405107 0.0547275
vt 0.439348 0.0527625
vt 0.445258 0.0864875
vt 0.402667 0.0883475
vt 0.411882 0.0960375
vt 0.111919 0.384517
vt 0.101015 0.47279
vt 0.088525 0.470681
vt 0.0991745 0.384179
vt 0.107201 0.295963
vt 0.094459 0.297093
vt 0.109876 0.094887
vt 0.09774 0.179687
vt 0.085054 0.178663
vt 0.0973835 0.092675
vt 0.098696 0.207051
vt 0.085946 0.208121
vt 0.447071 0.0450595
vt 0.413451 0.0474995
vt 0.415311 0.0049095
vt 0.449041 0.0108195
vt 0.405766 0.0382845
usemtl defaultMat
g Kra2_1
f 2/1/1 1/2/2 3/3/3 4/4/4
f 3/3/3 5/5/5 4/4/4
f 1/6/2 2/7/1 9/8/6 6/9/7
f 3/10/3 1/6/2 6/9/7 7/11/8
f 2/12/1 4/13/4 8/14/9 9/15/6
f 5/16/5 3/10/3 7/11/8 10/17/10
f 4/13/4 5/16/5 10/17/10 8/14/9
f 9/18/6 8/19/9 7/20/8 6/21/7
f 8/19/9 10/22/10 7/20/8
