# OBJ written from D:\Projekty\Diagooo\4_Implementacja\DiagoUnity\DiagoUnity\Assets\_Diago\_Art\Meshes\Frost Land\Kra3_1.obj
# Units	meters

o Kra3_1.obj
v -0.251437 -0.125131 -0.409572
v -0.003041 -0.125131 -0.153023
v 0.315947 -0.125131 -0.358521
v -0.003041 0.074215 -0.153023
v -0.251437 0.074215 -0.409572
v 0.315947 0.074215 -0.358521
v 0.363115 0.074215 -0.170429
v 0.363115 -0.125131 -0.170429
vn 0.553974 -0.522825 -0.647894
vn -0.515902 -0.820434 -0.24644
vn -0.515902 0.820434 -0.24644
vn 0.553974 0.522825 -0.647894
vn -0.322758 0.481047 0.81512
vn 0.630246 0.619439 0.468066
vn -0.322758 -0.481047 0.81512
vn 0.630246 -0.619439 0.468066
vt 0.065314 0.222992
vt 0.07419 0.073433
vt 0.0879475 0.0746125
vt 0.079141 0.223147
vt 0.426154 0.311545
vt 0.383403 0.384048
vt 0.298591 0.400144
vt 0.298896 0.35447
vt 0.069874 0.461747
vt 0.077724 0.369511
vt 0.0915685 0.36937
vt 0.0835085 0.463517
vt 0.069411 0.274491
vt 0.08324 0.27296
vt 0.236119 0.290671
vt 0.367251 0.262001
vt 0.391069 0.301008
vt 0.310135 0.330865
usemtl defaultMat
g Kra3_1
f 3/1/1 1/2/2 5/3/3 6/4/4
f 5/5/3 4/6/5 7/7/6 6/8/4
f 1/9/2 2/10/7 4/11/5 5/12/3
f 2/10/7 8/13/8 7/14/6 4/11/5
f 8/13/8 3/1/1 6/4/4 7/14/6
f 1/15/2 3/16/1 8/17/8 2/18/7
