# OBJ written from D:\Projekty\Diagooo\4_Implementacja\DiagoUnity\DiagoUnity\Assets\_Diago\_Art\Meshes\Frost Land\Stone.obj
# Units	meters

o Mesh
v 0.176095 0.045326 -0.042036
v -0.118677 0.056239 -0.210407
v -0.107283 0.980052 -0.398697
v 0.386949 0.90188 -0.116399
v -0.364106 0.060781 0.006258
v -0.518782 1.01259 -0.035426
v -0.221018 0.052675 0.308533
v -0.278874 0.954523 0.471387
v 0.112845 0.043123 0.278687
v 0.2809 0.886102 0.421344
v -0.029561 1.60197 0.068561
v -0.085052 0.015793 0.480806
v -0.049354 0.160219 0.311343
v 0.356809 0.015793 0.304761
v 0.135644 0.166671 0.297557
v 0.345142 0.015793 -0.204287
v 0.189183 0.115057 -0.046997
v -0.084582 0.015793 -0.438523
v -0.116081 0.087243 -0.20981
v -0.440951 0.015793 -0.109438
v -0.385454 0.208559 0.00192
v -0.374267 0.015793 0.303246
v -0.231382 0.194437 0.333873
v 0.170322 0.015793 -0.387024
v 0.037588 0.10115 -0.126481
v 0.456971 0.015793 0.0587
v 0.16809 0.161258 0.132452
v 0.166272 0.015793 0.450966
v 0.053818 0.143002 0.299012
v -0.220708 0.015793 0.43605
v -0.140884 0.168558 0.322682
v -0.442946 0.015793 0.139245
v -0.302402 0.242311 0.171986
v -0.31391 0.015793 -0.29432
v -0.242772 0.123122 -0.100741
vn 0.482777 -0.18061 -0.856917
vn 0.517214 0.160899 -0.840596
vn -0.656814 -0.139193 -0.741094
vn -0.901689 -0.132187 0.411684
vn 0.107543 0.162457 0.980838
vn 0.0658448 -0.179242 0.981599
vn 0.957476 -0.219435 0.187317
vn 0.490579 0.483409 -0.725016
vn -0.527097 0.55158 -0.646474
vn -0.736025 0.538585 0.410113
vn 0.136497 0.484905 0.863849
vn 0.865313 0.466109 0.184326
vn 0.200907 0.819221 0.537134
vn 0.180138 0.69266 0.698407
vn 0.427414 0.901838 -0.0632931
vn 0.461403 0.885046 0.0616573
vn 0.0589484 0.957147 -0.283541
vn 0.226673 0.944309 -0.238535
vn -0.0594402 0.882126 -0.467247
vn -0.0976806 0.93319 -0.345854
vn -0.840544 0.487309 0.236678
vn -0.849269 0.527917 -0.00681305
vn -0.485466 0.670242 0.561337
vn -0.646083 0.55484 0.524146
vn 0.00278443 0.0517645 0.998655
vn 0.151722 0.53669 0.830027
vn 0.133584 0.845099 -0.517652
vt 0.111772 0.632296
vt 0.160748 0.635678
vt 0.146682 0.676814
vt 0.105932 0.657323
vt 0.0440155 0.694152
vt 0.0444498 0.744717
vt 0.00352525 0.737184
vt 0.0194727 0.690751
vt 0.0856097 0.733502
vt 0.0688822 0.689408
vt 0.121075 0.709466
vt 0.091073 0.677103
vt 0.0974673 0.634368
vt 0.0816023 0.674846
vt 0.0495015 0.642313
vt 0.0419777 0.687549
vt 0.0072595 0.66276
vt 0.00450375 0.620005
vt 0.0753563 0.599255
vt 0.183573 0.621125
vt 0.176059 0.618454
vt 0.180235 0.59769
vt 0.200649 0.607641
vt 0.19126 0.690419
vt 0.200641 0.700219
vt 0.183732 0.716854
vt 0.163655 0.704189
vt 0.185294 0.668419
vt 0.18087 0.680949
vt 0.156629 0.679613
vt 0.157997 0.657059
vt 0.195951 0.634311
vt 0.202688 0.655849
vt 0.189801 0.655843
vt 0.172113 0.63856
vt 0.135692 0.607026
vt 0.152432 0.623756
vt 0.13912 0.628289
vt 0.11901 0.621775
vt 0.167518 0.5967
vt 0.169674 0.615863
vt 0.163728 0.614917
vt 0.149979 0.599988
vt 0.190121 0.624555
vt 0.213729 0.624495
vt 0.215282 0.63761
vt 0.21599 0.658256
usemtl 04___Default
g Box012
f 2/1/1 3/2/2 4/3/2 1/4/1
f 5/5/3 6/6/3 3/7/3 2/8/3
f 8/9/4 6/6/4 5/5/4 7/10/4
f 10/11/5 8/9/5 7/10/6 9/12/6
f 1/4/7 4/3/7 10/11/7 9/12/7
f 4/13/2 3/14/2 11/15/8
f 3/14/9 6/16/9 11/15/9
f 6/16/10 8/17/10 11/15/10
f 8/17/5 10/18/5 11/15/11
f 4/13/12 11/15/12 10/19/12
f 29/20/13 13/21/14 12/22/14 28/23/13
f 27/24/15 15/25/16 14/26/16 26/27/15
f 25/28/17 17/29/18 16/30/18 24/31/17
f 34/32/19 35/33/19 19/34/20 18/35/20
f 32/36/21 33/37/21 21/38/22 20/39/22
f 30/40/23 31/41/23 23/42/24 22/43/24
f 24/31/17 18/35/20 19/34/20 25/28/17
f 17/29/18 27/24/15 26/27/15 16/30/18
f 15/44/25 29/20/25 28/23/25 14/45/25
f 31/41/26 30/40/26 12/22/14 13/21/14
f 33/37/21 32/36/21 22/43/24 23/42/24
f 35/33/19 34/32/19 20/46/27 21/47/27
