# OBJ written from D:\Projekty\Diagooo\4_Implementacja\DiagoUnity\DiagoUnity\Assets\_Diago\_Art\Meshes\Rocky Mountains\Cave\CaveEntryLeftTop.obj
# Units	meters

o CaveEntryLeftTop.obj
v 0.412376 2.71332 -0.427377
v 0.412376 2.71332 0.427376
v -0.356799 2.71375 0.427376
v -0.356799 2.71375 -0.427377
v -0.396209 3.55711 -0.427377
v -0.396209 3.55712 0.427376
v 0.373517 3.40096 0.427376
v 0.373517 3.40096 -0.427377
v 0.347311 3.3377 -0.495854
v 0.412376 2.7818 -0.495854
v -0.34918 2.7818 -0.495854
v -0.415006 3.49127 -0.495854
v -0.480853 3.51006 -0.427377
v -0.409812 2.78858 -0.427377
v -0.409812 2.78858 0.427376
v -0.480853 3.51006 0.427376
v -0.415006 3.49127 0.495854
v -0.34918 2.7818 0.495854
v 0.412376 2.7818 0.495854
v 0.347312 3.3377 0.495854
v 0.410576 3.31149 0.427376
v 0.480853 2.7818 0.427376
v 0.480853 2.7818 -0.427377
v 0.410576 3.31149 -0.427377
v -0.400909 3.54065 -0.478735
v 0.366965 3.38514 -0.478735
v 0.412376 2.73044 -0.478735
v -0.354894 2.73076 -0.478735
v -0.450294 3.55475 0.427377
v -0.450294 3.55475 -0.427377
v -0.400369 2.73585 -0.427377
v -0.400369 2.73585 0.427377
v 0.366965 3.38514 0.478735
v -0.400909 3.54065 0.478735
v -0.354894 2.73076 0.478735
v 0.412376 2.73044 0.478735
v 0.414414 3.36549 -0.427377
v 0.414414 3.36549 0.427376
v 0.463734 2.73044 0.427376
v 0.463734 2.73044 -0.427377
v -0.464392 3.50536 -0.478735
v -0.394655 2.78689 -0.478735
v -0.394655 2.78689 0.478735
v -0.464392 3.50536 0.478735
v 0.39476 3.31804 0.478735
v 0.463734 2.7818 0.478735
v 0.463734 2.7818 -0.478735
v 0.39476 3.31804 -0.478735
v -0.441145 3.53829 -0.46542
v -0.441145 3.53829 0.46542
v -0.387098 2.74776 0.46542
v -0.387098 2.74776 -0.46542
v 0.397017 3.35828 0.46542
v 0.397017 3.35828 -0.46542
v 0.450419 2.74375 -0.46542
v 0.450419 2.74375 0.46542
vn 0.158072 -0.974721 -0.157901
vn 0.155724 -0.970169 0.185803
vn -0.230217 -0.959943 0.159714
vn -0.226817 -0.955853 -0.186812
vn 0.077099 0.984723 -0.156127
vn 0.077881 0.979725 0.184588
vn 0.43602 0.88536 0.161316
vn 0.431493 0.882291 -0.188086
vn 0.197448 0.131549 -0.971447
vn 0.156254 -0.175695 -0.971965
vn -0.179964 -0.155982 -0.971227
vn -0.114089 0.19371 -0.974402
vn -0.956085 0.245165 -0.160611
vn -0.976696 -0.160927 -0.142009
vn -0.980873 -0.135567 0.139676
vn -0.949928 0.271757 0.154224
vn -0.128848 0.168698 0.97721
vn -0.185562 -0.184445 0.965167
vn 0.169163 -0.147672 0.974462
vn 0.216196 0.160455 0.963075
vn 0.988681 0.029357 0.14713
vn 0.981453 -0.121881 0.147972
vn 0.982607 -0.094746 -0.159709
vn 0.986582 0.056803 -0.153069
vn 0.011939 0.738926 -0.673681
vn 0.351453 0.591927 -0.72533
vn 0.16435 -0.717079 -0.677339
vn -0.219622 -0.658774 -0.719571
vn -0.456486 0.868301 0.1941
vn -0.478776 0.861311 -0.17005
vn -0.776433 -0.602163 -0.185879
vn -0.792619 -0.588081 0.160983
vn 0.366432 0.628773 0.685836
vn 0.001412 0.701531 0.712638
vn -0.223861 -0.697507 0.680713
vn 0.16428 -0.67803 0.716441
vn 0.897312 0.396428 -0.194102
vn 0.910428 0.377099 0.170052
vn 0.677296 -0.709645 0.194097
vn 0.696809 -0.696807 -0.17005
vn -0.658078 0.259097 -0.706967
vn -0.720186 -0.182329 -0.669394
vn -0.73258 -0.184169 0.655293
vn -0.658732 0.256508 0.707302
vn 0.744066 0.101013 0.660426
vn 0.708985 -0.153963 0.688212
vn 0.701408 -0.155815 -0.69552
vn 0.724278 0.101915 -0.681934
vn -0.376487 0.740969 -0.556077
vn -0.362594 0.715237 0.597463
vn -0.658819 -0.523009 0.540758
vn -0.638077 -0.502967 -0.582995
vn 0.7555 0.346404 0.556079
vn 0.728621 0.334885 -0.597465
vn 0.565422 -0.60916 -0.556078
vn 0.545001 -0.588232 0.59746
vt 0.006675 0.007735
vt 0.10937 0.007645
vt 0.1098 0.11
vt 0.007105 0.11009
vt 0.372175 0.129095
vt 0.372175 0.37145
vt 0.127835 0.37145
vt 0.127835 0.129095
vt 0.127835 0.105445
vt 0.1278 0.00758
vt 0.3722 0.00758
vt 0.372175 0.105445
vt 0.395235 0.129095
vt 0.492435 0.129055
vt 0.492435 0.37128
vt 0.39523 0.37145
vt 0.372175 0.39454
vt 0.372 0.49241
vt 0.12774 0.49241
vt 0.127835 0.39454
vt 0.10478 0.37145
vt 0.007575 0.37154
vt 0.00758 0.129055
vt 0.10478 0.129095
vt 0.372175 0.11699
vt 0.127835 0.11699
vt 0.127785 0
vt 0.372215 0
vt 0.383715 0.37145
vt 0.38372 0.129095
vt 0.5 0.129055
vt 0.499995 0.37128
vt 0.127835 0.382995
vt 0.372175 0.382995
vt 0.372 0.499995
vt 0.12774 0.499995
vt 0.116295 0.129095
vt 0.116295 0.37145
vt 1.5e-005 0.37155
vt 1.5e-005 0.129045
vt 0.000265 0.11012
vt 0.000175 0.00776
vt 0.115875 0.007615
vt 0.116135 0.10964
vt 0.395235 0.11698
vt 0.492435 0.116995
vt 0.49243 0.38298
vt 0.39523 0.38298
vt 0.10478 0.382995
vt 0.007575 0.382985
vt 0.00758 0.11701
vt 0.10478 0.117005
vt 0.38372 0.116975
vt 0.383715 0.38298
vt 0.499995 0.382975
vt 0.5 0.11699
vt 0.116295 0.382995
vt 0.116295 0.117005
vt 2e-005 0.11699
vt 1.5e-005 0.383
vt 0.006645 0.00039
vt 0.109345 0.000465
vt 0.10983 0.116505
vt 0.00713 0.116595
vt 0.116295 0.105445
vt 0.116095 0.00758
vt 0.38364 0.007585
vt 0.383715 0.105445
vt 0.383715 0.39454
vt 0.383695 0.49241
vt 0.1163 0.49241
vt 0.11629 0.39454
vt 0.38367 0
vt 0.11607 0
vt 0.116305 0.499995
vt 0.383695 0.499995
vt 0.000255 0.000345
vt 0.000365 0.11671
vt 0.115885 0.11638
vt 0.115775 0.000355
usemtl defaultMat2
g CaveEntryLeftTop
f 1/1/1 2/2/2 3/3/3 4/4/4
f 5/5/5 6/6/6 7/7/7 8/8/8
f 9/9/9 10/10/10 11/11/11 12/12/12
f 13/13/13 14/14/14 15/15/15 16/16/16
f 17/17/17 18/18/18 19/19/19 20/20/20
f 21/21/21 22/22/22 23/23/23 24/24/24
f 9/9/9 12/12/12 25/25/25 26/26/26
f 11/11/11 10/10/10 27/27/27 28/28/28
f 13/13/13 16/16/16 29/29/29 30/30/30
f 15/15/15 14/14/14 31/31/31 32/32/32
f 17/17/17 20/20/20 33/33/33 34/34/34
f 19/19/19 18/18/18 35/35/35 36/36/36
f 21/21/21 24/24/24 37/37/37 38/38/38
f 23/23/23 22/22/22 39/39/39 40/40/40
f 1/1/1 4/4/4 28/41/28 27/42/27
f 3/3/3 2/2/2 36/43/36 35/44/35
f 5/5/5 8/8/8 26/26/26 25/25/25
f 7/7/7 6/6/6 34/34/34 33/33/33
f 13/13/13 41/45/41 42/46/42 14/14/14
f 15/15/15 43/47/43 44/48/44 16/16/16
f 21/21/21 45/49/45 46/50/46 22/22/22
f 23/23/23 47/51/47 48/52/48 24/24/24
f 41/45/41 13/13/13 30/30/30 49/53/49
f 16/16/16 44/48/44 50/54/50 29/29/29
f 43/47/43 15/15/15 32/32/32 51/55/51
f 14/14/14 42/46/42 52/56/52 31/31/31
f 45/49/45 21/21/21 38/38/38 53/57/53
f 24/24/24 48/52/48 54/58/54 37/37/37
f 47/51/47 23/23/23 40/40/40 55/59/55
f 22/22/22 46/50/46 56/60/56 39/39/39
f 40/61/40 39/62/39 2/2/2 1/1/1
f 32/63/32 31/64/31 4/4/4 3/3/3
f 30/30/30 29/29/29 6/6/6 5/5/5
f 38/38/38 37/37/37 8/8/8 7/7/7
f 48/65/48 47/66/47 10/10/10 9/9/9
f 42/67/42 41/68/41 12/12/12 11/11/11
f 44/69/44 43/70/43 18/18/18 17/17/17
f 46/71/46 45/72/45 20/20/20 19/19/19
f 48/65/48 9/9/9 26/26/26 54/58/54
f 12/12/12 41/68/41 49/53/49 25/25/25
f 42/67/42 11/11/11 28/28/28 52/73/52
f 10/10/10 47/66/47 55/74/55 27/27/27
f 44/69/44 17/17/17 34/34/34 50/54/50
f 20/20/20 45/72/45 53/57/53 33/33/33
f 46/71/46 19/19/19 36/36/36 56/75/56
f 18/18/18 43/70/43 51/76/51 35/35/35
f 40/61/40 1/1/1 27/42/27 55/77/55
f 4/4/4 31/64/31 52/78/52 28/41/28
f 32/63/32 3/3/3 35/44/35 51/79/51
f 2/2/2 39/62/39 56/80/56 36/43/36
f 30/30/30 5/5/5 25/25/25 49/53/49
f 8/8/8 37/37/37 54/58/54 26/26/26
f 38/38/38 7/7/7 33/33/33 53/57/53
f 6/6/6 29/29/29 50/54/50 34/34/34
