# OBJ written from D:\Projekty\Diagooo\4_Implementacja\DiagoUnity\DiagoUnity\Assets\_Diago\_Art\Meshes\Rocky Mountains\Cave\CaveEntryRightTop.obj
# Units	meters

o CaveEntryRightTop.obj
v 0.397101 2.43164 -0.430222
v 0.397101 2.43164 0.424531
v -0.397103 2.43164 0.424531
v -0.397103 2.43164 -0.430222
v -0.358245 3.13796 -0.430222
v -0.358245 3.13796 0.424531
v 0.233557 3.38304 0.430235
v 0.228133 3.38079 -0.424363
v 0.253907 3.31734 -0.492827
v 0.397101 2.50011 -0.498699
v -0.397103 2.50011 -0.498699
v -0.332039 3.07469 -0.498699
v -0.395303 3.04849 -0.430222
v -0.46558 2.50011 -0.430222
v -0.46558 2.50011 0.424531
v -0.395303 3.04849 0.424531
v -0.332039 3.07469 0.493009
v -0.397103 2.50011 0.493009
v 0.397101 2.50011 0.493009
v 0.260201 3.31995 0.498699
v 0.306708 3.33921 0.430705
v 0.465579 2.50011 0.424531
v 0.465579 2.50011 -0.430222
v 0.301284 3.33697 -0.423892
v -0.351693 3.12214 -0.48158
v 0.234359 3.36484 -0.475711
v 0.397101 2.44876 -0.48158
v -0.397103 2.44876 -0.48158
v -0.399141 3.10249 0.424531
v -0.399141 3.10249 -0.430222
v -0.448462 2.44876 -0.430222
v -0.448462 2.44876 0.424531
v 0.240436 3.36736 0.481584
v -0.351693 3.12214 0.47589
v -0.397103 2.44876 0.47589
v 0.397101 2.44876 0.47589
v 0.269892 3.37955 -0.42401
v 0.275316 3.3818 0.430588
v 0.44846 2.44876 0.424531
v 0.44846 2.44876 -0.430222
v -0.379488 3.05504 -0.48158
v -0.448462 2.50011 -0.48158
v -0.448462 2.50011 0.47589
v -0.379487 3.05504 0.47589
v 0.295299 3.33449 0.481936
v 0.44846 2.50011 0.47589
v 0.44846 2.50011 -0.48158
v 0.289222 3.33197 -0.475359
v -0.381744 3.09528 -0.468265
v -0.381744 3.09528 0.462575
v -0.435145 2.46207 0.462575
v -0.435145 2.46207 -0.468265
v 0.271526 3.36582 0.468532
v 0.265619 3.36337 -0.462137
v 0.435144 2.46207 -0.468265
v 0.435144 2.46207 0.462575
vn 0.158349 -0.974603 -0.158352
vn 0.15599 -0.970128 0.185795
vn -0.158349 -0.974603 0.158349
vn -0.15599 -0.970127 -0.185799
vn -0.518612 0.840209 -0.158402
vn -0.515964 0.836222 0.185778
vn -0.17915 0.971414 0.155754
vn -0.177391 0.966569 -0.185138
vn 0.118588 0.20379 -0.971806
vn 0.156426 -0.167226 -0.97343
vn -0.16903 -0.145792 -0.974768
vn -0.228112 0.15638 -0.960994
vn -0.988723 0.027202 -0.147263
vn -0.981171 -0.124032 -0.148054
vn -0.982407 -0.096878 0.159661
vn -0.986701 0.054661 0.153082
vn -0.213753 0.125221 0.968829
vn -0.156244 -0.176035 0.971905
vn 0.183068 -0.142046 0.972784
vn 0.12286 0.225294 0.966513
vn 0.911088 0.395464 0.116308
vn 0.986152 -0.094747 0.136114
vn 0.984928 -0.065535 -0.160072
vn 0.897201 0.41772 -0.14332
vn -0.423415 0.600814 -0.678043
vn -0.052028 0.703694 -0.708596
vn 0.164453 -0.716749 -0.677662
vn -0.164453 -0.677663 -0.716748
vn -0.897313 0.396428 0.194098
vn -0.910427 0.3771 -0.170053
vn -0.677293 -0.709648 -0.194098
vn -0.696813 -0.696805 0.170043
vn -0.077454 0.736801 0.671659
vn -0.413927 0.561649 0.71639
vn -0.164453 -0.716751 0.67766
vn 0.164454 -0.677666 0.716745
vn 0.443337 0.878699 -0.177032
vn 0.460496 0.876222 0.14205
vn 0.677289 -0.709652 0.194098
vn 0.696806 -0.69681 -0.17005
vn -0.744028 0.099444 -0.660707
vn -0.708644 -0.155537 -0.688209
vn -0.701286 -0.157295 0.69531
vn -0.724425 0.100423 0.682
vn 0.672358 0.380967 0.634665
vn 0.728891 -0.133531 0.671482
vn 0.70319 -0.131852 -0.698669
vn 0.637075 0.374597 -0.673656
vn -0.755498 0.346409 -0.556079
vn -0.728625 0.334885 0.597459
vn -0.565425 -0.609163 0.556071
vn -0.544994 -0.588237 -0.597461
vn 0.378275 0.770738 0.512708
vn 0.378141 0.73889 -0.557719
vn 0.565417 -0.609164 -0.556078
vn 0.544992 -0.588238 0.597461
vt 0.753338 0.0038675
vt 0.804685 0.0038225
vt 0.8049 0.055
vt 0.753552 0.055045
vt 0.936087 0.0645475
vt 0.936087 0.185725
vt 0.813918 0.185725
vt 0.813918 0.0645475
vt 0.813918 0.0527225
vt 0.8139 0.00379
vt 0.9361 0.00379
vt 0.936087 0.0527225
vt 0.947618 0.0645475
vt 0.996217 0.0645275
vt 0.996217 0.18564
vt 0.947615 0.185725
vt 0.936087 0.19727
vt 0.936 0.246205
vt 0.81387 0.246205
vt 0.813918 0.19727
vt 0.80239 0.185725
vt 0.753788 0.18577
vt 0.75379 0.0645275
vt 0.80239 0.0645475
vt 0.936087 0.058495
vt 0.813918 0.058495
vt 0.813892 1.30104e-018
vt 0.936108 1.30104e-018
vt 0.941858 0.185725
vt 0.94186 0.0645475
vt 1 0.0645275
vt 0.999997 0.18564
vt 0.813918 0.191498
vt 0.936087 0.191498
vt 0.936 0.249997
vt 0.81387 0.249997
vt 0.808147 0.0645475
vt 0.808147 0.185725
vt 0.750008 0.185775
vt 0.750008 0.0645225
vt 0.750133 0.05506
vt 0.750087 0.00388
vt 0.807938 0.0038075
vt 0.808068 0.05482
vt 0.947618 0.05849
vt 0.996217 0.0584975
vt 0.996215 0.19149
vt 0.947615 0.19149
vt 0.80239 0.191498
vt 0.753788 0.191492
vt 0.75379 0.058505
vt 0.80239 0.0585025
vt 0.94186 0.0584875
vt 0.941858 0.19149
vt 0.999997 0.191488
vt 1 0.058495
vt 0.808147 0.191498
vt 0.808147 0.0585025
vt 0.75001 0.058495
vt 0.750008 0.1915
vt 0.753322 0.000195
vt 0.804672 0.0002325
vt 0.804915 0.0582525
vt 0.753565 0.0582975
vt 0.808147 0.0527225
vt 0.808047 0.00379
vt 0.94182 0.0037925
vt 0.941858 0.0527225
vt 0.941858 0.19727
vt 0.941848 0.246205
vt 0.80815 0.246205
vt 0.808145 0.19727
vt 0.941835 1.30104e-018
vt 0.808035 1.30104e-018
vt 0.808152 0.249997
vt 0.941848 0.249997
vt 0.750127 0.0001725
vt 0.750183 0.058355
vt 0.807943 0.05819
vt 0.807887 0.0001775
usemtl defaultMat4
g CaveEntryRightTop
f 1/1/1 2/2/2 3/3/3 4/4/4
f 5/5/5 6/6/6 7/7/7 8/8/8
f 9/9/9 10/10/10 11/11/11 12/12/12
f 13/13/13 14/14/14 15/15/15 16/16/16
f 17/17/17 18/18/18 19/19/19 20/20/20
f 21/21/21 22/22/22 23/23/23 24/24/24
f 9/9/9 12/12/12 25/25/25 26/26/26
f 11/11/11 10/10/10 27/27/27 28/28/28
f 13/13/13 16/16/16 29/29/29 30/30/30
f 15/15/15 14/14/14 31/31/31 32/32/32
f 17/17/17 20/20/20 33/33/33 34/34/34
f 19/19/19 18/18/18 35/35/35 36/36/36
f 21/21/21 24/24/24 37/37/37 38/38/38
f 23/23/23 22/22/22 39/39/39 40/40/40
f 1/1/1 4/4/4 28/41/28 27/42/27
f 3/3/3 2/2/2 36/43/36 35/44/35
f 5/5/5 8/8/8 26/26/26 25/25/25
f 7/7/7 6/6/6 34/34/34 33/33/33
f 13/13/13 41/45/41 42/46/42 14/14/14
f 15/15/15 43/47/43 44/48/44 16/16/16
f 21/21/21 45/49/45 46/50/46 22/22/22
f 23/23/23 47/51/47 48/52/48 24/24/24
f 41/45/41 13/13/13 30/30/30 49/53/49
f 16/16/16 44/48/44 50/54/50 29/29/29
f 43/47/43 15/15/15 32/32/32 51/55/51
f 14/14/14 42/46/42 52/56/52 31/31/31
f 45/49/45 21/21/21 38/38/38 53/57/53
f 24/24/24 48/52/48 54/58/54 37/37/37
f 47/51/47 23/23/23 40/40/40 55/59/55
f 22/22/22 46/50/46 56/60/56 39/39/39
f 40/61/40 39/62/39 2/2/2 1/1/1
f 32/63/32 31/64/31 4/4/4 3/3/3
f 30/30/30 29/29/29 6/6/6 5/5/5
f 38/38/38 37/37/37 8/8/8 7/7/7
f 48/65/48 47/66/47 10/10/10 9/9/9
f 42/67/42 41/68/41 12/12/12 11/11/11
f 44/69/44 43/70/43 18/18/18 17/17/17
f 46/71/46 45/72/45 20/20/20 19/19/19
f 48/65/48 9/9/9 26/26/26 54/58/54
f 12/12/12 41/68/41 49/53/49 25/25/25
f 42/67/42 11/11/11 28/28/28 52/73/52
f 10/10/10 47/66/47 55/74/55 27/27/27
f 44/69/44 17/17/17 34/34/34 50/54/50
f 20/20/20 45/72/45 53/57/53 33/33/33
f 46/71/46 19/19/19 36/36/36 56/75/56
f 18/18/18 43/70/43 51/76/51 35/35/35
f 40/61/40 1/1/1 27/42/27 55/77/55
f 4/4/4 31/64/31 52/78/52 28/41/28
f 32/63/32 3/3/3 35/44/35 51/79/51
f 2/2/2 39/62/39 56/80/56 36/43/36
f 30/30/30 5/5/5 25/25/25 49/53/49
f 8/8/8 37/37/37 54/58/54 26/26/26
f 38/38/38 7/7/7 33/33/33 53/57/53
f 6/6/6 29/29/29 50/54/50 34/34/34
