# OBJ written from D:\Projekty\Diagooo\4_Implementacja\DiagoUnity\DiagoUnity\Assets\_Diago\_Art\Meshes\Rocky Mountains\Cave\CaveEntryMiddle.obj
# Units	meters

o CaveEntryMiddle.obj
v 0.565386 2.73921 -0.427609
v 0.565386 2.73921 0.427144
v -0.438861 2.44528 0.427144
v -0.438861 2.44528 -0.427609
v -0.549525 3.47684 -0.427609
v -0.549525 3.47684 0.427144
v 0.184778 3.71892 0.427144
v 0.184778 3.71892 -0.427609
v 0.204787 3.65343 -0.496086
v 0.546151 2.80493 -0.496086
v -0.458096 2.511 -0.496086
v -0.543072 3.40867 -0.496086
v -0.628661 3.40057 -0.427609
v -0.540605 2.48685 -0.427609
v -0.540605 2.48685 0.427144
v -0.628661 3.40057 0.427145
v -0.543072 3.40867 0.495622
v -0.458096 2.511 0.495622
v 0.546151 2.80493 0.495622
v 0.204787 3.65343 0.495622
v 0.287005 3.67855 0.427144
v 0.628661 2.82908 0.427144
v 0.628661 2.82908 -0.427609
v 0.287005 3.67855 -0.427609
v -0.547912 3.4598 -0.478967
v 0.18978 3.70255 -0.478967
v 0.560576 2.75564 -0.478967
v -0.443669 2.46171 -0.478967
v -0.612103 3.45372 0.427144
v -0.612103 3.45372 -0.427609
v -0.505551 2.4436 -0.427609
v -0.505551 2.4436 0.427144
v 0.18978 3.70255 0.478503
v -0.547911 3.4598 0.478503
v -0.443669 2.46171 0.478503
v 0.560576 2.75564 0.478503
v 0.251445 3.72139 -0.427609
v 0.251445 3.72139 0.427144
v 0.62246 2.77375 0.427144
v 0.62246 2.77375 -0.427609
v -0.607264 3.40259 -0.478967
v -0.519978 2.49289 -0.478967
v -0.519978 2.49289 0.478503
v -0.607264 3.40259 0.478503
v 0.266451 3.67227 0.478503
v 0.608034 2.82304 0.478503
v 0.608034 2.82304 -0.478967
v 0.266451 3.67227 -0.478967
v -0.594207 3.44204 -0.465652
v -0.594207 3.44204 0.465188
v -0.493248 2.46108 0.465188
v -0.493248 2.46108 -0.465652
v 0.239349 3.70377 0.465188
v 0.239349 3.70377 -0.465652
v 0.602677 2.78183 -0.465652
v 0.602677 2.78183 0.465188
vn 0.397685 -0.903642 -0.158992
vn 0.394503 -0.899732 0.186679
vn 0.152288 -0.975465 0.158989
vn 0.152858 -0.970455 -0.186685
vn -0.325773 0.932201 -0.15771
vn -0.324129 0.928078 0.183333
vn -0.174554 0.971992 0.157362
vn -0.174986 0.966661 -0.186938
vn 0.072099 0.196009 -0.977948
vn 0.171648 -0.137789 -0.975475
vn -0.080541 -0.17672 -0.98096
vn -0.160795 0.171669 -0.971944
vn -0.975802 0.101445 -0.193698
vn -0.894798 -0.401807 -0.194648
vn -0.907212 -0.371958 0.196503
vn -0.973066 0.133275 0.188095
vn -0.160548 0.142138 0.97674
vn -0.072031 -0.202951 0.976536
vn 0.165655 -0.11067 0.979954
vn 0.062597 0.220092 0.973469
vn 0.842752 0.502928 0.191917
vn 0.976355 0.099972 0.191666
vn 0.971849 0.13177 -0.195311
vn 0.826606 0.5306 -0.187581
vn -0.275062 0.685076 -0.674546
vn -0.079757 0.689471 -0.719909
vn 0.329738 -0.654189 -0.680669
vn 0.063837 -0.690539 -0.720473
vn -0.689001 0.693844 0.209421
vn -0.710694 0.67794 -0.187914
vn -0.383276 -0.899578 -0.209426
vn -0.409315 -0.892835 0.187903
vn -0.091137 0.727544 0.67998
vn -0.27137 0.645562 0.713868
vn 0.075019 -0.728744 0.680665
vn 0.318557 -0.615992 0.720469
vn 0.372657 0.904028 -0.209427
vn 0.398769 0.897593 0.187909
vn 0.807824 -0.550963 0.209427
vn 0.826117 -0.531247 -0.187905
vn -0.661007 0.156224 -0.733937
vn -0.566993 -0.334273 -0.752848
vn -0.579148 -0.333808 0.743747
vn -0.654098 0.160563 0.739172
vn 0.539141 0.421384 0.729221
vn 0.66557 -0.003866 0.746325
vn 0.673674 0.002247 -0.739025
vn 0.529202 0.422153 -0.736025
vn -0.562055 0.586668 -0.583023
vn -0.536155 0.570945 0.62174
vn -0.305015 -0.753037 0.58301
vn -0.286769 -0.728831 -0.621746
vn 0.296122 0.756573 0.583017
vn 0.278169 0.732156 -0.621747
vn 0.662898 -0.469745 -0.583014
vn 0.634483 -0.459196 0.621748
vt 0.753338 0.253868
vt 0.804685 0.253823
vt 0.8049 0.305
vt 0.753552 0.305045
vt 0.936087 0.314548
vt 0.936087 0.435725
vt 0.813918 0.435725
vt 0.813918 0.314548
vt 0.813918 0.302723
vt 0.8139 0.25379
vt 0.9361 0.25379
vt 0.936087 0.302723
vt 0.947618 0.314548
vt 0.996217 0.314528
vt 0.996217 0.43564
vt 0.947615 0.435725
vt 0.936087 0.44727
vt 0.936 0.496205
vt 0.81387 0.496205
vt 0.813918 0.44727
vt 0.80239 0.435725
vt 0.753788 0.43577
vt 0.75379 0.314528
vt 0.80239 0.314548
vt 0.936087 0.308495
vt 0.813918 0.308495
vt 0.813892 0.25
vt 0.936108 0.25
vt 0.941858 0.435725
vt 0.94186 0.314548
vt 1 0.314528
vt 0.999997 0.43564
vt 0.813918 0.441498
vt 0.936087 0.441498
vt 0.936 0.499997
vt 0.81387 0.499997
vt 0.808147 0.314548
vt 0.808147 0.435725
vt 0.750008 0.435775
vt 0.750008 0.314523
vt 0.750133 0.30506
vt 0.750087 0.25388
vt 0.807938 0.253807
vt 0.808068 0.30482
vt 0.947618 0.30849
vt 0.996217 0.308497
vt 0.996215 0.44149
vt 0.947615 0.44149
vt 0.80239 0.441498
vt 0.753788 0.441492
vt 0.75379 0.308505
vt 0.80239 0.308502
vt 0.94186 0.308488
vt 0.941858 0.44149
vt 0.999997 0.441487
vt 1 0.308495
vt 0.808147 0.441498
vt 0.808147 0.308502
vt 0.75001 0.308495
vt 0.750008 0.4415
vt 0.753322 0.250195
vt 0.804672 0.250232
vt 0.804915 0.308253
vt 0.753565 0.308298
vt 0.808147 0.302723
vt 0.808047 0.25379
vt 0.94182 0.253792
vt 0.941858 0.302723
vt 0.941858 0.44727
vt 0.941848 0.496205
vt 0.80815 0.496205
vt 0.808145 0.44727
vt 0.941835 0.25
vt 0.808035 0.25
vt 0.808152 0.499997
vt 0.941848 0.499997
vt 0.750127 0.250172
vt 0.750183 0.308355
vt 0.807943 0.30819
vt 0.807887 0.250178
usemtl defaultMat3
g CaveEntryMiddle
f 1/1/1 2/2/2 3/3/3 4/4/4
f 5/5/5 6/6/6 7/7/7 8/8/8
f 9/9/9 10/10/10 11/11/11 12/12/12
f 13/13/13 14/14/14 15/15/15 16/16/16
f 17/17/17 18/18/18 19/19/19 20/20/20
f 21/21/21 22/22/22 23/23/23 24/24/24
f 9/9/9 12/12/12 25/25/25 26/26/26
f 11/11/11 10/10/10 27/27/27 28/28/28
f 13/13/13 16/16/16 29/29/29 30/30/30
f 15/15/15 14/14/14 31/31/31 32/32/32
f 17/17/17 20/20/20 33/33/33 34/34/34
f 19/19/19 18/18/18 35/35/35 36/36/36
f 21/21/21 24/24/24 37/37/37 38/38/38
f 23/23/23 22/22/22 39/39/39 40/40/40
f 1/1/1 4/4/4 28/41/28 27/42/27
f 3/3/3 2/2/2 36/43/36 35/44/35
f 5/5/5 8/8/8 26/26/26 25/25/25
f 7/7/7 6/6/6 34/34/34 33/33/33
f 13/13/13 41/45/41 42/46/42 14/14/14
f 15/15/15 43/47/43 44/48/44 16/16/16
f 21/21/21 45/49/45 46/50/46 22/22/22
f 23/23/23 47/51/47 48/52/48 24/24/24
f 41/45/41 13/13/13 30/30/30 49/53/49
f 16/16/16 44/48/44 50/54/50 29/29/29
f 43/47/43 15/15/15 32/32/32 51/55/51
f 14/14/14 42/46/42 52/56/52 31/31/31
f 45/49/45 21/21/21 38/38/38 53/57/53
f 24/24/24 48/52/48 54/58/54 37/37/37
f 47/51/47 23/23/23 40/40/40 55/59/55
f 22/22/22 46/50/46 56/60/56 39/39/39
f 40/61/40 39/62/39 2/2/2 1/1/1
f 32/63/32 31/64/31 4/4/4 3/3/3
f 30/30/30 29/29/29 6/6/6 5/5/5
f 38/38/38 37/37/37 8/8/8 7/7/7
f 48/65/48 47/66/47 10/10/10 9/9/9
f 42/67/42 41/68/41 12/12/12 11/11/11
f 44/69/44 43/70/43 18/18/18 17/17/17
f 46/71/46 45/72/45 20/20/20 19/19/19
f 48/65/48 9/9/9 26/26/26 54/58/54
f 12/12/12 41/68/41 49/53/49 25/25/25
f 42/67/42 11/11/11 28/28/28 52/73/52
f 10/10/10 47/66/47 55/74/55 27/27/27
f 44/69/44 17/17/17 34/34/34 50/54/50
f 20/20/20 45/72/45 53/57/53 33/33/33
f 46/71/46 19/19/19 36/36/36 56/75/56
f 18/18/18 43/70/43 51/76/51 35/35/35
f 40/61/40 1/1/1 27/42/27 55/77/55
f 4/4/4 31/64/31 52/78/52 28/41/28
f 32/63/32 3/3/3 35/44/35 51/79/51
f 2/2/2 39/62/39 56/80/56 36/43/36
f 30/30/30 5/5/5 25/25/25 49/53/49
f 8/8/8 37/37/37 54/58/54 26/26/26
f 38/38/38 7/7/7 33/33/33 53/57/53
f 6/6/6 29/29/29 50/54/50 34/34/34
