mtllib Portal6.mtl
o Portal6.obj
v -0.479349 0.040680 -0.290428
v -0.495843 0.040884 0.071738
v -0.262282 0.038378 -0.448215
v -0.275624 0.040569 -0.152915
v -0.282436 0.040699 0.150223
v -0.005310 0.036216 -0.373912
v 0.000404 0.040569 -0.108916
v 0.000404 0.040634 0.183352
v 0.260394 0.037243 -0.437231
v 0.276432 0.040569 -0.152915
v 0.283224 0.040699 0.150223
v 0.486138 0.040699 -0.252688
v -0.456879 0.040577 -0.468984
v 0.430822 0.040450 -0.467144
v 0.495649 0.040893 0.076784
v 0.488919 0.040699 -0.432887
v -0.495241 -0.047045 0.071738
v -0.482673 -0.047189 -0.295096
v -0.003006 -0.049987 -0.384493
v -0.261174 -0.048675 -0.453598
v 0.000404 -0.047299 0.476398
v -0.284319 -0.047461 0.451349
v 0.260312 -0.048762 -0.451696
v 0.286914 -0.047169 0.451033
v 0.486266 -0.047234 -0.252688
v 0.430945 -0.047363 -0.476397
v 0.489049 -0.047234 -0.439692
v 0.495778 -0.047040 0.076850
v 0.495843 -0.046975 0.397135
v -0.454849 -0.047302 -0.469691
v -0.451492 -0.049346 0.396898
v -0.289909 0.078625 0.451257
v 0.000404 0.080298 0.476398
v 0.000404 0.080298 0.183352
v -0.282427 0.080362 0.150223
v 0.286784 0.080427 0.451033
v 0.283161 0.080362 0.150223
v 0.495584 0.080557 0.076784
v 0.495649 0.080621 0.397070
v -0.495753 0.080548 0.071738
v -0.432433 0.074226 0.391391
vn -0.693972 0.716862 -0.067175
vn -0.892430 0.393546 -0.220658
vn 0.123046 0.718250 -0.684819
vn 0.003778 0.999985 -0.004069
vn 0.164195 0.709395 -0.685419
vn 0.004415 0.743630 -0.668577
vn 0.000189 0.999974 -0.007180
vn -0.000019 0.709365 -0.704842
vn -0.130911 0.750903 -0.647307
vn -0.002314 0.999979 -0.005983
vn -0.157592 0.708822 -0.687558
vn 0.552178 0.833695 -0.007209
vn -0.495804 0.586429 -0.640530
vn 0.129420 0.769838 -0.624981
vn 0.885830 0.332895 -0.323243
vn 0.744854 0.531434 -0.403448
vn -0.995908 0.075527 0.049618
vn -0.995196 0.019459 -0.095955
vn 0.006269 0.090191 -0.995905
vn 0.171359 0.036573 -0.984529
vn 0.000277 0.000045 1.000000
vn -0.199882 -0.006557 0.979798
vn -0.194771 0.138175 -0.971067
vn 0.169561 0.000483 0.985520
vn 0.999975 0.000891 -0.006989
vn 0.207367 0.135223 -0.968872
vn 0.878700 0.051512 -0.474587
vn 0.999893 0.001467 -0.014528
vn 0.790565 0.001480 0.612376
vn -0.616159 0.037914 -0.786709
vn -0.762492 0.085129 0.641373
vn -0.143583 0.705837 0.693670
vn -0.002012 0.708526 0.705682
vn -0.002221 0.709437 -0.704765
vn 0.161588 0.710829 -0.684552
vn 0.119170 0.708584 0.695491
vn -0.157639 0.708917 -0.687449
vn 0.438710 0.653304 -0.617031
vn 0.849876 0.379427 0.365712
vn -0.455486 0.716695 -0.528092
vn -0.796954 0.402275 0.450599
vt 0.981617 0.778248
vt 0.983835 0.835510
vt 0.970068 0.836118
vt 0.967933 0.779420
vt 0.351432 0.258995
vt 0.409225 0.237740
vt 0.411070 0.319834
vt 0.355898 0.357074
vt 0.982800 0.681109
vt 0.981589 0.721560
vt 0.968318 0.721263
vt 0.969656 0.680604
vt 0.485822 0.307919
vt 0.484274 0.379683
vt 0.414683 0.399806
vt 0.485822 0.228769
vt 0.984515 0.914381
vt 0.980923 0.959274
vt 0.960881 0.957682
vt 0.964784 0.911898
vt 0.986687 0.640312
vt 0.973564 0.639461
vt 0.560574 0.319834
vt 0.556231 0.396831
vt 0.562414 0.237740
vt 1.002438 0.409171
vt 0.999590 0.451155
vt 0.980966 0.449881
vt 0.983813 0.407916
vt 0.991016 0.577500
vt 0.989435 0.604802
vt 0.976575 0.603139
vt 0.978167 0.576665
vt 0.988957 0.614640
vt 0.975791 0.613442
vt 0.618118 0.395654
vt 0.602385 0.404932
vt 0.997439 0.482649
vt 0.978815 0.481368
vt 0.994212 0.529381
vt 0.981376 0.528516
vt 0.619941 0.257628
vt 0.617365 0.346854
vt 0.980933 0.751103
vt 0.967416 0.751352
vt 0.361983 0.405430
vt 0.987148 0.886903
vt 0.967486 0.887604
vt 0.407201 0.156216
vt 0.485822 0.149408
vt 0.485822 0.228769
vt 0.409227 0.237740
vt 0.963835 0.836444
vt 0.351478 0.946051
vt 0.445350 0.945597
vt 0.445417 0.958672
vt 0.351542 0.959126
vt 0.563377 0.156277
vt 0.562396 0.237740
vt 0.276547 0.946369
vt 0.276586 0.959444
vt 0.539198 0.945100
vt 0.539285 0.958175
vt 0.619923 0.257628
vt 0.619941 0.170891
vt 0.975587 0.528115
vt 0.613289 0.944655
vt 0.613376 0.957730
vt 0.351456 0.258995
vt 0.368604 0.172429
g Portal6
usemtl Material1
f 18/1/18 17/2/17 2/3/2 1/4/1 
f 2/5/2 5/6/5 4/7/4 1/8/1 
f 19/9/19 20/10/20 3/11/3 6/12/6 
f 4/7/4 7/13/7 6/14/6 3/15/3 
f 5/6/5 8/16/8 7/13/7 4/7/4 
f 22/17/22 21/18/21 33/19/33 32/20/32 
f 23/21/23 19/9/19 6/12/6 9/22/9 
f 7/13/7 10/23/10 9/24/9 6/14/6 
f 8/16/8 11/25/11 10/23/10 7/13/7 
f 21/26/21 24/27/24 36/28/36 33/29/33 
f 25/30/25 27/31/27 16/32/16 12/33/12 
f 27/31/27 26/34/26 14/35/14 16/32/16 
f 16/36/16 14/37/14 12/43/12 
f 24/27/24 29/38/29 39/39/39 36/28/36 
f 29/38/29 28/40/28 15/41/15 39/39/39 
f 28/40/28 25/30/25 12/33/12 15/41/15 
f 11/25/11 15/42/15 12/43/12 10/23/10 
f 26/34/26 23/21/23 9/22/9 14/35/14 
f 9/24/9 10/23/10 12/43/12 14/37/14 
f 30/44/30 18/1/18 1/4/1 13/45/13 
f 20/10/20 30/44/30 13/45/13 3/11/3 
f 3/15/3 13/46/13 1/8/1 4/7/4 
f 17/2/17 31/47/31 41/48/41 2/3/2 
f 31/47/31 22/17/22 32/20/32 41/48/41 
f 32/49/32 33/50/33 34/51/34 35/52/35 
f 41/48/41 40/53/40 2/3/2 
f 35/54/35 34/55/34 8/56/8 5/57/5 
f 33/50/33 36/58/36 37/59/37 34/51/34 
f 40/60/40 35/54/35 5/57/5 2/61/2 
f 34/55/34 37/62/37 11/63/11 8/56/8 
f 38/64/38 37/59/37 36/58/36 39/65/39 
f 38/66/38 39/39/39 15/41/15 
f 37/62/37 38/67/38 15/68/15 11/63/11 
f 32/49/32 35/52/35 40/69/40 41/70/41 
