mtllib Portal5.mtl
o Portal5.obj
v -0.440149 0.040893 0.112423
v -0.228826 0.041281 0.010449
v -0.091524 0.041799 -0.087901
v -0.435749 0.040699 -0.203010
v -0.432514 0.040764 -0.432386
v 0.007731 0.041281 -0.226109
v -0.258934 0.040828 -0.430714
v 0.113219 0.040893 -0.431850
v -0.439956 -0.047040 0.112488
v -0.172017 -0.046328 0.342187
v -0.434133 -0.046910 0.439567
v 0.011420 -0.045422 0.253737
v 0.249079 -0.045422 0.016078
v 0.280396 -0.039405 0.294500
v -0.435492 -0.047234 -0.203010
v -0.432386 -0.047169 -0.432321
v 0.338953 -0.046328 -0.168781
v -0.257740 -0.047105 -0.436154
v 0.114915 -0.047040 -0.439567
v 0.440215 -0.046975 -0.437552
v -0.172468 0.081268 0.342122
v -0.228956 0.080945 0.010449
v -0.440214 0.080557 0.112423
v -0.434391 0.080686 0.439502
v 0.010579 0.082174 0.253154
v -0.091718 0.081462 -0.088095
v 0.279294 0.088192 0.293400
v 0.248495 0.082174 0.015237
v 0.338887 0.081268 -0.169234
v 0.007731 0.080945 -0.226239
v 0.440150 0.080621 -0.427839
v 0.112713 0.080557 -0.429553
vn -0.932926 0.269451 -0.238839
vn -0.287039 0.830047 -0.478154
vn -0.632736 0.445348 -0.633491
vn -0.708736 0.705404 -0.009931
vn -0.306329 0.902517 -0.302697
vn -0.475172 0.829362 -0.293888
vn -0.010768 0.732318 -0.680878
vn -0.235318 0.323724 -0.916422
vn -0.999995 -0.002563 0.001828
vn 0.391716 0.001593 0.920085
vn -0.563520 -0.000871 0.826102
vn 0.148845 0.002892 0.988856
vn 0.985529 0.007601 0.169338
vn 0.693394 0.009153 0.720501
vn -0.999902 -0.002205 -0.013845
vn -0.710103 0.041668 -0.702864
vn 0.918540 0.004365 0.395303
vn -0.015533 0.074349 -0.997111
vn -0.001489 0.081579 -0.996666
vn 0.823387 0.067863 -0.563408
vn 0.274187 0.708756 0.649989
vn -0.363081 0.707109 -0.606769
vn -0.733258 0.509078 -0.450747
vn -0.764855 0.461243 0.449723
vn 0.094320 0.728159 0.678887
vn -0.394103 0.830064 -0.394560
vn 0.528133 0.647597 0.549267
vn 0.676945 0.727970 0.108652
vn 0.648038 0.709735 0.276267
vn -0.602767 0.705705 -0.372361
vn 0.427944 0.513319 -0.743886
vn -0.440373 0.526339 -0.727351
vt 0.891708 0.677863
vt 0.911237 0.678575
vt 0.908282 0.749764
vt 0.880704 0.748730
vt 0.905769 0.809698
vt 0.878564 0.808588
vt 0.903701 0.852737
vt 0.876867 0.851539
vt 0.884854 0.127657
vt 0.918096 0.126345
vt 0.921850 0.199313
vt 0.888605 0.200542
vt 0.900208 0.909730
vt 0.873464 0.908422
vt 0.893989 0.606277
vt 0.914257 0.607020
vt 0.622096 0.259276
vt 0.623288 0.344699
vt 0.679325 0.286891
vt 0.716509 0.313526
vt 0.743388 0.350955
vt 0.624164 0.406817
vt 0.923857 0.252865
vt 0.890611 0.254064
vt 0.896567 0.508315
vt 0.919225 0.508906
vt 0.916788 0.552668
vt 0.895492 0.551853
vt 0.671172 0.406364
vt 0.893149 0.326426
vt 0.926487 0.327700
vt 0.923202 0.412468
vt 0.900273 0.412009
vt 0.771956 0.406672
vt 0.623656 0.170698
vt 0.694588 0.197070
vt 0.679290 0.286891
vt 0.622079 0.259276
vt 0.889916 0.411744
vt 0.688411 0.979307
vt 0.688511 0.966330
vt 0.765260 0.966907
vt 0.765179 0.979884
vt 0.883078 0.677637
vt 0.744159 0.221164
vt 0.716456 0.313579
vt 0.820436 0.980206
vt 0.820537 0.967229
vt 0.876227 0.967768
vt 0.876106 0.980745
vt 0.816931 0.210265
vt 0.808590 0.285595
vt 0.743388 0.350990
vt 0.833070 0.335552
vt 0.860493 0.405586
vt 0.771819 0.406050
vt 0.951089 0.968373
vt 0.951750 0.981356
g Portal5
usemtl Material1
f 1/1/1 9/2/9 11/3/11 24/4/24 
f 24/4/24 11/3/11 10/5/10 21/6/21 
f 21/6/21 10/5/10 12/7/12 25/8/25 
f 27/9/27 14/10/14 13/11/13 28/12/28 
f 25/8/25 12/7/12 14/13/14 27/14/27 
f 4/15/4 15/16/15 9/2/9 1/1/1 
f 1/17/1 2/19/2 4/18/4 
f 2/19/2 3/20/3 6/21/6 5/22/5 
f 28/12/28 13/11/13 17/23/17 29/24/29 
f 7/25/7 18/26/18 16/27/16 5/28/5 
f 5/22/5 6/21/6 7/29/7 
f 31/30/31 20/31/20 19/32/19 8/33/8 
f 29/24/29 17/23/17 20/31/20 31/30/31 
f 5/28/5 16/27/16 15/16/15 4/15/4 
f 2/19/2 5/22/5 4/18/4 
f 8/33/8 19/32/19 18/26/18 7/25/7 
f 6/21/6 8/34/8 7/29/7 
f 24/35/24 21/36/21 22/37/22 23/38/23 
f 32/39/32 31/30/31 8/33/8 
f 1/40/1 23/41/23 22/42/22 2/43/2 
f 24/4/24 23/44/23 1/1/1 
f 21/36/21 25/45/25 26/46/26 22/37/22 
f 3/47/3 26/48/26 30/49/30 6/50/6 
f 2/43/2 22/42/22 26/48/26 3/47/3 
f 25/45/25 27/51/27 28/52/28 26/46/26 
f 30/53/30 29/54/29 31/55/31 32/56/32 
f 6/50/6 30/49/30 32/57/32 8/58/8 
f 26/46/26 28/52/28 29/54/29 30/53/30 
