mtllib Carrot1.mtl
o Carrot1.obj
v -0.000326 0.149687 -0.014591
v -0.008263 0.149687 -0.023180
v 0.008263 0.149687 -0.023180
v -0.000088 0.086217 0.013293
v -0.008677 0.086217 0.004704
v -0.000088 0.086217 -0.003885
v 0.008677 0.086217 0.004704
v -0.000326 0.149687 -0.031769
v 0.000862 0.168659 0.035580
v -0.007727 0.168659 0.026991
v 0.009451 0.168659 0.026991
v 0.000862 0.104557 0.008527
v -0.007727 0.104557 -0.000062
v 0.000862 0.104557 -0.008651
v 0.009451 0.104557 -0.000062
v 0.000862 0.168659 0.018402
v 0.007976 0.177456 0.006511
v -0.000613 0.177456 -0.002078
v 0.016565 0.177456 -0.002078
v 0.007976 0.104549 0.006511
v -0.000613 0.104549 -0.002078
v 0.007976 0.104549 -0.010667
v 0.016565 0.104549 -0.002078
v 0.007976 0.177456 -0.010667
v -0.021213 0.117049 0.021213
v 0.000000 0.117049 0.030000
v -0.030000 0.117049 0.000000
v 0.000000 0.117049 0.000000
v 0.021213 0.117049 0.021213
v 0.030000 0.117049 -0.000000
v -0.028859 -0.016701 0.028859
v 0.000000 -0.016701 0.040812
v -0.040812 -0.016701 0.000000
v 0.028859 -0.016701 0.028859
v 0.040812 -0.016701 0.000000
v -0.021213 0.117049 -0.021213
v 0.000000 0.117049 -0.030000
v 0.021213 0.117049 -0.021213
v -0.028859 -0.016701 -0.028859
v 0.000000 -0.016701 -0.040812
v 0.028859 -0.016701 -0.028859
v 0.000000 0.088422 -0.056339
v -0.039838 0.088422 -0.039838
v -0.056339 0.088422 0.000000
v -0.039838 0.088422 0.039838
v 0.000000 0.088422 0.056339
v 0.039838 0.088422 0.039838
v 0.056339 0.088422 0.000000
v 0.039838 0.088422 -0.039838
vn -0.002411 0.886918 0.461920
vn -0.802894 0.596121 -0.000225
vn 0.798775 0.601630 -0.000836
vn -0.004770 0.406116 0.913809
vn -0.999999 0.001258 -0.000280
vn -0.004105 -0.401182 -0.915989
vn 0.999988 0.004684 -0.001047
vn -0.003113 0.719407 -0.694582
vn -0.000000 0.725387 0.688341
vn -0.804642 0.593761 0.000000
vn 0.804642 0.593761 0.000000
vn -0.000000 -0.388813 0.921317
vn -1.000000 0.000000 0.000000
vn 0.000000 0.388813 -0.921317
vn 1.000000 0.000000 0.000000
vn 0.000000 0.884701 -0.466158
vn -0.000000 0.816497 0.577350
vn -0.816497 0.577350 0.000000
vn 0.816496 0.577350 0.000000
vn -0.000000 0.000000 1.000000
vn -1.000000 0.000000 0.000000
vn -0.000000 0.000000 -1.000000
vn 1.000000 0.000000 0.000000
vn -0.000000 0.816497 -0.577350
vn -0.277800 0.919594 0.277801
vn 0.000001 0.919594 0.392869
vn -0.392870 0.919594 -0.000000
vn 0.000000 1.000000 -0.000000
vn 0.277801 0.919594 0.277801
vn 0.392870 0.919594 0.000000
vn -0.699518 -0.146113 0.699518
vn 0.000000 -0.146113 0.989268
vn -0.989268 -0.146113 0.000000
vn 0.699518 -0.146113 0.699518
vn 0.989268 -0.146113 -0.000000
vn -0.277801 0.919594 -0.277800
vn 0.000000 0.919594 -0.392869
vn 0.277801 0.919594 -0.277801
vn -0.699518 -0.146113 -0.699518
vn -0.000000 -0.146113 -0.989268
vn 0.699518 -0.146113 -0.699518
vn -0.000000 0.301725 -0.953395
vn -0.674152 0.301725 -0.674152
vn -0.953395 0.301725 -0.000000
vn -0.674152 0.301725 0.674152
vn 0.000000 0.301725 0.953395
vn 0.674152 0.301725 0.674152
vn 0.953395 0.301725 -0.000000
vn 0.674152 0.301725 -0.674152
vt 0.571377 0.342104
vt 0.609486 0.301652
vt 0.609118 0.339483
vt 0.570203 0.302827
vt 0.730839 0.069656
vt 0.506530 0.072963
vt 0.517326 0.034946
vt 0.740452 0.031694
vt 0.720884 0.107811
vt 0.496159 0.110958
vt 0.732132 0.143951
vt 0.507551 0.148278
vt 0.743217 0.179811
vt 0.519704 0.185692
vt 0.533942 0.414591
vt 0.573243 0.453886
vt 0.533942 0.453886
vt 0.573243 0.414591
vt 0.200233 0.506191
vt 0.192432 0.730302
vt 0.154245 0.739969
vt 0.162173 0.514823
vt 0.087390 0.491171
vt 0.079468 0.716310
vt 0.041403 0.724949
vt 0.049209 0.500837
vt 0.124753 0.502885
vt 0.116889 0.728255
vt 0.657110 0.304061
vt 0.696405 0.343362
vt 0.657110 0.343362
vt 0.696405 0.304061
vt 0.462216 0.780474
vt 0.227294 0.777768
vt 0.227153 0.738368
vt 0.463207 0.741292
vt 0.464280 0.662704
vt 0.228227 0.659779
vt 0.229216 0.620592
vt 0.464139 0.623304
vt 0.463888 0.702032
vt 0.227545 0.699039
vt 0.737268 0.741264
vt 0.737268 0.806595
vt 0.683716 0.777694
vt 0.662875 0.724240
vt 0.685663 0.681031
vt 0.737268 0.675933
vt 0.790827 0.704828
vt 0.811668 0.758282
vt 0.788880 0.801497
vt 0.737268 0.886577
vt 0.622902 0.829418
vt 0.576129 0.713084
vt 0.626348 0.600385
vt 0.737268 0.595952
vt 0.851642 0.653110
vt 0.898415 0.769444
vt 0.848196 0.882137
vt 0.737268 0.992883
vt 0.564742 0.922187
vt 0.486623 0.750298
vt 0.554111 0.568248
vt 0.737268 0.489646
vt 0.909801 0.560341
vt 0.987920 0.732230
vt 0.920432 0.914281
g Carrot2
usemtl defaultMat
f 1/1/1 8/2/8 2/3/2 
f 1/1/1 3/4/3 8/2/8 
f 3/5/3 7/6/7 6/7/6 8/8/8 
f 1/9/1 4/10/4 7/6/7 3/5/3 
f 2/11/2 5/12/5 4/10/4 1/9/1 
f 8/13/8 6/14/6 5/12/5 2/11/2 
f 9/15/9 16/16/16 10/17/10 
f 9/15/9 11/18/11 16/16/16 
f 11/19/11 15/20/15 14/21/14 16/22/16 
f 9/23/9 12/24/12 15/25/15 11/26/11 
f 10/27/10 13/28/13 12/24/12 9/23/9 
f 16/22/16 14/21/14 13/28/13 10/27/10 
f 17/29/17 24/30/24 18/31/18 
f 17/29/17 19/32/19 24/30/24 
f 19/33/19 23/34/23 22/35/22 24/36/24 
f 17/37/17 20/38/20 23/39/23 19/40/19 
f 18/41/18 21/42/21 20/38/20 17/37/17 
f 24/36/24 22/35/22 21/42/21 18/41/18 
f 28/43/28 37/44/37 36/45/36 
f 28/43/28 36/45/36 27/46/27 
f 28/43/28 27/46/27 25/47/25 
f 28/43/28 25/47/25 26/48/26 
f 28/43/28 26/48/26 29/49/29 
f 28/43/28 29/49/29 30/50/30 
f 28/43/28 30/50/30 38/51/38 
f 28/43/28 38/51/38 37/44/37 
f 37/44/37 42/52/42 43/53/43 36/45/36 
f 36/45/36 43/53/43 44/54/44 27/46/27 
f 27/46/27 44/54/44 45/55/45 25/47/25 
f 25/47/25 45/55/45 46/56/46 26/48/26 
f 26/48/26 46/56/46 47/57/47 29/49/29 
f 29/49/29 47/57/47 48/58/48 30/50/30 
f 30/50/30 48/58/48 49/59/49 38/51/38 
f 38/51/38 49/59/49 42/52/42 37/44/37 
f 42/52/42 40/60/40 39/61/39 43/53/43 
f 43/53/43 39/61/39 33/62/33 44/54/44 
f 44/54/44 33/62/33 31/63/31 45/55/45 
f 45/55/45 31/63/31 32/64/32 46/56/46 
f 46/56/46 32/64/32 34/65/34 47/57/47 
f 47/57/47 34/65/34 35/66/35 48/58/48 
f 48/58/48 35/66/35 41/67/41 49/59/49 
f 49/59/49 41/67/41 40/60/40 42/52/42 
