mtllib LootPotionSmall.mtl
o LootPotionSmall.obj
v -0.056238 0.571563 -0.056823
v 0.000011 0.571542 -0.080137
v -0.079573 0.571563 -0.000487
v -0.056259 0.571585 0.055739
v -0.000011 0.571585 0.079032
v 0.056281 0.571585 0.055718
v 0.079617 0.571585 -0.000531
v 0.056281 0.571563 -0.056801
v -0.116863 0.419741 -0.116841
v -0.117989 0.375236 -0.118054
v 0.000011 0.375193 -0.166914
v 0.000011 0.419654 -0.165181
v -0.165462 0.419871 0.000011
v -0.166936 0.375301 -0.000054
v -0.117123 0.420022 0.117144
v -0.118098 0.375344 0.118011
v 0.000011 0.420087 0.165744
v 0.000011 0.375388 0.166957
v 0.117123 0.420044 0.117144
v 0.118076 0.375344 0.118011
v 0.165462 0.419871 0.000011
v 0.166914 0.375258 -0.000054
v 0.116863 0.419741 -0.116841
v 0.117989 0.375236 -0.118033
v -0.118293 0.323971 -0.118488
v 0.000011 0.323884 -0.167434
v -0.167413 0.324166 -0.000184
v -0.118466 0.324339 0.118314
v 0.000011 0.324426 0.167434
v 0.118466 0.324339 0.118293
v 0.167413 0.324166 -0.000184
v 0.118314 0.323949 -0.118466
v -0.101262 0.252014 -0.101522
v 0.000011 0.251949 -0.143427
v -0.143275 0.252209 -0.000249
v -0.101349 0.252361 0.101111
v 0.000011 0.252426 0.143080
v 0.101327 0.252382 0.101089
v 0.143253 0.252187 -0.000249
v 0.101262 0.252035 -0.101501
v -0.079530 0.176893 -0.079790
v 0.000011 0.176872 -0.112746
v -0.112507 0.176958 -0.000249
v -0.079573 0.177002 0.079357
v 0.000011 0.177045 0.112313
v 0.079573 0.176980 0.079313
v 0.112529 0.176937 -0.000249
v 0.079552 0.176872 -0.079790
v -0.056411 0.122985 -0.056584
v 0.000011 0.123028 -0.080007
v -0.079595 0.122855 -0.000141
v -0.056194 0.122768 0.056043
v 0.000011 0.122703 0.079270
v 0.056216 0.122747 0.056043
v 0.079638 0.122877 -0.000162
v 0.056432 0.122985 -0.056584
v -0.042522 0.089379 -0.042565
v 0.000011 0.089401 -0.060376
v -0.059683 0.089292 -0.000032
v -0.041850 0.089184 0.041850
v 0.000011 0.089141 0.058989
v 0.041872 0.089184 0.041850
v 0.059704 0.089271 -0.000032
v 0.042544 0.089357 -0.042565
v 0.000011 0.064202 0.000531
v -0.000011 0.441018 -0.084167
v -0.059531 0.441083 -0.059466
v -0.084015 0.441105 0.000076
v -0.059314 0.441170 0.059379
v -0.000011 0.441170 0.083885
v 0.059314 0.441170 0.059358
v 0.084037 0.441105 0.000076
v 0.059509 0.441061 -0.059466
v 0.000011 0.561640 -0.122951
v -0.086572 0.561727 -0.087113
v -0.122496 0.561857 -0.000487
v -0.086658 0.562008 0.086138
v -0.000011 0.562073 0.122041
v 0.086637 0.562008 0.086095
v 0.122540 0.561835 -0.000509
v 0.086572 0.561705 -0.087092
v 0.000011 0.649219 -0.000553
v 0.000011 0.648064 -0.106220
v 0.074690 0.648092 -0.075253
v -0.074640 0.648092 -0.075253
v -0.105635 0.648092 -0.000489
v -0.074668 0.648121 0.074161
v -0.000018 0.648121 0.105072
v 0.074690 0.648121 0.074133
v 0.105657 0.648121 -0.000546
vn -0.604375 0.518680 -0.604733
vn -0.000065 0.518472 -0.855095
vn -0.854232 0.519891 -0.000418
vn -0.603634 0.521423 0.603112
vn -0.000214 0.522538 0.852616
vn 0.602922 0.522499 0.602893
vn 0.853448 0.521178 -0.000662
vn 0.603904 0.519245 -0.604719
vn -0.538567 0.646685 -0.540134
vn -0.706572 0.023779 -0.707241
vn 0.000100 0.024353 -0.999703
vn 0.000074 0.646334 -0.763055
vn -0.763029 0.646363 -0.001375
vn -0.999765 0.021686 -0.000702
vn -0.540705 0.645626 0.539264
vn -0.707318 0.019526 0.706625
vn 0.000052 0.644909 0.764260
vn 0.000090 0.018467 0.999829
vn 0.541397 0.644591 0.539807
vn 0.707382 0.018941 0.706578
vn 0.764367 0.644780 -0.001428
vn 0.999783 0.020801 -0.000642
vn 0.539427 0.645538 -0.540647
vn 0.706688 0.023059 -0.707149
vn -0.698151 -0.156279 -0.698686
vn 0.000106 -0.155824 -0.987785
vn -0.987566 -0.157201 -0.000520
vn -0.698446 -0.158044 0.697994
vn 0.000131 -0.158315 0.987389
vn 0.698498 -0.158009 0.697949
vn 0.987601 -0.156982 -0.000449
vn 0.698268 -0.155999 -0.698632
vn -0.662911 -0.347888 -0.662965
vn 0.000047 -0.347731 -0.937594
vn -0.937356 -0.348372 -0.000109
vn -0.662639 -0.348901 0.662704
vn 0.000187 -0.349212 0.937044
vn 0.662621 -0.349122 0.662607
vn 0.937286 -0.348561 0.000018
vn 0.662933 -0.347962 -0.662905
vn -0.631640 -0.450557 -0.630896
vn -0.000036 -0.450720 -0.892665
vn -0.892817 -0.450418 0.000555
vn -0.631070 -0.450553 0.631469
vn 0.000078 -0.450550 0.892751
vn 0.631047 -0.450557 0.631489
vn 0.892614 -0.450822 0.000591
vn 0.631420 -0.450899 -0.630872
vn -0.609609 -0.511785 -0.605354
vn -0.000278 -0.512880 -0.858460
vn -0.858661 -0.512528 0.004010
vn -0.604372 -0.514880 0.607974
vn -0.000260 -0.517375 0.855759
vn 0.602581 -0.518449 0.606719
vn 0.855641 -0.517554 0.003899
vn 0.607832 -0.515245 -0.604205
vn -0.463547 -0.758343 -0.458302
vn -0.000392 -0.759600 -0.650390
vn -0.652650 -0.757643 0.004934
vn -0.458990 -0.757815 0.463728
vn -0.000231 -0.758945 0.651155
vn 0.456662 -0.760251 0.462037
vn 0.648842 -0.760907 0.004995
vn 0.461381 -0.760587 -0.456766
vn -0.000141 -0.999991 0.004203
vn -0.000010 0.510828 -0.859683
vn -0.607745 0.511478 -0.607483
vn -0.858376 0.513020 0.000477
vn -0.606107 0.514764 0.606343
vn 0.000102 0.515672 0.856786
vn 0.606036 0.514950 0.606256
vn 0.858177 0.513353 0.000347
vn 0.607646 0.511727 -0.607373
vn -0.000130 0.525578 -0.850745
vn -0.602070 0.525914 -0.600772
vn -0.849482 0.527616 0.001188
vn -0.599184 0.530060 0.600013
vn -0.000140 0.531782 0.846881
vn 0.598246 0.531538 0.599640
vn 0.848252 0.529592 0.000977
vn 0.601258 0.527027 -0.600610
vn -0.000068 1.000000 -0.000229
vn 0.000061 0.617195 -0.786810
vn 0.556204 0.617177 -0.556534
vn -0.556300 0.617250 -0.556357
vn -0.786689 0.617350 0.000023
vn -0.556179 0.617444 0.556262
vn 0.000025 0.617473 0.786592
vn 0.556040 0.617478 0.556364
vn 0.786532 0.617549 -0.000055
vt 0.483116 0.434955
vt 0.407565 0.434929
vt 0.407568 0.311264
vt 0.483107 0.311265
vt 0.407568 0.195616
vt 0.483101 0.195615
vt 0.407564 0.097527
vt 0.483100 0.097534
vt 0.407540 0.003263
vt 0.483120 0.003291
vt 0.483295 0.992920
vt 0.407424 0.992965
vt 0.407517 0.854532
vt 0.483178 0.854531
vt 0.407546 0.710052
vt 0.483145 0.710044
vt 0.407557 0.572178
vt 0.483127 0.572178
vt 0.340145 0.434883
vt 0.340154 0.311262
vt 0.340171 0.195617
vt 0.340189 0.097521
vt 0.340219 0.003239
vt 0.340145 0.993000
vt 0.340142 0.854533
vt 0.340130 0.710055
vt 0.340138 0.572178
vt 0.260353 0.434917
vt 0.260337 0.311261
vt 0.260325 0.195619
vt 0.260316 0.097514
vt 0.260313 0.003237
vt 0.260478 0.992955
vt 0.260420 0.854532
vt 0.260391 0.710052
vt 0.260370 0.572178
vt 0.166612 0.434890
vt 0.166624 0.311256
vt 0.166633 0.195621
vt 0.166639 0.097509
vt 0.166639 0.003252
vt 0.166523 0.992882
vt 0.166558 0.854531
vt 0.166581 0.710029
vt 0.166597 0.572178
vt 0.085556 0.434814
vt 0.085568 0.311248
vt 0.085576 0.195626
vt 0.085581 0.097504
vt 0.085581 0.003276
vt 0.085493 0.992802
vt 0.085514 0.854528
vt 0.085530 0.709992
vt 0.085544 0.572178
vt 0.009302 0.434703
vt 0.009270 0.311236
vt 0.009246 0.195632
vt 0.009232 0.097493
vt 0.009229 0.003288
vt 0.009441 0.992745
vt 0.009401 0.854527
vt 0.009369 0.709955
vt 0.009336 0.572177
vt 0.912386 0.188521
vt 0.912391 0.273246
vt 0.852192 0.213417
vt 0.827233 0.273325
vt 0.852138 0.333439
vt 0.912124 0.358524
vt 0.972377 0.333574
vt 0.997277 0.273325
vt 0.972581 0.213284
vt 0.563798 0.311270
vt 0.563843 0.435009
vt 0.563765 0.195612
vt 0.563742 0.097558
vt 0.563728 0.003372
vt 0.564078 0.854530
vt 0.564191 0.992808
vt 0.563976 0.710036
vt 0.563900 0.572178
vt 0.977812 0.519422
vt 0.977760 0.598033
vt 0.838750 0.597986
vt 0.838745 0.519521
vt 0.820533 0.311246
vt 0.820517 0.434785
vt 0.755586 0.434840
vt 0.755541 0.311252
vt 0.996623 0.093970
vt 0.971249 0.155184
vt 0.910059 0.093970
vt 0.820546 0.195628
vt 0.755504 0.195624
vt 0.977898 0.441028
vt 0.838736 0.440927
vt 0.820557 0.097491
vt 0.755473 0.097503
vt 0.971249 0.032780
vt 0.820565 0.003262
vt 0.755440 0.003257
vt 0.978018 0.362482
vt 0.838724 0.362481
vt 0.820466 0.854527
vt 0.820451 0.992739
vt 0.755803 0.992781
vt 0.755749 0.854527
vt 0.910036 0.007430
vt 0.820482 0.709957
vt 0.755691 0.709975
vt 0.977892 0.912127
vt 0.978010 0.991959
vt 0.838725 0.992113
vt 0.838737 0.912112
vt 0.820500 0.572177
vt 0.755636 0.572178
vt 0.848869 0.032757
vt 0.977808 0.833691
vt 0.838745 0.833617
vt 0.823495 0.093924
vt 0.977758 0.755091
vt 0.838750 0.755002
vt 0.848892 0.155184
vt 0.977743 0.676559
vt 0.838752 0.676528
vt 0.910059 0.180558
g LootPotionSmall
usemtl defaultMat
f 12/1/12 11/2/11 10/3/10 9/4/9 
f 9/4/9 10/3/10 14/5/14 13/6/13 
f 13/6/13 14/5/14 16/7/16 15/8/15 
f 15/8/15 16/7/16 18/9/18 17/10/17 
f 17/11/17 18/12/18 20/13/20 19/14/19 
f 19/14/19 20/13/20 22/15/22 21/16/21 
f 21/16/21 22/15/22 24/17/24 23/18/23 
f 23/18/23 24/17/24 11/2/11 12/1/12 
f 11/2/11 26/19/26 25/20/25 10/3/10 
f 10/3/10 25/20/25 27/21/27 14/5/14 
f 14/5/14 27/21/27 28/22/28 16/7/16 
f 16/7/16 28/22/28 29/23/29 18/9/18 
f 18/12/18 29/24/29 30/25/30 20/13/20 
f 20/13/20 30/25/30 31/26/31 22/15/22 
f 22/15/22 31/26/31 32/27/32 24/17/24 
f 24/17/24 32/27/32 26/19/26 11/2/11 
f 26/19/26 34/28/34 33/29/33 25/20/25 
f 25/20/25 33/29/33 35/30/35 27/21/27 
f 27/21/27 35/30/35 36/31/36 28/22/28 
f 28/22/28 36/31/36 37/32/37 29/23/29 
f 29/24/29 37/33/37 38/34/38 30/25/30 
f 30/25/30 38/34/38 39/35/39 31/26/31 
f 31/26/31 39/35/39 40/36/40 32/27/32 
f 32/27/32 40/36/40 34/28/34 26/19/26 
f 34/28/34 42/37/42 41/38/41 33/29/33 
f 33/29/33 41/38/41 43/39/43 35/30/35 
f 35/30/35 43/39/43 44/40/44 36/31/36 
f 36/31/36 44/40/44 45/41/45 37/32/37 
f 37/33/37 45/42/45 46/43/46 38/34/38 
f 38/34/38 46/43/46 47/44/47 39/35/39 
f 39/35/39 47/44/47 48/45/48 40/36/40 
f 40/36/40 48/45/48 42/37/42 34/28/34 
f 42/37/42 50/46/50 49/47/49 41/38/41 
f 41/38/41 49/47/49 51/48/51 43/39/43 
f 43/39/43 51/48/51 52/49/52 44/40/44 
f 44/40/44 52/49/52 53/50/53 45/41/45 
f 45/42/45 53/51/53 54/52/54 46/43/46 
f 46/43/46 54/52/54 55/53/55 47/44/47 
f 47/44/47 55/53/55 56/54/56 48/45/48 
f 48/45/48 56/54/56 50/46/50 42/37/42 
f 50/46/50 58/55/58 57/56/57 49/47/49 
f 49/47/49 57/56/57 59/57/59 51/48/51 
f 51/48/51 59/57/59 60/58/60 52/49/52 
f 52/49/52 60/58/60 61/59/61 53/50/53 
f 53/51/53 61/60/61 62/61/62 54/52/54 
f 54/52/54 62/61/62 63/62/63 55/53/55 
f 55/53/55 63/62/63 64/63/64 56/54/56 
f 56/54/56 64/63/64 58/55/58 50/46/50 
f 58/64/58 65/65/65 57/66/57 
f 57/66/57 65/65/65 59/67/59 
f 59/67/59 65/65/65 60/68/60 
f 60/68/60 65/65/65 61/69/61 
f 61/69/61 65/65/65 62/70/62 
f 62/70/62 65/65/65 63/71/63 
f 63/71/63 65/65/65 64/72/64 
f 64/72/64 65/65/65 58/64/58 
f 12/1/12 9/4/9 67/73/67 66/74/66 
f 9/4/9 13/6/13 68/75/68 67/73/67 
f 13/6/13 15/8/15 69/76/69 68/75/68 
f 15/8/15 17/10/17 70/77/70 69/76/69 
f 17/11/17 19/14/19 71/78/71 70/79/70 
f 19/14/19 21/16/21 72/80/72 71/78/71 
f 21/16/21 23/18/23 73/81/73 72/80/72 
f 23/18/23 12/1/12 66/74/66 73/81/73 
f 7/82/7 8/83/8 84/84/84 90/85/90 
f 1/86/1 2/87/2 74/88/74 75/89/75 
f 90/90/90 84/91/84 82/92/82 
f 3/93/3 1/86/1 75/89/75 76/94/76 
f 6/95/6 7/82/7 90/85/90 89/96/89 
f 4/97/4 3/93/3 76/94/76 77/98/77 
f 89/99/89 90/90/90 82/92/82 
f 5/100/5 4/97/4 77/98/77 78/101/78 
f 5/102/5 6/95/6 89/96/89 88/103/88 
f 6/104/6 5/105/5 78/106/78 79/107/79 
f 88/108/88 89/99/89 82/92/82 
f 7/109/7 6/104/6 79/107/79 80/110/80 
f 4/111/4 5/112/5 88/113/88 87/114/87 
f 8/115/8 7/109/7 80/110/80 81/116/81 
f 87/117/87 88/108/88 82/92/82 
f 2/87/2 8/115/8 81/116/81 74/88/74 
f 3/118/3 4/111/4 87/114/87 86/119/86 
f 86/120/86 87/117/87 82/92/82 
f 1/121/1 3/118/3 86/119/86 85/122/85 
f 85/123/85 86/120/86 82/92/82 
f 2/124/2 1/121/1 85/122/85 83/125/83 
f 83/126/83 85/123/85 82/92/82 
f 8/83/8 2/124/2 83/125/83 84/84/84 
f 84/91/84 83/126/83 82/92/82 
f 66/74/66 67/73/67 75/89/75 74/88/74 
f 67/73/67 68/75/68 76/94/76 75/89/75 
f 68/75/68 69/76/69 77/98/77 76/94/76 
f 69/76/69 70/77/70 78/101/78 77/98/77 
f 70/79/70 71/78/71 79/107/79 78/106/78 
f 71/78/71 72/80/72 80/110/80 79/107/79 
f 72/80/72 73/81/73 81/116/81 80/110/80 
f 73/81/73 66/74/66 74/88/74 81/116/81 
