mtllib LootPickAxe.mtl
o LootPickAxe.obj
v -0.093677 1.049454 0.052927
v 0.094159 1.050139 0.052063
v -0.094520 1.049454 -0.130530
v 0.093315 1.050139 -0.131394
v -0.075049 0.899658 0.052841
v 0.076625 0.900211 0.052144
v -0.075893 0.899658 -0.130615
v 0.075781 0.900211 -0.131313
v -0.213214 1.026396 -0.119231
v -0.212470 1.026396 0.042721
v -0.160781 0.903480 0.042483
v -0.161526 0.903480 -0.119469
v 0.213017 1.027948 0.040764
v 0.212273 1.027948 -0.121188
v 0.161483 0.904658 -0.120955
v 0.162228 0.904658 0.040997
v -0.356485 0.894346 -0.037594
v 0.357248 0.896950 -0.040877
v -0.057520 1.121833 -0.005927
v -0.000140 1.122042 0.026852
v 0.056935 1.122251 -0.006454
v -0.053777 0.095949 -0.005945
v 0.003602 0.096158 0.026834
v 0.060678 0.096368 -0.006471
v -0.057824 1.121833 -0.072010
v -0.000748 1.122042 -0.105316
v 0.056631 1.122251 -0.072537
v -0.054081 0.095949 -0.072028
v 0.002994 0.096158 -0.105333
v 0.060374 0.096368 -0.072554
vn -0.096891 0.699042 0.708486
vn 0.111557 0.698739 0.706626
vn -0.116651 0.697930 -0.706602
vn 0.091789 0.699754 -0.708463
vn -0.042250 -0.708821 0.704122
vn 0.066930 -0.709412 0.701609
vn -0.061756 -0.709857 -0.701633
vn 0.047417 -0.708470 -0.704146
vn -0.488971 0.550400 -0.676733
vn -0.471605 0.554517 0.685639
vn -0.153592 -0.740508 0.654261
vn -0.171891 -0.740360 -0.649862
vn 0.484939 0.553933 0.676751
vn 0.467546 0.557967 -0.685619
vn 0.158993 -0.739346 -0.654285
vn 0.177287 -0.739107 0.649839
vn -0.922336 -0.386367 0.004244
vn 0.925133 -0.379619 -0.004254
vn -0.749830 0.497258 0.436451
vn 0.002152 0.500004 0.866021
vn 0.565689 0.757993 0.324720
vn -0.562679 -0.757992 0.329909
vn 0.005806 -0.500004 0.866004
vn 0.753810 -0.497259 0.429539
vn -0.571207 0.753851 -0.324702
vn -0.005811 0.500001 -0.866005
vn 0.746176 0.502731 -0.436444
vn -0.750162 -0.502730 -0.429558
vn -0.002164 -0.500001 -0.866022
vn 0.568194 -0.753852 -0.329944
vt 0.331846 0.757610
vt 0.514780 0.758901
vt 0.513479 0.932106
vt 0.330545 0.930815
vt 0.339946 0.576549
vt 0.508841 0.579084
vt 0.526834 0.722076
vt 0.317671 0.718938
vt 0.851252 0.750276
vt 0.852710 0.625605
vt 0.981757 0.626761
vt 0.980298 0.751431
vt 0.354899 0.412858
vt 0.523812 0.412435
vt 0.544306 0.555091
vt 0.335120 0.555615
vt 0.604931 0.584357
vt 0.660015 0.702526
vt 0.213373 0.919836
vt 0.214521 0.766934
vt 0.202205 0.534329
vt 0.258747 0.416851
vt 0.973018 0.824506
vt 0.856820 0.823465
vt 0.619980 0.416026
vt 0.677124 0.533212
vt 0.631952 0.769880
vt 0.630804 0.922782
vt 0.185150 0.695329
vt 0.243739 0.578858
vt 0.859990 0.552530
vt 0.976188 0.553571
vt 0.840248 0.571773
vt 0.035909 0.842129
vt 0.023604 0.401355
vt 0.913001 0.987889
vt 0.855040 0.399324
vt 0.809416 0.847588
vt 0.008904 0.559249
vt 0.920007 0.389147
vt 0.982626 0.372392
vt 0.017364 0.372392
vt 0.017364 0.311246
vt 0.982626 0.311246
vt 0.017364 0.250099
vt 0.982626 0.250099
vt 0.017364 0.188953
vt 0.982626 0.188953
vt 0.017364 0.127807
vt 0.982626 0.127807
vt 0.017364 0.066660
vt 0.982626 0.066660
vt 0.017364 0.005514
vt 0.982626 0.005514
vt 0.124850 0.736130
vt 0.098610 0.781580
vt 0.046110 0.781580
vt 0.098600 0.690680
vt 0.019870 0.736130
vt 0.046110 0.690680
vt 0.771223 0.678641
vt 0.816682 0.704885
vt 0.816682 0.757375
vt 0.725765 0.704887
vt 0.771223 0.783621
vt 0.725765 0.757378
g LootPickAxe
usemtl defaultMat
f 1/1/1 2/2/2 4/3/4 3/4/3 
f 8/5/8 7/6/7 3/7/3 4/8/4 
f 7/9/7 8/10/8 6/11/6 5/12/5 
f 5/13/5 6/14/6 2/15/2 1/16/1 
f 3/7/3 7/6/7 12/17/12 9/18/9 
f 1/1/1 3/4/3 9/19/9 10/20/10 
f 5/13/5 1/16/1 10/21/10 11/22/11 
f 7/9/7 5/12/5 11/23/11 12/24/12 
f 2/15/2 6/14/6 16/25/16 13/26/13 
f 4/3/4 2/2/2 13/27/13 14/28/14 
f 8/5/8 4/8/4 14/29/14 15/30/15 
f 6/11/6 8/10/8 15/31/15 16/32/16 
f 9/18/9 12/17/12 17/33/17 
f 10/20/10 9/19/9 17/34/17 
f 11/22/11 10/21/10 17/35/17 
f 12/24/12 11/23/11 17/36/17 
f 13/26/13 16/25/16 18/37/18 
f 14/28/14 13/27/13 18/38/18 
f 15/30/15 14/29/14 18/39/18 
f 16/32/16 15/31/15 18/40/18 
f 26/41/26 29/42/29 28/43/28 25/44/25 
f 25/44/25 28/43/28 22/45/22 19/46/19 
f 19/46/19 22/45/22 23/47/23 20/48/20 
f 20/48/20 23/47/23 24/49/24 21/50/21 
f 21/50/21 24/49/24 30/51/30 27/52/27 
f 27/52/27 30/51/30 29/53/29 26/54/26 
f 19/55/19 20/56/20 21/57/21 25/58/25 
f 21/57/21 27/59/27 26/60/26 25/58/25 
f 24/61/24 23/62/23 22/63/22 30/64/30 
f 22/63/22 28/65/28 29/66/29 30/64/30 
