mtllib LootWeaponSword.mtl
o LootWeaponSword.obj
v 0.201000 0.688700 -0.096600
v 0.252700 0.821900 -0.094500
v 0.000200 0.713600 -0.108100
v -0.000200 0.828200 -0.108100
v 0.000200 0.713600 0.024300
v 0.201000 0.688700 0.013100
v 0.252700 0.821900 0.010700
v -0.000200 0.828200 0.024300
v -0.200600 0.687700 -0.096600
v -0.252700 0.820800 -0.094500
v -0.200600 0.687700 0.013100
v -0.252700 0.820800 0.010700
v 0.000300 0.113200 -0.088500
v 0.071700 0.202700 -0.087800
v 0.148000 0.201600 -0.042200
v 0.000700 0.029200 -0.042200
v 0.000300 0.113200 0.004000
v 0.071700 0.202700 0.003300
v 0.000300 0.731275 -0.097300
v 0.064700 0.732575 -0.089900
v -0.000100 0.791113 -0.104400
v 0.129900 0.732575 -0.041900
v 0.062400 0.791113 -0.041900
v 0.041600 0.791113 -0.088600
v 0.064900 1.053400 -0.114000
v 0.064500 1.095300 -0.114000
v -0.000500 1.053400 -0.138600
v -0.000500 1.095300 -0.138600
v -0.000500 1.053400 -0.104000
v 0.097400 1.053400 -0.041900
v 0.097000 1.095300 -0.041900
v 0.040700 1.053400 -0.088600
v 0.062000 1.053400 -0.041900
v -0.000900 1.124100 -0.041900
v 0.000700 0.731775 0.014200
v 0.041600 0.791113 0.005200
v 0.062000 0.732575 0.009600
v -0.000100 0.791113 0.020600
v 0.040700 1.053400 0.004800
v 0.064900 1.053400 0.030200
v 0.064500 1.095300 0.030200
v -0.000500 1.053400 0.020600
v -0.000500 1.053400 0.054800
v -0.000500 1.095300 0.054800
v -0.072000 0.202400 -0.087800
v -0.147900 0.201300 -0.042200
v -0.072000 0.202400 0.003300
v -0.065000 0.732275 -0.089200
v -0.041400 0.791113 -0.088600
v -0.062700 0.791113 -0.041900
v -0.129800 0.732275 -0.041900
v -0.066000 1.053400 -0.114000
v -0.066000 1.095300 -0.114000
v -0.042200 1.053400 -0.088600
v -0.063100 1.053400 -0.041900
v -0.098500 1.053400 -0.041900
v -0.098500 1.095000 -0.041900
v -0.041400 0.791113 0.005200
v -0.061900 0.732275 0.008900
v -0.042200 1.053400 0.004800
v -0.066000 1.053400 0.030200
v -0.066000 1.095300 0.030200
vn 0.455400 -0.717494 -0.527081
vn 0.649835 0.406857 -0.642014
vn 0.001652 -0.705742 -0.708467
vn -0.001629 0.706560 -0.707652
vn 0.001583 -0.705493 0.708715
vn 0.456392 -0.716811 0.527151
vn 0.650215 0.407437 0.641261
vn -0.001698 0.706874 0.707337
vn -0.453495 -0.717755 -0.528366
vn -0.650800 0.407364 -0.640713
vn -0.454300 -0.717452 0.528086
vn -0.651526 0.407057 0.640170
vn -0.002289 -0.229575 -0.973288
vn 0.382624 -0.138018 -0.913537
vn 0.943995 -0.329960 0.000879
vn -0.043268 -0.999061 -0.002429
vn -0.015318 -0.222813 0.974741
vn 0.401956 -0.134452 0.905734
vn 0.007454 -0.008354 -0.999937
vn 0.325090 0.003369 -0.945677
vn -0.001603 0.000469 -0.999999
vn 0.999803 0.018584 -0.007002
vn 0.999996 0.002478 -0.001580
vn 0.686726 0.002763 -0.726911
vn 0.465287 -0.733189 -0.495925
vn 0.536423 0.621706 -0.570729
vn 0.000172 -0.730060 -0.683383
vn 0.000316 0.615595 -0.788063
vn -0.001095 -0.730460 -0.682954
vn 0.676909 -0.736067 0.000000
vn 0.778597 0.627524 0.000000
vn 0.466435 -0.733941 -0.493729
vn 0.675538 -0.737325 -0.001067
vn -0.000802 1.000000 0.000000
vn -0.004713 -0.012746 0.999908
vn 0.684816 0.002180 0.728712
vn 0.354160 -0.007768 0.935153
vn -0.001572 0.001113 0.999998
vn 0.464391 -0.734948 0.494158
vn 0.465709 -0.732617 0.496374
vn 0.536059 0.622377 0.570340
vn -0.001076 -0.729171 0.684330
vn 0.000171 -0.729487 0.683994
vn 0.000315 0.616269 0.787535
vn -0.386646 -0.148561 -0.910184
vn -0.938019 -0.346462 -0.009151
vn -0.422558 -0.141747 0.895183
vn -0.316116 0.001669 -0.948719
vn -0.684657 -0.001339 -0.728865
vn -0.999997 -0.001943 -0.001606
vn -0.999750 0.021550 -0.006015
vn -0.464053 -0.734695 -0.494852
vn -0.538207 0.619648 -0.571287
vn -0.464705 -0.734378 -0.494711
vn -0.672590 -0.740015 -0.001080
vn -0.673712 -0.738994 0.000000
vn -0.782532 0.622611 -0.000000
vn -0.682735 -0.001453 0.730664
vn -0.355453 0.005744 0.934676
vn -0.462772 -0.735229 0.495259
vn -0.464053 -0.734695 0.494852
vn -0.538207 0.619649 0.571287
vt 0.725823 0.983370
vt 0.579117 0.983354
vt 0.583830 0.907513
vt 0.716647 0.907501
vt 0.373308 0.907534
vt 0.506088 0.907525
vt 0.521727 0.983351
vt 0.373478 0.983359
vt 0.240051 0.907529
vt 0.224036 0.983350
vt 0.161625 0.983353
vt 0.015625 0.983393
vt 0.045639 0.907422
vt 0.167661 0.907510
vt 0.716433 0.266381
vt 0.738976 0.012935
vt 0.849521 0.021118
vt 0.852910 0.266439
vt 0.849366 0.511600
vt 0.738821 0.519683
vt 0.859431 0.519026
vt 0.857907 0.270237
vt 0.991621 0.270260
vt 0.963309 0.526650
vt 0.859484 0.021081
vt 0.963364 0.013493
vt 0.611813 0.008970
vt 0.701427 0.010182
vt 0.717329 0.598729
vt 0.619260 0.592302
vt 0.347393 0.790792
vt 0.252736 0.792639
vt 0.261771 0.209025
vt 0.360302 0.201352
vt 0.184283 0.792302
vt 0.182679 0.112514
vt 0.114354 0.792595
vt 0.102637 0.209212
vt 0.377253 0.010845
vt 0.466381 0.009498
vt 0.460106 0.593000
vt 0.361884 0.600380
vt 0.020481 0.791219
vt 0.004989 0.202716
vt 0.543040 0.798020
vt 0.540097 0.689247
vt 0.180504 0.003803
vt 0.539650 0.010029
vt 0.915714 0.536509
vt 0.945073 0.536957
vt 0.944023 0.680600
vt 0.914819 0.680498
vt 0.979161 0.538065
vt 0.977611 0.680446
vt 0.726227 0.536567
vt 0.760162 0.536311
vt 0.759135 0.679941
vt 0.725155 0.678948
vt 0.789119 0.536260
vt 0.788749 0.680242
vt 0.818332 0.536234
vt 0.818046 0.680318
vt 0.852173 0.536221
vt 0.852173 0.680376
vt 0.886100 0.536304
vt 0.885907 0.680395
vt 0.989896 0.835208
vt 0.952820 0.928630
vt 0.925069 0.899651
vt 0.949807 0.833621
vt 0.851797 0.835096
vt 0.345544 0.824464
vt 0.398167 0.824522
vt 0.398265 0.849560
vt 0.345674 0.849477
vt 0.851797 0.973046
vt 0.851797 0.933131
vt 0.459087 0.824665
vt 0.459841 0.849821
vt 0.749634 0.928282
vt 0.779195 0.901486
vt 0.018084 0.824937
vt 0.067786 0.824640
vt 0.067878 0.849713
vt 0.017396 0.850288
vt 0.713699 0.834365
vt 0.753788 0.835902
vt 0.121252 0.824519
vt 0.121114 0.849548
vt 0.750849 0.741030
vt 0.778439 0.770294
vt 0.173216 0.824441
vt 0.173159 0.849438
vt 0.851797 0.696688
vt 0.851797 0.736938
vt 0.232978 0.824391
vt 0.232978 0.849372
vt 0.953862 0.741439
vt 0.924474 0.768459
vt 0.293490 0.824410
vt 0.293608 0.849400
g LootWeaponSword
usemtl Material1
f 4/1/4 2/2/2 1/3/1 3/4/3 
f 5/5/5 6/6/6 7/7/7 8/8/8 
f 11/9/11 5/5/5 8/8/8 12/10/12 
f 10/11/10 4/12/4 3/13/3 9/14/9 
f 2/2/2 7/7/7 6/6/6 1/3/1 
f 9/14/9 11/9/11 12/10/12 10/11/10 
f 5/15/5 11/16/11 9/17/9 3/18/3 
f 5/15/5 3/18/3 1/19/1 6/20/6 
f 12/21/12 8/22/8 4/23/4 10/24/10 
f 4/23/4 8/22/8 7/25/7 2/26/2 
f 20/27/20 22/28/22 15/29/15 14/30/14 
f 22/31/22 37/32/37 18/33/18 15/34/15 
f 37/32/37 35/35/35 17/36/17 18/33/18 
f 35/35/35 59/37/59 47/38/47 17/36/17 
f 51/39/51 48/40/48 45/41/45 46/42/46 
f 59/37/59 51/43/51 46/44/46 47/38/47 
f 14/30/14 15/29/15 16/45/16 13/46/13 
f 15/34/15 18/33/18 17/36/17 16/47/16 
f 14/30/14 13/46/13 19/48/19 20/27/20 
f 13/46/13 45/41/45 48/40/48 19/48/19 
f 13/46/13 16/45/16 46/42/46 45/41/45 
f 16/47/16 17/36/17 47/38/47 46/44/46 
f 21/49/21 49/50/49 54/51/54 29/52/29 
f 49/50/49 50/53/50 55/54/55 54/51/54 
f 50/55/50 58/56/58 60/57/60 55/58/55 
f 58/56/58 38/59/38 42/60/42 60/57/60 
f 38/59/38 36/61/36 39/62/39 42/60/42 
f 36/61/36 23/63/23 33/64/33 39/62/39 
f 23/63/23 24/65/24 32/66/32 33/64/33 
f 24/65/24 21/49/21 29/52/29 32/66/32 
f 27/67/27 52/68/52 53/69/53 28/70/28 
f 34/71/34 28/70/28 53/69/53 
f 29/72/29 54/73/54 52/74/52 27/75/27 
f 52/68/52 56/76/56 57/77/57 53/69/53 
f 34/71/34 53/69/53 57/77/57 
f 54/73/54 55/78/55 56/79/56 52/74/52 
f 56/76/56 61/80/61 62/81/62 57/77/57 
f 34/71/34 57/77/57 62/81/62 
f 55/82/55 60/83/60 61/84/61 56/85/56 
f 61/80/61 43/86/43 44/87/44 62/81/62 
f 34/71/34 62/81/62 44/87/44 
f 60/83/60 42/88/42 43/89/43 61/84/61 
f 43/86/43 40/90/40 41/91/41 44/87/44 
f 34/71/34 44/87/44 41/91/41 
f 42/88/42 39/92/39 40/93/40 43/89/43 
f 40/90/40 30/94/30 31/95/31 41/91/41 
f 34/71/34 41/91/41 31/95/31 
f 39/92/39 33/96/33 30/97/30 40/93/40 
f 30/94/30 25/98/25 26/99/26 31/95/31 
f 34/71/34 31/95/31 26/99/26 
f 33/96/33 32/100/32 25/101/25 30/97/30 
f 25/98/25 27/67/27 28/70/28 26/99/26 
f 34/71/34 26/99/26 28/70/28 
f 32/100/32 29/72/29 27/75/27 25/101/25 
