mtllib LootPotionMid.mtl
o LootPotionMid.obj
v -0.052810 0.689969 -0.094852
v -0.000002 0.689901 -0.116743
v -0.074656 0.690083 -0.041976
v -0.052765 0.690197 0.010741
v -0.000025 0.690242 0.032587
v 0.052760 0.690197 0.010718
v 0.074697 0.690060 -0.042021
v 0.052828 0.689969 -0.094829
v -0.119530 0.514747 -0.161094
v -0.155538 0.457529 -0.197194
v -0.000002 0.457461 -0.261663
v -0.000002 0.514701 -0.210629
v -0.168973 0.514883 -0.041612
v -0.219826 0.457688 -0.041703
v -0.119462 0.515020 0.077848
v -0.155379 0.457825 0.113674
v -0.000002 0.515065 0.127337
v -0.000002 0.457893 0.178007
v 0.119457 0.515020 0.077870
v 0.155352 0.457802 0.113674
v 0.168969 0.514883 -0.041612
v 0.219799 0.457665 -0.041703
v 0.119503 0.514747 -0.161117
v 0.155511 0.457529 -0.197194
v -0.163790 0.376260 -0.205582
v -0.000002 0.376124 -0.273439
v -0.231602 0.376465 -0.041794
v -0.163722 0.376669 0.121949
v -0.000002 0.376760 0.189737
v 0.163718 0.376669 0.121949
v 0.231574 0.376465 -0.041794
v 0.163786 0.376237 -0.205582
v -0.148400 0.286898 -0.190328
v -0.000002 0.286785 -0.251684
v -0.210006 0.287103 -0.041930
v -0.148605 0.287308 0.106673
v -0.000002 0.287376 0.168301
v 0.148601 0.287285 0.106673
v 0.210001 0.287080 -0.041930
v 0.148373 0.286876 -0.190306
v -0.126850 0.205766 -0.168914
v -0.000002 0.205652 -0.221495
v -0.179317 0.206084 -0.042067
v -0.126714 0.206357 0.084667
v -0.000002 0.206470 0.137112
v 0.126709 0.206357 0.084645
v 0.179290 0.206061 -0.042067
v 0.126846 0.205766 -0.168914
v -0.132670 0.132840 -0.174848
v -0.000002 0.132794 -0.229747
v -0.187773 0.132976 -0.042180
v -0.132897 0.133090 0.090714
v -0.000002 0.133135 0.145818
v 0.132892 0.133090 0.090714
v 0.187792 0.132953 -0.042180
v 0.132688 0.132840 -0.174848
v -0.099844 0.076918 -0.142022
v -0.000002 0.076872 -0.183395
v -0.141149 0.077054 -0.042158
v -0.099753 0.077190 0.057593
v -0.000002 0.077236 0.098898
v 0.099771 0.077190 0.057593
v 0.141144 0.077054 -0.042158
v 0.099839 0.076918 -0.142022
v -0.000002 0.086397 -0.042067
v -0.000025 0.538775 -0.131156
v -0.063381 0.538843 -0.104899
v -0.089546 0.538957 -0.041544
v -0.063290 0.539071 0.021721
v -0.000025 0.539139 0.047932
v 0.063263 0.539071 0.021721
v 0.089541 0.538957 -0.041544
v 0.063353 0.538821 -0.104899
v -0.000002 0.684855 -0.157184
v -0.081430 0.684969 -0.123426
v -0.115097 0.685127 -0.041930
v -0.081339 0.685309 0.039361
v -0.000025 0.685378 0.073028
v 0.081312 0.685309 0.039361
v 0.115138 0.685105 -0.041953
v 0.081426 0.684946 -0.123404
v -0.000002 0.771580 -0.042226
v -0.103203 0.770538 -0.042120
v -0.072986 0.770383 -0.115185
v -0.072924 0.770693 0.030758
v -0.000046 0.770755 0.060944
v 0.072926 0.770693 0.030696
v 0.103267 0.770507 -0.042182
v 0.072988 0.770383 -0.115154
v -0.000015 0.770290 -0.145464
vn -0.584780 0.561417 -0.585528
vn 0.000144 0.560709 -0.828013
vn -0.826753 0.562564 -0.000391
vn -0.584416 0.563708 0.583687
vn 0.000059 0.564383 0.825513
vn 0.584321 0.563677 0.583813
vn 0.826734 0.562593 -0.000579
vn 0.584772 0.561247 -0.585700
vn -0.377402 0.845465 -0.377830
vn -0.639588 0.426426 -0.639600
vn 0.000024 0.426710 -0.904389
vn -0.000042 0.845571 -0.533863
vn -0.534302 0.845294 -0.000445
vn -0.904740 0.425964 0.000054
vn -0.378320 0.845029 0.377889
vn -0.639878 0.425469 0.639947
vn -0.000029 0.844947 0.534850
vn 0.000048 0.425188 0.905105
vn 0.378448 0.844982 0.377865
vn 0.640002 0.425335 0.639912
vn 0.534521 0.845155 -0.000398
vn 0.904770 0.425901 0.000090
vn 0.377429 0.845479 -0.377773
vn 0.639623 0.426535 -0.639492
vn -0.706134 -0.047781 -0.706464
vn 0.000059 -0.047370 -0.998877
vn -0.998868 -0.047562 -0.000224
vn -0.706432 -0.047045 0.706216
vn 0.000017 -0.046418 0.998922
vn 0.706495 -0.045932 0.706226
vn 0.998945 -0.045911 -0.000269
vn 0.706202 -0.046506 -0.706482
vn -0.676001 -0.293760 -0.675817
vn 0.000013 -0.293398 -0.955990
vn -0.955498 -0.294997 0.000263
vn -0.675222 -0.296442 0.675424
vn 0.000002 -0.297194 0.954817
vn 0.675125 -0.296857 0.675339
vn 0.955309 -0.295608 0.000227
vn 0.675903 -0.294139 -0.675749
vn -0.701748 -0.122868 -0.701750
vn -0.000078 -0.122414 -0.992479
vn -0.992279 -0.124027 -0.000057
vn -0.701609 -0.125045 0.701504
vn -0.000029 -0.125546 0.992088
vn 0.701536 -0.125201 0.701549
vn 0.992268 -0.124115 -0.000017
vn 0.701689 -0.122986 -0.701789
vn -0.676343 -0.291719 -0.676357
vn -0.000098 -0.291613 -0.956536
vn -0.956438 -0.291934 -0.000086
vn -0.676380 -0.292240 0.676096
vn -0.000092 -0.292369 0.956306
vn 0.676263 -0.292169 0.676244
vn 0.956434 -0.291948 -0.000088
vn 0.676210 -0.291737 -0.676483
vn -0.271678 -0.923611 -0.270434
vn -0.000069 -0.923712 -0.383088
vn -0.383275 -0.923633 0.001277
vn -0.270115 -0.923854 0.271169
vn -0.000077 -0.924145 0.382043
vn 0.269384 -0.924228 0.270619
vn 0.381896 -0.924204 0.001245
vn 0.270917 -0.923996 -0.269881
vn 0.000001 -0.999999 0.001256
vn -0.000151 0.548933 -0.835866
vn -0.591017 0.549272 -0.590761
vn -0.835069 0.550145 0.000163
vn -0.590107 0.551000 0.590062
vn -0.000141 0.551482 0.834187
vn 0.589970 0.551110 0.590096
vn 0.834963 0.550306 0.000189
vn 0.590811 0.549479 -0.590775
vn -0.000001 0.624865 -0.780733
vn -0.551074 0.625794 -0.551996
vn -0.778935 0.627104 -0.000631
vn -0.550543 0.628431 0.549524
vn -0.000029 0.629063 0.777355
vn 0.550565 0.628322 0.549627
vn 0.779065 0.626942 -0.000681
vn 0.551154 0.625601 -0.552135
vn 0.000075 0.999998 -0.002181
vn -0.790291 0.612731 -0.000574
vn -0.559026 0.611602 -0.559850
vn -0.558591 0.613863 0.557807
vn 0.000044 0.614486 0.788927
vn 0.558544 0.613822 0.557899
vn 0.790265 0.612764 -0.000706
vn 0.558998 0.611560 -0.559926
vn 0.000077 0.611050 -0.791592
vt 0.482719 0.572267
vt 0.407692 0.572271
vt 0.407695 0.435079
vt 0.482719 0.435081
vt 0.407732 0.310334
vt 0.482719 0.310152
vt 0.407808 0.197713
vt 0.482719 0.197768
vt 0.407948 0.097756
vt 0.482720 0.097764
vt 0.408234 0.003229
vt 0.482722 0.003237
vt 0.482725 0.992748
vt 0.408292 0.992751
vt 0.407905 0.854309
vt 0.482721 0.854514
vt 0.407751 0.709317
vt 0.482720 0.709553
vt 0.339957 0.572272
vt 0.339854 0.435072
vt 0.339652 0.310609
vt 0.339366 0.197652
vt 0.338967 0.097749
vt 0.338379 0.003224
vt 0.339118 0.992753
vt 0.339652 0.854156
vt 0.339902 0.709194
vt 0.260583 0.572271
vt 0.260606 0.435065
vt 0.260639 0.310573
vt 0.260679 0.197596
vt 0.260720 0.097743
vt 0.260757 0.003223
vt 0.260578 0.992753
vt 0.260578 0.854175
vt 0.260575 0.709154
vt 0.168139 0.572268
vt 0.168062 0.435054
vt 0.167960 0.310656
vt 0.167850 0.197538
vt 0.167758 0.097738
vt 0.167704 0.003223
vt 0.168296 0.992752
vt 0.168222 0.854234
vt 0.168187 0.709202
vt 0.085780 0.572261
vt 0.085864 0.435033
vt 0.085973 0.310869
vt 0.086083 0.197468
vt 0.086165 0.097734
vt 0.086191 0.003221
vt 0.085565 0.992751
vt 0.085677 0.854317
vt 0.085725 0.709344
vt 0.008897 0.572255
vt 0.008880 0.435014
vt 0.008859 0.311106
vt 0.008837 0.197396
vt 0.008823 0.097732
vt 0.008820 0.003224
vt 0.008934 0.992748
vt 0.008916 0.854404
vt 0.008907 0.709447
vt 0.912377 0.358495
vt 0.912378 0.273387
vt 0.972496 0.333583
vt 0.997368 0.273450
vt 0.972442 0.213385
vt 0.912377 0.188512
vt 0.852299 0.213385
vt 0.827387 0.273450
vt 0.852259 0.333583
vt 0.561487 0.435111
vt 0.561466 0.572272
vt 0.561497 0.309683
vt 0.561498 0.197931
vt 0.561491 0.097782
vt 0.561485 0.003247
vt 0.561383 0.854779
vt 0.561334 0.992743
vt 0.561432 0.709713
vt 0.977517 0.913161
vt 0.977601 0.991935
vt 0.837295 0.992000
vt 0.837353 0.913169
vt 0.817679 0.435068
vt 0.817686 0.572249
vt 0.755652 0.572251
vt 0.755827 0.435072
vt 0.848696 0.032170
vt 0.910359 0.006961
vt 0.909959 0.093933
vt 0.817671 0.310031
vt 0.755995 0.309996
vt 0.977451 0.834432
vt 0.837398 0.834403
vt 0.817664 0.197827
vt 0.756145 0.197835
vt 0.822969 0.093519
vt 0.817657 0.097771
vt 0.756280 0.097770
vt 0.977404 0.755651
vt 0.837430 0.755605
vt 0.817653 0.003242
vt 0.756439 0.003238
vt 0.848105 0.155144
vt 0.817697 0.855017
vt 0.817703 0.992741
vt 0.755184 0.992743
vt 0.755305 0.854968
vt 0.977376 0.676675
vt 0.837449 0.676642
vt 0.817692 0.710307
vt 0.755474 0.710262
vt 0.909582 0.180963
vt 0.977368 0.597248
vt 0.837455 0.597249
vt 0.971263 0.155773
vt 0.977377 0.518717
vt 0.837449 0.518855
vt 0.996990 0.094277
vt 0.977407 0.439886
vt 0.837429 0.439885
vt 0.971800 0.032596
vt 0.977454 0.362577
vt 0.837396 0.362502
g LootPotionMid
usemtl defaultMat
f 12/1/12 11/2/11 10/3/10 9/4/9 
f 9/4/9 10/3/10 14/5/14 13/6/13 
f 13/6/13 14/5/14 16/7/16 15/8/15 
f 15/8/15 16/7/16 18/9/18 17/10/17 
f 17/10/17 18/9/18 20/11/20 19/12/19 
f 19/13/19 20/14/20 22/15/22 21/16/21 
f 21/16/21 22/15/22 24/17/24 23/18/23 
f 23/18/23 24/17/24 11/2/11 12/1/12 
f 11/2/11 26/19/26 25/20/25 10/3/10 
f 10/3/10 25/20/25 27/21/27 14/5/14 
f 14/5/14 27/21/27 28/22/28 16/7/16 
f 16/7/16 28/22/28 29/23/29 18/9/18 
f 18/9/18 29/23/29 30/24/30 20/11/20 
f 20/14/20 30/25/30 31/26/31 22/15/22 
f 22/15/22 31/26/31 32/27/32 24/17/24 
f 24/17/24 32/27/32 26/19/26 11/2/11 
f 26/19/26 34/28/34 33/29/33 25/20/25 
f 25/20/25 33/29/33 35/30/35 27/21/27 
f 27/21/27 35/30/35 36/31/36 28/22/28 
f 28/22/28 36/31/36 37/32/37 29/23/29 
f 29/23/29 37/32/37 38/33/38 30/24/30 
f 30/25/30 38/34/38 39/35/39 31/26/31 
f 31/26/31 39/35/39 40/36/40 32/27/32 
f 32/27/32 40/36/40 34/28/34 26/19/26 
f 34/28/34 42/37/42 41/38/41 33/29/33 
f 33/29/33 41/38/41 43/39/43 35/30/35 
f 35/30/35 43/39/43 44/40/44 36/31/36 
f 36/31/36 44/40/44 45/41/45 37/32/37 
f 37/32/37 45/41/45 46/42/46 38/33/38 
f 38/34/38 46/43/46 47/44/47 39/35/39 
f 39/35/39 47/44/47 48/45/48 40/36/40 
f 40/36/40 48/45/48 42/37/42 34/28/34 
f 42/37/42 50/46/50 49/47/49 41/38/41 
f 41/38/41 49/47/49 51/48/51 43/39/43 
f 43/39/43 51/48/51 52/49/52 44/40/44 
f 44/40/44 52/49/52 53/50/53 45/41/45 
f 45/41/45 53/50/53 54/51/54 46/42/46 
f 46/43/46 54/52/54 55/53/55 47/44/47 
f 47/44/47 55/53/55 56/54/56 48/45/48 
f 48/45/48 56/54/56 50/46/50 42/37/42 
f 50/46/50 58/55/58 57/56/57 49/47/49 
f 49/47/49 57/56/57 59/57/59 51/48/51 
f 51/48/51 59/57/59 60/58/60 52/49/52 
f 52/49/52 60/58/60 61/59/61 53/50/53 
f 53/50/53 61/59/61 62/60/62 54/51/54 
f 54/52/54 62/61/62 63/62/63 55/53/55 
f 55/53/55 63/62/63 64/63/64 56/54/56 
f 56/54/56 64/63/64 58/55/58 50/46/50 
f 58/64/58 65/65/65 57/66/57 
f 57/66/57 65/65/65 59/67/59 
f 59/67/59 65/65/65 60/68/60 
f 60/68/60 65/65/65 61/69/61 
f 61/69/61 65/65/65 62/70/62 
f 62/70/62 65/65/65 63/71/63 
f 63/71/63 65/65/65 64/72/64 
f 64/72/64 65/65/65 58/64/58 
f 12/1/12 9/4/9 67/73/67 66/74/66 
f 9/4/9 13/6/13 68/75/68 67/73/67 
f 13/6/13 15/8/15 69/76/69 68/75/68 
f 15/8/15 17/10/17 70/77/70 69/76/69 
f 17/10/17 19/12/19 71/78/71 70/77/70 
f 19/13/19 21/16/21 72/79/72 71/80/71 
f 21/16/21 23/18/23 73/81/73 72/79/72 
f 23/18/23 12/1/12 66/74/66 73/81/73 
f 5/82/5 6/83/6 87/84/87 86/85/86 
f 1/86/1 2/87/2 74/88/74 75/89/75 
f 86/90/86 87/91/87 82/92/82 
f 3/93/3 1/86/1 75/89/75 76/94/76 
f 4/95/4 5/82/5 86/85/86 85/96/85 
f 4/97/4 3/93/3 76/94/76 77/98/77 
f 85/99/85 86/90/86 82/92/82 
f 5/100/5 4/97/4 77/98/77 78/101/78 
f 3/102/3 4/95/4 85/96/85 83/103/83 
f 6/104/6 5/100/5 78/101/78 79/105/79 
f 83/106/83 85/99/85 82/92/82 
f 7/107/7 6/108/6 79/109/79 80/110/80 
f 1/111/1 3/102/3 83/103/83 84/112/84 
f 8/113/8 7/107/7 80/110/80 81/114/81 
f 84/115/84 83/106/83 82/92/82 
f 2/87/2 8/113/8 81/114/81 74/88/74 
f 2/116/2 1/111/1 84/112/84 90/117/90 
f 90/118/90 84/115/84 82/92/82 
f 8/119/8 2/116/2 90/117/90 89/120/89 
f 89/121/89 90/118/90 82/92/82 
f 7/122/7 8/119/8 89/120/89 88/123/88 
f 88/124/88 89/121/89 82/92/82 
f 6/125/6 7/122/7 88/123/88 87/126/87 
f 87/91/87 88/124/88 82/92/82 
f 66/74/66 67/73/67 75/89/75 74/88/74 
f 67/73/67 68/75/68 76/94/76 75/89/75 
f 68/75/68 69/76/69 77/98/77 76/94/76 
f 69/76/69 70/77/70 78/101/78 77/98/77 
f 70/77/70 71/78/71 79/105/79 78/101/78 
f 71/80/71 72/79/72 80/110/80 79/109/79 
f 72/79/72 73/81/73 81/114/81 80/110/80 
f 73/81/73 66/74/66 74/88/74 81/114/81 
