# 3ds Max Wavefront OBJ Exporter v0.97b - (c)2007 guruware
# 创建的文件:01.07.2020 19:08:42

mtllib bonfire_xiao.mtl

#
# object CroppyFieldsBonfire_obj
#

v  0.1335 0.1834 -0.0153
v  0.1719 0.1610 -0.0328
v  0.1740 0.1879 -0.0836
v  0.1425 0.2202 -0.0734
v  0.1349 0.1381 -0.0128
v  0.0880 0.1834 -0.0942
v  0.0864 0.1381 -0.0968
v  0.0924 0.1886 -0.0968
v  0.1446 0.2028 -0.1047
v  0.1215 0.1887 -0.1163
v  0.3001 -0.0396 -0.0822
v  0.3282 -0.0071 -0.0985
v  0.3076 0.0199 0.1138
v  0.3116 0.0057 0.0786
v  0.0667 0.3115 -0.0253
v  0.0691 0.3256 -0.0011
v  -0.3273 0.0445 -0.0549
v  -0.1375 0.0445 -0.0549
v  -0.1375 0.0063 -0.1004
v  -0.3273 0.0063 -0.1004
v  -0.1375 -0.0396 -0.1004
v  -0.3273 -0.0396 -0.1004
v  -0.1375 0.0445 -0.0188
v  -0.3273 0.0445 -0.0188
v  -0.3273 0.0245 0.0051
v  -0.1375 0.0245 0.0051
v  -0.3273 -0.0396 0.0051
v  -0.1375 -0.0396 0.0051
v  -0.0672 0.3476 -0.1048
v  -0.0582 0.3400 -0.1012
v  -0.0553 0.3366 -0.1071
v  -0.0592 0.3419 -0.1168
v  -0.2704 0.0199 -0.2275
v  -0.0853 0.2380 -0.1120
v  -0.0389 0.2110 -0.1384
v  -0.2161 -0.0071 -0.2676
v  -0.0107 0.1785 -0.1222
v  -0.1879 -0.0396 -0.2514
v  -0.0380 0.3366 -0.1071
v  -0.0340 0.3419 -0.1167
v  -0.2989 0.0057 -0.1498
v  -0.2597 -0.0396 -0.1272
v  -0.0642 0.1785 -0.0296
v  -0.1034 0.2238 -0.0523
v  -0.0265 0.3476 -0.1048
v  -0.0355 0.3399 -0.1014
v  -0.0404 0.3431 -0.0988
v  -0.0377 0.3541 -0.1012
v  -0.0536 0.3431 -0.0987
v  -0.0564 0.3541 -0.1011
v  0.0542 0.3256 0.0247
v  0.0300 0.3270 -0.0084
v  0.0277 0.3270 -0.0044
v  -0.0341 0.2452 0.0170
v  -0.0195 0.2842 -0.0082
v  -0.0055 0.2842 -0.0325
v  0.0094 0.2453 -0.0584
v  0.0295 0.3246 -0.0123
v  0.2961 0.0199 -0.2081
v  0.2676 0.0057 -0.2291
v  -0.1517 0.0199 0.2713
v  -0.0261 0.2581 0.0573
v  -0.0461 0.2371 0.0216
v  -0.1776 -0.0071 0.2251
v  -0.0176 -0.0074 -0.3185
v  -0.0549 -0.0074 -0.3185
v  -0.0758 0.3186 -0.0545
v  -0.0030 0.3186 -0.0544
v  -0.0203 0.3405 -0.0603
v  -0.0596 0.3405 -0.0603
v  -0.0596 0.3540 -0.0838
v  -0.0758 0.3436 -0.0978
v  0.0294 -0.0223 -0.2927
v  -0.0030 0.3365 -0.0855
v  -0.0517 0.0063 0.0914
v  -0.0517 -0.0396 0.0914
v  -0.0010 -0.0396 0.2743
v  -0.0010 0.0063 0.2743
v  0.1006 0.0245 0.2461
v  0.1006 -0.0396 0.2461
v  0.0499 -0.0396 0.0632
v  0.0499 0.0245 0.0632
v  -0.0079 0.0445 0.0792
v  0.0428 0.0445 0.2621
v  0.0776 0.0445 0.2525
v  0.0269 0.0445 0.0696
v  0.1173 0.0063 -0.1358
v  0.1173 -0.0396 -0.1358
v  0.2122 -0.0396 -0.3001
v  0.2122 0.0063 -0.3001
v  0.1209 0.0245 -0.3529
v  0.1209 -0.0396 -0.3529
v  0.0260 -0.0396 -0.1885
v  0.0260 0.0245 -0.1885
v  -0.1077 0.0063 -0.0263
v  -0.1077 -0.0396 -0.0263
v  -0.2721 -0.0396 0.0686
v  -0.2721 0.0063 0.0686
v  -0.0669 0.0445 0.0444
v  -0.2313 0.0445 0.1393
v  -0.2194 0.0245 0.1599
v  -0.0550 0.0245 0.0650
v  -0.2194 -0.0396 0.1599
v  -0.0550 -0.0396 0.0650
v  -0.1483 0.0149 -0.1794
v  -0.1965 0.0149 -0.0355
v  -0.0037 0.0149 -0.2274
v  0.1409 0.0149 -0.1794
v  -0.1483 0.0149 0.1084
v  0.1890 0.0149 -0.0355
v  -0.0037 0.0149 0.1564
v  0.1409 0.0149 0.1084
v  -0.0518 0.0271 -0.2561
v  -0.1325 0.0271 -0.2471
v  -0.0194 0.0271 -0.1018
v  0.0644 0.0271 0.2143
v  0.1496 0.0271 0.1711
v  0.0165 0.0271 0.0697
v  0.0823 -0.0033 -0.3089
v  0.0602 0.0248 -0.2946
v  0.0473 -0.0033 -0.2949
v  0.0435 0.0416 -0.3070
v  0.0154 -0.0033 -0.3458
v  0.0182 -0.0033 -0.3168
v  0.0902 -0.0033 -0.3495
v  0.0572 -0.0033 -0.3733
v  0.0620 0.0326 -0.3374
v  0.2910 0.0110 -0.3608
v  0.3118 0.0483 -0.3341
v  0.3129 0.0110 -0.3175
v  0.2978 0.0705 -0.3113
v  0.2511 0.0110 -0.2708
v  0.2881 0.0110 -0.2777
v  0.2380 0.0110 -0.3665
v  0.2112 0.0110 -0.3214
v  0.2567 0.0587 -0.3316
v  -0.3767 -0.0073 0.1278
v  -0.3527 0.0530 0.0787
v  -0.3294 -0.0073 0.0654
v  -0.3097 0.0888 0.0829
v  -0.2178 -0.0073 0.1220
v  -0.2540 -0.0073 0.0732
v  -0.3475 -0.0073 0.2087
v  -0.2630 -0.0073 0.2157
v  -0.3101 0.0697 0.1569
v  -0.3891 -0.0038 -0.0858
v  -0.3990 0.0320 -0.1103
v  -0.3962 -0.0038 -0.1229
v  -0.3836 0.0532 -0.1243
v  -0.3399 -0.0038 -0.1447
v  -0.3691 -0.0038 -0.1474
v  -0.3507 -0.0038 -0.0702
v  -0.3209 -0.0038 -0.0982
v  -0.3572 0.0419 -0.1003
v  -0.3991 -0.0042 -0.2262
v  -0.3672 0.0432 -0.2550
v  -0.3463 -0.0042 -0.2578
v  -0.3370 0.0713 -0.2392
v  -0.2816 -0.0042 -0.1837
v  -0.2936 -0.0042 -0.2299
v  -0.4016 -0.0042 -0.1587
v  -0.3421 -0.0042 -0.1287
v  -0.3592 0.0563 -0.1854
v  0.0370 0.0017 0.3526
v  0.0028 0.0507 0.3643
v  -0.0143 0.0017 0.3597
v  -0.0153 0.0798 0.3423
v  -0.0400 0.0017 0.2811
v  -0.0459 0.0017 0.3208
v  0.0611 0.0017 0.3012
v  0.0249 0.0017 0.2584
v  0.0195 0.0643 0.3079
v  0.3728 0.0006 -0.2231
v  0.3461 0.0379 -0.2023
v  0.3295 0.0006 -0.2012
v  0.3233 0.0601 -0.2163
v  0.2827 0.0006 -0.2630
v  0.2897 0.0006 -0.2260
v  0.3784 0.0006 -0.2760
v  0.3333 0.0006 -0.3029
v  0.3436 0.0483 -0.2574
v  0.3089 -0.0029 -0.0083
v  0.2946 0.0252 -0.0303
v  0.2949 -0.0029 -0.0432
v  0.3070 0.0420 -0.0470
v  0.3458 -0.0029 -0.0752
v  0.3167 -0.0029 -0.0723
v  0.3494 -0.0029 -0.0003
v  0.3732 -0.0029 -0.0333
v  0.3373 0.0330 -0.0285
v  -0.0701 -0.0396 0.2497
v  -0.1614 -0.0396 0.1970
v  -0.0336 0.2120 -0.0002
v  0.0372 0.2120 0.0407
v  0.3206 0.0199 -0.1656
v  0.2830 0.0199 0.1564
v  0.0120 0.2986 0.0437
v  0.2287 -0.0071 0.1964
v  -0.0415 0.3572 -0.0894
v  -0.0203 0.3470 -0.0716
v  -0.0850 0.0445 0.0131
v  -0.2493 0.0445 0.1080
v  0.1728 0.0445 -0.3229
v  0.1416 0.0445 -0.3409
v  0.0467 0.0445 -0.1766
v  0.0779 0.0445 -0.1585
v  -0.1205 0.0199 0.2893
v  -0.0019 0.2581 0.0713
v  0.0196 0.2471 0.0711
v  -0.0927 0.0057 0.2890
v  -0.0796 -0.0153 -0.3049
v  0.0044 0.3118 0.0055
v  0.2283 -0.0396 -0.2065
v  -0.2950 0.0199 -0.1850
v  -0.1036 0.2380 -0.0803
v  0.2006 -0.0396 0.1802
v  0.2723 -0.0396 0.0560
v  0.0294 -0.0403 -0.2616
v  -0.0530 0.3572 -0.0894
v  -0.0796 -0.0403 -0.2616
# 220 vertices

vn -0.0003 0.4517 0.8922
vn 0.6614 0.4720 0.5830
vn 0.7005 0.7137 0.0008
vn 0.0992 0.9947 -0.0284
vn -0.4859 -0.3014 0.8204
vn -0.9120 0.2970 -0.2829
vn -0.9541 -0.2993 0.0117
vn -0.6181 0.6748 -0.4032
vn 0.1987 0.7937 -0.5749
vn -0.2377 0.5814 -0.7781
vn 0.3733 -0.5423 0.7527
vn 0.9058 -0.0548 0.4201
vn 0.9336 0.2415 0.2646
vn 0.9378 -0.0318 -0.3458
vn 0.3696 0.5946 -0.7140
vn 0.4582 0.8853 -0.0788
vn -0.7288 0.6434 -0.2343
vn 0.7288 0.6434 -0.2343
vn 0.4830 0.3699 -0.7937
vn -0.4830 0.3699 -0.7937
vn 0.7071 0.0000 -0.7071
vn -0.7071 0.0000 -0.7072
vn 0.4697 0.8295 0.3021
vn -0.4699 0.8294 0.3021
vn -0.4830 0.3699 0.7937
vn 0.4830 0.3699 0.7937
vn -0.8944 0.0000 0.4472
vn 0.8944 0.0000 0.4472
vn -0.0534 0.7300 -0.6814
vn 0.3597 0.6188 -0.6984
vn 0.1340 0.9602 -0.2451
vn -0.1603 0.8325 -0.5303
vn -0.7240 -0.0555 -0.6875
vn 0.1702 0.9708 -0.1688
vn 0.4804 0.6232 -0.6171
vn -0.1042 -0.0486 -0.9934
vn 0.9969 0.0301 -0.0732
vn 0.3228 -0.8063 -0.4958
vn -0.1496 0.9714 -0.1845
vn -0.0596 0.9274 -0.3692
vn -0.9371 -0.0299 0.3479
vn -0.4498 -0.8661 0.2182
vn 0.5490 0.2969 0.7813
vn -0.3083 0.6626 0.6826
vn 0.1706 0.7435 -0.6465
vn -0.3952 0.6981 -0.5971
vn -0.0648 0.4312 -0.8999
vn 0.0171 0.6140 -0.7891
vn 0.0445 0.3748 -0.9260
vn -0.1806 0.7019 -0.6890
vn 0.1228 0.8656 0.4854
vn -0.1711 0.9336 -0.3147
vn -0.4311 0.8983 -0.0852
vn -0.9919 -0.0531 0.1152
vn -0.8628 0.4655 -0.1971
vn -0.6152 0.5405 -0.5739
vn -0.4022 -0.0457 -0.9144
vn -0.2205 0.7492 -0.6246
vn 0.6771 0.4405 -0.5895
vn -0.0985 0.0230 -0.9949
vn -0.6902 -0.0508 0.7219
vn -0.1659 0.9702 -0.1764
vn -0.6298 0.6138 -0.4760
vn -0.9919 -0.0623 0.1110
vn 0.1941 -0.2869 -0.9381
vn -0.2468 0.0237 -0.9688
vn -0.6081 0.1367 0.7820
vn 0.5913 0.1634 0.7897
vn 0.2579 0.6696 0.6965
vn -0.1978 0.7322 0.6518
vn -0.4349 0.8556 0.2809
vn -0.7734 0.6258 -0.1013
vn 0.7796 0.0181 -0.6260
vn 0.7551 0.6511 -0.0767
vn -0.8939 0.3699 -0.2534
vn -0.8703 0.0000 -0.4925
vn -0.4924 0.0000 0.8703
vn -0.6357 0.3699 0.6776
vn 0.8939 0.3699 0.2534
vn 0.6700 0.0000 0.7424
vn 0.1919 0.0000 -0.9814
vn 0.6357 0.3699 -0.6775
vn -0.4206 0.6434 -0.6396
vn -0.0310 0.6434 0.7649
vn 0.4167 0.8295 0.3720
vn 0.1656 0.8295 -0.5334
vn 0.4458 0.3699 0.8151
vn 0.2588 0.0000 0.9659
vn 0.9659 0.0000 -0.2587
vn 0.9288 0.3698 -0.0216
vn -0.4458 0.3699 -0.8151
vn 0.0599 0.0000 -0.9982
vn -0.8345 0.0000 0.5510
vn -0.9288 0.3699 0.0214
vn 0.0215 0.3699 -0.9288
vn 0.2588 0.0000 -0.9659
vn -0.9659 0.0000 -0.2589
vn -0.8151 0.3699 -0.4458
vn 0.5579 0.8295 0.0268
vn -0.2558 0.8295 0.4966
vn -0.0216 0.3699 0.9288
vn 0.8151 0.3699 0.4458
vn -0.5510 0.0000 0.8345
vn 0.9982 0.0000 -0.0599
vn 0.0000 1.0000 -0.0000
vn 0.7200 0.2311 0.6544
vn 0.4927 0.4053 0.7700
vn -0.1256 0.0473 0.9910
vn -0.4767 0.8295 0.2910
vn -0.7266 0.6496 -0.2237
vn -0.7901 0.3981 0.4660
vn 0.7808 0.6218 -0.0607
vn 0.0010 0.7519 -0.6593
vn 0.3686 0.8477 -0.3814
vn 0.5883 0.2266 -0.7762
vn 0.7256 0.3968 -0.5622
vn 0.9982 0.0461 0.0389
vn 0.3346 0.8234 0.4583
vn -0.1627 0.6395 0.7514
vn 0.5347 0.3890 0.7502
vn -0.1306 0.6110 -0.7808
vn -0.6669 0.7428 0.0588
vn -0.4216 0.8413 -0.3382
vn -0.9556 0.2266 -0.1884
vn -0.8234 0.3967 -0.4058
vn -0.4024 0.0461 -0.9143
vn 0.2654 0.8234 -0.5016
vn 0.7467 0.6394 -0.1831
vn 0.4399 0.3889 -0.8095
vn -0.6447 0.6109 0.4595
vn 0.3452 0.7427 0.5737
vn -0.1195 0.8413 0.5272
vn -0.7770 0.1946 0.5986
vn -0.8684 0.3373 0.3635
vn -0.9486 0.0380 -0.3142
vn -0.1973 0.7733 -0.6026
vn 0.4006 0.5641 -0.7220
vn -0.3100 0.3259 -0.8931
vn -0.0930 0.5319 0.8417
vn 0.7297 0.6712 0.1304
vn 0.3716 0.7883 0.4904
vn -0.8155 0.2266 -0.5326
vn -0.6113 0.3968 -0.6847
vn -0.0308 0.0461 -0.9985
vn 0.4340 0.8234 -0.3655
vn 0.7609 0.6395 0.1100
vn 0.7111 0.3889 -0.5857
vn -0.7698 0.6110 0.1845
vn 0.1051 0.7428 0.6612
vn -0.3082 0.8413 0.4440
vn 0.5569 0.1946 0.8074
vn 0.3176 0.3373 0.8862
vn -0.3635 0.0380 0.9308
vn -0.6121 0.7733 0.1653
vn -0.7000 0.5640 -0.4380
vn -0.9082 0.3259 0.2626
vn 0.8357 0.5320 0.1367
vn 0.1684 0.6712 -0.7219
vn 0.5092 0.7883 -0.3454
vn 0.7763 0.2266 0.5882
vn 0.5622 0.3968 0.7256
vn -0.0389 0.0461 0.9982
vn -0.4583 0.8234 0.3346
vn -0.7514 0.6394 -0.1628
vn -0.7503 0.3889 0.5347
vn 0.7808 0.6110 -0.1306
vn -0.0588 0.7427 -0.6670
vn 0.3384 0.8413 -0.4214
vn -0.6545 0.2310 0.7199
vn -0.7700 0.4053 0.4927
vn -0.9910 0.0473 -0.1256
vn -0.2910 0.8295 -0.4767
vn 0.2235 0.6496 -0.7267
vn -0.4662 0.3981 -0.7901
vn 0.0607 0.6218 0.7808
vn 0.6592 0.7520 0.0010
vn 0.3812 0.8478 0.3687
vn 0.2239 -0.8659 0.4472
vn -0.4971 -0.8064 -0.3204
vn -0.0755 0.0280 -0.9967
vn 0.7784 0.3017 -0.5504
vn 0.9598 -0.0638 -0.2732
vn 0.7059 -0.1076 0.7001
vn -0.4602 0.5386 0.7058
vn 0.0865 -0.0986 0.9914
vn 0.2082 0.9693 0.1305
vn 0.4186 0.8605 0.2905
vn 0.5139 0.6434 -0.5673
vn -0.7483 0.6435 0.1615
vn 0.5674 0.6434 -0.5140
vn -0.0268 0.8295 -0.5579
vn -0.4965 0.8295 0.2558
vn -0.1615 0.6434 0.7483
vn -0.1918 0.2728 0.9427
vn 0.1409 0.9247 0.3537
vn 0.7270 0.6152 0.3049
vn 0.4016 -0.0601 0.9138
vn -0.7676 -0.0250 -0.6405
vn -0.6449 0.7529 0.1313
vn 0.0238 -0.8665 -0.4985
vn -0.9243 0.2862 -0.2526
vn -0.3532 0.9326 0.0743
vn -0.3154 -0.8084 0.4970
vn 0.4456 -0.8663 -0.2258
vn 0.5912 -0.7700 0.2401
vn -0.1784 0.9823 0.0573
vn -0.4094 -0.9108 -0.0531
# 207 vertex normals

vt 0.7738 0.0080 0.0000
vt 0.8156 0.0045 0.0000
vt 0.8136 0.0672 0.0000
vt 0.7961 0.0536 0.0000
vt 0.7556 0.0430 0.0000
vt 0.7845 0.0578 0.0000
vt 0.7746 0.0759 0.0000
vt 0.7860 0.0579 0.0000
vt 0.7938 0.0709 0.0000
vt 0.7895 0.0735 0.0000
vt 0.6396 0.1722 0.0000
vt 0.6164 0.1477 0.0000
vt 0.7426 0.0244 0.0000
vt 0.2514 0.2441 0.0000
vt 0.2786 0.2503 0.0000
vt 0.1916 0.5491 0.0000
vt 0.1742 0.5422 0.0000
vt 0.6072 0.8044 0.0000
vt 0.7215 0.8342 0.0000
vt 0.7241 0.8702 0.0000
vt 0.5887 0.8330 0.0000
vt 0.7325 0.8928 0.0000
vt 0.5696 0.8517 0.0000
vt 0.7246 0.8131 0.0000
vt 0.6139 0.7835 0.0000
vt 0.6144 0.7637 0.0000
vt 0.7321 0.7967 0.0000
vt 0.5969 0.7313 0.0000
vt 0.7657 0.7706 0.0000
vt 0.3263 0.7001 0.0000
vt 0.3345 0.6753 0.0000
vt 0.3317 0.6877 0.0000
vt 0.3287 0.7108 0.0000
vt 0.5006 0.9180 0.0000
vt 0.4861 0.9397 0.0000
vt 0.4779 0.9278 0.0000
vt 0.4273 0.8999 0.0000
vt 0.4735 0.9312 0.0000
vt 0.4355 0.9156 0.0000
vt 0.3228 0.6040 0.0000
vt 0.3325 0.6389 0.0000
vt 0.3264 0.6315 0.0000
vt 0.3167 0.6191 0.0000
vt 0.4752 0.9686 0.0000
vt 0.4558 0.9673 0.0000
vt 0.4847 0.9395 0.0000
vt 0.4870 0.9456 0.0000
vt 0.3214 0.6255 0.0000
vt 0.3268 0.6358 0.0000
vt 0.3299 0.6445 0.0000
vt 0.3276 0.6422 0.0000
vt 0.3320 0.6647 0.0000
vt 0.3302 0.6749 0.0000
vt 0.1589 0.5339 0.0000
vt 0.1062 0.5538 0.0000
vt 0.1106 0.5513 0.0000
vt 0.1026 0.4990 0.0000
vt 0.0993 0.5199 0.0000
vt 0.0865 0.5252 0.0000
vt 0.0619 0.5113 0.0000
vt 0.0971 0.5525 0.0000
vt 0.0193 0.5378 0.0000
vt 0.1102 0.5567 0.0000
vt 0.8026 0.2236 0.0000
vt 0.7774 0.2240 0.0000
vt 0.7487 0.4536 0.0000
vt 0.7456 0.7040 0.0000
vt 0.7248 0.6960 0.0000
vt 0.7025 0.4542 0.0000
vt 0.0132 0.6021 0.0000
vt 0.0169 0.5749 0.0000
vt 0.3068 0.6815 0.0000
vt 0.3026 0.6515 0.0000
vt 0.3127 0.6545 0.0000
vt 0.3165 0.6722 0.0000
vt 0.3256 0.6743 0.0000
vt 0.3225 0.6964 0.0000
vt 0.0081 0.6432 0.0000
vt 0.3106 0.6369 0.0000
vt 0.8411 0.9837 0.0000
vt 0.8292 0.9897 0.0000
vt 0.8383 0.9498 0.0000
vt 0.8468 0.9588 0.0000
vt 0.8578 0.9632 0.0000
vt 0.8634 0.9555 0.0000
vt 0.8543 0.9954 0.0000
vt 0.8525 0.9865 0.0000
vt 0.8486 0.9832 0.0000
vt 0.8532 0.9631 0.0000
vt 0.8558 0.9638 0.0000
vt 0.8511 0.9844 0.0000
vt 0.5014 0.8940 0.0000
vt 0.5098 0.9168 0.0000
vt 0.3467 0.8760 0.0000
vt 0.3656 0.8575 0.0000
vt 0.3930 0.7869 0.0000
vt 0.3755 0.7545 0.0000
vt 0.5435 0.7962 0.0000
vt 0.5098 0.8224 0.0000
vt 0.8991 0.6304 0.0000
vt 0.9217 0.6219 0.0000
vt 0.8806 0.7848 0.0000
vt 0.8619 0.7658 0.0000
vt 0.8420 0.6299 0.0000
vt 0.8123 0.7405 0.0000
vt 0.7926 0.7401 0.0000
vt 0.8256 0.6223 0.0000
vt 0.7601 0.7575 0.0000
vt 0.7995 0.5888 0.0000
vt 0.4837 0.5220 0.0000
vt 0.3784 0.5576 0.0000
vt 0.5188 0.4159 0.0000
vt 0.4834 0.3100 0.0000
vt 0.2734 0.5221 0.0000
vt 0.3783 0.2745 0.0000
vt 0.2380 0.4162 0.0000
vt 0.2730 0.3101 0.0000
vt 0.8201 0.0511 0.0000
vt 0.8159 0.0482 0.0000
vt 0.8233 0.0435 0.0000
vt 0.8042 0.3151 0.0000
vt 0.8101 0.3147 0.0000
vt 0.8071 0.3228 0.0000
vt 0.7883 0.9963 0.0000
vt 0.8082 0.9852 0.0000
vt 0.8244 0.9885 0.0000
vt 0.8087 0.9706 0.0000
vt 0.8189 0.9336 0.0000
vt 0.8330 0.9557 0.0000
vt 0.7629 0.9732 0.0000
vt 0.7739 0.9362 0.0000
vt 0.7900 0.9615 0.0000
vt 0.9653 0.6400 0.0000
vt 0.9396 0.6546 0.0000
vt 0.9185 0.6502 0.0000
vt 0.9390 0.6734 0.0000
vt 0.9256 0.7213 0.0000
vt 0.9073 0.6927 0.0000
vt 0.9980 0.6701 0.0000
vt 0.9837 0.7177 0.0000
vt 0.9629 0.6851 0.0000
vt 0.6043 0.8635 0.0000
vt 0.5627 0.8870 0.0000
vt 0.5286 0.8800 0.0000
vt 0.5618 0.9173 0.0000
vt 0.5402 0.9947 0.0000
vt 0.5106 0.9485 0.0000
vt 0.6571 0.9120 0.0000
vt 0.6340 0.9890 0.0000
vt 0.6004 0.9363 0.0000
vt 0.8173 0.0060 0.0000
vt 0.8194 0.0052 0.0000
vt 0.8196 0.0073 0.0000
vt 0.8199 0.0048 0.0000
vt 0.8222 0.0041 0.0000
vt 0.8218 0.0061 0.0000
vt 0.8173 0.0033 0.0000
vt 0.8197 0.0019 0.0000
vt 0.8194 0.0040 0.0000
vt 0.9228 0.8332 0.0000
vt 0.9554 0.8147 0.0000
vt 0.9822 0.8202 0.0000
vt 0.9562 0.7908 0.0000
vt 0.9732 0.7300 0.0000
vt 0.9964 0.7663 0.0000
vt 0.8812 0.7951 0.0000
vt 0.8994 0.7345 0.0000
vt 0.9258 0.7759 0.0000
vt 0.7640 0.9533 0.0000
vt 0.7464 0.9260 0.0000
vt 0.7520 0.9017 0.0000
vt 0.7267 0.9257 0.0000
vt 0.6743 0.9094 0.0000
vt 0.7052 0.8894 0.0000
vt 0.7305 0.9889 0.0000
vt 0.6786 0.9728 0.0000
vt 0.7135 0.9496 0.0000
vt 0.2498 0.9948 0.0000
vt 0.2755 0.9803 0.0000
vt 0.2966 0.9846 0.0000
vt 0.2761 0.9615 0.0000
vt 0.2894 0.9136 0.0000
vt 0.3077 0.9422 0.0000
vt 0.2170 0.9648 0.0000
vt 0.2314 0.9171 0.0000
vt 0.2521 0.9498 0.0000
vt 0.9394 0.8954 0.0000
vt 0.9593 0.8843 0.0000
vt 0.9755 0.8876 0.0000
vt 0.9598 0.8697 0.0000
vt 0.9700 0.8327 0.0000
vt 0.9842 0.8548 0.0000
vt 0.9140 0.8723 0.0000
vt 0.9251 0.8353 0.0000
vt 0.9411 0.8606 0.0000
vt 0.6144 0.4825 0.0000
vt 0.6793 0.4707 0.0000
vt 0.7065 0.6975 0.0000
vt 0.6747 0.7276 0.0000
vt 0.8327 0.2292 0.0000
vt 0.8858 0.0565 0.0000
vt 0.8757 0.2529 0.0000
vt 0.2157 0.2352 0.0000
vt 0.1373 0.5156 0.0000
vt 0.1608 0.2223 0.0000
vt 0.3278 0.6550 0.0000
vt 0.3164 0.6502 0.0000
vt 0.8631 0.6329 0.0000
vt 0.8333 0.7473 0.0000
vt 0.3851 0.8267 0.0000
vt 0.3923 0.8059 0.0000
vt 0.5017 0.8394 0.0000
vt 0.4984 0.8605 0.0000
vt 0.7761 0.4557 0.0000
vt 0.7572 0.7112 0.0000
vt 0.7655 0.7179 0.0000
vt 0.5798 0.4784 0.0000
vt 0.5968 0.4548 0.0000
vt 0.6353 0.4378 0.0000
vt 0.0306 0.7540 0.0000
vt 0.0256 0.7686 0.0000
vt 0.6385 0.7366 0.0000
vt 0.7987 0.4591 0.0000
vt 0.1146 0.5334 0.0000
vt 0.7360 0.2366 0.0000
vt 0.8600 0.2833 0.0000
vt 0.4946 0.9755 0.0000
vt 0.4884 0.9470 0.0000
vt 0.4404 0.9742 0.0000
vt 0.1341 0.2325 0.0000
vt 0.0376 0.2273 0.0000
vt 0.0027 0.2221 0.0000
vt 0.0349 0.1953 0.0000
vt 0.0898 0.1870 0.0000
vt 0.0182 0.6617 0.0000
vt 0.3285 0.6677 0.0000
vt 0.0289 0.7269 0.0000
vt 0.0019 0.7210 0.0000
# 238 texture coords

o CroppyFieldsBonfire_obj
g CroppyFieldsBonfire_obj
usemtl Material__25
s 1
f 1/1/1 2/2/2 3/3/3 4/4/4 
f 5/5/5 1/1/1 6/6/6 7/7/7 
f 8/8/8 4/4/4 9/9/9 10/10/10 
f 1/1/1 4/4/4 8/8/8 6/6/6 
f 11/11/11 12/12/12 2/13/2 1/1/1 
f 11/11/11 1/1/1 5/5/5 
f 13/14/13 14/15/14 15/16/15 16/17/16 
f 17/18/17 18/19/18 19/20/19 20/21/20 
f 19/20/19 21/22/21 22/23/22 20/21/20 
f 23/24/23 24/25/24 25/26/25 26/27/26 
f 25/26/25 27/28/27 28/29/28 26/27/26 
f 29/30/29 30/31/30 31/32/31 32/33/32 
f 18/19/18 17/18/17 24/25/24 23/24/23 
f 33/34/33 34/35/34 35/36/35 36/37/36 
f 35/36/35 37/38/37 38/39/38 36/37/36 
f 32/40/32 31/41/31 39/42/39 40/43/40 
f 41/44/41 42/45/42 43/46/43 44/47/44 
f 45/48/45 46/49/46 47/50/47 48/51/48 
f 48/51/48 47/50/47 49/52/49 50/53/50 
f 51/54/51 16/17/16 52/55/52 53/56/53 
f 54/57/54 55/58/55 56/59/56 57/60/57 
f 57/60/57 56/59/56 58/61/58 15/62/15 
f 15/16/15 58/63/58 52/55/52 16/17/16 
f 59/64/59 60/65/60 10/10/10 9/9/9 
f 61/66/61 62/67/62 63/68/63 64/69/64 
f 65/70/65 66/71/66 32/40/32 40/43/40 
f 67/72/67 68/73/68 69/74/69 70/75/70 
f 67/72/67 70/75/70 71/76/71 72/77/72 
f 73/78/73 65/70/65 40/43/40 45/48/45 
f 73/78/73 45/48/45 74/79/74 
f 75/80/75 76/81/76 77/82/77 78/83/78 
f 79/84/79 80/85/80 81/86/81 82/87/82 
f 83/88/83 84/89/84 85/90/85 86/91/86 
f 87/92/87 88/93/88 89/94/89 90/95/90 
f 91/96/91 92/97/92 93/98/93 94/99/94 
f 95/100/95 96/101/96 97/102/97 98/103/98 
f 99/104/99 100/105/100 101/106/101 102/107/102 
f 101/106/101 103/108/103 104/109/104 102/107/102 
f 105/110/105 106/111/105 107/112/105 
f 108/113/105 107/112/105 106/111/105 
f 106/111/105 109/114/105 108/113/105 
f 110/115/105 108/113/105 109/114/105 
f 109/114/105 111/116/105 110/115/105 
f 112/117/105 110/115/105 111/116/105 
f 113/118/105 114/119/105 115/120/105 
f 116/121/105 117/122/105 118/123/105 
f 119/124/106 120/125/107 121/126/108 
f 122/127/109 123/128/110 124/129/111 
f 125/130/112 126/131/113 127/132/114 
f 124/129/111 121/126/108 120/125/107 122/127/109 
f 125/130/112 127/132/114 122/127/109 120/125/107 
f 125/130/112 120/125/107 119/124/106 
f 123/128/110 122/127/109 127/132/114 126/131/113 
f 128/133/115 129/134/116 130/135/117 
f 131/136/118 132/137/119 133/138/120 
f 134/139/121 135/140/122 136/141/123 
f 133/138/120 130/135/117 129/134/116 131/136/118 
f 134/139/121 136/141/123 131/136/118 129/134/116 
f 134/139/121 129/134/116 128/133/115 
f 132/137/119 131/136/118 136/141/123 135/140/122 
f 137/142/124 138/143/125 139/144/126 
f 140/145/127 141/146/128 142/147/129 
f 143/148/130 144/149/131 145/150/132 
f 142/147/129 139/144/126 138/143/125 140/145/127 
f 143/148/130 145/150/132 140/145/127 138/143/125 
f 143/148/130 138/143/125 137/142/124 
f 141/146/128 140/145/127 145/150/132 144/149/131 
f 146/151/133 147/152/134 148/153/135 
f 149/154/136 150/155/137 151/156/138 
f 152/157/139 153/158/140 154/159/141 
f 151/156/138 148/153/135 147/152/134 149/154/136 
f 152/157/139 154/159/141 149/154/136 147/152/134 
f 152/157/139 147/152/134 146/151/133 
f 150/155/137 149/154/136 154/159/141 153/158/140 
f 155/160/142 156/161/143 157/162/144 
f 158/163/145 159/164/146 160/165/147 
f 161/166/148 162/167/149 163/168/150 
f 160/165/147 157/162/144 156/161/143 158/163/145 
f 161/166/148 163/168/150 158/163/145 156/161/143 
f 161/166/148 156/161/143 155/160/142 
f 159/164/146 158/163/145 163/168/150 162/167/149 
f 164/169/151 165/170/152 166/171/153 
f 167/172/154 168/173/155 169/174/156 
f 170/175/157 171/176/158 172/177/159 
f 169/174/156 166/171/153 165/170/152 167/172/154 
f 170/175/157 172/177/159 167/172/154 165/170/152 
f 170/175/157 165/170/152 164/169/151 
f 168/173/155 167/172/154 172/177/159 171/176/158 
f 173/178/160 174/179/161 175/180/162 
f 176/181/163 177/182/164 178/183/165 
f 179/184/166 180/185/167 181/186/168 
f 178/183/165 175/180/162 174/179/161 176/181/163 
f 179/184/166 181/186/168 176/181/163 174/179/161 
f 179/184/166 174/179/161 173/178/160 
f 177/182/164 176/181/163 181/186/168 180/185/167 
f 182/187/169 183/188/170 184/189/171 
f 185/190/172 186/191/173 187/192/174 
f 188/193/175 189/194/176 190/195/177 
f 187/192/174 184/189/171 183/188/170 185/190/172 
f 188/193/175 190/195/177 185/190/172 183/188/170 
f 188/193/175 183/188/170 182/187/169 
f 186/191/173 185/190/172 190/195/177 189/194/176 
f 191/196/178 192/197/179 193/198/180 194/199/181 
f 42/45/42 38/39/38 37/38/37 43/46/43 
f 195/200/182 3/3/3 2/201/2 12/202/12 
f 196/203/183 51/54/51 197/204/184 198/205/185 
f 74/79/74 45/48/45 48/51/48 199/206/186 
f 74/79/74 199/206/186 200/207/187 
f 100/105/100 99/104/99 201/208/188 202/209/189 
f 104/109/104 96/101/96 95/100/95 201/208/188 
f 104/109/104 201/208/188 99/104/99 102/107/102 
f 103/108/103 101/106/101 100/105/100 202/209/189 
f 103/108/103 202/209/189 98/103/98 97/102/97 
f 95/100/95 98/103/98 202/209/189 201/208/188 
f 203/210/190 204/211/191 205/212/192 206/213/193 
f 93/98/93 88/93/88 87/92/87 206/213/193 
f 93/98/93 206/213/193 205/212/192 94/99/94 
f 92/97/92 91/96/91 204/211/191 203/210/190 
f 92/97/92 203/210/190 90/95/90 89/94/89 
f 94/99/94 205/212/192 204/211/191 91/96/91 
f 206/213/193 87/92/87 90/95/90 203/210/190 
f 81/86/81 76/81/76 75/80/75 83/88/83 
f 81/86/81 83/88/83 86/91/86 82/87/82 
f 80/85/80 79/84/79 85/90/85 84/89/84 
f 80/85/80 84/89/84 78/83/78 77/82/77 
f 85/90/85 79/84/79 82/87/82 86/91/86 
f 83/88/83 75/80/75 78/83/78 84/89/84 
f 207/214/194 208/215/195 62/67/62 61/66/61 
f 194/199/181 193/198/180 63/68/63 62/67/62 
f 194/199/181 62/67/62 208/215/195 209/216/196 
f 191/196/178 210/217/197 207/218/194 61/219/61 
f 191/196/178 61/219/61 64/69/64 192/197/179 
f 68/73/68 74/79/74 200/207/187 69/74/69 
f 211/220/198 72/77/72 29/30/29 32/33/32 
f 211/220/198 32/33/32 66/221/66 
f 191/196/178 194/199/181 209/222/196 210/217/197 
f 207/214/194 210/223/197 209/216/196 208/215/195 
f 192/197/179 64/69/64 63/68/63 193/198/180 
f 197/204/184 51/54/51 53/56/53 212/224/199 
f 54/57/54 197/204/184 212/224/199 55/58/55 
f 213/225/200 60/65/60 59/64/59 195/200/182 
f 213/225/200 195/200/182 12/202/12 11/226/11 
f 60/65/60 213/225/200 7/7/7 6/6/6 
f 60/65/60 6/6/6 8/8/8 10/10/10 
f 213/225/200 11/11/11 5/5/5 7/7/7 
f 33/34/33 214/227/201 215/228/202 34/35/34 
f 31/41/31 30/31/30 49/52/49 
f 39/42/39 47/50/47 46/49/46 
f 31/41/31 49/52/49 47/50/47 39/42/39 
f 43/46/43 37/38/37 35/36/35 34/35/34 
f 43/46/43 34/35/34 215/228/202 44/47/44 
f 42/45/42 41/44/41 214/227/201 33/229/33 
f 42/45/42 33/229/33 36/37/36 38/39/38 
f 45/48/45 40/43/40 39/42/39 46/49/46 
f 214/227/201 41/44/41 44/47/44 215/228/202 
f 28/29/28 21/22/21 19/20/19 18/19/18 
f 28/29/28 18/19/18 23/24/23 26/27/26 
f 29/30/29 50/53/50 49/52/49 30/31/30 
f 27/28/27 25/26/25 24/25/24 17/18/17 
f 27/28/27 17/18/17 20/21/20 22/23/22 
f 197/204/184 54/57/54 216/230/203 198/205/185 
f 217/231/204 14/232/14 13/233/13 196/234/183 
f 217/231/204 196/234/183 198/205/185 216/230/203 
f 15/62/15 14/232/14 217/231/204 57/60/57 
f 56/59/56 55/58/55 212/224/199 53/56/53 
f 56/59/56 53/56/53 52/55/52 58/61/58 
f 13/14/13 16/17/16 51/54/51 196/203/183 
f 217/231/204 216/230/203 54/57/54 57/60/57 
f 74/79/74 68/73/68 218/235/205 73/78/73 
f 59/64/59 9/9/9 4/4/4 3/3/3 
f 59/64/59 3/3/3 195/200/182 
f 72/77/72 71/76/71 219/236/206 50/53/50 
f 72/77/72 50/53/50 29/30/29 
f 220/237/207 211/220/198 66/221/66 65/238/65 
f 220/237/207 65/238/65 73/78/73 218/235/205 
f 211/220/198 220/237/207 67/72/67 72/77/72 
f 70/75/70 69/74/69 200/207/187 199/206/186 
f 70/75/70 199/206/186 219/236/206 71/76/71 
f 48/51/48 50/53/50 219/236/206 199/206/186 
f 218/235/205 68/73/68 67/72/67 220/237/207 
# 132 polygons - 48 triangles

