# OBJ written from D:\Projekty\Diagooo\4_Implementacja\DiagoUnity\DiagoUnity\Assets\_Diago\_Art\Meshes\Croppy Fields\CroppyFieldsHaystack.obj
# Units	meters

o Haystack.obj
v -0.275085 0.49719 -0.286674
v 0.25748 0.49719 -0.286674
v 0.25748 0.49719 0.296024
v -0.275085 0.49719 0.296024
v -0.008802 0.613968 -0.363318
v 0.32753 0.613968 0.004675
v -0.008802 0.613968 0.372668
v -0.345135 0.613968 0.004675
v -0.166756 0.575378 -0.337991
v 0.149151 0.575378 -0.337991
v 0.304382 0.575378 -0.168148
v 0.304382 0.575378 0.177498
v 0.149151 0.575378 0.347341
v -0.166756 0.575378 0.347341
v -0.321987 0.575378 0.177498
v -0.321987 0.575378 -0.168148
v -0.192174 0.767571 0.004675
v -0.008802 0.767571 -0.195958
v -0.179465 0.719145 -0.182053
v -0.008802 0.767571 0.205308
v -0.179465 0.719145 0.191403
v 0.174569 0.767571 0.004675
v 0.16186 0.719145 0.191403
v 0.16186 0.719145 -0.182053
v 0.318236 -0.019768 -0.353149
v -0.335841 -0.019768 -0.353149
v -0.008802 -0.019768 -0.487152
v 0.318236 -0.019768 0.362499
v 0.438903 -0.019768 0.004675
v -0.335841 -0.019768 0.362499
v -0.008802 -0.019768 0.496502
v -0.456508 -0.019768 0.004675
v -0.187676 -0.019768 -0.452881
v 0.170071 -0.019768 -0.452881
v 0.408183 -0.019768 -0.190473
v 0.408183 -0.019768 0.199823
v 0.170071 -0.019768 0.462231
v -0.187676 -0.019768 0.462231
v -0.425788 -0.019768 0.199823
v -0.425788 -0.019768 -0.190473
v -0.045379 1.40755 0.004221
v -0.012093 1.40835 0.035048
v 0.021194 1.40755 0.004221
v -0.012093 1.40835 -0.026607
v -0.048882 0.780691 0.004221
v -0.009011 0.781627 0.044119
v 0.030863 0.780643 0.004221
v -0.009011 0.781627 -0.035678
v -0.008802 0.336641 -0.495562
v -0.34802 0.25765 -0.366474
v -0.195105 0.300064 -0.462732
v 0.330415 0.25765 -0.366474
v 0.1775 0.300064 -0.462732
v 0.448489 0.336063 0.004675
v 0.418475 0.299574 -0.199205
v 0.330415 0.25765 0.375824
v 0.418475 0.299574 0.208555
v -0.008802 0.336641 0.504912
v 0.1775 0.300064 0.472082
v -0.34802 0.25765 0.375824
v -0.195105 0.300064 0.472082
v -0.466094 0.336063 0.004675
v -0.43608 0.299574 0.208555
v -0.43608 0.299574 -0.199205
vn -0.80233 0.596683 -0.015348
vn 1.3e-005 0.576732 0.816933
vn 0.798575 0.601703 -0.0152
vn 3.9e-005 0.563126 -0.826371
vn 0.001861 0.927923 -0.372767
vn 0.343818 0.939018 0.005885
vn -0.343333 0.9392 0.005153
vn 0.002542 0.925512 0.37871
vn -0.617119 0.520808 -0.58985
vn -0.716396 0.575043 -0.395099
vn -0.488783 0.746108 -0.452122
vn -0.435713 0.576476 -0.691252
vn -0.793767 0.608199 0.005288
vn -0.734819 0.548362 0.399173
vn -0.493993 0.736742 0.461717
vn -0.423394 0.905936 0.004062
vn -0.639614 0.508614 0.576373
vn -0.437813 0.582326 0.684994
vn 0.002889 0.919463 0.393167
vn 0.006202 0.644806 0.764321
vn 0.448648 0.577812 0.681798
vn 0.500557 0.745529 0.440033
vn 0.632134 0.520014 0.57445
vn 0.725433 0.572526 0.382047
vn 0.430994 0.595033 -0.678366
vn 0.481358 0.750006 -0.453635
vn 0.725018 0.565102 -0.39371
vn 0.631648 0.526457 -0.56909
vn -0.002889 0.919463 -0.393167
vn -0.006202 0.644806 -0.764321
vn 0.420536 0.907266 -0.004265
vn 0.790809 0.612038 -0.005595
vn -0.927866 0.147515 -0.342497
vn -0.724789 0.158456 -0.670501
vn -0.679627 -0.384324 -0.624822
vn -0.878574 -0.369629 -0.302459
vn 0.989285 0.145938 -0.004139
vn 0.927866 0.147515 0.342497
vn 0.878574 -0.369629 0.302459
vn 0.931888 -0.362746 -4.4e-005
vn 0.397124 0.162303 0.9033
vn 0.349723 -0.386089 0.853598
vn 0.679627 -0.384324 0.624822
vn 0.724789 0.158456 0.670501
vn 0.879383 -0.367399 -0.302826
vn 0.926641 0.152449 -0.34365
vn -0.005085 0.158163 -0.9874
vn 0.395316 0.155937 -0.905212
vn 0.350297 -0.383059 -0.854727
vn 8.7e-005 -0.383376 -0.923592
vn -0.349723 -0.386089 -0.853598
vn -0.397124 0.162303 -0.9033
vn 0.68069 -0.38074 -0.625858
vn 0.728756 0.157157 -0.666495
vn -0.989285 0.145938 0.004139
vn -0.931888 -0.362746 4.4e-005
vn -0.879383 -0.367399 0.302826
vn -0.926641 0.152449 0.34365
vn 0.005085 0.158163 0.9874
vn -0.395316 0.155937 0.905212
vn -0.350297 -0.383059 0.854727
vn -8.7e-005 -0.383376 0.923592
vn -0.68069 -0.380741 0.625858
vn -0.728756 0.157157 0.666495
vt 0.631389 0.168878
vt 0.632043 0.16175
vt 0.638769 0.161873
vt 0.638114 0.169002
vt 0.651696 0.0636994
vt 0.645476 0.162409
vt 0.643357 0.0630372
vt 0.626637 0.0625996
vt 0.625321 0.161517
vt 0.618594 0.161594
vt 0.618273 0.0626855
vt 0.634995 0.0628792
vt 0.577569 0.235957
vt 0.55847 0.229058
vt 0.564085 0.202164
vt 0.588901 0.219301
vt 0.535259 0.224517
vt 0.511147 0.224764
vt 0.511196 0.196405
vt 0.538291 0.195598
vt 0.490004 0.228191
vt 0.481702 0.20835
vt 0.434357 0.157437
vt 0.402068 0.135047
vt 0.418228 0.113854
vt 0.445279 0.13112
vt 0.42959 0.0959159
vt 0.4498 0.102408
vt 0.529777 0.11689
vt 0.501501 0.132888
vt 0.498612 0.103728
vt 0.519285 0.0982367
vt 0.57534 0.178135
vt 0.604655 0.19984
vt 0.473116 0.136576
vt 0.474084 0.105868
vt 0.505728 0.169464
vt 0.470051 0.184191
vt 0.511023 0.160232
vt 0.544991 0.139134
vt 0.561331 0.276566
vt 0.589308 0.277065
vt 0.596343 0.312023
vt 0.565143 0.317806
vt 0.475368 0.0570818
vt 0.445412 0.0533728
vt 0.44142 0.0111814
vt 0.476467 0.00917588
vt 0.39105 0.0667128
vt 0.378583 0.0248416
vt 0.408974 0.0169771
vt 0.416486 0.0532955
vt 0.511512 0.0126012
vt 0.505543 0.0547487
vt 0.585592 0.0894372
vt 0.55956 0.0706507
vt 0.574123 0.0290246
vt 0.604173 0.0391606
vt 0.639296 0.248255
vt 0.654128 0.296395
vt 0.625348 0.304554
vt 0.613789 0.264536
vt 0.543877 0.0197892
vt 0.534606 0.0559879
vt 0.531854 0.27222
vt 0.530713 0.320396
vt 0.493737 0.317891
vt 0.500893 0.273594
vt 0.418829 0.227836
vt 0.444437 0.252344
vt 0.423466 0.297572
vt 0.389307 0.28232
vt 0.457841 0.309868
vt 0.470105 0.270635
vt 0.364391 0.0841484
vt 0.34836 0.0335774
vt 0.54107 0.173356
vt 0.54928 0.168951
vt 0.472164 0.161272
vt 0.463355 0.166421
vt 0.534119 0.166933
vt 0.480825 0.168265
usemtl zoltty
g haystack
f 41/1/1 42/2/2 43/3/3 44/4/4
f 48/5/5 44/6/4 43/3/3 47/7/6
f 45/8/7 41/9/1 44/10/4 48/11/5
f 46/12/8 42/2/2 41/9/1 45/8/7
f 47/7/6 43/3/3 42/2/2 46/12/8
f 1/13/9 16/14/10 19/15/11 9/16/12
f 8/17/13 15/18/14 21/19/15 17/20/16
f 15/18/14 4/21/17 14/22/18 21/19/15
f 20/23/19 7/24/20 13/25/21 23/26/22
f 23/26/22 13/25/21 3/27/23 12/28/24
f 10/29/25 24/30/26 11/31/27 2/32/28
f 17/20/16 19/15/11 16/14/10 8/17/13
f 18/33/29 5/34/30 9/16/12 19/15/11
f 22/35/31 23/26/22 12/28/24 6/36/32
f 20/37/19 21/19/15 14/22/18 7/38/20
f 19/15/11 17/20/16 18/33/29
f 17/20/16 21/19/15 20/37/19
f 23/26/22 22/35/31 20/23/19
f 18/39/29 24/30/26 10/29/25 5/40/30
f 22/35/31 6/36/32 11/31/27 24/30/26
f 24/30/26 18/39/29 22/35/31
f 64/41/33 50/42/34 26/43/35 40/44/36
f 54/45/37 57/46/38 36/47/39 29/48/40
f 59/49/41 37/50/42 28/51/43 56/52/44
f 54/45/37 29/48/40 35/53/45 55/54/46
f 57/46/38 56/52/44 28/51/43 36/47/39
f 49/55/47 53/56/48 34/57/49 27/58/50
f 49/59/47 27/60/50 33/61/51 51/62/52
f 55/54/46 35/53/45 25/63/53 52/64/54
f 62/65/55 64/41/33 40/44/36 32/66/56
f 51/62/52 33/61/51 26/43/35 50/42/34
f 53/56/48 52/64/54 25/63/53 34/57/49
f 62/65/55 32/66/56 39/67/57 63/68/58
f 58/69/59 61/70/60 38/71/61 31/72/62
f 63/68/58 39/67/57 30/73/63 60/74/64
f 58/75/59 31/76/62 37/50/42 59/49/41
f 61/70/60 60/74/64 30/73/63 38/71/61
f 55/54/46 52/64/54 2/32/28 11/31/27
f 62/65/55 8/17/13 16/14/10 64/41/33
f 57/46/38 12/28/24 3/27/23 56/52/44
f 49/59/47 51/62/52 9/16/12 5/34/30
f 58/69/59 7/38/20 14/22/18 61/70/60
f 62/65/55 63/68/58 15/18/14 8/17/13
f 53/56/48 10/29/25 2/32/28 52/64/54
f 54/45/37 6/36/32 12/28/24 57/46/38
f 58/75/59 59/49/41 13/25/21 7/24/20
f 63/68/58 60/74/64 4/21/17 15/18/14
f 54/45/37 55/54/46 11/31/27 6/36/32
f 59/49/41 56/52/44 3/27/23 13/25/21
f 49/55/47 5/40/30 10/29/25 53/56/48
f 61/70/60 14/22/18 4/21/17 60/74/64
f 64/41/33 16/14/10 1/13/9 50/42/34
f 51/62/52 50/42/34 1/13/9 9/16/12
f 18/33/29 17/20/16 45/77/7 48/78/5
f 20/23/19 22/35/31 47/79/6 46/80/8
f 20/37/19 46/81/8 45/77/7 17/20/16
f 18/39/29 48/82/5 47/79/6 22/35/31
