# OBJ written from D:\Projekty\Diagooo\4_Implementacja\DiagoUnity\DiagoUnity\Assets\_Diago\_Art\Meshes\Croppy Fields\CroppyFieldsAppleTree1.obj
# Units	meters

o mAppleTree1.obj
v 0.0116751 0.351229 0.0296462
v -0.166858 0.369367 -0.000391197
v 0.137362 0.361509 0.0320936
v 0.0800232 0.362343 -0.125396
v -0.113418 0.3849 -0.159727
v -0.160892 0.427094 0.236051
v 0.178012 0.470855 0.291945
v 0.346346 0.537308 -0.103171
v -0.3501 0.567347 -0.154772
v -0.33342 0.545471 0.188892
v 0.0507624 0.509995 0.3888
v 0.17654 0.466556 -0.254215
v 0.316664 0.685655 -0.256631
v -0.255708 0.687741 -0.331358
v -0.310587 0.85127 0.270852
v 0.216259 0.744535 0.396286
v 0.364503 0.520855 0.140725
v 0.0419173 0.571322 -0.389376
v 0.334474 0.923818 -0.0432707
v -0.0681147 0.850004 -0.380343
v -0.421248 0.912133 -0.00995128
v 0.40068 0.757553 0.152106
v 0.225727 0.898221 -0.275604
v -0.32199 0.909987 -0.250747
v -0.0179973 0.989249 -0.281665
v -0.0585252 0.96552 0.303069
v 0.191408 0.949517 0.267626
v -0.25083 0.995028 -0.094198
v -0.237642 0.991995 0.146213
v 0.110372 1.04012 0.167366
v -0.0404007 1.07988 0.0101565
v 0.0437214 1.07513 0.0529859
v 0.147433 1.04888 -0.108053
v -0.37587 0.689482 -0.277257
v -0.467037 0.72093 0.00177497
v -0.0530088 0.765711 0.41841
v -0.14078 0.471544 -0.328005
v 0.0249126 -0.035566 0.0499691
v -0.0474498 -0.035566 0.0520793
v -0.04956 -0.035566 -0.0202909
v 0.0228027 -0.035566 -0.0224015
v -0.0452721 0.087602 0.0571351
v 0.0176889 0.087602 0.0552998
v -0.0471075 0.087602 -0.00583227
v 0.0158532 0.087602 -0.00766753
v 0.0038769 0.388496 0.0437086
v -0.0483228 0.388496 0.0623694
v -0.0669822 0.388496 0.0101644
v -0.0147828 0.388496 -0.00849719
v 0.0153003 0.135266 0.0497157
v -0.0389376 0.175937 0.0636125
v -0.0575973 0.175937 0.0114077
v -0.0069195 0.210403 -0.00745551
v 0.0111504 0.223763 0.0446714
v 0.0982869 0.379893 -0.0774187
v 0.0735043 0.392344 -0.0947559
v 0.0913004 0.397112 -0.0561473
vn 0.170165 -0.953552 -0.248562
vn -0.0183651 -0.991956 0.125241
vn -0.170699 -0.941259 -0.291364
vn -0.371913 -0.928239 0.00732723
vn 0.370641 -0.92654 0.0644023
vn -0.163647 -0.930607 0.327399
vn -0.282199 -0.95282 0.11179
vn -0.0120535 -0.935769 0.352406
vn 0.159231 -0.91345 0.374506
vn 0.633497 -0.709924 -0.307715
vn 0.398031 -0.737448 -0.545657
vn 0.272334 -0.844466 0.461207
vn 0.618326 -0.720458 0.314028
vn 0.540936 -0.835716 0.0946912
vn -0.659209 -0.58408 -0.473598
vn -0.526341 -0.848303 -0.0578609
vn -0.70665 -0.63076 -0.320605
vn -0.652273 -0.757282 -0.0326203
vn -0.713766 -0.697216 0.066541
vn -0.454589 -0.890691 0.00417254
vn -0.375906 -0.897985 0.22873
vn 0.0463891 -0.903501 0.426068
vn -0.610449 -0.212592 0.762992
vn -0.458447 -0.341334 0.820559
vn -0.364145 -0.24335 0.898988
vn -0.385581 -0.342006 -0.856947
vn -0.55645 -0.466866 -0.687313
vn 0.431912 -0.667086 -0.606999
vn 0.612358 -0.399197 -0.682392
vn -0.487765 -0.272186 -0.829458
vn -0.367048 -0.1427 -0.919191
vn -0.0501432 -0.0149697 -0.99863
vn -0.587958 -0.0323716 0.808244
vn -0.637796 -0.201447 0.743394
vn -0.777948 0.0651196 0.624945
vn -0.49281 -0.284272 0.822392
vn -0.548156 -0.312309 0.775879
vn 0.99324 0.0469622 -0.106155
vn 0.965276 0.142049 -0.219237
vn 0.996578 0.0416765 -0.0713874
vn 0.937008 0.191586 -0.292079
vn 0.314819 0.257717 -0.913494
vn 0.474328 -0.128827 -0.870871
vn 0.272182 -0.0397967 -0.961423
vn 0.0680028 0.0125819 -0.997606
vn -0.362941 -0.015941 -0.931676
vn 0.0515975 0.0527008 -0.997276
vn 0.109952 0.216911 -0.96998
vn 0.167619 -0.063246 -0.983821
vn 0.742675 0.532309 -0.406301
vn 0.915221 0.301346 -0.26751
vn -0.54277 0.413765 -0.730889
vn -0.389083 0.82843 -0.402887
vn -0.637026 0.585018 -0.501949
vn -0.904841 0.370278 0.210135
vn -0.623388 0.674097 0.396209
vn -0.592374 0.732251 0.336008
vn -0.135024 0.72587 0.674448
vn -0.431874 0.360518 0.826747
vn -0.105708 0.515016 0.850637
vn 0.330881 0.329361 0.88433
vn 0.337437 0.62296 0.705732
vn -0.13464 0.768949 0.624972
vn -0.0467201 0.327405 0.943728
vn 0.599939 0.306852 0.738861
vn 0.795696 0.32474 0.511284
vn 0.493666 0.682648 0.538781
vn 0.693942 0.624091 0.359103
vn 0.727886 0.536979 0.426421
vn 0.623668 0.780861 0.0359829
vn 0.39609 0.486111 -0.77898
vn 0.26593 0.339272 -0.902317
vn 0.121384 0.556928 -0.821643
vn -0.524467 0.778884 0.34391
vn -0.538194 0.626261 0.564043
vn 0.419791 0.684223 0.596334
vn 0.127448 0.905202 0.405421
vn 0.574036 0.692113 0.437564
vn 0.42134 0.860267 0.287078
vn 0.524252 0.621374 -0.582284
vn 0.304094 0.911857 -0.275759
vn 0.696813 0.714486 -0.0629401
vn 0.387623 0.694411 -0.606252
vn -0.00147124 0.865275 -0.501295
vn -0.4592 0.852935 0.248269
vn -0.144713 0.987663 0.0598259
vn -0.370482 0.91371 -0.166966
vn -0.357314 0.897904 0.257088
vn -0.093502 0.816293 0.57002
vn -0.0406019 0.894267 0.445688
vn 0.536144 0.837158 0.108241
vn 0.288446 0.956339 -0.0470494
vn -0.0567002 0.917639 -0.393349
vn -0.0138261 0.990489 0.136896
vn 0.152939 0.983787 0.0936671
vn -0.261455 0.0764672 -0.962182
vn -0.2876 0.249604 -0.924653
vn 0.0209691 0.41259 -0.910676
vn -0.399325 0.205015 -0.893593
vn -0.355897 0.189489 -0.915113
vn -0.435799 -0.434477 -0.788232
vn -0.299038 -0.706438 -0.6415
vn -0.932981 -0.297657 -0.202353
vn -0.947842 -0.116858 -0.296545
vn -0.845143 -0.520799 -0.120423
vn -0.827452 0.250471 0.502581
vn -0.668411 0.533008 0.518776
vn -0.68448 0.206806 0.699084
vn -0.472228 0.876575 -0.0928283
vn -0.394885 0.870614 -0.293425
vn -0.18297 0.883026 -0.43219
vn -0.908506 0.232042 -0.347524
vn -0.94474 0.0142432 -0.327511
vn -0.980619 0.133877 -0.143048
vn -0.891331 0.262272 -0.369788
vn 0.569107 -0.361172 0.738696
vn 0.530104 -0.252559 0.809447
vn 0.292432 -0.235948 0.926721
vn 0.652427 -0.29427 0.698386
vn 0.56028 -0.550947 0.618501
vn 0.677881 -0.480545 0.556376
vn 0.0981795 0.239389 0.965947
vn -0.099934 -0.273669 0.956618
vn 0.249025 0.030917 0.968004
vn 0.725161 -0.251653 0.640947
vn 0.785111 0.14966 0.601001
vn 0.70423 -0.115846 0.700456
vn 0.135497 -0.761213 -0.634189
vn 0.347558 -0.541204 -0.765703
vn 0.563381 -0.243991 -0.789348
vn 0.391104 -0.608983 -0.690056
vn 0.374565 -0.217023 -0.901444
vn 0.0291191 0.0382337 0.998844
vn 0.145732 0.0679869 0.986985
vn -0.0288015 0.152757 -0.987844
vn -0.185856 0.0854233 -0.978857
vn -0.336539 -0.0203669 -0.941449
vn 0.0291218 -0.0415165 0.998713
vn -0.999439 0.0164804 0.0291428
vn -0.998653 0.0429458 0.0291168
vn -0.982573 0.0151079 0.18526
vn -0.940907 -0.0395817 0.336345
vn -0.0289522 0.117118 -0.992696
vn 0.997787 0.059784 -0.0290944
vn 0.992196 0.121286 -0.0289319
vn 0.353231 0.0731419 0.932673
vn 0.506155 0.0468381 0.861169
vn 0.260179 0.0171351 0.965408
vn 0.976223 0.112609 -0.185222
vn 0.982821 0.182325 -0.028659
vn 0.94091 0.0395798 -0.336337
vn 0.715561 0.0731569 0.694709
vn 0.303613 -0.518456 -0.799389
vn -0.864923 0.468611 0.179753
vt 0.535412 0.83573
vt 0.563311 0.83573
vt 0.551494 0.85434
vt 0.584751 0.83573
vt 0.648196 0.890772
vt 0.663941 0.87418
vt 0.663941 0.906906
vt 0.600493 0.835708
vt 0.585844 0.875749
vt 0.600456 0.87418
vt 0.638184 0.926662
vt 0.663941 0.930952
vt 0.620151 0.908939
vt 0.531049 0.877866
vt 0.551738 0.897098
vt 0.574877 0.895349
vt 0.593737 0.888825
vt 0.529944 0.911729
vt 0.639743 0.947762
vt 0.502401 0.879429
vt 0.572252 0.933284
vt 0.558459 0.922938
vt 0.58614 0.920851
vt 0.615851 0.956558
vt 0.613069 0.931713
vt 0.630572 0.969838
vt 0.663941 0.959721
vt 0.502401 0.923781
vt 0.663941 0.998472
vt 0.502401 0.945401
vt 0.566423 0.960261
vt 0.581669 0.947332
vt 0.597435 0.919115
vt 0.594767 0.94807
vt 0.623357 0.997443
vt 0.589217 0.970717
vt 0.608376 0.982061
vt 0.565043 0.997443
vt 0.5485 0.997443
vt 0.581426 0.997443
vt 0.598132 0.997443
vt 0.538273 0.949875
vt 0.540764 0.916354
vt 0.555426 0.950463
vt 0.502401 0.83573
vt 0.502401 0.997443
vt 0.65017 0.862318
vt 0.642496 0.862542
vt 0.642379 0.854032
vt 0.650719 0.853523
vt 0.651624 0.844685
vt 0.643768 0.845298
vt 0.642496 0.836064
vt 0.651444 0.836064
vt 0.62147 0.84489
vt 0.62147 0.836064
vt 0.66381 0.862542
vt 0.66381 0.853716
vt 0.66381 0.84489
vt 0.62147 0.853716
vt 0.66381 0.836064
vt 0.66381 0.871368
vt 0.651444 0.871368
vt 0.637766 0.862542
vt 0.62147 0.862542
vt 0.642496 0.871368
vt 0.62147 0.871368
vt 0.602451 0.844567
vt 0.60833 0.83481
vt 0.60833 0.871201
vt 0.602451 0.871728
vt 0.613606 0.845124
vt 0.613606 0.87252
vt 0.619895 0.845228
vt 0.619895 0.872278
usemtl mAppleTree
g mAppleTree
f 4/1/1 1/2/2 5/3/3
f 5/3/3 1/2/2 2/4/4
f 3/5/5 1/6/2 4/7/1
f 1/8/2 6/9/6 2/4/7
f 6/9/8 1/8/2 7/10/9
f 7/10/9 1/6/2 3/5/5
f 8/11/10 3/5/5 4/7/1 12/12/11
f 7/10/12 3/5/5 17/13/13
f 17/13/14 3/5/5 8/11/10
f 37/14/15 5/3/3 2/4/16 9/15/17
f 9/15/17 2/4/18 10/16/19
f 2/4/20 6/9/21 10/16/19
f 11/17/22 6/9/8 7/10/9
f 10/16/23 6/9/24 11/17/25
f 14/18/26 37/14/27 9/15/17
f 12/12/28 13/19/29 8/11/10
f 37/14/30 14/18/31 18/20/32
f 15/21/33 10/16/23 11/17/25
f 15/21/34 35/22/35 10/16/23
f 11/17/36 36/23/37 15/21/34
f 8/11/38 19/24/39 22/25/40 17/13/40
f 8/11/38 13/19/41 19/24/39
f 23/26/42 13/19/43 18/27/44
f 18/20/45 14/18/46 20/28/47
f 20/29/48 23/26/42 18/27/49
f 13/19/41 23/26/50 19/24/51
f 14/18/52 25/30/53 20/28/54
f 35/22/55 15/21/56 29/31/57
f 26/32/58 15/21/59 36/23/60
f 16/33/61 27/34/62 26/32/63 36/23/64
f 16/33/65 22/25/66 27/34/67
f 27/34/68 22/25/69 19/24/70
f 23/26/71 20/29/72 25/35/73
f 29/31/74 15/21/75 26/32/63
f 26/32/63 27/34/76 30/36/77
f 27/34/78 19/24/70 30/36/79
f 23/26/80 33/37/81 19/24/82
f 33/37/81 23/26/83 25/35/84
f 29/31/85 31/38/86 28/39/87
f 31/38/86 29/31/88 26/32/63
f 26/32/89 30/36/90 31/38/86
f 30/36/91 19/24/70 33/37/81 32/40/92
f 31/41/86 33/37/81 25/35/93
f 32/40/94 31/38/86 30/36/90
f 31/41/86 32/40/95 33/37/81
f 14/18/96 24/42/97 25/30/98
f 34/43/99 24/42/97 14/18/100
f 14/18/101 9/15/17 34/43/102
f 35/22/103 34/43/104 9/15/17
f 10/16/19 35/22/105 9/15/17
f 35/22/106 29/31/107 21/44/108
f 29/31/85 28/39/87 21/44/109
f 24/42/110 21/44/109 28/39/87
f 25/30/111 24/42/110 28/39/87
f 21/44/112 34/43/113 35/22/114
f 34/43/112 21/44/112 24/42/115
f 7/10/116 16/33/117 11/17/118
f 16/33/119 7/10/120 17/13/121
f 36/23/122 11/17/123 16/33/124
f 17/13/125 22/25/126 16/33/127
f 12/45/28 4/1/1 5/3/3 37/14/128
f 37/14/128 18/20/129 12/45/28
f 13/19/130 12/12/131 18/27/132
f 31/46/86 25/30/111 28/39/87
f 43/47/133 50/48/134 51/49/134 42/50/133
f 44/51/135 52/52/136 53/53/136 45/54/135
f 52/52/136 48/55/137 49/56/137 53/53/136
f 38/57/138 43/47/133 42/50/133 39/58/138
f 40/59/139 39/58/139 42/50/140 44/51/140
f 51/49/141 47/60/142 48/55/142 52/52/141
f 41/61/143 40/59/143 44/51/135 45/54/135
f 42/50/140 51/49/141 52/52/141 44/51/140
f 38/57/144 41/62/144 45/63/145 43/47/145
f 51/49/134 50/48/146 54/64/147 46/65/148 47/60/148
f 45/63/145 53/66/149 50/48/150 43/47/145
f 49/67/151 46/65/151 54/64/151 53/66/149
f 54/68/147 50/69/147 55/70/152 57/71/152
f 50/69/153 53/72/153 56/73/153 55/70/153
f 53/72/154 54/74/154 57/75/154 56/73/154
