# OBJ written from D:\Projekty\Diagooo\4_Implementacja\DiagoUnity\DiagoUnity\Assets\_Diago\_Art\Meshes\Croppy Fields\CroppyFieldsTree2.obj
# Units	meters

o CroppyFieldsTree2.obj
v 0.323577 1.06406 0.265491
v -0.0195872 1.21465 0.323258
v -0.0863751 0.659806 0.376837
v -0.205996 0.197851 -0.157221
v -0.30137 0.475102 0.138436
v -0.436608 0.558202 -0.147151
v -0.424906 0.757866 -0.085084
v 0.186096 0.172292 0.0713244
v 0.084291 1.14911 -0.366922
v 0.405132 0.974893 -0.135042
v 0.194979 1.5341 -0.021988
v 0.341104 1.39529 0.009098
v 0.388716 1.18785 -0.092127
v 0.130473 1.32599 -0.303547
v 0.276862 1.41311 0.137609
v -0.122508 0.409892 -0.422433
v 0.0311697 0.221986 -0.311041
v -0.0404773 0.102081 -0.218373
v -0.248047 0.259774 -0.338118
v 0.496395 0.852518 -0.001947
v 0.424587 0.515063 0.280052
v -0.028772 1.19693 -0.35646
v -0.309332 0.309934 -0.306636
v -0.416716 0.750203 -0.197868
v 0.385511 1.28614 0.104518
v 0.487363 1.0334 0.05259
v 0.0716689 1.53876 0.168233
v 0.239353 0.190808 -0.0244857
v 0.317819 0.37082 -0.168956
v -0.155832 1.41582 -0.108758
v 0.037792 1.36409 -0.300656
v 0.0643037 0.286114 0.380086
v -0.107403 0.19063 0.16642
v -0.041995 0.10262 -0.076183
v 0.262263 1.50748 0.06798
v 0.087557 1.5875 0.0990756
v -0.216158 1.35166 -0.00167686
v -0.261311 1.25405 -0.171983
v -0.043983 0.487153 -0.414625
v 0.440129 0.610042 0.289076
v -0.03639 -0.001803 0.121921
v -0.199077 -0.001803 0.000243
v -0.03639 -0.001803 -0.121437
v 0.125822 -0.001803 0.000243
v 0.039928 0.194567 0.084093
v -0.041102 0.190642 0.000243
v 0.039928 0.194567 -0.083609
v 0.120958 0.198493 0.000243
v 0.0221 0.107744 0.084093
v -0.059449 0.105649 0.000243
v 0.0221 0.107744 -0.083609
v 0.103648 0.109841 0.000243
vn -0.944612 0.127805 0.302281
vn -0.841668 0.147893 -0.519348
vn -0.965097 -0.258867 0.039684
vn -0.772095 0.456247 -0.442388
vn -0.304496 0.280284 -0.910342
vn 0.011959 0.370825 0.928626
vn 0.006101 0.190122 0.981742
vn -0.848749 0.528779 0.004293
vn -0.630135 0.776447 0.007804
vn 0.989993 0.141102 -0.002186
vn 0.999641 -0.026761 -0.001043
vn -0.995178 0.098084 6.7e-005
vn 1.9e-005 0.000427 -1
vn 0.013551 0.186085 -0.98244
vn 0.995594 -0.093771 5.8e-005
vn 1.8e-005 0.00041 1
vn 0.026824 0.366576 -0.930001
vn -0.349373 0.301271 0.832077
vn -0.435632 0.00446246 0.879652
vn 0.0932947 -0.553444 0.743801
vn 0.422723 0.224807 0.866669
vn -0.516691 -0.719213 0.412458
vn -0.798637 -0.217693 0.538161
vn -0.645292 -0.75961 0.081189
vn 0.466997 -0.840296 0.247268
vn 0.763379 -0.392929 0.468843
vn 0.38704 0.094883 -0.917168
vn 0.733145 0.046982 -0.678448
vn 0.769588 -0.345231 -0.493276
vn 0.30306 -0.0749282 -0.942127
vn 0.825529 0.258914 -0.501463
vn 0.458966 0.430372 -0.777258
vn 0.370935 0.822564 -0.401582
vn 0.859798 0.473985 -0.189964
vn -0.0684269 0.616082 0.734348
vn 0.579916 0.426448 0.694147
vn 0.102802 -0.891434 -0.387604
vn -0.514283 -0.477439 -0.712436
vn -0.0795336 -0.150026 -0.969996
vn 0.39327 -0.470139 -0.784059
vn 0.673839 -0.720486 -0.0370315
vn 0.972729 -0.071344 -0.220699
vn -0.788241 -0.351157 -0.421198
vn 0.843891 0.334377 0.419572
vn 0.694172 0.0209739 0.688702
vn 0.982972 0.177396 0.04793
vn -0.813673 0.47026 0.325375
vn -0.0475833 0.947656 0.0905669
vn -0.065946 0.663121 -0.745602
vn -0.58385 0.755787 -0.296488
vn -0.074879 -0.992142 0.100234
vn 0.699595 0.69184 0.178673
vt 0.751842 0.287099
vt 0.74851 0.278638
vt 0.76062 0.279005
vt 0.716999 0.278816
vt 0.713078 0.252736
vt 0.901028 0.177274
vt 0.912897 0.177235
vt 0.910544 0.190195
vt 0.892407 0.190195
vt 0.906424 0.160335
vt 0.915634 0.164837
vt 0.919011 0.190195
vt 0.921128 0.202871
vt 0.912897 0.203156
vt 0.923874 0.1655
vt 0.921128 0.177519
vt 0.901028 0.203117
vt 0.915634 0.215554
vt 0.906424 0.220056
vt 0.923875 0.21489
vt 0.825848 0.0868501
vt 0.771941 0.087398
vt 0.749956 0.0635748
vt 0.8169 0.0575123
vt 0.80303 0.283848
vt 0.776695 0.297041
vt 0.789782 0.2645
vt 0.714832 0.325392
vt 0.76728 0.326799
vt 0.743809 0.0272932
vt 0.778704 0.0412486
vt 0.715373 0.244231
vt 0.71321 0.2118
vt 0.780994 0.21164
vt 0.761544 0.236338
vt 0.687526 0.22917
vt 0.702922 0.251857
vt 0.679448 0.272596
vt 0.673097 0.25316
vt 0.855178 0.0717136
vt 0.845164 0.0540121
vt 0.794565 0.248218
vt 0.775962 0.255622
vt 0.76632 0.243875
vt 0.784787 0.237426
vt 0.747578 0.0164016
vt 0.765841 0.00189764
vt 0.807435 0.0202545
vt 0.772699 0.263209
vt 0.836357 0.042619
vt 0.785024 0.0433732
vt 0.819556 0.029153
vt 0.713275 0.292859
vt 0.685755 0.300256
vt 0.811679 0.237278
vt 0.681658 0.289977
vt 0.703503 0.259403
vt 0.705756 0.282468
vt 0.815616 0.304604
vt 0.803499 0.258131
vt 0.81993 0.255952
vt 0.670645 0.271298
vt 0.820635 0.00890688
vt 0.837196 0.0210733
vt 0.854792 0.0515336
vt 0.848561 0.0396073
vt 0.860797 0.0657291
usemtl Default
g CroppyFieldsTree2
f 7/1/1 24/2/2 6/3/3
f 24/2/2 38/4/4 22/5/5
f 41/6/6 49/7/7 50/8/8 42/9/9
f 44/10/10 52/11/11 49/7/7 41/6/6
f 50/8/8 46/12/12 47/13/13 51/14/14
f 52/11/11 48/15/15 45/16/16 49/7/7
f 43/17/17 51/14/14 52/18/11 44/19/10
f 49/7/7 45/16/16 46/12/12 50/8/8
f 51/14/14 47/13/13 48/20/15 52/18/11
f 42/9/9 50/8/8 51/14/14 43/17/17
f 2/21/18 3/22/19 32/23/20 1/24/21
f 33/25/22 5/26/23 6/3/3 4/27/24
f 2/28/18 7/1/1 5/26/23 3/29/19
f 8/30/25 21/31/26 32/23/20
f 9/32/27 10/33/28 29/34/29 39/35/30
f 13/36/31 14/37/32 11/38/33 12/39/34
f 27/40/35 2/21/18 1/24/21 15/41/36
f 18/42/37 19/43/38 16/44/39 17/45/40
f 28/46/41 29/47/29 20/48/42 21/31/26
f 22/5/5 16/44/39 23/49/43 24/2/2
f 25/50/44 1/24/21 40/51/45 26/52/46
f 37/53/47 2/28/18 27/54/35
f 18/42/37 17/45/40 29/34/29 28/55/41
f 36/56/48 11/38/33 31/57/49 30/58/50
f 32/59/20 5/26/23 33/25/22
f 32/59/20 33/25/22 34/60/51 8/61/25
f 35/62/52 11/38/33 36/56/48
f 38/4/4 37/53/47 30/58/50
f 20/48/42 10/63/28 13/64/31 26/52/46
f 35/65/52 15/41/36 25/50/44 12/66/34
f 4/27/24 18/42/37 34/60/51
f 10/33/28 9/32/27 14/37/32 13/36/31
f 12/66/34 25/50/44 26/52/46 13/64/31
f 22/5/5 9/32/27 39/35/30 16/44/39
f 9/32/27 22/5/5 31/57/49 14/37/32
f 38/4/4 30/58/50 31/57/49 22/5/5
f 31/57/49 11/38/33 14/37/32
f 15/41/36 35/65/52 36/67/48 27/40/35
f 30/58/50 37/53/47 27/54/35 36/56/48
f 12/39/34 11/38/33 35/62/52
f 15/41/36 1/24/21 25/50/44
f 4/27/24 34/60/51 33/25/22
f 10/63/28 20/48/42 29/47/29
f 23/49/43 19/43/38 18/42/37 4/27/24
f 18/42/37 28/55/41 8/61/25 34/60/51
f 40/51/45 32/23/20 21/31/26
f 8/30/25 28/46/41 21/31/26
f 26/52/46 40/51/45 21/31/26 20/48/42
f 39/35/30 29/34/29 17/45/40
f 17/45/40 16/44/39 39/35/30
f 19/43/38 23/49/43 16/44/39
f 24/2/2 23/49/43 6/3/3
f 7/1/1 6/3/3 5/26/23
f 37/53/47 38/4/4 24/2/2 7/1/1
f 32/59/20 3/29/19 5/26/23
f 2/28/18 37/53/47 7/1/1
f 1/24/21 32/23/20 40/51/45
f 6/3/3 23/49/43 4/27/24
