# OBJ written from D:\Projekty\Diagooo\4_Implementacja\DiagoUnity\DiagoUnity\Assets\_Diago\_Art\Meshes\Croppy Fields\CroppyFieldsAppleTree2.obj
# Units	meters

o mAppleTree2.obj
v -0.167505 0.221924 0.0119834
v -0.310395 0.42897 0.0257635
v 0.0314527 0.182815 0.00451611
v -0.0832492 0.224691 -0.148641
v -0.21785 0.320834 -0.144209
v -0.227493 0.356896 0.16625
v -0.0337183 0.249479 0.181368
v 0.21361 0.366956 -0.130901
v -0.30579 0.807898 -0.0795816
v -0.296107 0.642743 0.16672
v -0.119544 0.496474 0.301833
v 0.0620287 0.46749 -0.319051
v 0.21621 0.615195 -0.279174
v -0.120981 0.971174 -0.258676
v -0.139375 0.832765 0.28138
v 0.129058 0.427348 0.282557
v 0.161222 0.266724 0.123914
v 0.0524194 0.761897 -0.362124
v 0.327419 0.709384 -0.0389225
v 0.0537832 0.962007 -0.310201
v -0.171911 1.13744 0.00651246
v 0.286549 0.484513 0.178811
v 0.197772 0.887887 -0.256799
v -0.122478 1.14012 -0.119473
v 0.0582354 1.0997 -0.170383
v 0.100142 0.93437 0.255655
v 0.28695 0.691731 0.210462
v -0.0431781 1.17512 -0.0145615
v -0.0776445 1.09209 0.14429
v 0.270513 0.935429 0.135134
v 0.137737 1.1049 0.0608716
v 0.245307 1.04942 0.047546
v 0.238665 1.01508 -0.0836715
v -0.23573 1.05493 -0.0835747
v -0.257152 0.97746 0.0919476
v -0.0056407 0.674197 0.3525
v -0.14542 0.644808 -0.311227
v 0.0249185 -0.035566 0.0499691
v -0.0474513 -0.035566 0.0520793
v -0.0495615 -0.035566 -0.0202909
v 0.0228082 -0.035566 -0.0224015
v -0.0452732 0.087602 0.0571351
v 0.0176941 0.087602 0.0552998
v -0.0471089 0.087602 -0.00583227
v 0.015858 0.087602 -0.00766753
v 0.00388069 0.388496 0.0437086
v -0.0483244 0.388496 0.0623694
v -0.0669856 0.388496 0.0101644
v -0.0147808 0.388496 -0.00849719
v 0.0153051 0.135266 0.0497157
v -0.0389382 0.175937 0.0636125
v -0.0575998 0.175937 0.0114077
v -0.00691682 0.210403 -0.00745551
v 0.0111548 0.223763 0.0446714
v 0.0983 0.379893 -0.0774187
v 0.073515 0.392344 -0.0947559
v 0.0913128 0.397112 -0.0561473
vn -0.236023 -0.8098 -0.537138
vn -0.548794 -0.832144 0.0797618
vn -0.715483 -0.496844 -0.491151
vn -0.952248 -0.30522 0.00807197
vn 0.171779 -0.984032 -0.04662
vn -0.682303 -0.474229 0.556391
vn -0.101184 -0.756983 0.645553
vn 0.744463 -0.542779 -0.388801
vn 0.155405 -0.401564 -0.90255
vn 0.599027 -0.708197 0.373663
vn -0.532017 -0.0604822 -0.844571
vn -0.950767 0.130695 -0.281002
vn -0.871254 0.00630267 0.490792
vn -0.37656 -0.24008 0.894742
vn -0.452915 0.40425 -0.794638
vn 0.703242 -0.119686 -0.700803
vn 0.0998501 0.0858679 -0.99129
vn -0.436966 0.285713 0.852894
vn -0.826461 0.405697 0.390349
vn -0.0172288 0.0291353 0.999427
vn 0.993529 0.01277 -0.112859
vn 0.849482 -0.268883 0.453964
vn 0.68047 0.324174 -0.65717
vn 0.149586 0.490143 -0.858711
vn 0.285999 0.804405 -0.520709
vn -0.183205 0.724363 0.664631
vn 0.265946 0.44097 0.857216
vn 0.324718 -0.360325 0.874485
vn 0.780971 0.0510459 0.622478
vn 0.750085 0.418178 0.512347
vn 0.735608 0.60797 -0.298753
vn 0.401543 0.866261 0.297247
vn 0.0362888 0.997629 0.0584719
vn 0.710839 0.68019 0.179023
vn -0.326189 0.824594 -0.462218
vn -0.82292 0.488692 -0.289797
vn -0.553458 0.814199 0.175399
vn 0.720946 0.112574 0.683786
vn 0.59957 0.11776 0.791611
vn -0.577798 0.0577024 0.814137
vn -0.686029 0.0573601 0.725309
vn -0.72425 0.13792 -0.675604
vn -0.826252 0.0708975 -0.558822
vn 0.322449 0.109898 -0.940186
vn 0.674546 0.19202 -0.712822
vn -0.902926 -0.0423729 -0.427701
vn 0.427529 0.0135911 -0.903899
vn 0.727037 0.0129331 0.686476
vn -0.686353 -0.0177093 0.727053
vn -0.72648 0.0943768 -0.680676
vn -0.463342 -0.0152784 0.886048
vn 0.682686 0.124653 -0.720001
vn 0.544934 0.310094 0.77903
vn 0.885079 0.0417931 0.463561
vn 0.781484 -0.0436936 0.622393
vn 0.91232 -0.398612 -0.0937051
vn -0.14369 0.521195 0.841254
vn 0.989328 -0.129954 -0.0658924
vn 0.303613 -0.518456 -0.799389
vn -0.864923 0.468611 0.179753
vt 0.534912 0.83573
vt 0.562811 0.83573
vt 0.550994 0.85434
vt 0.584251 0.83573
vt 0.647696 0.890772
vt 0.663441 0.87418
vt 0.663441 0.906906
vt 0.599993 0.835708
vt 0.585344 0.875749
vt 0.599956 0.87418
vt 0.637684 0.926662
vt 0.663441 0.930952
vt 0.619651 0.908939
vt 0.530549 0.877866
vt 0.551238 0.897098
vt 0.574377 0.895349
vt 0.593237 0.888825
vt 0.529444 0.911729
vt 0.639243 0.947762
vt 0.501901 0.879429
vt 0.571752 0.933284
vt 0.557959 0.922938
vt 0.58564 0.920851
vt 0.615351 0.956558
vt 0.612568 0.931713
vt 0.630072 0.969838
vt 0.663441 0.959721
vt 0.501901 0.923781
vt 0.663441 0.998472
vt 0.501901 0.945401
vt 0.565922 0.960261
vt 0.581169 0.947332
vt 0.596935 0.919115
vt 0.594267 0.94807
vt 0.622857 0.997443
vt 0.588717 0.970717
vt 0.607876 0.982061
vt 0.564543 0.997443
vt 0.548 0.997443
vt 0.580926 0.997443
vt 0.597632 0.997443
vt 0.537773 0.949875
vt 0.540264 0.916354
vt 0.554926 0.950463
vt 0.501901 0.83573
vt 0.501901 0.997443
vt 0.64967 0.862318
vt 0.641996 0.862542
vt 0.641879 0.854032
vt 0.650219 0.853523
vt 0.651124 0.844685
vt 0.643268 0.845298
vt 0.641996 0.836064
vt 0.650944 0.836064
vt 0.62097 0.84489
vt 0.62097 0.836064
vt 0.66331 0.862542
vt 0.66331 0.853716
vt 0.66331 0.84489
vt 0.62097 0.853716
vt 0.66331 0.836064
vt 0.66331 0.871368
vt 0.650944 0.871368
vt 0.637266 0.862542
vt 0.62097 0.862542
vt 0.641996 0.871368
vt 0.62097 0.871368
vt 0.601951 0.844567
vt 0.60783 0.83481
vt 0.60783 0.871201
vt 0.601951 0.871728
vt 0.613106 0.845124
vt 0.613106 0.87252
vt 0.619395 0.845228
vt 0.619395 0.872278
usemtl pien
g mAppleTree2
f 43/47/38 50/48/39 51/49/40 42/50/41
f 44/51/42 52/52/43 53/53/44 45/54/45
f 52/52/43 48/55/46 49/56/47 53/53/44
f 38/57/48 43/47/38 42/50/41 39/58/49
f 40/59/50 39/58/49 42/50/41 44/51/42
f 51/49/40 47/60/51 48/55/46 52/52/43
f 41/61/52 40/59/50 44/51/42 45/54/45
f 42/50/41 51/49/40 52/52/43 44/51/42
f 38/57/48 41/62/52 45/63/45 43/47/38
f 51/49/40 50/48/39 54/64/53 46/65/54 47/60/51
f 45/63/45 53/66/44 50/48/55 43/47/38
f 49/67/47 46/65/54 54/64/53 53/66/44
f 54/68/53 50/69/55 55/70/56 57/71/57
f 50/69/58 53/72/44 56/73/59 55/70/56
f 53/72/44 54/74/53 57/75/57 56/73/60
usemtl korona
f 4/1/1 1/2/2 5/3/3
f 5/3/3 1/2/2 2/4/4
f 3/5/5 1/6/2 4/7/1
f 1/8/2 6/9/6 2/4/4
f 6/9/6 1/8/2 7/10/7
f 7/10/7 1/6/2 3/5/5
f 8/11/8 3/5/5 4/7/1 12/12/9
f 7/10/7 3/5/5 17/13/10
f 17/13/10 3/5/5 8/11/8
f 37/14/11 5/3/3 2/4/4 9/15/12
f 9/15/12 2/4/4 10/16/13
f 2/4/4 6/9/6 10/16/13
f 11/17/14 6/9/6 7/10/7
f 10/16/13 6/9/6 11/17/14
f 14/18/15 37/14/11 9/15/12
f 12/12/9 13/19/16 8/11/8
f 37/14/11 14/18/15 18/20/17
f 15/21/18 10/16/13 11/17/14
f 15/21/18 35/22/19 10/16/13
f 11/17/14 36/23/20 15/21/18
f 8/11/8 19/24/21 22/25/22 17/13/10
f 8/11/8 13/19/16 19/24/21
f 23/26/23 13/19/16 18/27/17
f 18/20/17 14/18/15 20/28/24
f 20/29/24 23/26/23 18/27/17
f 13/19/16 23/26/23 19/24/21
f 14/18/15 25/30/25 20/28/24
f 35/22/19 15/21/18 29/31/26
f 26/32/27 15/21/18 36/23/20
f 16/33/28 27/34/29 26/32/27 36/23/20
f 16/33/28 22/25/22 27/34/29
f 27/34/29 22/25/22 19/24/21
f 23/26/23 20/29/24 25/35/25
f 29/31/26 15/21/18 26/32/27
f 26/32/27 27/34/29 30/36/30
f 27/34/29 19/24/21 30/36/30
f 23/26/23 33/37/31 19/24/21
f 33/37/31 23/26/23 25/35/25
f 29/31/26 31/38/32 28/39/33
f 31/38/32 29/31/26 26/32/27
f 26/32/27 30/36/30 31/38/32
f 30/36/30 19/24/21 33/37/31 32/40/34
f 31/41/32 33/37/31 25/35/25
f 32/40/34 31/38/32 30/36/30
f 31/41/32 32/40/34 33/37/31
f 14/18/15 24/42/35 25/30/25
f 34/43/36 24/42/35 14/18/15
f 14/18/15 9/15/12 34/43/36
f 35/22/19 34/43/36 9/15/12
f 10/16/13 35/22/19 9/15/12
f 35/22/19 29/31/26 21/44/37
f 29/31/26 28/39/33 21/44/37
f 24/42/35 21/44/37 28/39/33
f 25/30/25 24/42/35 28/39/33
f 21/44/37 34/43/36 35/22/19
f 34/43/36 21/44/37 24/42/35
f 7/10/7 16/33/28 11/17/14
f 16/33/28 7/10/7 17/13/10
f 36/23/20 11/17/14 16/33/28
f 17/13/10 22/25/22 16/33/28
f 12/45/9 4/1/1 5/3/3 37/14/11
f 37/14/11 18/20/17 12/45/9
f 13/19/16 12/12/9 18/27/17
f 31/46/32 25/30/25 28/39/33
