mtllib PortalMid.mtl
o PortalMid.obj
v -0.410612 0.040569 0.411583
v -0.258816 0.040505 0.519768
v 0.001100 0.040505 0.580784
v 0.260952 0.040505 0.519768
v 0.412553 0.040569 0.411583
v -0.518668 0.040505 0.259852
v -0.204141 0.040505 0.205241
v 0.001165 0.040505 0.290198
v 0.206406 0.040505 0.205241
v 0.520803 0.040505 0.259852
v -0.579684 0.040505 -0.000000
v -0.289033 0.040505 -0.000000
v 0.001165 0.040505 -0.000000
v 0.291363 0.040505 -0.000000
v 0.581884 0.040505 -0.000000
v -0.518668 0.040505 -0.259852
v -0.204141 0.040505 -0.205241
v 0.001165 0.040505 -0.290198
v 0.206406 0.040505 -0.205241
v 0.520803 0.040505 -0.259852
v -0.410612 0.040569 -0.411583
v -0.258816 0.040505 -0.519768
v 0.001100 0.040505 -0.580784
v 0.260952 0.040505 -0.519768
v 0.412553 0.040569 -0.411583
v 0.512133 0.040634 0.454546
v 0.438370 0.040634 0.505080
v 0.493110 0.040634 -0.430412
v 0.430606 0.040569 -0.489034
v -0.429376 0.040634 -0.491557
v -0.506051 0.040634 -0.433906
v -0.432353 0.040634 0.504368
v -0.509092 0.040634 0.434617
v -0.518668 -0.047428 0.259852
v -0.258816 -0.047428 0.519768
v 0.001100 -0.047428 0.580784
v 0.260952 -0.047428 0.519768
v 0.520803 -0.047428 0.259852
v 0.512198 -0.047299 0.454611
v -0.579684 -0.047428 -0.000000
v 0.581884 -0.047428 -0.000000
v -0.518668 -0.047428 -0.259852
v 0.520803 -0.047428 -0.259852
v -0.258816 -0.047428 -0.519768
v 0.001100 -0.047428 -0.580784
v 0.260952 -0.047428 -0.519768
v -0.429441 -0.047363 -0.491622
v 0.430670 -0.047363 -0.489034
v 0.438435 -0.047299 0.505145
v 0.493110 -0.047363 -0.430476
v -0.506115 -0.047299 -0.433970
v -0.432417 -0.047363 0.504368
v -0.509092 -0.047299 0.434617
v -0.258816 0.140796 0.519768
v -0.204141 0.140796 0.205241
v -0.518668 0.140796 0.259852
v -0.410612 0.140861 0.411583
v 0.001100 0.140796 0.580784
v 0.001165 0.140796 0.290198
v 0.260952 0.140796 0.519768
v 0.206406 0.140796 0.205241
v 0.412553 0.140861 0.411583
v 0.520803 0.140796 0.259852
v -0.289033 0.140796 -0.000000
v -0.579684 0.140796 -0.000000
v 0.581884 0.140796 -0.000000
v 0.291363 0.140796 -0.000000
v -0.204141 0.140796 -0.205241
v -0.518668 0.140796 -0.259852
v 0.520803 0.140796 -0.259852
v 0.206406 0.140796 -0.205241
v -0.258816 0.140796 -0.519768
v -0.410612 0.140861 -0.411583
v 0.001165 0.140796 -0.290198
v 0.001100 0.140796 -0.580784
v 0.260952 0.140796 -0.519768
v 0.412553 0.140861 -0.411583
vn -0.388182 0.835914 0.388024
vn -0.277972 0.247078 0.928269
vn 0.000027 0.000000 1.000000
vn 0.276663 0.247348 0.928589
vn 0.388227 0.835849 0.388119
vn -0.930488 0.247495 0.270072
vn 0.621900 0.476028 -0.621802
vn -0.000038 0.734469 -0.678643
vn -0.621862 0.475999 -0.621862
vn 0.931068 0.247647 0.267926
vn -1.000000 0.000000 0.000000
vn 0.678675 0.734439 0.000000
vn 0.000000 1.000000 0.000000
vn -0.678634 0.734477 0.000000
vn 1.000000 0.000000 0.000000
vn -0.929375 0.247272 -0.274078
vn 0.621900 0.476028 0.621802
vn -0.000038 0.734469 0.678643
vn -0.621862 0.475999 0.621862
vn 0.923167 0.246372 -0.295066
vn -0.388172 0.835941 -0.387975
vn -0.295409 0.246514 -0.923019
vn 0.000027 0.000000 -1.000000
vn 0.299293 0.246151 -0.921864
vn 0.388108 0.835769 -0.388409
vn 0.582595 0.745655 0.323391
vn 0.232257 0.719584 0.654413
vn 0.606436 0.726627 -0.322876
vn 0.310699 0.721861 -0.618371
vn -0.273431 0.718001 -0.640086
vn -0.590725 0.740000 -0.321627
vn -0.275873 0.726192 0.629713
vn -0.613178 0.734342 0.291127
vn -0.989838 0.000000 0.142202
vn -0.158852 0.000000 0.987302
vn 0.000027 0.000000 1.000000
vn 0.155782 0.000400 0.987791
vn 0.990560 0.000000 0.137079
vn 0.874131 0.000574 0.485689
vn -1.000000 0.000000 0.000000
vn 1.000000 0.000000 0.000000
vn -0.988576 0.000000 -0.150725
vn 0.980876 0.000058 -0.194635
vn -0.195759 0.000425 -0.980652
vn 0.000027 0.000000 -1.000000
vn 0.203459 0.000000 -0.979083
vn -0.393195 0.000962 -0.919455
vn 0.449528 0.000260 -0.893266
vn 0.334831 0.000944 0.942278
vn 0.882716 0.000324 -0.469907
vn -0.878051 0.000560 -0.478567
vn -0.401645 0.000258 0.915796
vn -0.903172 0.000265 0.429279
vn -0.288701 0.713791 0.638086
vn 0.370808 0.851496 -0.370750
vn -0.638144 0.713777 0.288609
vn -0.630793 0.452202 0.630565
vn 0.000019 0.716527 0.697559
vn -0.000038 0.734469 -0.678643
vn 0.288951 0.713867 0.637888
vn -0.370769 0.851449 -0.370896
vn 0.630820 0.452199 0.630541
vn 0.638007 0.713815 0.288817
vn 0.678675 0.734439 0.000000
vn -0.697557 0.716529 0.000000
vn 0.697537 0.716549 0.000000
vn -0.678634 0.734477 0.000000
vn 0.370904 0.851468 0.370718
vn -0.638059 0.713834 -0.288656
vn 0.637749 0.714151 -0.288556
vn -0.371108 0.851209 0.371108
vn -0.288572 0.713809 -0.638125
vn -0.630678 0.452243 -0.630652
vn -0.000038 0.734469 0.678643
vn 0.000019 0.716527 -0.697559
vn 0.288513 0.714163 -0.637755
vn 0.630595 0.452544 -0.630519
vt 0.008185 0.149855
vt 0.008253 0.118578
vt 0.018555 0.118600
vt 0.008375 0.538532
vt 0.008241 0.510490
vt 0.017220 0.510231
vt 0.017651 0.538522
vt 0.008138 0.485723
vt 0.008083 0.466877
vt 0.016616 0.485780
vt 0.598843 0.431717
vt 0.625811 0.420082
vt 0.628159 0.472808
vt 0.008014 0.224737
vt 0.008099 0.193517
vt 0.018301 0.224782
vt 0.487434 0.464589
vt 0.487434 0.543179
vt 0.408844 0.543179
vt 0.431834 0.487597
vt 0.543016 0.487597
vt 0.566023 0.543179
vt 0.008022 0.438013
vt 0.016954 0.437756
vt 0.007933 0.255888
vt 0.017918 0.256075
vt 0.487434 0.621768
vt 0.431834 0.598761
vt 0.543016 0.598761
vt 0.007961 0.408788
vt 0.017179 0.408859
vt 0.007881 0.333436
vt 0.007880 0.302662
vt 0.017860 0.333448
vt 0.007886 0.364089
vt 0.017913 0.364272
vt 0.007894 0.284323
vt 0.017175 0.284229
vt 0.417028 0.683939
vt 0.370838 0.676299
vt 0.007908 0.382460
vt 0.017176 0.382580
vt 0.557788 0.683939
vt 0.603732 0.675616
vt 0.008172 0.493688
vt 0.016448 0.493534
vt 0.605835 0.406396
vt 0.557788 0.402419
vt 0.007929 0.391035
vt 0.017003 0.391067
vt 0.628159 0.613550
vt 0.620659 0.659740
vt 0.598843 0.654641
vt 0.007904 0.274587
vt 0.017238 0.274712
vt 0.346656 0.613550
vt 0.375919 0.654641
vt 0.350073 0.660686
vt 0.008188 0.160921
vt 0.008244 0.140536
vt 0.018528 0.140569
vt 0.018479 0.160945
vt 0.370032 0.406589
vt 0.417028 0.402419
vt 0.008156 0.173045
vt 0.018442 0.173067
vt 0.349250 0.425479
vt 0.375919 0.431717
vt 0.346656 0.472808
vt 0.417028 0.402419
vt 0.431834 0.487597
vt 0.346656 0.472808
vt 0.375919 0.431717
vt 0.028946 0.149903
vt 0.028940 0.171740
vt 0.018446 0.171714
vt 0.018486 0.149877
vt 0.028933 0.193562
vt 0.018391 0.193536
vt 0.487416 0.385895
vt 0.487434 0.464589
vt 0.028955 0.118626
vt 0.030697 0.889141
vt 0.030918 0.938439
vt 0.008665 0.938539
vt 0.008445 0.889240
vt 0.557788 0.402419
vt 0.543016 0.487597
vt 0.028666 0.510070
vt 0.028679 0.538488
vt 0.029154 0.544144
vt 0.029374 0.593429
vt 0.007122 0.593529
vt 0.006902 0.544244
vt 0.598843 0.431717
vt 0.628159 0.472808
vt 0.028712 0.488460
vt 0.016942 0.488474
vt 0.028678 0.466577
vt 0.017193 0.466746
vt 0.408844 0.543179
vt 0.330132 0.543179
vt 0.030477 0.839862
vt 0.008225 0.839961
vt 0.028923 0.224832
vt 0.644700 0.543179
vt 0.566023 0.543179
vt 0.028517 0.437488
vt 0.029595 0.642714
vt 0.007343 0.642814
vt 0.431834 0.598761
vt 0.346656 0.613550
vt 0.030256 0.790582
vt 0.008004 0.790682
vt 0.028903 0.256246
vt 0.628159 0.613550
vt 0.028665 0.409059
vt 0.029815 0.691999
vt 0.007563 0.692098
vt 0.417028 0.683939
vt 0.375919 0.654641
vt 0.028900 0.279359
vt 0.028871 0.302389
vt 0.017906 0.302496
vt 0.017512 0.279311
vt 0.487434 0.621768
vt 0.487416 0.700463
vt 0.030036 0.741284
vt 0.007784 0.741383
vt 0.028870 0.333475
vt 0.543016 0.598761
vt 0.557788 0.683939
vt 0.028847 0.364490
vt 0.598843 0.654641
vt 0.028791 0.387129
vt 0.017204 0.386884
g PortalMid
usemtl Material1
f 35/1/35 36/2/36 3/3/3 2/77/2 
f 36/4/36 37/5/37 4/6/4 3/7/3 
f 39/8/39 38/9/38 10/100/10 26/10/26 
f 5/11/5 26/12/26 10/13/10 
f 40/14/40 34/15/34 6/79/6 11/16/11 
f 8/17/8 13/18/13 12/19/12 7/20/7 
f 9/21/9 14/22/14 13/18/13 8/17/8 
f 38/9/38 41/23/41 15/24/15 10/100/10 
f 42/25/42 40/14/40 11/16/11 16/26/16 
f 13/18/13 18/27/18 17/28/17 12/19/12 
f 14/22/14 19/29/19 18/27/18 13/18/13 
f 41/23/41 43/30/43 20/31/20 15/24/15 
f 45/32/45 44/33/44 22/124/22 23/34/23 
f 46/35/46 45/32/45 23/34/23 24/36/24 
f 44/33/44 47/37/47 30/38/30 22/124/22 
f 21/57/21 22/39/22 30/40/30 
f 48/41/48 46/35/46 24/36/24 29/42/29 
f 24/43/24 25/53/25 29/44/29 
f 49/45/49 39/8/39 26/10/26 27/46/27 
f 27/47/27 26/12/26 5/11/5 
f 37/5/37 49/45/49 27/46/27 4/6/4 
f 27/47/27 5/11/5 4/48/4 
f 43/30/43 50/49/50 28/50/28 20/31/20 
f 20/51/20 28/52/28 25/53/25 
f 50/49/50 48/41/48 29/42/29 28/50/28 
f 29/44/29 25/53/25 28/52/28 
f 51/54/51 42/25/42 16/26/16 31/55/31 
f 16/56/16 21/57/21 31/58/31 
f 47/37/47 51/54/51 31/55/31 30/38/30 
f 31/58/31 21/57/21 30/40/30 
f 52/59/52 35/60/35 2/61/2 32/62/32 
f 32/63/32 2/64/2 1/68/1 
f 34/15/34 53/65/53 33/66/33 6/79/6 
f 33/67/33 1/68/1 6/69/6 
f 53/65/53 52/59/52 32/62/32 33/66/33 
f 32/63/32 1/68/1 33/67/33 
f 54/70/54 55/71/55 56/72/56 57/73/57 
f 54/74/54 57/75/57 1/76/1 2/77/2 
f 57/75/57 56/78/56 6/79/6 1/76/1 
f 58/80/58 59/81/59 55/71/55 54/70/54 
f 58/82/58 54/74/54 2/77/2 3/3/3 
f 55/83/55 59/84/59 8/85/8 7/86/7 
f 60/87/60 61/88/61 59/81/59 58/80/58 
f 60/89/60 58/90/58 3/7/3 4/6/4 
f 59/91/59 61/92/61 9/93/9 8/94/8 
f 62/95/62 63/96/63 61/88/61 60/87/60 
f 62/97/62 60/89/60 4/6/4 5/98/5 
f 63/99/63 62/97/62 5/98/5 10/100/10 
f 55/71/55 64/101/64 65/102/65 56/72/56 
f 64/103/64 55/83/55 7/86/7 12/104/12 
f 56/78/56 65/105/65 11/16/11 6/79/6 
f 63/96/63 66/106/66 67/107/67 61/88/61 
f 66/108/66 63/99/63 10/100/10 15/24/15 
f 61/92/61 67/109/67 14/110/14 9/93/9 
f 64/101/64 68/111/68 69/112/69 65/102/65 
f 68/113/68 64/103/64 12/104/12 17/114/17 
f 65/105/65 69/115/69 16/26/16 11/16/11 
f 66/106/66 70/116/70 71/131/71 67/107/67 
f 70/117/70 66/108/66 15/24/15 20/31/20 
f 67/109/67 71/118/71 19/119/19 14/110/14 
f 68/111/68 72/120/72 73/121/73 69/112/69 
f 73/122/73 72/123/72 22/124/22 21/125/21 
f 69/115/69 73/122/73 21/125/21 16/26/16 
f 74/126/74 75/127/75 72/120/72 68/111/68 
f 74/128/74 68/113/68 17/114/17 18/129/18 
f 72/123/72 75/130/75 23/34/23 22/124/22 
f 71/131/71 76/132/76 75/127/75 74/126/74 
f 71/118/71 74/128/74 18/129/18 19/119/19 
f 75/130/75 76/133/76 24/36/24 23/34/23 
f 70/116/70 77/134/77 76/132/76 71/131/71 
f 77/135/77 70/117/70 20/31/20 25/136/25 
f 76/133/76 77/135/77 25/136/25 24/36/24 
