mtllib WoodenCrates.mtl
o WoodenCrates.obj
v 0.316633 0.661303 0.083546
v 0.316633 0.269449 -0.308308
v 0.280638 0.653123 0.075366
v 0.280638 0.277630 -0.300127
v 0.316633 0.288062 0.064934
v 0.316633 0.269449 0.046570
v 0.316633 0.306426 0.083546
v 0.316633 0.642691 -0.289694
v 0.316633 0.661303 -0.271331
v 0.316633 0.624327 -0.308308
v 0.280638 0.277630 0.038389
v 0.280638 0.314606 0.075366
v 0.280638 0.653123 -0.263150
v 0.280638 0.616146 -0.300127
v -0.194659 0.661303 0.083546
v -0.194659 0.269449 -0.308308
v -0.158664 0.653123 0.075366
v -0.158664 0.277630 -0.300127
v -0.194659 0.288062 0.064934
v -0.194659 0.269449 0.046570
v -0.194659 0.306426 0.083546
v -0.194659 0.642691 -0.289694
v -0.194659 0.661303 -0.271331
v -0.194659 0.624327 -0.308308
v -0.158664 0.277630 0.038389
v -0.158664 0.314606 0.075366
v -0.158664 0.653123 -0.263150
v -0.158664 0.616146 -0.300127
v 0.256914 0.269449 -0.368027
v -0.134940 0.661303 -0.368027
v 0.248733 0.277630 -0.332032
v -0.126760 0.653123 -0.332032
v -0.116328 0.288062 -0.368027
v -0.134940 0.306426 -0.368027
v -0.097964 0.269449 -0.368027
v 0.238301 0.642690 -0.368027
v 0.256914 0.624327 -0.368027
v 0.219937 0.661303 -0.368027
v -0.126760 0.314606 -0.332032
v -0.089783 0.277630 -0.332032
v 0.248733 0.616146 -0.332032
v 0.211757 0.653123 -0.332032
v 0.256914 0.269449 0.143265
v -0.134940 0.661303 0.143265
v 0.248733 0.277630 0.107270
v -0.126760 0.653123 0.107270
v -0.116328 0.288062 0.143265
v -0.134940 0.306426 0.143265
v -0.097964 0.269449 0.143265
v 0.238301 0.642690 0.143265
v 0.256914 0.624327 0.143265
v 0.219937 0.661303 0.143265
v -0.126760 0.314606 0.107270
v -0.089783 0.277630 0.107270
v 0.248733 0.616146 0.107270
v 0.211757 0.653123 0.107270
v 0.256914 0.209730 0.083546
v -0.134940 0.209730 -0.308308
v 0.248733 0.245725 0.075366
v -0.126760 0.245725 -0.300127
v -0.116328 0.209730 0.064934
v -0.134940 0.209730 0.046570
v -0.097964 0.209730 0.083546
v 0.238301 0.209730 -0.289694
v 0.256914 0.209730 -0.271331
v 0.219937 0.209730 -0.308308
v -0.126760 0.245725 0.038389
v -0.089783 0.245725 0.075366
v 0.248733 0.245725 -0.263150
v 0.211757 0.245725 -0.300127
v 0.256914 0.721022 0.083546
v -0.134940 0.721022 -0.308308
v 0.248733 0.685027 0.075366
v -0.126760 0.685027 -0.300127
v -0.116328 0.721022 0.064934
v -0.134940 0.721022 0.046570
v -0.097964 0.721022 0.083546
v 0.238301 0.721022 -0.289694
v 0.256914 0.721022 -0.271331
v 0.219937 0.721022 -0.308308
v -0.126760 0.685027 0.038389
v -0.089783 0.685027 0.075366
v 0.248733 0.685027 -0.263150
v 0.211757 0.685027 -0.300127
v 0.316633 0.269449 -0.368027
v 0.316633 0.209730 -0.308308
v 0.316633 0.209730 -0.368027
v 0.256914 0.209730 -0.368027
v 0.060987 0.209730 -0.368027
v 0.316633 0.209730 0.083546
v 0.316633 0.269449 0.143265
v 0.316633 0.209730 0.143265
v 0.256914 0.209730 0.143265
v 0.060987 0.209730 0.143265
v 0.316633 0.661303 -0.368027
v 0.316633 0.721022 -0.308308
v 0.316633 0.721022 -0.368027
v 0.256914 0.721022 -0.368027
v 0.060987 0.721022 -0.368027
v 0.316633 0.721022 0.083546
v 0.316633 0.661303 0.143265
v 0.316633 0.721022 0.143265
v 0.256914 0.721022 0.143265
v 0.060987 0.721022 0.143265
v -0.194659 0.269449 -0.368027
v -0.194659 0.209730 -0.308308
v -0.194659 0.209730 -0.368027
v -0.134940 0.209730 -0.368027
v -0.194659 0.209730 0.083546
v -0.194659 0.269449 0.143265
v -0.194659 0.209730 0.143265
v -0.134940 0.209730 0.143265
v -0.194659 0.661303 -0.368027
v -0.194659 0.721022 -0.308308
v -0.194659 0.721022 -0.368027
v -0.134940 0.721022 -0.368027
v -0.194659 0.721022 0.083546
v -0.194659 0.661303 0.143265
v -0.194659 0.721022 0.143265
v -0.134940 0.721022 0.143265
vn 0.928314 -0.262900 -0.262900
vn 0.928314 0.262900 0.262900
vn 0.723004 -0.488501 -0.488501
vn 0.723004 0.488500 0.488500
vn 1.000000 0.000000 0.000000
vn 0.973540 0.080995 -0.213680
vn 0.973540 0.213680 -0.080995
vn 1.000000 0.000000 0.000000
vn 0.973540 -0.080995 0.213680
vn 0.973540 -0.213680 0.080995
vn 0.850278 0.186553 -0.492164
vn 0.850278 0.492164 -0.186553
vn 0.850278 -0.186553 0.492164
vn 0.850278 -0.492164 0.186553
vn -0.928314 -0.262900 -0.262900
vn -0.928314 0.262900 0.262900
vn -0.723004 -0.488501 -0.488501
vn -0.723004 0.488500 0.488500
vn -1.000000 0.000000 0.000000
vn -0.973540 0.080995 -0.213680
vn -0.973540 0.213680 -0.080995
vn -1.000000 0.000000 0.000000
vn -0.973540 -0.080995 0.213680
vn -0.973540 -0.213680 0.080995
vn -0.850278 0.186553 -0.492164
vn -0.850278 0.492164 -0.186553
vn -0.850278 -0.186553 0.492164
vn -0.850278 -0.492164 0.186553
vn -0.262900 0.262900 -0.928314
vn 0.262900 -0.262900 -0.928314
vn -0.488500 0.488500 -0.723004
vn 0.488501 -0.488500 -0.723004
vn 0.000000 0.000000 -1.000000
vn 0.080995 0.213680 -0.973540
vn 0.213680 0.080995 -0.973540
vn 0.000000 0.000000 -1.000000
vn -0.080995 -0.213680 -0.973540
vn -0.213680 -0.080995 -0.973540
vn 0.186553 0.492164 -0.850278
vn 0.492164 0.186553 -0.850278
vn -0.186553 -0.492163 -0.850278
vn -0.492164 -0.186553 -0.850278
vn -0.262900 0.262900 0.928314
vn 0.262900 -0.262900 0.928314
vn -0.488500 0.488500 0.723004
vn 0.488501 -0.488501 0.723004
vn 0.000000 0.000000 1.000000
vn 0.080995 0.213680 0.973540
vn 0.213680 0.080995 0.973540
vn 0.000000 0.000000 1.000000
vn -0.080995 -0.213680 0.973540
vn -0.213680 -0.080995 0.973540
vn 0.186553 0.492164 0.850278
vn 0.492163 0.186553 0.850278
vn -0.186553 -0.492163 0.850278
vn -0.492164 -0.186553 0.850278
vn -0.262900 -0.928314 -0.262900
vn 0.262900 -0.928314 0.262900
vn -0.488500 -0.723004 -0.488501
vn 0.488500 -0.723004 0.488500
vn 0.000000 -1.000000 0.000000
vn 0.080995 -0.973540 -0.213680
vn 0.213680 -0.973540 -0.080995
vn 0.000000 -1.000000 0.000000
vn -0.080995 -0.973540 0.213680
vn -0.213680 -0.973540 0.080995
vn 0.186553 -0.850278 -0.492164
vn 0.492164 -0.850278 -0.186553
vn -0.186553 -0.850278 0.492164
vn -0.492163 -0.850278 0.186552
vn -0.262900 0.928314 -0.262900
vn 0.262900 0.928314 0.262900
vn -0.488501 0.723004 -0.488501
vn 0.488501 0.723004 0.488500
vn 0.000000 1.000000 0.000000
vn 0.080995 0.973540 -0.213680
vn 0.213680 0.973540 -0.080995
vn 0.000000 1.000000 0.000000
vn -0.080995 0.973540 0.213680
vn -0.213680 0.973540 0.080995
vn 0.186553 0.850278 -0.492164
vn 0.492164 0.850278 -0.186553
vn -0.186553 0.850278 0.492163
vn -0.492164 0.850278 0.186553
vn 0.707107 0.000000 -0.707107
vn 0.707107 -0.707107 0.000000
vn 0.408248 -0.816497 -0.408248
vn 0.000000 -0.707107 -0.707107
vn 0.000000 -1.000000 0.000000
vn 0.707107 -0.707107 0.000000
vn 0.707107 0.000000 0.707107
vn 0.816497 -0.408248 0.408248
vn 0.000000 -0.707107 0.707107
vn 0.000000 -1.000000 0.000000
vn 0.707107 0.000000 -0.707107
vn 0.707107 0.707107 0.000000
vn 0.577350 0.577350 -0.577350
vn 0.000000 0.707107 -0.707107
vn 0.000000 1.000000 0.000000
vn 0.707107 0.707107 0.000000
vn 0.707107 0.000000 0.707107
vn 0.408248 0.408248 0.816497
vn 0.000000 0.707107 0.707107
vn 0.000000 1.000000 0.000000
vn -0.707107 0.000000 -0.707107
vn -0.707107 -0.707107 0.000000
vn -0.408248 -0.408248 -0.816497
vn 0.000000 -0.707107 -0.707107
vn -0.707107 -0.707107 0.000000
vn -0.707107 0.000000 0.707107
vn -0.577350 -0.577350 0.577350
vn 0.000000 -0.707107 0.707107
vn -0.707107 0.000000 -0.707107
vn -0.707107 0.707107 0.000000
vn -0.816497 0.408248 -0.408248
vn 0.000000 0.707107 -0.707107
vn -0.707107 0.707107 0.000000
vn -0.707107 0.000000 0.707107
vn -0.408248 0.816497 0.408248
vn 0.000000 0.707107 0.707107
vt 0.420365 0.619111
vt 0.433964 0.605247
vt 0.629126 0.604763
vt 0.633932 0.626405
vt 0.436940 0.404051
vt 0.632184 0.402821
vt 0.636504 0.597895
vt 0.430013 0.410805
vt 0.937438 0.658596
vt 0.923265 0.957193
vt 0.903003 0.949163
vt 0.916524 0.664332
vt 0.953175 0.958860
vt 0.967349 0.660262
vt 0.987610 0.668292
vt 0.974090 0.953123
vt 0.938225 0.957922
vt 0.952389 0.659534
vt 0.645763 0.388860
vt 0.658203 0.602086
vt 0.408358 0.406651
vt 0.432104 0.382464
vt 0.421507 0.052998
vt 0.632152 0.046671
vt 0.627297 0.068424
vt 0.434577 0.066758
vt 0.432406 0.266601
vt 0.634960 0.071872
vt 0.632581 0.266987
vt 0.425609 0.258550
vt 0.841532 0.676202
vt 0.750237 0.960854
vt 0.732656 0.948157
vt 0.819741 0.676628
vt 0.778837 0.969768
vt 0.870132 0.685116
vt 0.887713 0.697814
vt 0.800627 0.969342
vt 0.764569 0.965211
vt 0.855800 0.680759
vt 0.646649 0.280892
vt 0.656447 0.067971
vt 0.403721 0.262028
vt 0.427016 0.288686
vt 0.069355 0.060774
vt 0.083018 0.074545
vt 0.080168 0.269625
vt 0.058371 0.273994
vt 0.284525 0.079958
vt 0.281674 0.275038
vt 0.086724 0.276506
vt 0.277969 0.073076
vt 0.737738 0.034864
vt 0.818126 0.316981
vt 0.796046 0.316170
vt 0.719364 0.047060
vt 0.847510 0.308711
vt 0.767122 0.026594
vt 0.789202 0.027404
vt 0.865883 0.296514
vt 0.832790 0.312747
vt 0.752458 0.030828
vt 0.295336 0.288809
vt 0.082235 0.298253
vt 0.282459 0.051330
vt 0.306322 0.075589
vt 0.301028 0.391189
vt 0.326017 0.599226
vt 0.305494 0.596468
vt 0.288446 0.405105
vt 0.085071 0.409727
vt 0.291604 0.602181
vt 0.089598 0.604466
vt 0.094495 0.409404
vt 0.763343 0.667094
vt 0.983699 0.473489
vt 0.992541 0.493692
vt 0.782344 0.678372
vt 0.963474 0.450621
vt 0.743118 0.644227
vt 0.734276 0.624023
vt 0.944473 0.439343
vt 0.973509 0.462123
vt 0.753307 0.655592
vt 0.075552 0.618479
vt 0.297475 0.624471
vt 0.089209 0.386987
vt 0.063573 0.406304
vt 0.649385 0.720876
vt 0.635492 0.734107
vt 0.439341 0.729284
vt 0.434632 0.707125
vt 0.629296 0.930528
vt 0.430505 0.928156
vt 0.430339 0.733850
vt 0.636304 0.924959
vt 0.924028 0.342753
vt 0.716734 0.550047
vt 0.706645 0.530401
vt 0.904382 0.332665
vt 0.738334 0.571646
vt 0.945627 0.364353
vt 0.955716 0.383998
vt 0.757980 0.581735
vt 0.727607 0.560774
vt 0.934755 0.353626
vt 0.416378 0.941807
vt 0.408931 0.729672
vt 0.657669 0.928862
vt 0.634285 0.952579
vt 0.309540 0.711800
vt 0.319270 0.925079
vt 0.297499 0.920582
vt 0.295796 0.725489
vt 0.094261 0.729718
vt 0.290902 0.927425
vt 0.095964 0.924812
vt 0.100858 0.722874
vt 0.845623 0.037533
vt 0.931337 0.318097
vt 0.909247 0.317704
vt 0.827486 0.050075
vt 0.960557 0.309271
vt 0.874844 0.028708
vt 0.896933 0.029100
vt 0.978695 0.296729
vt 0.945917 0.313585
vt 0.860264 0.033219
vt 0.082220 0.938502
vt 0.295264 0.949198
vt 0.096497 0.701102
vt 0.072490 0.725221
vt 0.419405 0.656876
vt 0.377554 0.661820
vt 0.382005 0.620409
vt 0.646458 0.350997
vt 0.688397 0.345318
vt 0.684325 0.387319
vt 0.656082 0.662814
vt 0.694803 0.624058
vt 0.694267 0.662160
vt 0.645683 0.613848
vt 0.371946 0.385040
vt 0.409830 0.346331
vt 0.372142 0.347640
vt 0.420596 0.394883
vt 0.384835 0.051052
vt 0.382179 0.013569
vt 0.420703 0.016506
vt 0.685638 0.280644
vt 0.694463 0.321588
vt 0.648597 0.319980
vt 0.653633 0.010699
vt 0.691666 0.046410
vt 0.689981 0.010548
vt 0.644292 0.057737
vt 0.364758 0.281925
vt 0.402832 0.326087
vt 0.359586 0.321635
vt 0.416123 0.275091
vt 0.031814 0.059273
vt 0.027596 0.018416
vt 0.068409 0.022612
vt 0.332877 0.290311
vt 0.337094 0.331165
vt 0.296283 0.326970
vt 0.021526 0.295469
vt 0.059751 0.334768
vt 0.021309 0.333948
vt 0.070670 0.285747
vt 0.304942 0.014814
vt 0.343168 0.054114
vt 0.343385 0.015635
vt 0.294023 0.063836
vt 0.334474 0.353713
vt 0.336407 0.387437
vt 0.300750 0.355647
vt 0.075077 0.656205
vt 0.037873 0.657524
vt 0.036554 0.620320
vt 0.363478 0.618752
vt 0.322683 0.662579
vt 0.364334 0.660521
vt 0.311356 0.610714
vt 0.067321 0.349661
vt 0.027662 0.384943
vt 0.029863 0.347854
vt 0.076056 0.397264
vt 0.652415 0.683350
vt 0.695216 0.684810
vt 0.686558 0.721804
vt 0.414000 0.980516
vt 0.368574 0.981452
vt 0.377706 0.941123
vt 0.412875 0.669543
vt 0.376556 0.825384
vt 0.372811 0.707782
vt 0.372725 0.670216
vt 0.422066 0.718900
vt 0.688646 0.834644
vt 0.694241 0.948855
vt 0.657364 0.989552
vt 0.697766 0.984937
vt 0.645533 0.940545
vt 0.310710 0.673644
vt 0.351547 0.669688
vt 0.347089 0.710519
vt 0.081050 0.976658
vt 0.040213 0.980615
vt 0.044671 0.939783
vt 0.355988 0.946771
vt 0.317532 0.985845
vt 0.198408 0.980559
vt 0.355979 0.985250
vt 0.306901 0.936760
vt 0.074228 0.664455
vt 0.193353 0.669742
vt 0.035772 0.703530
vt 0.035781 0.665050
vt 0.084859 0.713540
g WoodenCrate
usemtl Default
f 1/1/1 3/2/3 13/3/13 9/4/9 
f 11/5/11 4/6/4 14/7/14 
f 3/2/3 12/8/12 13/3/13 
f 10/9/10 6/10/6 11/11/11 14/12/14 
f 7/13/7 9/14/9 13/15/13 12/16/12 
f 7/13/7 5/17/5 8/18/8 9/14/9 
f 2/19/2 10/20/10 14/7/14 4/6/4 
f 10/9/10 8/18/8 5/17/5 6/10/6 
f 1/1/1 7/21/7 12/8/12 3/2/3 
f 6/22/6 2/19/2 4/6/4 11/5/11 
f 15/23/15 23/24/23 27/25/27 17/26/17 
f 25/27/25 28/28/28 18/29/18 
f 17/26/17 27/25/27 26/30/26 
f 20/31/20 24/32/24 28/33/28 25/34/25 
f 23/35/23 21/36/21 26/37/26 27/38/27 
f 21/36/21 23/35/23 22/39/22 19/40/19 
f 16/41/16 18/29/18 28/28/28 24/42/24 
f 24/32/24 20/31/20 19/40/19 22/39/22 
f 15/23/15 17/26/17 26/30/26 21/43/21 
f 20/44/20 25/27/25 18/29/18 16/41/16 
f 29/45/29 31/46/31 41/47/41 37/48/37 
f 39/49/39 32/50/32 42/51/42 
f 31/46/31 40/52/40 41/47/41 
f 38/53/38 34/54/34 39/55/39 42/56/42 
f 35/57/35 37/58/37 41/59/41 40/60/40 
f 35/57/35 33/61/33 36/62/36 37/58/37 
f 30/63/30 38/64/38 42/51/42 32/50/32 
f 38/53/38 36/62/36 33/61/33 34/54/34 
f 29/45/29 35/65/35 40/52/40 31/46/31 
f 34/66/34 30/63/30 32/50/32 39/49/39 
f 43/67/43 51/68/51 55/69/55 45/70/45 
f 53/71/53 56/72/56 46/73/46 
f 45/70/45 55/69/55 54/74/54 
f 48/75/48 52/76/52 56/77/56 53/78/53 
f 51/79/51 49/80/49 54/81/54 55/82/55 
f 49/80/49 51/79/51 50/83/50 47/84/47 
f 44/85/44 46/73/46 56/72/56 52/86/52 
f 52/76/52 48/75/48 47/84/47 50/83/50 
f 43/67/43 45/70/45 54/74/54 49/87/49 
f 48/88/48 53/71/53 46/73/46 44/85/44 
f 57/89/57 59/90/59 69/91/69 65/92/65 
f 67/93/67 60/94/60 70/95/70 
f 59/90/59 68/96/68 69/91/69 
f 66/97/66 62/98/62 67/99/67 70/100/70 
f 63/101/63 65/102/65 69/103/69 68/104/68 
f 63/101/63 61/105/61 64/106/64 65/102/65 
f 58/107/58 66/108/66 70/95/70 60/94/60 
f 66/97/66 64/106/64 61/105/61 62/98/62 
f 57/89/57 63/109/63 68/96/68 59/90/59 
f 62/110/62 58/107/58 60/94/60 67/93/67 
f 71/111/71 79/112/79 83/113/83 73/114/73 
f 81/115/81 84/116/84 74/117/74 
f 73/114/73 83/113/83 82/118/82 
f 76/119/76 80/120/80 84/121/84 81/122/81 
f 79/123/79 77/124/77 82/125/82 83/126/83 
f 77/124/77 79/123/79 78/127/78 75/128/75 
f 72/129/72 74/117/74 84/116/84 80/130/80 
f 80/120/80 76/119/76 75/128/75 78/127/78 
f 71/111/71 73/114/73 82/118/82 77/131/77 
f 76/132/76 81/115/81 74/117/74 72/129/72 
f 1/1/1 100/133/100 102/134/102 101/135/101 
f 2/19/2 86/136/86 87/137/87 85/138/85 
f 96/139/96 100/133/100 1/1/1 9/4/9 
f 10/20/10 2/19/2 85/138/85 95/140/95 
f 97/141/97 8/142/8 10/20/10 95/140/95 
f 97/141/97 96/139/96 9/4/9 8/142/8 
f 7/21/7 1/1/1 101/135/101 91/143/91 
f 90/144/90 86/136/86 2/19/2 6/22/6 
f 92/145/92 90/144/90 6/22/6 5/146/5 
f 92/145/92 5/146/5 7/21/7 91/143/91 
f 15/23/15 118/147/118 119/148/119 117/149/117 
f 16/41/16 105/150/105 107/151/107 106/152/106 
f 114/153/114 23/24/23 15/23/15 117/149/117 
f 24/42/24 113/154/113 105/150/105 16/41/16 
f 115/155/115 113/154/113 24/42/24 22/156/22 
f 115/155/115 22/156/22 23/24/23 114/153/114 
f 21/43/21 110/157/110 118/147/118 15/23/15 
f 109/158/109 20/44/20 16/41/16 106/152/106 
f 111/159/111 19/160/19 20/44/20 109/158/109 
f 111/159/111 110/157/110 21/43/21 19/160/19 
f 85/161/85 87/162/87 88/163/88 29/45/29 
f 30/63/30 113/164/113 115/165/115 116/166/116 
f 95/167/95 85/161/85 29/45/29 37/48/37 
f 38/64/38 30/63/30 116/166/116 98/168/98 
f 97/169/97 36/170/36 38/64/38 98/168/98 
f 97/169/97 95/167/95 37/48/37 36/170/36 
f 35/65/35 29/45/29 88/163/88 108/171/108 
f 105/172/105 113/164/113 30/63/30 34/66/34 
f 107/173/107 105/172/105 34/66/34 33/174/33 
f 107/173/107 33/174/33 35/65/35 108/171/108 
f 92/175/92 91/176/91 43/67/43 93/177/93 
f 44/85/44 120/178/120 119/179/119 118/180/118 
f 101/181/101 51/68/51 43/67/43 91/176/91 
f 52/86/52 103/182/103 120/178/120 44/85/44 
f 102/183/102 103/182/103 52/86/52 50/184/50 
f 102/183/102 50/184/50 51/68/51 101/181/101 
f 49/87/49 112/185/112 93/177/93 43/67/43 
f 110/186/110 48/88/48 44/85/44 118/180/118 
f 111/187/111 47/188/47 48/88/48 110/186/110 
f 111/187/111 112/185/112 49/87/49 47/188/47 
f 57/89/57 90/189/90 92/190/92 93/191/93 
f 58/107/58 106/192/106 107/193/107 108/194/108 
f 86/195/86 90/189/90 57/89/57 65/92/65 
f 66/108/66 58/107/58 108/194/108 89/196/89 88/197/88 
f 87/198/87 64/199/64 66/108/66 88/197/88 
f 87/198/87 86/195/86 65/92/65 64/199/64 
f 63/109/63 57/89/57 93/191/93 94/200/94 112/201/112 
f 109/202/109 106/192/106 58/107/58 62/110/62 
f 111/203/111 109/202/109 62/110/62 61/204/61 
f 111/203/111 61/204/61 63/109/63 112/201/112 
f 71/111/71 103/205/103 102/206/102 100/207/100 
f 72/129/72 116/208/116 115/209/115 114/210/114 
f 96/211/96 79/112/79 71/111/71 100/207/100 
f 80/130/80 98/212/98 99/213/99 116/208/116 72/129/72 
f 97/214/97 98/212/98 80/130/80 78/215/78 
f 97/214/97 78/215/78 79/112/79 96/211/96 
f 77/131/77 120/216/120 104/217/104 103/205/103 71/111/71 
f 117/218/117 76/132/76 72/129/72 114/210/114 
f 119/219/119 75/220/75 76/132/76 117/218/117 
f 119/219/119 120/216/120 77/131/77 75/220/75 
