# OBJ written from D:\Projekty\Diagooo\4_Implementacja\DiagoUnity\DiagoUnity\Assets\_Diago\_Art\Meshes\Rainbow Forest\ForestTrapPlant_Trigger.obj
# Units	meters

o Mesh
v -0.001103 -0.020011 -0.320958
v 0.063098 0.247798 -0.313113
v 0.235675 -0.019479 -0.428181
v 0.288148 0.247798 -0.38165
v 0.109539 -0.020109 -0.419584
v 0.381897 -0.018746 -0.45075
v 0.428511 -0.021111 -0.234737
v 0.41963 -0.020864 -0.109069
v 0.37948 0.219574 -0.146908
v 0.451391 -0.019958 -0.38102
v 0.320871 -0.020135 0.001156
v 0.235765 0.2463 0.041884
v 0.255783 0.271487 -0.000379
v 0.126788 0.238597 -0.000379
v 0.222543 0.210508 -0.22513
v 0.082129 0.271788 -0.084716
v 0.235561 0.244881 -0.041866
v 0.310526 0.247798 0.064927
v 0.42805 -0.018679 0.236762
v 0.379063 0.247798 0.289977
v 0.419584 -0.020109 0.109539
v 0.450164 -0.018051 0.382946
v 0.234866 -0.020038 0.428244
v 0.109693 -0.01997 0.419597
v 0.380971 -0.019432 0.451255
v -0.044471 0.2463 0.237594
v -0.002208 0.271487 0.257612
v 0.222543 0.210508 0.224372
v 0.082129 0.271788 0.083958
v 0.03928 0.244881 0.237389
v 0.319103 0.236802 0.381781
v 2.3e-005 -0.019839 0.316531
v -0.067514 0.247798 0.312355
v -0.236762 -0.018679 0.42805
v -0.292564 0.247798 0.380892
v -0.109539 -0.020109 0.419584
v -0.382946 -0.018051 0.450164
v -0.428331 -0.020352 0.234882
v -0.378089 0.247798 0.210157
v -0.451259 -0.019466 0.380991
v -0.24018 0.2463 -0.042642
v -0.260199 0.271487 -0.000379
v -0.002208 0.238597 0.128617
v -0.226958 0.210508 0.224372
v -0.086545 0.271788 0.083958
v -0.239976 0.244881 0.041108
v -0.316526 -0.019846 1.7e-005
v -0.314942 0.247798 -0.065685
v -0.42805 -0.018679 -0.236762
v -0.383479 0.247798 -0.290735
v -0.419584 -0.020109 -0.109539
v -0.450164 -0.018051 -0.382946
v -0.234725 -0.020193 -0.428268
v -0.109539 -0.020109 -0.419584
v -0.152158 0.247798 -0.372168
v -0.380991 -0.019466 -0.451259
v -0.002208 0.271487 -0.25837
v -0.002208 0.238597 -0.129374
v -0.131203 0.238597 -0.000379
v -0.226958 0.210508 -0.225129
v -0.086545 0.271788 -0.084716
v -0.043695 0.244881 -0.238147
v 0.343148 0.241094 -0.163777
v 0.389659 0.230841 -0.305758
v 0.365552 0.226042 -0.278292
v 0.210136 0.247798 0.375624
v 0.265323 0.234825 0.326437
v -0.339252 0.247798 0.09977
v -0.321454 0.234473 0.176301
v -0.382603 0.208502 0.143194
v -0.002208 0.225844 -0.000379
v 0.040055 0.2463 -0.238351
v 0.147743 0.247798 -0.372168
v 0.403727 0.207504 -0.408169
v 0.310526 0.247798 -0.065685
v 0.390995 0.211248 -0.281329
v 0.356449 0.247798 -0.125553
v 0.369582 0.247798 0.149572
v 0.063098 0.247798 0.312355
v 0.274786 0.195871 0.397844
v 0.147743 0.247798 0.371411
v 0.396724 0.207504 0.414655
v -0.152158 0.247798 0.371411
v -0.417242 0.207504 0.398553
v -0.314942 0.247798 0.064927
v -0.419672 -0.0203 0.109634
v -0.383479 0.247798 0.289977
v -0.373997 0.247798 -0.150329
v -0.401139 0.207504 -0.415413
v -0.067514 0.247798 -0.313113
v -0.292564 0.247798 -0.38165
vn 0.264266 0.953 0.14817
vn -0.00320442 0.999958 -0.00861726
vn 0.00558171 0.999914 -0.0118276
vn 0.00861623 0.999958 -0.00320424
vn -0.147735 0.951602 -0.269496
vn -0.263417 0.942996 -0.203394
vn 0.203393 0.942997 0.263416
vn -0.220895 0.866352 -0.447929
vn -0.14817 0.953 0.264266
vn -0.224418 0.880172 0.41825
vn 0.0718364 0.974908 0.2107
vn 0.157201 0.978968 0.130035
vn 0.101499 0.989796 0.100014
vn -0.183973 0.975819 -0.118032
vn -0.180143 0.974767 -0.131829
vn -0.116031 0.993003 -0.0219733
vn -0.133852 0.978796 -0.155054
vn 0.288082 0.941485 -0.174968
vn 0.0738718 0.99556 0.0583434
vn -0.193616 0.977199 0.0871473
vn -0.213375 0.976942 0.00748771
vn -0.00748822 0.976942 0.213374
vn -0.0871471 0.977199 0.193617
vn 0.00184376 0.999765 0.0215918
vn 0.00320256 0.999958 0.00861549
vn 0.269492 0.951603 -0.147736
vn 0.203393 0.942997 -0.263416
vn -0.263416 0.942997 0.203393
vn 0.447916 0.866358 -0.220896
vn -0.264267 0.953 -0.14817
vn -0.41825 0.880172 -0.224418
vn -0.210699 0.974908 0.0718361
vn -0.130035 0.978968 0.157201
vn -0.075883 0.993185 0.0884637
vn 0.152376 0.978555 -0.138604
vn 0.071833 0.974908 -0.210701
vn 0.0160719 0.971107 -0.238103
vn -0.103664 0.985481 -0.134463
vn 0.23888 0.933386 0.267818
vn 0.00941032 0.992115 0.124979
vn -0.087147 0.977199 -0.193616
vn -0.00748842 0.976942 -0.213374
vn -0.213374 0.976942 -0.00748842
vn -0.193616 0.977199 -0.087147
vn -0.24383 0.233539 0.941279
vn -0.130536 0.294258 0.94677
vn -0.0637247 0.324495 0.943738
vn -0.216053 0.400457 0.890481
vn -0.158812 0.285228 0.945211
vn -0.348338 0.64433 0.680808
vn -0.00868773 0.999936 0.00730237
vn -0.00861753 0.999958 0.00320417
vn 0.147734 0.951602 0.269495
vn 0.263416 0.942997 0.203393
vn -0.203395 0.942996 -0.263417
vn 0.220893 0.866354 0.447925
vn 0.14817 0.953 -0.264266
vn 0.224417 0.880174 -0.418246
vn -0.0718366 0.974908 -0.210699
vn -0.157202 0.978968 -0.130035
vn -0.040147 0.998032 -0.0481676
vn 0.138607 0.978555 0.152373
vn 0.182486 0.974931 0.127312
vn 0.2107 0.974908 0.071839
vn 0.114077 0.985597 -0.124842
vn 0.0749601 0.964264 -0.254119
vn 0.0481668 0.998032 0.0401504
vn -0.262807 0.928367 0.262807
vn 0.193617 0.977199 -0.0871471
vn 0.213375 0.976942 -0.00748831
vn 0.00748709 0.976942 -0.213375
vn 0.0871473 0.977199 -0.193616
vn -0.930672 0.199874 -0.306431
vn -0.954616 0.193738 -0.226217
vn -0.98237 0.167014 -0.0840012
vn -0.985989 0.164121 -0.029846
vn -0.625854 0.213165 -0.750245
vn -0.91685 0.191919 -0.350076
vn -0.800122 0.219469 -0.558246
vn -0.00730263 0.999936 -0.00868775
vn -0.269495 0.951602 0.147735
vn -0.203395 0.942996 0.263417
vn 0.263417 0.942996 -0.203395
vn -0.447925 0.866354 0.220893
vn 0.418246 0.880174 0.224417
vn 0.210699 0.974908 -0.0718366
vn 0.130034 0.978968 -0.157201
vn 0.0481665 0.998032 -0.0401484
vn -0.152375 0.978555 0.138605
vn -0.0718366 0.974908 0.210699
vn -0.0401484 0.998032 0.0481665
vn -0.262808 0.928366 -0.262808
vn 0.0871474 0.977199 0.193617
vn 0.00748695 0.976942 0.213375
vn 0.213375 0.976942 0.00748694
vn 0.193617 0.977199 0.0871474
vn 0.560889 0.808962 -0.176025
vn 0.59036 0.734664 -0.334281
vn 0.513989 0.813095 0.2733
vn 0.244015 0.882129 0.402872
vn 0.330605 0.915318 0.229984
vn 0.50562 0.783796 0.360572
vn -0.493077 0.830456 0.259263
vn -0.32877 0.817385 0.473067
vn -0.381269 0.8955 0.229594
vn -0.0956487 0.86131 -0.498996
vn 0.100206 0.994773 -0.0196343
vn -0.255629 0.964121 0.0715836
vn -0.175414 0.951127 0.254141
vn 0.183726 0.964652 0.188921
vn -0.822519 0.212632 -0.527493
vn -0.930984 0.231452 -0.282309
vn -0.381005 0.190762 -0.90468
vn -0.109221 0.190872 -0.97552
vn -0.735072 0.204926 -0.646277
vn -0.150486 0.198161 -0.968548
vn 0.7074 0.0642201 -0.70389
vn 0.285211 0.24235 0.927319
vn 0.525221 0.235022 0.817867
vn 0.976851 0.182737 0.111216
vn 0.922052 0.204425 0.32868
vn 0.869968 0.210157 0.446083
vn 0.763017 0.2168 0.608936
vn 0.646515 0.22459 0.729093
vn 0.971813 0.203467 0.119085
vn 0.973126 0.214049 0.0848999
vn 0.832383 0.183029 -0.523106
vn 0.782403 0.184988 -0.594664
vn 0.838703 0.189879 0.510414
vn 0.786879 0.201423 0.58331
vn 0.522413 0.216472 -0.824757
vn 0.282225 0.232429 -0.930766
vn 0.900961 0.199858 -0.385131
vn 0.973868 0.200147 -0.107344
vn 0.641899 0.209541 -0.737603
vn 0.967163 0.207191 -0.147198
vn 0.700346 0.0660129 0.710744
vn -0.931324 0.223969 0.287183
vn -0.825494 0.230631 0.515141
vn -0.127218 0.170514 0.977108
vn -0.389269 0.216435 0.895336
vn -0.733637 0.214587 0.644771
vn 0.519084 0.17325 0.836981
vn 0.59921 0.178058 0.78054
vn -0.50188 0.167763 0.848512
vn -0.588333 0.196458 0.784391
vn 0.828592 0.217143 0.516028
vn 0.929302 0.2389 0.281645
vn 0.392502 0.195004 0.898841
vn 0.107417 0.19473 0.974957
vn 0.739995 0.206904 0.639998
vn 0.147333 0.202193 0.9682
vn -0.711076 0.0523189 0.701166
vn -0.286833 0.227391 -0.930602
vn -0.519374 0.204311 -0.829763
vn -0.975339 0.158095 -0.154013
vn -0.979469 0.168277 -0.111012
vn -0.841489 0.163395 0.514974
vn -0.783755 0.167531 0.598049
vn -0.850236 0.163706 -0.500299
vn -0.789004 0.166856 -0.591297
vn -0.517226 0.206924 0.830457
vn -0.282412 0.230276 0.931244
vn -0.900774 0.184025 0.393371
vn -0.976854 0.184903 0.107553
vn -0.642833 0.196708 0.740319
vn -0.9702 0.19217 0.147592
vn -0.70127 0.0500603 -0.711136
vn 0.928179 0.238536 -0.285629
vn 0.818741 0.243165 -0.520128
vn 0.110998 0.176492 -0.978023
vn 0.381455 0.220047 -0.897815
vn 0.729606 0.227832 -0.6448
vn 0.153899 0.167455 -0.973793
vn -0.520779 0.177325 -0.835072
vn -0.589779 0.178515 -0.787587
vn 0.507691 0.1827 -0.841944
vn 0.583917 0.208115 -0.784684
vn -0.154053 0.167734 0.973721
vn -0.648291 0.195358 -0.735903
vn -0.869706 0.196755 -0.452658
vt 0.693926 0.843782
vt 0.688159 0.829471
vt 0.715499 0.839292
vt 0.705131 0.812064
vt 0.719447 0.817479
vt 0.698569 0.822665
vt 0.719978 0.811953
vt 0.719395 0.806424
vt 0.70879 0.85722
vt 0.698986 0.85173
vt 0.72374 0.857569
vt 0.731656 0.829235
vt 0.730366 0.833013
vt 0.732564 0.846135
vt 0.727377 0.822456
vt 0.736781 0.860503
vt 0.734989 0.849151
vt 0.687967 0.81224
vt 0.715058 0.784674
vt 0.687811 0.79505
vt 0.693041 0.780647
vt 0.698387 0.801648
vt 0.68739 0.780239
vt 0.681838 0.780794
vt 0.73297 0.791753
vt 0.727354 0.801469
vt 0.733604 0.776817
vt 0.698107 0.772724
vt 0.707645 0.767024
vt 0.714043 0.766959
vt 0.720706 0.772107
vt 0.736441 0.762911
vt 0.727398 0.766632
vt 0.722514 0.762043
vt 0.660115 0.78546
vt 0.670908 0.812511
vt 0.656492 0.807367
vt 0.677363 0.801831
vt 0.6561 0.812885
vt 0.656582 0.818363
vt 0.666779 0.767395
vt 0.676657 0.77286
vt 0.651731 0.766925
vt 0.648598 0.802462
vt 0.646296 0.79893
vt 0.648216 0.790172
vt 0.642348 0.785313
vt 0.641871 0.776781
vt 0.637592 0.7646
vt 0.639845 0.793649
vt 0.629932 0.798361
vt 0.661139 0.839902
vt 0.682908 0.843959
vt 0.677663 0.822936
vt 0.688473 0.844361
vt 0.643153 0.833508
vt 0.648615 0.823578
vt 0.642887 0.848609
vt 0.67784 0.852039
vt 0.66807 0.85773
vt 0.652966 0.85844
vt 0.640649 0.86272
vt 0.73548 0.831365
vt 0.736497 0.846712
vt 0.688616 0.861371
vt 0.703285 0.870974
vt 0.719197 0.872275
vt 0.738002 0.869965
vt 0.746902 0.860202
vt 0.737098 0.811908
vt 0.747267 0.841969
vt 0.746533 0.826631
vt 0.746787 0.797662
vt 0.748275 0.781799
vt 0.746825 0.763031
vt 0.737412 0.754049
vt 0.687538 0.763468
vt 0.718495 0.75282
vt 0.702534 0.753573
vt 0.672723 0.753578
vt 0.656662 0.752269
vt 0.63778 0.754216
vt 0.628632 0.76365
vt 0.639505 0.812832
vt 0.627621 0.782632
vt 0.629525 0.827747
vt 0.628325 0.843896
vt 0.630465 0.862737
vt 0.639859 0.871848
vt 0.658747 0.873129
vt 0.674402 0.871288
usemtl Material__25
g Box002
f 72/1/1 58/2/2 15/3/3
f 15/3/3 14/4/4 17/5/5
f 58/2/2 16/6/6 15/3/3
f 15/3/3 16/6/7 14/4/4
f 14/4/4 13/7/8 17/5/5
f 12/8/9 13/7/10 14/4/4
f 73/9/11 2/10/12 15/3/3
f 2/10/12 72/1/1 15/3/3
f 4/11/13 73/9/11 15/3/3
f 15/3/3 77/12/14 63/13/15
f 15/3/3 63/13/15 65/14/16
f 15/3/3 17/5/5 75/15/17
f 74/16/18 4/11/13 64/17/19
f 58/2/2 71/18/20 16/6/21
f 16/6/22 71/18/23 14/4/4
f 12/8/9 14/4/4 28/19/24
f 28/19/24 43/20/25 30/21/26
f 14/4/4 29/22/27 28/19/24
f 28/19/24 29/22/28 43/20/25
f 43/20/25 27/23/29 30/21/26
f 26/24/30 27/23/31 43/20/25
f 78/25/32 18/26/33 28/19/24
f 18/26/33 12/8/9 28/19/24
f 20/27/34 78/25/32 28/19/24
f 28/19/24 79/28/35 81/29/36
f 28/19/24 81/29/36 66/30/37 67/31/38
f 28/19/24 30/21/26 79/28/35
f 82/32/39 20/27/34 31/33/40
f 14/4/4 71/18/41 29/22/42
f 29/22/43 71/18/44 43/20/25
f 81/29/45 80/34/46 66/30/47
f 80/34/48 82/32/49 31/33/50
f 26/24/30 43/20/25 44/35/51
f 44/35/51 59/36/52 46/37/53
f 43/20/25 45/38/54 44/35/51
f 44/35/51 45/38/55 59/36/52
f 59/36/52 42/39/56 46/37/53
f 41/40/57 42/39/58 59/36/52
f 83/41/59 33/42/60 44/35/51
f 33/42/60 26/24/30 44/35/51
f 35/43/61 83/41/59 44/35/51
f 44/35/51 85/44/62 68/45/63 69/46/64
f 69/46/65 39/47/66 87/48/67 44/35/51
f 44/35/51 46/37/53 85/44/62
f 84/49/68 35/43/61 87/48/67
f 43/20/25 71/18/69 45/38/70
f 45/38/71 71/18/72 59/36/52
f 70/50/73 86/51/74 87/48/75 39/47/76
f 85/44/77 86/51/78 70/50/73 68/45/79
f 41/40/57 59/36/52 60/52/80
f 60/52/80 58/2/2 62/53/81
f 59/36/52 61/54/82 60/52/80
f 60/52/80 61/54/83 58/2/2
f 58/2/2 57/55/84 62/53/81
f 72/1/1 57/55/85 58/2/2
f 88/56/86 48/57/87 60/52/80
f 48/57/87 41/40/57 60/52/80
f 50/58/88 88/56/86 60/52/80
f 60/52/80 90/59/89 55/60/90
f 60/52/80 55/60/90 91/61/91
f 60/52/80 62/53/81 90/59/89
f 89/62/92 50/58/88 91/61/91
f 59/36/52 71/18/93 61/54/94
f 61/54/95 71/18/96 58/2/2
f 9/63/97 63/13/97 77/12/98
f 76/64/99 64/17/100 65/14/99
f 63/13/97 9/63/97 76/64/99 65/14/101
f 66/30/102 80/34/102 67/31/102
f 68/45/103 70/50/103 69/46/103
f 80/34/50 31/33/104 67/31/105
f 70/50/106 39/47/66 69/46/66
f 15/3/3 65/14/107 64/17/19
f 15/3/3 75/15/17 77/12/14
f 35/43/61 44/35/51 87/48/67
f 50/58/88 60/52/80 91/61/91
f 20/27/34 28/19/24 67/31/108 31/33/109
f 4/11/13 15/3/3 64/17/110
f 2/10/111 1/65/111 72/1/112
f 5/66/113 73/9/113 4/11/114 3/67/114
f 1/65/115 2/10/111 73/9/113 5/66/113
f 3/67/114 4/11/114 74/16/116 6/68/116
f 74/16/117 10/69/117 6/68/117
f 17/5/118 11/70/119 75/15/119
f 7/71/120 76/64/120 9/63/121 8/72/122
f 8/72/122 77/12/123 75/15/119 11/70/124
f 64/17/125 10/69/125 74/16/126
f 13/7/127 11/70/128 17/5/127
f 12/8/129 11/70/130 13/7/129
f 18/26/131 11/70/131 12/8/132
f 21/73/133 78/25/133 20/27/134 19/74/134
f 11/70/135 18/26/131 78/25/133 21/73/133
f 19/74/134 20/27/134 82/32/136 22/75/136
f 82/32/137 25/76/137 22/75/137
f 30/21/138 32/77/139 79/28/139
f 81/29/45 23/78/140 80/34/46
f 24/79/141 81/29/45 79/28/139 32/77/142
f 80/34/46 23/78/140 82/32/49
f 27/23/143 32/77/144 30/21/143
f 26/24/145 32/77/146 27/23/145
f 33/42/147 32/77/147 26/24/148
f 36/80/149 83/41/149 35/43/150 34/81/150
f 32/77/151 33/42/147 83/41/149 36/80/149
f 34/81/150 35/43/150 84/49/152 37/82/152
f 84/49/153 40/83/153 37/82/153
f 46/37/154 47/84/155 85/44/77
f 40/83/156 84/49/156 87/48/75 38/85/157
f 42/39/158 47/84/159 46/37/158
f 41/40/160 47/84/161 42/39/160
f 48/57/162 47/84/162 41/40/163
f 51/86/164 88/56/164 50/58/165 49/87/165
f 47/84/166 48/57/162 88/56/164 51/86/164
f 49/87/165 50/58/165 89/62/167 52/88/167
f 89/62/168 56/89/168 52/88/168
f 62/53/169 1/65/170 90/59/170
f 53/90/171 91/61/171 55/60/172 54/91/172
f 54/91/172 55/60/172 90/59/170 1/65/173
f 56/89/174 89/62/174 91/61/171 53/90/171
f 57/55/175 1/65/176 62/53/175
f 72/1/177 1/65/178 57/55/177
f 10/69/125 64/17/125 76/64/120 7/71/120
f 77/12/123 8/72/122 9/63/121
f 81/29/45 24/79/141 23/78/140
f 82/32/49 23/78/140 25/76/179
f 87/48/75 86/51/78 38/85/157
f 85/44/77 47/84/180 86/51/181
