# OBJ written from D:\Projekty\Diagooo\4_Implementacja\DiagoUnity\DiagoUnity\Assets\_Diago\_Art\Meshes\Rainbow Forest\ForestGrassSpike.obj
# Units	meters

o mGrassSpike.obj
v -0.091491 0.129407 0.091491
v 0.091491 0.129407 0.091491
v 0.091491 0.129407 -0.091491
v -0.091491 -0.129407 0.091491
v 0.091491 -0.129407 0.091491
v 0.091491 -0.129407 -0.091491
v 0.038848 0.399375 0.054693
vn -0.561517 -0.794105 0.232588
vn 0.57735 -0.57735 0.57735
vn 0.700729 0.115443 0.704026
vn -0.892639 0.23888 0.382272
vn 0.232588 -0.794104 -0.561517
vn 0.373693 0.273051 -0.886452
vn 0.417688 0.799912 0.430903
vt 0.00024375 0.651375
vt 0.01738 0.625744
vt 0.0506263 0.648734
vt 0.0377225 0.67682
vt 0.124755 0.71981
vt 0.105979 0.741285
vt 0.0707313 0.710009
vt 0.0974588 0.69306
vt 0.0405113 0.738814
vt 0.00876125 0.709965
vt 0.0104675 0.740475
vt 0.0825125 0.66271
usemtl defaultMat
g GrassSpike
f 4/1/1 5/2/2 2/3/3 1/4/4
f 5/5/2 6/6/5 3/7/6 2/8/3
f 6/9/5 4/10/1 1/4/4 3/7/6
f 6/9/5 5/11/2 4/10/1
f 3/7/6 1/4/4 7/12/7
f 2/8/3 3/7/6 7/12/7
f 1/4/4 2/3/3 7/12/7
