# OBJ written from D:\Projekty\Diagooo\4_Implementacja\DiagoUnity\DiagoUnity\Assets\_Diago\_Art\Meshes\Rainbow Forest\RainbowForestTile02.obj
# Units	meters

o RainbowForestTile02
v -0.427377 -1.83517 0.433786
v -0.427377 -1.83815 -0.420963
v 0.427377 -1.83815 -0.420963
v 0.427377 -1.83517 0.433786
v 0.427377 0.00042199 0.427378
v 0.427377 -0.002562 -0.427371
v -0.427377 -0.002562 -0.427371
v -0.427377 0.00042199 0.427378
v -0.427377 -0.067817 0.496094
v -0.427377 -1.76646 0.502023
v 0.427377 -1.76646 0.502023
v 0.427377 -0.067817 0.496094
v 0.495854 -0.068056 0.427617
v 0.495854 -1.7667 0.433547
v 0.495854 -1.76968 -0.421202
v 0.495854 -0.071039 -0.427132
v 0.427377 -0.071278 -0.495608
v 0.427377 -1.76992 -0.489679
v -0.427377 -1.76992 -0.489679
v -0.427377 -0.071278 -0.495608
v -0.495854 -0.071039 -0.427132
v -0.495854 -1.76968 -0.421202
v -0.495854 -1.7667 0.433547
v -0.495854 -0.068056 0.427617
v 0.427377 -0.016519 0.478796
v -0.427377 -0.016519 0.478796
v -0.427377 -1.81787 0.485083
v 0.427377 -1.81787 0.485083
v 0.478735 -0.019682 -0.427311
v 0.478735 -0.016698 0.427438
v 0.478735 -1.81805 0.433726
v 0.478735 -1.82103 -0.421023
v -0.427377 -0.019861 -0.478669
v 0.427377 -0.019861 -0.478669
v 0.427377 -1.82121 -0.472381
v -0.427377 -1.82121 -0.472381
v -0.478735 -0.016698 0.427438
v -0.478735 -0.019682 -0.427311
v -0.478735 -1.82103 -0.421023
v -0.478735 -1.81805 0.433726
v 0.478735 -0.067877 0.478975
v 0.478735 -1.76652 0.484904
v 0.478735 -1.76986 -0.47256
v 0.478735 -0.071219 -0.478489
v -0.478735 -0.071219 -0.478489
v -0.478735 -1.76986 -0.47256
v -0.478735 -1.76652 0.484904
v -0.478735 -0.067877 0.478975
v 0.46542 -0.02988 0.465527
v 0.46542 -0.033129 -0.465307
v 0.46542 -1.80785 -0.459112
v 0.46542 -1.8046 0.471722
v -0.46542 -0.033129 -0.465307
v -0.46542 -0.02988 0.465527
v -0.46542 -1.8046 0.471722
v -0.46542 -1.80785 -0.459112
vn -0.15836 0.974041 -0.161761
vn 0.15836 0.974041 -0.161761
vn 0.170053 0.694365 -0.699242
vn -0.170053 0.694365 -0.699242
vn 0.15836 0.975146 0.154957
vn -0.15836 0.975146 0.154957
vn -0.696799 -0.69622 0.172481
vn -0.696799 -0.697407 -0.167616
vn -0.15836 -0.975146 -0.154957
vn -0.15836 -0.974041 0.161761
vn -0.158351 -0.161776 -0.97404
vn 0.158351 -0.161776 -0.97404
vn 0.17005 -0.699246 -0.694362
vn -0.17005 -0.699246 -0.694362
vn 0.158352 0.154949 -0.975149
vn -0.158352 0.154949 -0.975149
vn 0.15836 -0.974041 0.161761
vn 0.17005 -0.694381 0.699227
vn -0.17005 -0.694381 0.699227
vn -0.696814 0.696203 -0.172484
vn -0.696814 0.697391 0.16762
vn 0.15836 -0.975146 -0.154957
vn -0.170053 0.699229 0.694378
vn 0.170053 0.699229 0.694378
vn 0.974602 0.158904 0.157798
vn 0.974602 0.157798 -0.158904
vn 0.696814 0.696203 -0.172484
vn 0.696814 0.697391 0.16762
vn 0.974599 -0.158927 -0.157798
vn 0.974599 -0.157821 0.158903
vn 0.696799 -0.69622 0.172481
vn 0.696799 -0.697407 -0.167616
vn -0.974602 0.157798 -0.158904
vn -0.974602 0.158904 0.157798
vn -0.974599 -0.157821 0.158903
vn -0.974599 -0.158927 -0.157798
vn 0.158351 -0.154972 0.975145
vn -0.158351 -0.154972 0.975145
vn -0.158352 0.161753 0.974043
vn 0.158352 0.161753 0.974043
vn -0.696808 0.167616 -0.697397
vn -0.577353 0.575325 -0.579365
vn 0.696808 0.172481 0.69621
vn 0.577353 0.579356 0.575335
vn 0.577353 0.575325 -0.579365
vn 0.696808 0.167616 -0.697397
vn -0.696808 0.172481 0.69621
vn -0.577353 0.579356 0.575335
vn 0.57734 -0.575351 0.579352
vn 0.696805 -0.167641 0.697395
vn 0.696805 -0.172505 -0.696207
vn 0.57734 -0.579382 -0.575321
vn -0.696805 -0.172505 -0.696207
vn -0.57734 -0.579382 -0.575321
vn -0.57734 -0.575351 0.579352
vn -0.696805 -0.167641 0.697395
vt 0.513822 0.734574
vt 0.736501 0.734574
vt 0.736501 0.745829
vt 0.513822 0.745829
vt 0.736501 0.514176
vt 0.513822 0.514176
vt 0.352385 0.00408062
vt 0.489909 0.00408062
vt 0.489909 0.01091
vt 0.352385 0.01091
vt 0.165105 0.15077
vt 0.165105 0.010728
vt 0.169024 0.010728
vt 0.169024 0.15077
vt 0.00824185 0.010728
vt 0.00824185 0.15077
vt 0.00432192 0.15077
vt 0.00432192 0.010728
vt 0.352385 0.148435
vt 0.345556 0.148435
vt 0.345556 0.01091
vt 0.502702 0.734574
vt 0.502702 0.514176
vt 0.489909 0.148435
vt 0.513822 0.502995
vt 0.736501 0.502995
vt 0.489613 0.166951
vt 0.353552 0.166951
vt 0.353552 0.16309
vt 0.489613 0.16309
vt 0.353552 0.321462
vt 0.489613 0.321462
vt 0.489613 0.325323
vt 0.353552 0.325323
vt 0.489909 0.155264
vt 0.352385 0.155264
vt 0.178675 0.0107816
vt 0.178675 0.150363
vt 0.174767 0.150363
vt 0.174767 0.0107816
vt 0.335021 0.150363
vt 0.335021 0.0107816
vt 0.338928 0.0107816
vt 0.338928 0.150363
vt 0.49674 0.01091
vt 0.49674 0.148435
vt 0.352589 0.490478
vt 0.488613 0.490478
vt 0.488613 0.494337
vt 0.352589 0.494337
vt 0.488613 0.336008
vt 0.352589 0.336008
vt 0.352589 0.332148
vt 0.488613 0.332148
vt 0.00824185 0.157724
vt 0.00432192 0.157724
vt 0.345834 0.336008
vt 0.345834 0.332148
vt 0.00432192 0.00377341
vt 0.00824185 0.00377341
vt 0.178675 0.157294
vt 0.174767 0.157294
vt 0.502702 0.745829
vt 0.346795 0.166951
vt 0.346795 0.16309
vt 0.174767 0.00384998
vt 0.178675 0.00384998
vt 0.49637 0.16309
vt 0.49637 0.166951
vt 0.502702 0.502995
vt 0.495369 0.332148
vt 0.495369 0.336008
vt 0.747429 0.734574
vt 0.747429 0.745829
vt 0.747429 0.514176
vt 0.747429 0.502995
vt 0.345556 0.155264
vt 0.49637 0.321462
vt 0.49637 0.325323
vt 0.345834 0.494337
vt 0.345834 0.490478
vt 0.165105 0.00377341
vt 0.169024 0.00377341
vt 0.346795 0.325323
vt 0.346795 0.321462
vt 0.49674 0.155264
vt 0.335021 0.00384998
vt 0.338928 0.00384998
vt 0.169024 0.157724
vt 0.165105 0.157724
vt 0.49674 0.00408062
vt 0.338928 0.157294
vt 0.335021 0.157294
vt 0.345556 0.00408062
vt 0.495369 0.490478
vt 0.495369 0.494337
usemtl Default
g RainbowForestTile02
f 7/1/1 6/2/2 34/3/3 33/4/4
f 5/5/5 6/2/2 7/1/1 8/6/6
f 40/7/7 39/8/8 2/9/9 1/10/10
f 19/11/11 18/12/12 35/13/13 36/14/14
f 17/15/15 20/16/16 33/17/4 34/18/3
f 1/10/10 4/19/17 28/20/18 27/21/19
f 38/22/20 37/23/21 8/6/6 7/1/1
f 1/10/10 2/9/9 3/24/22 4/19/17
f 5/5/5 8/6/6 26/25/23 25/26/24
f 13/27/25 16/28/26 29/29/27 30/30/28
f 15/31/29 14/32/30 31/33/31 32/34/32
f 32/35/32 31/36/31 4/19/17 3/24/22
f 21/37/33 24/38/34 37/39/21 38/40/20
f 23/41/35 22/42/36 39/43/8 40/44/7
f 3/24/22 2/9/9 36/45/14 35/46/13
f 11/47/37 10/48/38 27/49/19 28/50/18
f 9/51/39 12/52/40 25/53/24 26/54/23
f 20/16/16 45/55/41 53/56/42 33/17/4
f 12/52/40 41/57/43 49/58/44 25/53/24
f 17/15/15 34/18/3 50/59/45 44/60/46
f 24/38/34 48/61/47 54/62/48 37/39/21
f 7/1/1 33/4/4 53/63/42 38/22/20
f 16/28/26 44/64/46 50/65/45 29/29/27
f 21/37/33 38/40/20 53/66/42 45/67/41
f 13/27/25 30/30/28 49/68/44 41/69/43
f 8/6/6 37/23/21 54/70/48 26/25/23
f 9/51/39 26/54/23 54/71/48 48/72/47
f 6/2/2 29/73/27 50/74/45 34/3/3
f 29/73/27 6/2/2 5/5/5 30/75/28
f 5/5/5 25/26/24 49/76/44 30/75/28
f 4/19/17 31/36/31 52/77/49 28/20/18
f 14/32/30 42/78/50 52/79/49 31/33/31
f 11/47/37 28/50/18 52/80/49 42/81/50
f 18/12/12 43/82/51 51/83/52 35/13/13
f 15/31/29 32/34/32 51/84/52 43/85/51
f 3/24/22 35/46/13 51/86/52 32/35/32
f 22/42/36 46/87/53 56/88/54 39/43/8
f 19/11/11 36/14/14 56/89/54 46/90/53
f 2/9/9 39/8/8 56/91/54 36/45/14
f 23/41/35 40/44/7 55/92/55 47/93/56
f 1/10/10 27/21/19 55/94/55 40/7/7
f 10/48/38 47/95/56 55/96/55 27/49/19
f 42/78/50 14/32/30 13/27/25 41/69/43
f 11/47/37 42/81/50 41/57/43 12/52/40
f 18/12/12 19/11/11 20/16/16 17/15/15
f 23/41/35 47/93/56 48/61/47 24/38/34
f 14/32/30 15/31/29 16/28/26 13/27/25
f 46/87/53 22/42/36 21/37/33 45/67/41
f 19/11/11 46/90/53 45/55/41 20/16/16
f 10/48/38 11/47/37 12/52/40 9/51/39
f 22/42/36 23/41/35 24/38/34 21/37/33
f 43/82/51 18/12/12 17/15/15 44/60/46
f 15/31/29 43/85/51 44/64/46 16/28/26
f 47/95/56 10/48/38 9/51/39 48/72/47
