mtllib TreeWinterDry.mtl
o TreeWinterDry.obj
v 0.045358 0.194302 -0.187807
v 0.059515 -0.038883 -0.200176
v 0.172842 -0.035837 -0.133786
v 0.142367 0.242200 -0.129789
v 0.051942 0.326846 -0.245911
v 0.032587 0.459626 -0.219011
v -0.060458 0.418374 -0.222375
v 0.154823 0.393063 -0.223181
v 0.130679 0.427973 -0.221148
v 0.340372 0.848152 0.087005
v 0.325802 0.779588 0.151878
v 0.331532 0.846530 0.172711
v -0.065588 0.233442 -0.165841
v -0.068239 -0.037906 -0.171340
v -0.100420 0.325459 -0.229693
v 0.339768 0.905891 0.145802
v -0.117493 0.318247 -0.094655
v -0.146943 -0.034933 -0.066263
v -0.062591 0.226334 -0.237588
v 0.340988 0.921198 0.033243
v 0.344796 0.903803 0.025934
v 0.340247 0.936350 0.075069
v -0.102030 0.316378 0.018751
v -0.124757 -0.031711 0.083960
v 0.045449 0.181739 -0.241136
v 0.358369 0.822504 0.005998
v -0.004765 0.320653 0.085014
v 0.003134 -0.029258 0.168169
v 0.151819 0.232362 -0.236675
v 0.348211 0.771259 0.039227
v 0.054046 1.309813 0.170278
v 0.046994 1.368474 0.131717
v 0.087642 1.367014 0.146958
v 0.128860 0.327612 0.081393
v 0.150714 -0.029173 0.127693
v 0.166788 0.267415 -0.233016
v 0.329271 0.750704 0.105753
v 0.103390 1.328095 0.173095
v 0.159961 0.332248 -0.049906
v 0.217554 -0.031585 -0.009319
v 0.174464 0.336226 -0.230560
v 0.323201 0.756335 0.122527
v 0.090682 1.286537 0.200539
v 0.071017 1.261248 0.207491
v 0.058409 1.652897 -0.309724
v 0.031675 1.616680 -0.257082
v 0.024148 1.454374 -0.269008
v 0.063977 1.462568 -0.335905
v 0.125350 1.291838 0.006041
v 0.158530 1.243905 0.033466
v 0.268936 0.738453 0.085387
v 0.050990 1.612772 -0.197855
v 0.045895 1.441103 -0.195934
v 0.085559 1.146809 0.070892
v 0.142366 1.186352 0.056952
v 0.165310 1.134875 -0.066419
v 0.088426 1.095229 -0.031226
v 0.016095 1.207680 0.018649
v 0.046787 1.153996 0.039809
v 0.023018 1.088678 -0.066577
v 0.003857 1.148000 -0.177746
v 0.102225 1.629511 -0.169246
v 0.107706 1.431657 -0.161723
v 0.255042 0.908683 0.126264
v 0.279537 0.927823 0.056939
v 0.005273 1.338527 0.138136
v 0.029626 1.266366 -0.003417
v 0.082698 1.300432 -0.008668
v 0.159677 1.662627 -0.184781
v 0.181955 1.435440 -0.186726
v 0.206819 1.198670 -0.172321
v -0.003464 1.295299 0.163533
v 0.024881 1.263910 0.192393
v 0.188411 1.693770 -0.236234
v 0.210286 1.503405 -0.247366
v 0.167598 1.705579 -0.298198
v 0.185733 1.536386 -0.315738
v 0.206110 1.389295 -0.246606
v 0.188413 1.375420 -0.320719
v 0.191609 1.110026 -0.227483
v 0.112374 1.687857 -0.327094
v 0.120098 1.516032 -0.351868
v 0.243200 0.843386 0.160238
v 0.119981 1.410486 -0.361092
v 0.046955 1.122603 -0.265243
v 0.123010 1.107257 -0.277453
v 0.251297 0.773672 0.141728
v 0.161489 1.275880 -0.125533
v 0.314451 1.468148 -0.331221
v 0.311924 1.410998 -0.363951
v 0.186213 0.747972 0.082832
v 0.193761 0.749268 -0.012252
v 0.178756 0.684248 -0.011789
v 0.188908 0.699583 0.088710
v 0.275195 1.398695 -0.411204
v 0.034175 1.249405 -0.129567
v 0.105763 1.298365 -0.096821
v 0.226077 1.425452 -0.450001
v 0.294018 0.891602 -0.003103
v 0.139505 0.814686 0.142556
v 0.126411 0.728048 0.164315
v 0.193983 1.479747 -0.453646
v -0.063274 0.401962 -0.156274
v 0.198639 1.530528 -0.423632
v 0.236288 1.553836 -0.374262
v 0.283655 1.527225 -0.335394
v -0.026787 0.909846 0.064272
v 0.068535 0.924483 0.131518
v 0.027004 0.747845 0.172371
v -0.050601 0.736863 0.106154
v 0.041472 0.827926 -0.112855
v 0.154029 0.818441 -0.102983
v 0.291403 1.467655 -0.493217
v 0.327616 1.446259 -0.459856
v 0.288142 0.754660 0.016405
v 0.101545 0.687138 -0.077352
v 0.002283 0.704060 -0.070711
v 0.035543 0.441069 -0.167385
v -0.036182 0.867585 -0.041127
v 0.352299 1.461235 -0.416543
v -0.062446 0.729601 0.006008
v 0.352713 1.505026 -0.386894
v 0.167552 0.330867 -0.143135
v 0.125190 0.410716 -0.117727
v 0.327343 1.553955 -0.387378
v 0.160478 0.965240 0.083240
v 0.289373 1.579089 -0.420304
v 0.214044 0.952852 0.006481
v 0.261943 1.562680 -0.467209
v 0.298467 0.815485 -0.020892
v 0.212802 0.895533 -0.066634
v 0.263526 1.515064 -0.497268
v 0.099618 1.643342 -0.246361
v 0.315801 1.511721 -0.445925
vn 0.162821 -0.748167 -0.643222
vn 0.152180 0.056890 -0.986714
vn 0.763912 0.094369 -0.638383
vn 0.912360 -0.346235 -0.218452
vn 0.029080 0.087483 -0.995741
vn -0.078333 0.843355 -0.531616
vn -0.473853 0.603744 -0.641059
vn 0.710150 0.415788 -0.568161
vn 0.437603 0.722916 -0.534693
vn 0.988457 -0.026256 0.149211
vn 0.534721 -0.645477 0.545374
vn 0.649495 0.000889 0.760365
vn -0.742409 -0.485521 -0.461625
vn -0.543313 0.031083 -0.838955
vn -0.683999 0.045462 -0.728065
vn 0.705703 0.523721 0.477179
vn -0.985282 0.073353 -0.154399
vn -0.967020 0.061568 -0.247147
vn -0.490289 -0.556783 -0.670529
vn 0.958913 -0.100456 0.265321
vn 0.934551 0.166590 -0.314423
vn 0.544153 0.834818 -0.083532
vn -0.845724 0.068320 0.529229
vn -0.836043 0.154564 0.526443
vn 0.043142 -0.755304 -0.653953
vn 0.910968 -0.072035 -0.406138
vn -0.220023 0.024211 0.975194
vn -0.155972 0.228405 0.960991
vn 0.561797 -0.494568 -0.663165
vn 0.847089 -0.514689 -0.132420
vn -0.257601 0.522370 0.812879
vn -0.259622 0.921019 0.290381
vn 0.224330 0.865564 0.447745
vn 0.641123 -0.006575 0.767410
vn 0.631279 0.186433 0.752815
vn 0.759452 -0.156994 -0.631337
vn 0.719470 -0.645298 0.256813
vn 0.452289 0.546370 0.704922
vn 0.998950 0.045780 0.001857
vn 0.991451 0.119919 0.051414
vn 0.761085 0.136244 -0.634183
vn 0.826256 -0.473168 0.305634
vn 0.309107 0.149665 0.939177
vn -0.202771 -0.080786 0.975888
vn -0.718057 0.656458 -0.231207
vn -0.808531 0.578110 0.109845
vn -0.993754 0.052772 -0.098329
vn -0.654510 0.020758 -0.755769
vn 0.664575 0.746303 -0.037051
vn 0.959514 0.181780 0.215150
vn 0.058733 -0.951489 0.302026
vn -0.677411 0.568482 0.466842
vn -0.797937 0.152617 0.583099
vn 0.121717 -0.819020 0.560706
vn 0.790050 -0.418538 0.447937
vn 0.782124 0.042439 0.621676
vn -0.001319 -0.148341 0.988935
vn -0.999321 0.014077 0.034055
vn -0.733861 -0.561256 0.382675
vn -0.907318 0.013651 0.420224
vn -0.989115 0.084727 -0.120302
vn -0.336852 0.604630 0.721771
vn -0.065281 0.189786 0.979653
vn 0.118728 0.808254 0.576740
vn 0.301950 0.939280 -0.163032
vn -0.673272 0.659390 0.334529
vn -0.803956 0.548984 -0.228628
vn -0.091288 0.964984 -0.245910
vn 0.089657 0.698447 0.710024
vn 0.697968 0.087248 0.710794
vn 0.966844 0.141755 0.212411
vn -0.792680 0.265759 0.548663
vn -0.630653 -0.010576 0.775993
vn 0.382833 0.855055 0.349742
vn 0.808775 0.441990 0.387979
vn 0.221268 0.946557 -0.234669
vn 0.481573 0.825522 -0.294280
vn 0.884624 -0.356497 0.300583
vn 0.568596 -0.700311 -0.431583
vn 0.888535 -0.132902 -0.439138
vn -0.344688 0.822731 -0.452000
vn -0.285392 0.557446 -0.779619
vn -0.011564 0.253691 0.967216
vn -0.133045 -0.481487 -0.866296
vn -0.499716 -0.263024 -0.825290
vn 0.323085 -0.315465 -0.892243
vn -0.044187 -0.466982 0.883162
vn 0.747549 0.491636 0.446615
vn 0.768994 0.012484 0.639134
vn 0.714004 -0.660747 0.231539
vn 0.616623 -0.649622 0.444710
vn 0.595188 -0.676584 -0.433574
vn 0.815155 -0.118382 -0.567016
vn 0.993684 -0.073014 0.085208
vn 0.224828 -0.914965 -0.335098
vn -0.849838 0.470485 0.237528
vn -0.059805 0.842831 0.534845
vn -0.308792 -0.615817 -0.724856
vn 0.219663 0.452531 -0.864271
vn 0.255316 -0.066214 0.964588
vn 0.566866 -0.006064 0.823788
vn -0.621651 0.089539 -0.778160
vn -0.703548 0.599166 -0.382127
vn -0.559258 0.752836 -0.347086
vn -0.153565 0.960036 0.233985
vn 0.403029 0.670686 0.622694
vn -0.848865 0.370239 0.377294
vn -0.132432 0.466591 0.874502
vn -0.285854 0.057292 0.956559
vn -0.867222 0.120233 0.483188
vn -0.429666 -0.283391 -0.857366
vn 0.402642 -0.389023 -0.828577
vn 0.363215 -0.146656 -0.920091
vn 0.693979 -0.310227 -0.649733
vn 0.297836 -0.854479 -0.425627
vn 0.219742 -0.052946 -0.974120
vn -0.554969 0.050796 -0.830319
vn 0.034068 0.885435 -0.463513
vn -0.943525 0.035933 -0.329346
vn 0.952399 -0.141505 -0.270024
vn -0.967858 0.110336 -0.226002
vn 0.965317 0.254397 0.058693
vn 0.987134 0.094283 0.129143
vn 0.829524 0.536055 -0.156636
vn 0.718397 0.689168 0.094623
vn 0.406628 0.688018 0.601070
vn 0.336665 0.920742 -0.197209
vn 0.827851 0.560095 0.030930
vn 0.074793 0.758809 -0.647005
vn 0.478470 -0.282177 -0.831530
vn 0.834052 0.081691 -0.545604
vn 0.101644 0.305626 -0.946711
vn -0.437845 0.854515 0.279456
vn 0.740258 0.372839 -0.559472
vt 0.617840 0.839740
vt 0.746740 0.947200
vt 0.711250 0.993460
vt 0.604440 0.895180
vt 0.942320 0.950380
vt 0.894550 0.970240
vt 0.880560 0.903550
vt 0.845900 0.952810
vt 0.837760 0.937890
vt 0.071300 0.414150
vt 0.031450 0.397090
vt 0.068220 0.354330
vt 0.860570 0.539840
vt 0.989100 0.627670
vt 0.946820 0.668690
vt 0.808070 0.564490
vt 0.962700 0.903140
vt 0.111800 0.398500
vt 0.912020 0.706620
vt 0.942770 0.853170
vt 0.108420 0.316810
vt 0.108560 0.317160
vt 0.127910 0.357630
vt 0.877530 0.754500
vt 0.706920 0.627430
vt 0.887580 0.832000
vt 0.066180 0.301760
vt 0.847190 0.803620
vt 0.675710 0.676700
vt 0.835930 0.857990
vt 0.027660 0.319730
vt 0.317490 0.597470
vt 0.328380 0.571790
vt 0.353570 0.597860
vt 0.816190 0.852930
vt 0.645270 0.726040
vt 0.832640 0.869480
vt 0.013990 0.358650
vt 0.328110 0.622920
vt 0.780870 0.902560
vt 0.615940 0.773690
vt 0.825200 0.907840
vt 0.015230 0.361470
vt 0.353170 0.633240
vt 0.378030 0.623240
vt 0.183420 0.156990
vt 0.135850 0.083490
vt 0.141130 0.057580
vt 0.213140 0.533460
vt 0.227570 0.514970
vt 0.309090 0.565380
vt 0.298840 0.583990
vt 0.292700 0.861480
vt 0.274980 0.888020
vt 0.272740 0.887440
vt 0.156960 0.170590
vt 0.119300 0.095040
vt 0.101400 0.532080
vt 0.108960 0.493570
vt 0.200090 0.551580
vt 0.189120 0.569770
vt 0.018580 0.571400
vt 0.067340 0.555220
vt 0.179460 0.588890
vt 0.169700 0.609060
vt 0.130000 0.181540
vt 0.093730 0.092170
vt 0.177050 0.800720
vt 0.211400 0.811160
vt 0.193590 0.851030
vt 0.152630 0.652590
vt 0.160560 0.630350
vt 0.243920 0.674200
vt 0.235230 0.693930
vt 0.064960 0.082860
vt 0.099050 0.443540
vt 0.265100 0.637580
vt 0.253900 0.655520
vt 0.066290 0.171930
vt 0.038640 0.076320
vt 0.276750 0.619960
vt 0.288110 0.602210
vt 0.035920 0.163910
vt 0.015300 0.077220
vt 0.343990 0.258610
vt 0.269900 0.139860
vt 0.289510 0.117150
vt 0.218720 0.064870
vt 0.211550 0.094960
vt 0.140640 0.030120
vt 0.146290 0.005720
vt 0.241910 0.826330
vt 0.219280 0.863030
vt 0.321110 0.284180
vt 0.297410 0.307640
vt 0.208440 0.139580
vt 0.243070 0.146840
vt 0.268570 0.843500
vt 0.246380 0.875760
vt 0.168180 0.328070
vt 0.145990 0.353720
vt 0.084320 0.219360
vt 0.102460 0.190340
vt 0.015230 0.976860
vt 0.012660 0.961410
vt 0.067000 0.935660
vt 0.068420 0.961060
vt 0.466260 0.948380
vt 0.452810 0.907020
vt 0.513650 0.819240
vt 0.533950 0.835860
vt 0.439780 0.639340
vt 0.420570 0.679550
vt 0.381410 0.657890
vt 0.402410 0.624050
vt 0.433420 0.877530
vt 0.493830 0.804140
vt 0.046260 0.641440
vt 0.038860 0.609710
vt 0.116460 0.890010
vt 0.119360 0.952310
vt 0.402660 0.862360
vt 0.473960 0.789530
vt 0.167900 0.839510
vt 0.139950 0.831720
vt 0.139730 0.831660
vt 0.141490 0.796090
vt 0.458190 0.599890
vt 0.400350 0.579570
vt 0.360480 0.857320
vt 0.453210 0.773970
vt 0.139130 0.438790
vt 0.167320 0.924110
vt 0.170130 0.948060
vt 0.361690 0.813990
vt 0.432210 0.757140
vt 0.243200 0.497280
vt 0.319390 0.546740
vt 0.350570 0.783550
vt 0.413190 0.738970
vt 0.165960 0.424130
vt 0.542960 0.935720
vt 0.509370 0.935500
vt 0.555080 0.852180
vt 0.577410 0.866880
vt 0.495710 0.522580
vt 0.476840 0.561290
vt 0.378430 0.519610
vt 0.407960 0.477620
vt 0.490950 0.351610
vt 0.463620 0.394200
vt 0.515710 0.775040
vt 0.494410 0.756260
vt 0.049700 0.837840
vt 0.042970 0.804700
vt 0.074020 0.799750
vt 0.079210 0.830390
vt 0.720490 0.478530
vt 0.719870 0.523900
vt 0.533370 0.443970
vt 0.552480 0.404200
vt 0.436390 0.435730
vt 0.536850 0.794270
vt 0.514470 0.483450
vt 0.271350 0.329750
vt 0.229240 0.315630
vt 0.287480 0.381190
vt 0.557840 0.812240
vt 0.314600 0.953530
vt 0.322180 0.888580
vt 0.282790 0.420170
vt 0.579270 0.827050
vt 0.326480 0.524920
vt 0.251390 0.431560
vt 0.600440 0.839850
vt 0.313390 0.973640
vt 0.352260 0.978800
vt 0.512400 0.229770
vt 0.495020 0.266240
vt 0.365310 0.230640
vt 0.403750 0.209110
vt 0.454320 0.723630
vt 0.433800 0.710100
vt 0.110420 0.826950
vt 0.106880 0.796680
vt 0.487700 0.305120
vt 0.473820 0.739000
vt 0.364180 0.979800
vt 0.367250 0.937970
vt 0.420980 0.959700
vt 0.419780 0.975150
vt 0.571010 0.363980
vt 0.543080 0.333080
vt 0.278580 0.697580
vt 0.302870 0.764560
vt 0.218080 0.934010
vt 0.218680 0.950720
vt 0.328490 0.806750
vt 0.736120 0.503210
vt 0.745290 0.471890
vt 0.785800 0.503970
vt 0.012900 0.746260
vt 0.052990 0.726150
vt 0.191410 0.350330
vt 0.218920 0.338970
vt 0.218540 0.376850
vt 0.095880 0.680280
vt 0.737930 0.579530
vt 0.139750 0.709630
vt 0.179370 0.722100
vt 0.268410 0.921280
vt 0.265850 0.961960
vt 0.223420 0.715390
vt 0.776270 0.457700
vt 0.245800 0.349630
vt 0.388980 0.598800
vt 0.179600 0.377620
vt 0.754280 0.536180
vt 0.379590 0.573300
vt 0.190980 0.404610
vt 0.281460 0.966140
vt 0.793480 0.552540
vt 0.354480 0.561760
vt 0.218690 0.415020
vt 0.195000 0.314220
vt 0.829180 0.538570
vt 0.245950 0.402870
vt 0.837830 0.502850
vt 0.566050 0.794490
vt 0.256940 0.375870
vt 0.814030 0.468870
vt 0.743940 0.442040
g TreeWinterDry1
usemtl defaultMat
f 4/1/4 3/2/3 2/3/2 1/4/1 
f 7/5/7 6/6/6 5/7/5 
f 9/8/9 8/9/8 5/7/5 
f 12/10/12 11/11/11 10/12/10 
f 1/13/1 2/14/2 14/15/14 13/16/13 
f 15/17/15 7/5/7 5/7/5 
f 6/6/6 9/8/9 5/7/5 
f 16/18/16 12/10/12 10/12/10 
f 13/16/13 14/15/14 18/19/18 17/208/17 
f 19/20/19 15/17/15 5/7/5 
f 21/21/21 20/22/20 10/12/10 
f 22/23/22 16/18/16 10/12/10 
f 17/208/17 18/19/18 24/24/24 23/25/23 
f 25/26/25 19/20/19 5/7/5 
f 26/27/26 21/21/21 10/12/10 
f 20/22/20 22/23/22 10/12/10 
f 23/25/23 24/24/24 28/28/28 27/29/27 
f 29/30/29 25/26/25 5/7/5 
f 30/31/30 26/27/26 10/12/10 
f 33/32/33 32/33/32 31/34/31 
f 27/29/27 28/28/28 35/35/35 34/36/34 
f 36/37/36 29/30/29 5/7/5 
f 37/38/37 30/31/30 10/12/10 
f 38/39/38 33/32/33 31/34/31 
f 34/36/34 35/35/35 40/40/40 39/41/39 
f 41/42/41 36/37/36 5/7/5 
f 42/43/42 37/38/37 10/12/10 
f 43/44/43 38/39/38 31/34/31 
f 39/41/39 40/40/40 3/2/3 4/1/4 
f 8/9/8 41/42/41 5/7/5 
f 11/11/11 42/43/42 10/12/10 
f 44/45/44 43/44/43 31/34/31 
f 48/96/48 47/46/47 46/47/46 45/48/45 
f 50/49/50 49/50/49 33/51/33 38/52/38 
f 51/53/51 37/54/37 42/55/42 11/99/11 
f 47/46/47 53/56/53 52/57/52 46/47/46 
f 57/58/57 56/59/56 55/60/55 54/61/54 
f 61/62/61 60/63/60 59/64/59 58/65/58 
f 53/56/53 63/66/63 62/67/62 52/57/52 
f 65/68/65 64/69/64 16/70/16 22/124/22 
f 68/71/68 67/72/67 66/73/66 32/74/32 
f 63/66/63 70/103/70 69/75/69 62/67/62 
f 56/59/56 71/76/71 50/49/50 55/60/55 
f 58/65/58 59/64/59 73/77/73 72/78/72 
f 70/103/70 75/79/75 74/80/74 69/75/69 
f 59/64/59 54/61/54 44/81/44 73/77/73 
f 54/61/54 55/60/55 43/82/43 44/81/44 
f 75/79/75 77/83/77 76/84/76 74/80/74 
f 60/63/60 57/58/57 54/61/54 59/64/59 
f 71/180/71 80/85/80 79/86/79 78/87/78 
f 77/88/77 82/89/82 81/90/81 76/91/76 
f 64/69/64 83/92/83 12/93/12 16/70/16 
f 86/94/86 85/95/85 48/96/48 84/97/84 
f 82/89/82 48/96/48 45/48/45 81/90/81 
f 83/92/83 87/98/87 11/99/11 12/93/12 
f 88/100/88 71/101/71 78/102/78 70/103/70 
f 25/104/25 1/105/1 13/106/13 19/107/19 
f 70/108/70 78/109/78 90/110/90 89/111/89 
f 55/60/55 50/49/50 38/52/38 43/82/43 
f 94/112/94 93/113/93 92/114/92 91/115/91 
f 78/109/78 79/116/79 95/117/95 90/110/90 
f 97/118/97 96/119/96 67/72/67 68/71/68 
f 19/107/19 13/106/13 17/120/17 15/121/15 
f 79/116/79 84/122/84 98/123/98 95/117/95 
f 22/124/22 20/125/20 21/126/21 99/127/99 
f 101/128/101 94/112/94 91/115/91 100/129/100 
f 84/122/84 48/130/48 102/131/102 98/123/98 
f 71/76/71 88/132/88 49/50/49 50/49/50 
f 15/121/15 17/120/17 103/133/103 7/134/7 
f 48/130/48 82/135/82 104/136/104 102/131/102 
f 49/50/49 68/137/68 32/138/32 33/51/33 
f 96/119/96 61/62/61 58/65/58 67/72/67 
f 82/135/82 77/139/77 105/140/105 104/136/104 
f 88/132/88 97/141/97 68/137/68 49/50/49 
f 67/72/67 58/65/58 72/78/72 66/73/66 
f 77/142/77 75/143/75 106/144/106 105/145/105 
f 110/146/110 109/147/109 108/148/108 107/149/107 
f 75/143/75 70/108/70 89/111/89 106/144/106 
f 109/147/109 101/128/101 100/129/100 108/148/108 
f 51/53/51 11/99/11 87/98/87 
f 112/150/112 111/151/111 85/95/85 86/94/86 
f 114/152/114 95/117/95 98/123/98 113/153/113 
f 37/154/37 51/155/51 115/156/115 30/157/30 
f 118/158/118 103/159/103 117/160/117 116/161/116 
f 111/151/111 119/162/119 61/165/61 85/95/85 
f 120/163/120 90/110/90 95/117/95 114/152/114 
f 121/164/121 110/146/110 107/149/107 119/162/119 
f 61/165/61 96/166/96 53/56/53 47/46/47 
f 119/162/119 107/149/107 60/167/60 61/165/61 
f 122/168/122 89/111/89 90/110/90 120/163/120 
f 4/189/4 123/169/123 39/170/39 
f 123/169/123 124/211/124 39/170/39 
f 107/149/107 108/148/108 57/171/57 60/167/60 
f 125/172/125 106/144/106 89/111/89 122/168/122 
f 117/160/117 121/164/121 119/162/119 111/151/111 
f 108/148/108 126/173/126 56/174/56 57/171/57 
f 127/175/127 105/145/105 106/144/106 125/172/125 
f 41/176/41 123/169/123 36/177/36 
f 22/124/22 99/127/99 65/68/65 
f 126/178/126 128/179/128 71/180/71 56/181/56 
f 129/182/129 104/136/104 105/140/105 127/183/127 
f 116/161/116 117/160/117 111/151/111 112/150/112 
f 26/184/26 130/185/130 99/127/99 21/126/21 
f 128/179/128 131/186/131 80/85/80 71/180/71 
f 132/187/132 102/131/102 104/136/104 129/182/129 
f 29/188/29 4/189/4 1/190/1 25/191/25 
f 30/157/30 115/156/115 130/185/130 26/184/26 
f 131/186/131 112/150/112 86/94/86 80/85/80 
f 113/153/113 98/123/98 102/131/102 132/187/132 
f 93/192/93 116/161/116 112/150/112 92/193/92 
f 108/194/108 100/195/100 87/98/87 83/92/83 
f 7/134/7 103/133/103 118/196/118 6/197/6 
f 100/195/100 91/198/91 51/53/51 87/98/87 
f 74/199/74 76/200/76 133/201/133 
f 91/202/91 92/203/92 115/156/115 51/155/51 
f 113/204/113 132/205/132 134/206/134 
f 92/203/92 112/207/112 130/185/130 115/156/115 
f 103/159/103 17/208/17 121/164/121 117/160/117 
f 112/207/112 131/209/131 99/127/99 130/185/130 
f 4/189/4 29/188/29 36/177/36 123/169/123 
f 131/209/131 128/210/128 65/68/65 99/127/99 
f 6/197/6 118/196/118 124/211/124 9/212/9 
f 128/210/128 126/213/126 64/69/64 65/68/65 
f 76/200/76 81/214/81 133/201/133 
f 126/213/126 108/194/108 83/92/83 64/69/64 
f 132/205/132 129/215/129 134/206/134 
f 17/208/17 23/25/23 110/146/110 121/164/121 
f 73/216/73 44/45/44 31/34/31 
f 114/217/114 113/204/113 134/206/134 
f 80/85/80 86/94/86 84/97/84 79/86/79 
f 69/218/69 74/199/74 133/201/133 
f 23/25/23 27/29/27 109/147/109 110/146/110 
f 72/219/72 73/216/73 31/34/31 
f 120/220/120 114/217/114 134/206/134 
f 123/169/123 8/221/8 9/212/9 124/211/124 
f 62/222/62 69/218/69 133/201/133 
f 27/29/27 34/36/34 101/128/101 109/147/109 
f 66/223/66 72/219/72 31/34/31 
f 122/224/122 120/220/120 134/206/134 
f 96/166/96 97/225/97 63/66/63 53/56/53 
f 52/226/52 62/222/62 133/201/133 
f 34/36/34 39/41/39 94/112/94 101/128/101 
f 32/33/32 66/223/66 31/34/31 
f 125/227/125 122/224/122 134/206/134 
f 85/95/85 61/165/61 47/46/47 48/96/48 
f 46/228/46 52/226/52 133/201/133 
f 39/41/39 124/229/124 93/113/93 94/112/94 
f 127/230/127 125/227/125 134/206/134 
f 45/231/45 46/228/46 133/201/133 
f 8/221/8 123/169/123 41/176/41 
f 97/225/97 88/100/88 70/103/70 63/66/63 
f 124/232/124 118/158/118 116/161/116 93/192/93 
f 129/215/129 127/230/127 134/206/134 
f 81/214/81 45/231/45 133/201/133 
