o WaterD.obj
v -0.446818 -1.836260 0.445872
v -0.446818 -1.836260 -0.448295
v 0.447349 -1.836260 -0.448295
v 0.447349 -1.836260 0.445872
v -0.446818 -1.764625 0.517507
v 0.447349 -1.764625 0.517507
v 0.518984 -1.764625 0.445872
v 0.518984 -1.764625 -0.448295
v 0.447349 -1.764625 -0.519930
v -0.446818 -1.764625 -0.519930
v -0.518453 -1.764625 -0.448295
v -0.518453 -1.764625 0.445872
v -0.446818 -1.818352 0.499599
v 0.447349 -1.818352 0.499599
v 0.501075 -1.818352 0.445872
v 0.501075 -1.818352 -0.448295
v 0.447349 -1.818352 -0.502021
v -0.446818 -1.818352 -0.502021
v -0.500544 -1.818352 -0.448295
v -0.500544 -1.818352 0.445872
v 0.501075 -1.764625 0.499599
v 0.501075 -1.764625 -0.502021
v -0.500544 -1.764625 -0.502021
v -0.500544 -1.764625 0.499599
v 0.487146 -1.804422 -0.488092
v 0.487146 -1.804422 0.485670
v -0.486615 -1.804422 0.485670
v -0.486615 -1.804422 -0.488092
v -0.446818 -0.073986 0.517507
v 0.447349 -0.073986 0.517507
v 0.518984 -0.073986 0.445872
v 0.518984 -0.073986 -0.448295
v 0.447349 -0.073986 -0.519930
v -0.446818 -0.073986 -0.519930
v -0.518453 -0.073986 -0.448295
v -0.518453 -0.073986 0.445872
v 0.501075 -0.073986 0.499599
v 0.501075 -0.073986 -0.502021
v -0.500544 -0.073986 -0.502021
v -0.500544 -0.073986 0.499599
vn -0.155996 -0.970125 0.185801
vn -0.185801 -0.970125 -0.155997
vn 0.155996 -0.970125 -0.185801
vn 0.185801 -0.970125 0.155996
vn -0.185801 -0.155996 0.970126
vn 0.155995 -0.185801 0.970126
vn 0.970126 -0.155996 0.185801
vn 0.970125 -0.185801 -0.155996
vn 0.185801 -0.155998 -0.970125
vn -0.155997 -0.185801 -0.970125
vn -0.970125 -0.155996 -0.185801
vn -0.970126 -0.185801 0.155995
vn -0.194104 -0.677294 0.709646
vn 0.194103 -0.709646 0.677294
vn 0.709646 -0.677294 0.194104
vn 0.677294 -0.709645 -0.194103
vn 0.194102 -0.677295 -0.709645
vn -0.194104 -0.709645 -0.677294
vn -0.709645 -0.677294 -0.194104
vn -0.677294 -0.709646 0.194103
vn 0.677294 -0.194104 0.709646
vn 0.709645 -0.194105 -0.677294
vn -0.677295 -0.194103 -0.709645
vn -0.709646 -0.194104 0.677294
vn 0.577349 -0.577352 -0.577350
vn 0.577350 -0.577351 0.577350
vn -0.577351 -0.577351 0.577350
vn -0.577351 -0.577349 -0.577351
vn -0.160181 0.000000 0.987088
vn 0.160181 0.000000 0.987088
vn 0.987088 0.000000 0.160181
vn 0.987087 0.000000 -0.160182
vn 0.160183 0.000000 -0.987087
vn -0.160183 0.000000 -0.987087
vn -0.987087 0.000000 -0.160182
vn -0.987088 0.000000 0.160181
vn 0.707107 0.000000 0.707107
vn 0.707108 0.000000 -0.707106
vn -0.707108 0.000000 -0.707106
vn -0.707107 0.000000 0.707107
vt 0.015160 0.318860
vt 0.015170 0.015170
vt 0.317980 0.015170
vt 0.317980 0.318860
vt 0.653100 0.318850
vt 0.346910 0.318850
vt 0.346910 0.015160
vt 0.653100 0.015160
vt 0.681990 0.652190
vt 0.682000 0.348490
vt 0.984870 0.348490
vt 0.984870 0.652190
vt 0.346910 0.681130
vt 0.653100 0.681130
vt 0.653100 0.984820
vt 0.346910 0.984820
vt 0.318020 0.348490
vt 0.318020 0.652190
vt 0.015150 0.652180
vt 0.015160 0.348490
vt 0.653120 -0.000000
vt 0.346890 -0.000000
vt 0.999990 0.652190
vt 1.000000 0.348490
vt 0.346910 0.999990
vt 0.653100 0.999990
vt 0.000030 0.348470
vt 0.000030 0.652200
vt 0.000030 0.015170
vt 0.000030 0.318860
vt 0.332450 0.318860
vt 0.332440 0.015170
vt 0.682000 0.333310
vt 0.984870 0.333310
vt 0.984860 0.666650
vt 0.681990 0.666640
vt 0.318020 0.666660
vt 0.015150 0.666660
vt 0.015160 0.333340
vt 0.318020 0.333340
vt 0.999990 0.666640
vt 1.000000 0.333300
vt 0.000040 0.333300
vt 0.000030 0.666690
vt 0.015150 0.000000
vt 0.318000 0.000000
vt 0.317980 0.333330
vt 0.015160 0.333330
vt 0.332450 0.318850
vt 0.332450 0.015160
vt 0.667560 0.015170
vt 0.667560 0.318850
vt 0.667560 0.681130
vt 0.667560 0.984820
vt 0.332440 0.984820
vt 0.332440 0.681130
vt 0.667600 0.000000
vt 0.332420 -0.000000
vt 0.332450 0.999990
vt 0.667560 0.999990
vt 0.000000 0.000000
vt 0.000030 0.333330
vt 0.332450 0.333320
vt 0.332490 0.000000
g Object046
f 4/1/4 1/2/1 2/3/2 3/4/3 
f 30/5/30 29/6/29 5/7/5 6/8/6 
f 32/9/32 31/10/31 7/11/7 8/12/8 
f 34/13/34 33/14/33 9/15/9 10/16/10 
f 36/17/36 35/18/35 11/19/11 12/20/12 
f 14/21/14 6/8/6 5/7/5 13/22/13 
f 16/23/16 8/12/8 7/11/7 15/24/15 
f 18/25/18 10/16/10 9/15/9 17/26/17 
f 20/27/20 12/20/12 11/19/11 19/28/19 
f 13/29/13 1/2/1 4/1/4 14/30/14 
f 17/31/17 3/4/3 2/3/2 18/32/18 
f 7/11/7 31/10/31 37/33/37 21/34/21 
f 32/9/32 8/12/8 22/35/22 38/36/38 
f 11/19/11 35/18/35 39/37/39 23/38/23 
f 36/17/36 12/20/12 24/39/24 40/40/40 
f 25/41/25 22/35/22 8/12/8 16/23/16 
f 26/42/26 15/24/15 7/11/7 21/34/21 
f 27/43/27 24/39/24 12/20/12 20/27/20 
f 28/44/28 19/28/19 11/19/11 23/38/23 
f 1/2/1 20/45/20 19/46/19 2/3/2 
f 3/4/3 16/47/16 15/48/15 4/1/4 
f 29/6/29 40/49/40 24/50/24 5/7/5 
f 6/8/6 21/51/21 37/52/37 30/5/30 
f 33/14/33 38/53/38 22/54/22 9/15/9 
f 10/16/10 23/55/23 39/56/39 34/13/34 
f 26/57/26 21/51/21 6/8/6 14/21/14 
f 27/58/27 13/22/13 5/7/5 24/50/24 
f 28/59/28 23/55/23 10/16/10 18/25/18 
f 25/60/25 17/26/17 9/15/9 22/54/22 
f 27/61/27 20/45/20 1/2/1 13/29/13 
f 26/62/26 14/30/14 4/1/4 15/48/15 
f 25/63/25 16/47/16 3/4/3 17/31/17 
f 28/64/28 18/32/18 2/3/2 19/46/19 
