# OBJ written from D:\Projekty\Diagooo\4_Implementacja\DiagoUnity\DiagoUnity\Assets\_Diago\_Art\Meshes\Frost Land\Rock_03_TOP.obj
# Units	meters

o Rock_03_TOP
v 0.0647648 0.381471 -0.0935071
v 0.222039 0.759467 -0.0116805
v 0.217716 0.759467 0.203983
v 0.0451963 0.759467 0.243199
v 0.140058 0.759467 0.394128
v 0.138508 0.381471 0.255422
v 0.121557 0.53454 0.283621
v 0.0256389 0.258812 0.0317913
v 0.142723 0.00347409 0.126489
v -0.199458 0.759467 0.0165295
v -0.27858 0.759467 0.176273
v -0.229714 0.361599 0.223437
v 0.0512717 0.00347409 -0.177896
v -0.22052 0.00347409 0.0602485
v -0.00917668 0.199153 -0.12573
v 0.30142 0.00347409 0.379123
v -0.265776 0.759467 -0.0197013
v -0.288242 0.650126 -0.0800215
v -0.325256 0.662839 0.00206842
v -0.325018 0.759467 0.0290066
v -0.215222 0.806678 0.0280887
v -0.270196 0.828236 0.129824
v -0.374564 0.00347409 -0.336609
v -0.38595 0.0541909 -0.339478
v -0.33286 0.041811 -0.372277
v -0.321722 0.00347409 -0.382885
v -0.0643194 0.759467 0.30605
v -0.128849 0.695206 0.31441
v -0.0775907 0.700898 0.335589
v -0.0589642 0.759467 0.344512
v -0.00456113 0.903554 0.334298
v 0.0169937 0.907806 0.373617
v -0.397769 0.00347409 0.202871
v 0.458184 0.00347409 -0.185963
v 0.471312 0.0704853 -0.171216
v 0.478529 0.00347409 -0.127226
v 0.369847 0.47553 0.0309821
v 0.349004 0.381471 0.0449155
v 0.352478 0.289171 0.0109875
v 0.321245 0.381471 -0.0450363
v 0.359861 0.496626 -0.0218653
v 0.366457 0.759467 0.0552334
v 0.336966 0.759467 -0.0139875
v 0.325928 0.86934 0.0108246
v 0.340657 0.8865 0.0889819
v -0.403027 0.00347409 0.164389
vn -0.888749 0.458394 -0.000436099
vn -0.926668 0.374688 -0.0299218
vn -0.837011 0.546929 -0.016778
vn -0.462931 0.360097 -0.809954
vn -0.466448 0.36029 -0.807847
vn -0.464328 0.357787 -0.810178
vn 0.805536 0.307704 -0.506389
vn 0.805776 0.307595 -0.506074
vn 0.831843 0.188204 -0.522126
vn 0.831387 0.188291 -0.522822
vn -0.930068 0.365917 0.032843
vn -0.9275 0.367235 0.0698761
vn -0.928674 0.364776 0.0671029
vn 0.093745 0.924018 -0.370679
vn 0.316986 0.336162 -0.886857
vn 0.0532833 0.256952 -0.964954
vn 0.10682 0.275375 -0.955384
vn 0.831772 0.187495 -0.522494
vn 0.832099 0.187848 -0.521846
vn 0.832086 0.187884 -0.521854
vn 0.706176 -0.0518842 0.706133
vn 0.702779 -0.110708 0.702741
vn 0.706244 -0.0499599 0.706204
vn 0.867197 0.176253 0.46573
vn 0.87747 0.174694 0.446686
vn 0.87598 0.168435 0.451983
vn 0.882452 0.173884 0.437084
vn -0.368238 0.849024 -0.378893
vn -0.47697 0.689956 -0.544482
vn -0.376585 0.48162 -0.791344
vn -0.468415 0.486756 -0.73733
vn -0.647187 -0.1871 -0.739015
vn 0.448128 0.355446 -0.820268
vn 0.448918 0.351085 -0.821713
vn -0.947526 0.11368 0.298784
vn -0.908492 0.304257 0.286478
vn 0.880266 0.187173 0.436002
vn -0.940195 -0.114674 0.320755
vn -0.934413 -0.131364 0.331083
vn -0.916047 -0.185543 0.355572
vn 0.449862 0.357189 -0.81856
vn 0.448986 0.358706 -0.818378
vn 0.447718 0.36001 -0.818499
vn -0.949866 -0.0789471 0.302527
vn -0.83791 0.346278 0.421899
vn -0.779225 0.399754 0.482706
vn -0.905533 0.318188 0.280654
vn -0.465025 0.356631 -0.810288
vn -0.465835 0.352332 -0.811702
vn -0.241327 -0.0685407 0.96802
vn -0.241362 -0.0663686 0.968163
vn 0.71673 0.532322 -0.450478
vn -0.470014 0.36167 -0.805159
vn -0.313827 -0.0364764 0.948779
vn -0.242545 -0.0714164 0.967508
vn -0.322088 0.0879381 0.942617
vn 0.912599 0.387665 0.129915
vn 0.939258 0.252514 -0.232447
vn 0.937291 0.149763 -0.314734
vn 0.852651 -0.0422373 -0.520771
vn 0.761826 -0.127683 -0.635074
vn -0.725053 0.68854 -0.0145338
vn 0.706311 -0.0480361 0.70627
vn 0.706436 -0.0441911 0.706396
vn -0.019915 0.123855 -0.9921
vn 0.0484989 0.12792 -0.990598
vn -0.0195852 0.218364 -0.975671
vn 0.706174 -0.0518816 0.706135
vn 0.64605 -0.173847 0.743234
vn 0.700151 -0.140091 0.700116
vn 0.59853 -0.119167 0.792188
vn 0.0746229 0.332478 -0.940154
vn -0.0193435 0.218506 -0.975644
vn 0.177706 0.290197 -0.940322
vn 0.0825321 0.0817623 -0.993229
vn -0.950235 0.282043 0.132305
vn -0.393328 0.249596 0.88487
vn -0.638433 0.435257 0.634788
vn -0.381813 -0.000595142 0.92424
vn -0.462811 0.357707 -0.81108
vn -0.469323 0.360067 -0.80628
vt 0.453592 0.255856
vt 0.587643 0.218859
vt 0.537741 0.269938
vt 0.773305 0.527353
vt 0.754349 0.426019
vt 0.946425 0.45858
vt 0.97889 0.510536
vt 0.897785 0.536106
vt 0.511015 0.133184
vt 0.453305 0.155935
vt 0.455794 0.10818
vt 0.670688 0.524472
vt 0.518187 0.633839
vt 0.57811 0.669274
vt 0.452881 0.652601
vt 0.72852 0.632054
vt 0.852701 0.569687
vt 0.782841 0.718986
vt 0.460878 0.47866
vt 0.452234 0.436478
vt 0.52371 0.51399
vt 0.583474 0.18063
vt 0.462764 0.0764765
vt 0.579253 0.0171325
vt 0.478583 0.00795775
vt 0.445259 0.915833
vt 0.45181 0.853148
vt 0.484406 0.865542
vt 0.475664 0.889559
vt 0.713061 0.824589
vt 0.505225 0.888801
vt 0.521203 0.855489
vt 0.722713 0.808377
vt 0.726629 0.82954
vt 0.734816 0.807047
vt 0.481314 0.555692
vt 0.466561 0.581996
vt 0.458892 0.553153
vt 0.456979 0.940896
vt 0.45255 0.0678895
vt 0.457437 0.0225951
vt 0.558639 0.992886
vt 0.677268 0.965159
vt 0.745975 0.543333
vt 0.696944 0.714324
vt 0.672942 0.707283
vt 0.678039 0.544553
vt 0.496435 0.60656
vt 0.994665 0.971552
vt 0.985172 0.991824
vt 0.936476 0.989993
vt 0.941424 0.974275
vt 0.923429 0.42178
vt 0.984525 0.420027
vt 0.986924 0.906819
vt 0.993529 0.431499
vt 0.88818 0.409757
vt 0.680841 0.972207
vt 0.840791 0.735071
vt 0.922986 0.971519
vt 0.566909 0.375504
vt 0.53923 0.362014
vt 0.55926 0.264055
vt 0.581731 0.272585
vt 0.588074 0.518589
vt 0.585298 0.481243
vt 0.605802 0.470341
vt 0.610585 0.501375
vt 0.557647 0.409174
vt 0.577008 0.405326
vt 0.539392 0.390135
vt 0.475728 0.293125
vt 0.447547 0.283875
vt 0.701455 0.79393
vt 0.702292 0.745975
vt 0.737964 0.792532
vt 0.447428 0.323517
vt 0.472039 0.829838
vt 0.449917 0.822403
vt 0.576144 0.781901
vt 0.614047 0.801185
vt 0.909461 0.988647
vt 0.670903 0.986939
vt 0.635465 0.483134
vt 0.597106 0.421748
usemtl Default
g Rock_03_TOP
f 2/1/1 7/2/2 3/3/3
f 8/4/4 12/5/5 4/6/6
f 4/6/7 5/7/8 7/8/9
f 4/6/7 7/8/9 8/4/10
f 8/9/11 1/10/12 15/11/13
f 8/4/14 15/12/14 12/5/14
f 15/13/15 1/14/16 13/15/17
f 9/16/18 6/17/19 16/18/20
f 16/18/20 6/17/19 7/8/9
f 5/7/8 16/18/20 7/8/9
f 7/2/2 2/1/1 8/9/11
f 1/10/12 8/9/11 2/1/1
f 7/19/21 6/20/22 3/21/23
f 15/22/24 10/23/25 12/24/26
f 11/25/27 12/24/26 10/23/25
f 22/26/28 21/27/28 17/28/29 20/29/29
f 24/30/30 19/31/31 18/32/31 25/33/30
f 17/28/29 18/32/31 19/31/31 20/29/29
f 23/34/32 24/30/32 25/33/32 26/35/32
f 10/36/33 17/37/33 21/38/34
f 20/29/35 11/39/35 22/26/36
f 11/25/27 10/23/25 21/40/37 22/41/37
f 12/42/38 24/30/39 23/34/40 14/43/40
f 13/44/17 26/45/41 25/46/42 15/47/15
f 25/46/42 18/48/43 15/47/15
f 15/47/15 18/48/43 17/37/33 10/36/33
f 24/30/39 12/42/38 19/31/44
f 12/42/38 11/39/35 20/29/35 19/31/44
f 32/49/45 31/50/45 27/51/46 30/52/47
f 4/6/6 27/53/48 31/54/49
f 30/52/50 5/55/50 32/49/51
f 5/7/8 4/6/7 31/54/52 32/56/52
f 12/5/5 28/57/53 27/53/48 4/6/6
f 33/58/54 16/59/55 29/60/56
f 16/59/55 5/55/50 30/52/50 29/60/56
f 40/61/57 39/62/57 36/63/57 35/64/57
f 45/65/58 42/66/59 43/67/59 44/68/58
f 42/66/59 37/69/60 41/70/60 43/67/59
f 40/61/61 41/70/60 37/69/60 38/71/61 39/62/61
f 3/3/3 45/72/62 44/73/62 2/1/1
f 3/21/23 42/66/63 45/65/64
f 43/74/65 2/75/66 44/76/67
f 3/21/23 37/69/68 42/66/63
f 9/77/69 39/62/69 38/71/70 6/20/22
f 9/77/69 36/63/71 39/62/69
f 1/14/16 35/78/72 34/79/73 13/15/17
f 40/80/74 35/78/72 1/14/16
f 3/21/23 6/20/22 38/71/70 37/69/68
f 1/14/16 2/75/66 41/81/75 40/80/74
f 43/74/65 41/81/75 2/75/66
f 30/52/47 27/51/47 29/60/76
f 28/82/77 29/60/56 27/51/78
f 29/60/56 28/82/77 46/83/79 33/58/54
f 12/5/5 14/84/80 46/85/81
f 28/57/53 12/5/5 46/85/81
