# OBJ written from D:\Projekty\Diagooo\4_Implementacja\DiagoUnity\DiagoUnity\Assets\_Diago\_Art\Meshes\Rocky Mountains\RockMountain.obj
# Units	meters

o RockMountain.obj
v -0.427366 -1.83667 0.427366
v -0.427366 -1.83667 -0.427366
v 0.427366 -1.83667 -0.427366
v 0.427366 -1.83667 0.427366
v -0.427366 -0.069556 0.495822
v -0.427366 -1.76815 0.495822
v 0.427366 -1.76815 0.495822
v 0.427366 -0.069556 0.495822
v 0.495822 -1.76815 0.427366
v 0.495822 -1.76815 -0.427366
v 0.495822 -0.069556 -0.427366
v 0.427366 -0.069556 -0.495822
v 0.427366 -1.76815 -0.495822
v -0.427366 -1.76815 -0.495822
v -0.427366 -0.069556 -0.495822
v -0.495822 -1.76815 -0.427366
v -0.495822 -1.76815 0.427366
v -0.495822 -0.069556 0.427366
v -0.427366 -0.018182 0.47874
v -0.427366 -1.81952 0.47874
v 0.427366 -1.81952 0.47874
v 0.47874 -1.81952 0.427366
v 0.47874 -1.81952 -0.427366
v -0.427366 -0.018182 -0.47874
v 0.427366 -0.018182 -0.47874
v 0.427366 -1.81952 -0.47874
v -0.427366 -1.81952 -0.47874
v -0.47874 -0.018182 0.427366
v -0.47874 -1.81952 -0.427366
v -0.47874 -1.81952 0.427366
v 0.47874 -0.069556 0.47874
v 0.47874 -1.76815 0.47874
v 0.47874 -1.76815 -0.47874
v 0.47874 -0.069556 -0.47874
v -0.47874 -0.069556 -0.47874
v -0.47874 -1.76815 -0.47874
v -0.47874 -1.76815 0.47874
v -0.47874 -0.069556 0.47874
v 0.465411 -0.031511 -0.465411
v 0.465411 -1.8062 -0.465411
v 0.465411 -1.8062 0.465411
v -0.465411 -0.031511 -0.465411
v -0.465411 -0.031511 0.465411
v -0.465411 -1.8062 0.465411
v -0.465411 -1.8062 -0.465411
v 0.47874 -0.018182 0.359039
v 0.47874 -0.018182 0.086573
v -0.47874 -0.018182 -0.427366
v -0.495822 -0.069556 -0.427366
v -0.427366 -0.0011 -0.427366
v 0.495822 -0.069556 0.427366
v 0.423264 0.512638 0.285832
v 0.375218 0.576957 0.291055
v 0.377984 0.529692 0.357289
v -0.395667 0.425032 0.371711
v -0.370445 0.427863 0.426203
v -0.352797 0.499349 0.380258
v 0.37828 0.326562 0.427366
v 0.434916 0.306622 0.379051
v -0.163479 0.577959 0.0801287
v -0.16587 0.536908 0.0172885
v -0.238396 0.52607 0.0751943
v 0.494516 -0.065628 -0.427366
v 0.465411 -0.031511 -0.465411
v 0.443385 -0.018182 -0.462721
v 0.428749 -0.0172396 -0.427366
v 0.432359 -0.0173076 -0.40871
v 0.47874 -0.018182 -0.377366
v 0.414297 0.507661 -0.111381
v 0.358484 0.537358 -0.164702
v 0.355294 0.582734 -0.0946395
v 0.434632 -0.06229 0.490014
v 0.47874 -0.069556 0.47874
v 0.490014 -0.06229 0.434632
v 0.47158 -0.0253418 0.416178
v 0.415576 -0.0274547 0.46544
v 0.415422 -0.0307647 0.466157
v -0.458273 0.0396985 0.416236
v -0.472966 0.00259614 0.440274
v -0.464082 -0.00599898 0.465594
v -0.437793 0.000803191 0.474832
v -0.411645 0.0398757 0.465924
v -0.380985 -0.00197438 -0.0815483
v -0.427366 -0.0011 -0.112892
v -0.434337 -0.00341794 -0.112349
v -0.430573 0.00313349 -0.0131749
v -0.427366 0.0340214 -0.0273043
vn -0.157997 0.157998 0.974717
vn -0.155628 -0.185656 0.970212
vn 0.157997 -0.157998 0.974717
vn 0.155628 0.185658 0.970212
vn -0.164357 -0.7165 0.677949
vn 0.164377 -0.677225 0.71718
vn -0.126717 -0.983812 0.126717
vn 0.156176 -0.970057 0.186007
vn 0.974717 -0.157998 -0.157997
vn 0.696343 -0.199995 -0.689281
vn 0.689281 0.199998 -0.696343
vn 0.970212 0.185658 -0.155628
vn -0.974762 -0.157995 0.157724
vn -0.696343 -0.199995 0.689281
vn -0.689281 0.199998 0.696343
vn -0.970284 0.185683 0.155148
vn 0.69724 -0.696393 -0.169983
vn 0.565537 -0.609024 -0.55611
vn 0.970212 -0.185656 0.155628
vn 0.689281 -0.199995 0.696343
vn 0.545015 -0.588069 0.597606
vn 0.677583 -0.709393 0.194021
vn -0.684745 0.211406 0.697446
vn -0.967014 0.209745 0.144534
vn -0.69724 -0.696393 0.169983
vn -0.565537 -0.609024 0.55611
vn -0.970212 -0.185656 -0.155628
vn -0.689281 -0.199995 -0.696343
vn -0.545015 -0.588069 -0.597606
vn -0.677583 -0.709393 -0.194021
vn 0.696343 0.199998 0.689281
vn 0.155628 -0.185656 -0.970212
vn 0.157997 0.157998 -0.974717
vn -0.696343 0.199998 -0.689281
vn -0.155628 0.185658 -0.970212
vn -0.157997 -0.157998 -0.974717
vn -0.161983 0.158103 0.974046
vn 0.164133 0.677539 -0.716939
vn 0.544733 0.588309 -0.597628
vn -0.565324 0.609418 -0.555894
vn -0.164133 0.716939 -0.677539
vn -0.164377 -0.677225 -0.71718
vn 0.164357 -0.7165 -0.677949
vn 0.126717 -0.983812 -0.126717
vn -0.156176 -0.970057 -0.186007
vn -0.974717 0.157998 -0.157997
vn -0.696843 0.696844 -0.16976
vn -0.973052 0.230586 0.000207
vn -0.690188 0.723542 0.011322
vn -0.157997 0.974717 -0.157997
vn 0.974717 0.157998 0.157997
vn 0.987147 0.159813 0
vn 0.985299 0.170841 0
vn 0.253817 0.875987 -0.38971
vn 0.495535 0.561506 -0.661247
vn 0.907915 0.412403 -0.0164652
vn 0.626077 0.526687 -0.523058
vn -0.302914 0.617482 -0.714519
vn 0.897752 0.433603 -0.018021
vn -0.303654 0.618522 -0.723429
vn 0.428277 0.412361 0.75772
vn 0.255085 0.208633 0.932806
vn 0.98011 0.158894 0.0870112
vn 0.501433 0.403689 0.753869
vn -0.319074 0.25752 0.900332
vn -0.550466 0.595142 0.519996
vn -0.606659 0.623529 0.453457
vn -0.91076 0.30748 0.137612
vn 0.542314 0.67842 0.431994
vn 0.501368 0.724118 0.469523
vn -0.610842 0.607258 0.500257
vn -0.605883 0.780299 -0.149383
vn -0.222617 0.776681 -0.575203
vn -0.52059 0.818162 -0.148472
vn 0.500042 0.723224 0.472772
vn 0.89603 0.171463 -0.143729
vn 0.112955 0.466279 -0.493394
vn 0.845049 0.494726 -0.202826
vn 0.720513 0.473629 -0.506494
vn 0.588299 0.56411 -0.578066
vn 0.901692 0.431829 -0.0177894
vn 0.125905 0.1502 0.784917
vn 0.284493 0.682687 0.673055
vn 0.288619 0.205778 0.934702
vn -0.00906984 0.00885259 0.0545393
vn -0.643532 0.139582 0.096185
vn -0.45319 0.139916 0.461596
vn -0.112473 0.109779 0.676328
vn -0.352727 0.260385 0.898429
vn 0.145341 0.971361 -0.187971
vn 0.226362 0.948467 -0.221746
vn -0.513553 0.834076 -0.197687
vn 0.947807 0.225732 -0.158563
vn 0.200568 0.741182 -0.611609
vn 0.156393 0.185682 0.970083
vn 0.141624 0.184234 0.96979
vn 0.696343 0.199998 0.689281
vn 0.264386 0.203024 0.936962
vn -0.22057 0.18939 0.950917
vn -0.572786 0.227996 0.765393
vn -0.775122 0.225395 0.519963
vn -0.961993 0.224139 0.153923
vn 0 0.987147 -0.159813
vn 0.265483 0.88747 -0.367032
vn -0.554526 0.779984 -0.164597
vn -0.537286 0.819608 -0.170968
vn -0.957708 0.219549 0.0137235
vn -0.899154 0.295049 -0.242099
vn -0.553321 0.778694 -0.203998
vn -0.215519 0.800667 -0.527345
vn -0.464542 0.853899 -0.193882
vn 0.974589 0.158018 0.158758
vn 0.707152 0.65735 -0.175143
vn 0.984645 0.159486 0.0309362
vt 0.012502 0.00541
vt 0.447074 0.005879
vt 0.447025 0.226655
vt 0.012493 0.223927
vt 0.953432 0.085956
vt 0.665848 0.087673
vt 0.666734 0.069584
vt 0.952609 0.067869
vt 0.666918 0.051543
vt 0.95254 0.04978
vt 0.447067 0.476382
vt 0.447069 0.490374
vt 0.012459 0.483059
vt 0.012462 0.469228
vt 0.447179 0.973798
vt 0.447187 0.987705
vt 0.012352 0.976025
vt 0.012351 0.962132
vt 0.973213 0.017144
vt 0.984337 0.037263
vt 0.966774 0.040232
vt 0.963164 0.026509
vt 0.985976 0.057229
vt 0.973857 0.076848
vt 0.965796 0.065529
vt 0.969352 0.051952
vt 0.462255 0.72535
vt 0.481366 0.784555
vt 0.50406 0.761047
vt 0.495033 0.723484
vt 0.644312 0.077391
vt 0.633187 0.058254
vt 0.649883 0.053341
vt 0.653739 0.067396
vt 0.628297 0.041607
vt 0.639723 0.020783
vt 0.648714 0.03126
vt 0.645842 0.044645
vt 0.447195 0.996386
vt 0.012353 0.995133
vt 0.447027 0.24073
vt 0.012492 0.237691
vt 0.447071 0.504379
vt 0.012456 0.496887
vt 0.44711 0.739533
vt 0.0124 0.729345
vt 0.012403 0.71548
vt 0.447108 0.725545
vt 0.522751 0.808226
vt 0.531345 0.778795
vt 0.984641 0.306407
vt 0.959439 0.277294
vt 0.946933 0.308853
vt 0.963165 0.32275
vt 0.569162 0.0307324
vt 0.51912 0.00972667
vt 0.526849 0.0502984
vt 0.558005 0.0650492
vt 0.659846 0.010371
vt 0.662261 0.028107
vt 0.951574 0.006142
vt 0.949805 0.024052
vt 0.949141 0.041844
vt 0.663351 0.045872
vt 0.012396 0.743196
vt 0.447113 0.753518
vt 0.465748 0.0542283
vt 0.504915 0.0728834
vt 0.459358 0.914773
vt 0.756043 0.913508
vt 0.752791 0.931014
vt 0.464067 0.931528
vt 0.75135 0.948507
vt 0.465657 0.948584
vt 0.547858 0.0991708
vt 0.758716 0.974412
vt 0.466985 0.973935
vt 0.469333 0.957147
vt 0.757289 0.956763
vt 0.761501 0.992005
vt 0.461534 0.990503
vt 0.012491 0.251442
vt 0.447029 0.254804
vt 0.990925 0.947137
vt 0.973011 0.700162
vt 0.952263 0.868687
vt 0.012482 0.251607
vt 0.937371 0.353786
vt 0.865703 0.521357
vt 0.889692 0.540304
vt 0.960598 0.387222
vt 0.678304 0.55343
vt 0.869165 0.543598
vt 0.67873 0.523819
vt 0.845431 0.818947
vt 0.875772 0.922311
vt 0.921762 0.903013
vt 0.861684 0.828091
vt 0.548609 0.751697
vt 0.601691 0.661363
vt 0.581939 0.629945
vt 0.529156 0.705483
vt 0.878162 0.706857
vt 0.849322 0.678232
vt 0.604645 0.638822
vt 0.658881 0.539846
vt 0.565673 0.3402
vt 0.542005 0.386916
vt 0.851411 0.702674
vt 0.991679 0.348321
vt 0.950777 0.322773
vt 0.936562 0.339464
vt 0.877168 0.949639
vt 0.909801 0.983901
vt 0.972697 0.944359
vt 0.875093 0.923978
vt 0.506362 0.729484
vt 0.51246 0.754409
vt 0.530598 0.767371
vt 0.531355 0.327248
vt 0.526565 0.32785
vt 0.52042 0.392724
vt 0.994363 0.347893
vt 0.872844 0.953664
usemtl rockymountains
g RockMountain
f 5/1/1 6/2/2 7/3/3 8/4/4
f 7/5/3 6/6/2 20/7/5 21/8/6
f 1/9/7 4/10/8 21/8/6 20/7/5
f 10/11/9 33/12/10 34/13/11 11/14/12
f 17/15/13 37/16/14 38/17/15 18/18/16
f 33/19/10 10/20/9 23/21/17 40/22/18
f 9/23/19 32/24/20 41/25/21 22/26/22
f 18/27/16 38/28/15 43/29/23 28/30/24
f 37/31/14 17/32/13 30/33/25 44/34/26
f 16/35/27 36/36/28 45/37/29 29/38/30
f 38/17/15 37/16/14 6/39/2 5/40/1
f 32/41/20 31/42/31 8/4/4 7/3/3
f 34/13/11 33/12/10 13/43/32 12/44/33
f 36/45/28 35/46/34 15/47/35 14/48/36
f 38/28/15 5/49/1 19/50/37 43/29/23
f 32/24/20 7/5/3 21/8/6 41/25/21
f 6/6/2 37/31/14 44/34/26 20/7/5
f 34/51/11 12/52/33 25/53/38 39/54/39
f 15/55/35 35/56/34 42/57/40 24/58/41
f 36/36/28 14/59/36 27/60/42 45/37/29
f 13/61/32 33/19/10 40/22/18 26/62/43
f 30/33/25 1/9/7 20/7/5 44/34/26
f 4/10/8 22/26/22 41/25/21 21/8/6
f 23/21/17 3/63/44 26/62/43 40/22/18
f 2/64/45 29/38/30 45/37/29 27/60/42
f 49/65/46 35/46/34 36/45/28 16/66/27
f 35/56/34 49/67/46 48/68/47 42/57/40
f 49/67/48 18/27/16 28/30/24 48/68/49
f 17/69/13 16/70/27 29/71/30 30/72/25
f 49/65/48 16/66/27 17/15/13 18/18/16
f 30/72/25 29/71/30 2/73/45 1/74/7
f 3/63/44 2/64/45 27/60/42 26/62/43
f 13/61/32 26/62/43 27/60/42 14/59/36
f 12/52/33 15/55/35 24/58/41 25/53/38
f 12/44/33 13/43/32 14/48/36 15/47/35
f 48/68/47 50/75/50 24/58/41 42/57/40
f 23/76/17 22/77/22 4/78/8 3/79/44
f 23/76/17 10/80/9 9/81/19 22/77/22
f 51/82/51 31/42/31 32/41/20 9/83/19
f 51/84/52 47/85/53 46/86/52
f 10/11/9 11/14/12 51/87/52 9/83/19
f 67/88/54 70/89/55 69/90/56 68/91/57
f 60/92/58 71/93/59 70/89/55 61/94/60
f 58/95/61 76/96/62 75/97/63 59/98/64
f 82/99/65 56/100/66 55/101/67 78/102/68
f 52/103/69 69/90/56 71/93/59 53/104/70
f 57/105/71 60/92/58 62/106/72 55/101/67
f 61/94/60 83/107/73 87/108/74 62/106/72
f 54/109/75 58/95/61 59/98/64 52/103/69
f 53/104/70 57/105/71 56/100/66 54/109/75
f 52/103/69 53/104/70 54/109/75
f 57/105/71 55/101/67 56/100/66
f 60/92/58 61/94/60 62/106/72
f 63/110/76 64/54/39 65/111/77 66/112/78 67/88/79 68/91/80
f 69/90/81 70/89/55 71/93/59
f 72/113/82 73/114/31 74/115/83 75/97/63 76/96/84 77/116/85
f 78/102/68 79/117/86 80/118/87 81/119/88 82/99/89
f 83/107/90 84/120/90 85/121/91 86/122/91 87/108/92
f 54/109/75 56/100/66 58/95/61
f 34/51/11 39/54/39 64/54/39 63/110/93 11/123/12
f 64/54/39 39/54/39 25/53/38 65/111/94
f 52/103/69 46/86/52 47/85/53 69/90/56
f 53/104/70 71/93/59 60/92/58 57/105/71
f 47/85/53 68/91/57 69/90/56
f 8/124/4 72/113/95 77/116/96 19/50/37 5/49/1
f 31/114/31 73/114/97 72/113/95 8/124/4
f 56/100/66 82/99/65 76/96/62 58/95/61
f 77/116/98 76/96/62 82/99/65 81/119/99 19/50/37
f 19/50/37 81/119/99 80/118/100 43/29/23
f 43/29/23 80/118/101 79/117/102 28/30/24
f 52/103/69 59/98/64 75/97/63 46/86/52
f 65/111/94 25/53/38 24/58/41 50/75/103 66/112/104
f 62/106/72 87/108/74 55/101/67
f 70/89/55 67/88/54 83/107/73 61/94/60
f 55/101/67 87/108/74 86/122/105 78/102/68
f 85/121/106 48/68/49 28/30/24 79/117/107 78/102/108 86/122/109
f 83/107/73 67/88/54 66/112/104 50/75/103 84/120/110
f 85/121/106 84/120/111 50/75/50 48/68/49
f 51/84/51 74/115/112 73/114/31 31/114/31
f 11/123/12 63/110/93 68/91/113 47/85/53 51/84/52
f 46/86/52 75/97/63 74/115/114 51/84/52
