# OBJ written from D:\Projekty\Diagooo\4_Implementacja\DiagoUnity\DiagoUnity\Assets\_Diago\_Art\Meshes\Rocky Mountains\Rock_03.obj
# Units	meters

o Rock_03
v -0.00898179 -0.010784 -0.128817
v 0.142723 0.0465288 0.126489
v 0.0512717 0.0465288 -0.177896
v -0.22052 0.0465288 0.0602485
v 0.30142 0.0465288 0.379123
v -0.381219 0.0396997 -0.341437
v -0.321104 0.0455417 -0.382357
v -0.321722 0.0465288 -0.382885
v -0.397769 0.0465288 0.202871
v 0.467558 0.0392284 -0.181628
v 0.478529 0.0465288 -0.127226
v 0.352478 -0.0348948 0.0109875
v 0.321245 -0.0612003 -0.0450363
v -0.427366 -1.83667 0.427366
v 0.427366 -1.83667 -0.427366
v -0.427366 -0.00110002 -0.427366
v -0.427366 -0.069556 0.495822
v -0.427366 -1.76815 0.495822
v 0.427366 -1.76815 0.495822
v 0.427366 -0.069556 0.495822
v 0.495822 -1.76815 -0.427366
v 0.495822 -0.069556 -0.427366
v 0.427366 -0.069556 -0.495822
v 0.427366 -1.76815 -0.495822
v -0.427366 -1.76815 -0.495822
v -0.495822 -1.76815 0.427366
v -0.495822 -0.069556 0.427366
v -0.427366 -0.018182 0.47874
v -0.427366 -1.81952 0.47874
v 0.427366 -1.81952 0.47874
v 0.47874 -1.81952 -0.427366
v 0.427366 -0.018182 -0.47874
v 0.427366 -1.81952 -0.47874
v -0.427366 -1.81952 -0.47874
v -0.47874 -0.018182 0.427366
v -0.47874 -1.81952 0.427366
v 0.47874 -0.069556 0.47874
v 0.47874 -1.76815 0.47874
v 0.47874 -1.76815 -0.47874
v 0.47874 -0.069556 -0.47874
v -0.47874 -0.069556 -0.47874
v -0.47874 -1.76815 -0.47874
v -0.47874 -1.76815 0.47874
v -0.47874 -0.069556 0.47874
v 0.465411 -0.031511 -0.465411
v 0.465411 -1.80619 -0.465411
v 0.465411 -1.80619 0.465411
v -0.465411 -0.031511 -0.465411
v -0.465411 -0.031511 0.465411
v -0.465411 -1.80619 0.465411
v -0.465411 -1.80619 -0.465411
v -0.427366 -0.00110002 -0.062892
v 0.47874 -0.018182 0.359039
v -0.049498 -0.00110002 -0.427366
v 0.47874 -0.018182 0.086573
v 0.47874 -0.018182 -0.427366
v 0.465411 -0.031511 0.465411
v -0.46148 0.043932 0.465953
v 0.246159 0.0582805 0.126087
v 0.0265909 0.207466 -0.379486
v -0.382158 0.107096 -0.0648136
v -0.396296 0.15418 0.42428
v 0.322549 0.0824549 0.308553
v 0.456277 0.103594 0.0895013
v -0.403027 0.0465288 0.164389
v 0.427366 -1.83667 0.427366
v 0.47874 -1.81952 0.427366
v 0.495822 -1.76815 0.427366
v 0.495822 -0.069556 0.427366
v -0.47874 -0.018182 -0.427366
v -0.495822 -0.069556 -0.427366
v -0.495822 -1.76815 -0.427366
v -0.47874 -1.81952 -0.427366
v -0.427366 -1.83667 -0.427366
v -0.427366 -0.018182 -0.47874
v -0.427366 -0.069556 -0.495822
v -0.229714 -0.0555368 0.223437
v 0.140058 -0.168929 0.394128
vn 0.0288946 0.90269 0.42932
vn 0.00525592 0.750961 0.660326
vn 0.0013865 0.895689 0.444679
vn -0.0895108 0.748445 0.657129
vn -0.58812 0.807157 -0.0511198
vn -0.403987 0.899527 -0.166268
vn -0.583644 0.810143 -0.0550173
vn -0.0814121 0.951043 0.298142
vn -0.557701 -0.526895 -0.641367
vn -0.555569 -0.388119 -0.735327
vn 0.95678 0.272511 -0.101534
vn 0.981556 0.191173 0
vn 0.98226 0.185605 0.0267502
vn 0.971382 0.237282 0.0107223
vn 0.00944691 0.941862 -0.335866
vn -0.220147 0.950216 -0.220512
vn -0.150165 0.960518 -0.234211
vn 0 0.982258 -0.187533
vn -0.229864 0.966427 -0.11481
vn -0.153282 0.158109 0.975452
vn -0.157997 -0.158009 0.974715
vn 0.157997 -0.158009 0.974715
vn 0.160375 0.18551 0.969467
vn -0.152221 -0.311863 0.937854
vn 0.152221 -0.311863 0.937854
vn 0.974715 -0.158009 -0.157997
vn 0.937859 -0.152233 -0.311841
vn 0.937861 0.152222 -0.311841
vn 0.974717 0.157998 -0.157997
vn -0.974715 -0.158009 0.157997
vn -0.937859 -0.152233 0.311841
vn -0.937861 0.152222 0.311841
vn -0.974717 0.157998 0.157997
vn 0.937854 -0.311863 -0.152221
vn 0.904937 -0.300918 -0.300894
vn -0.929156 0.175126 0.325578
vn -0.949214 0.22538 0.21954
vn -0.937854 -0.311863 0.152221
vn -0.904937 -0.300918 0.300894
vn -0.311841 0.152222 0.937861
vn -0.311841 -0.152233 0.937859
vn 0.311841 -0.152233 0.937859
vn 0.308685 0.206999 0.928367
vn 0.311841 0.152222 -0.937861
vn 0.311841 -0.152233 -0.937859
vn 0.157997 -0.158009 -0.974715
vn 0.157997 0.157998 -0.974717
vn -0.152939 0.214222 0.964738
vn -0.320917 0.15748 0.933923
vn 0.300894 -0.300918 0.904937
vn -0.300894 -0.300918 0.904937
vn 0.152222 0.311842 -0.937861
vn 0.300896 0.300896 -0.904944
vn -0.157997 -0.158009 -0.974715
vn -0.152221 -0.311863 -0.937854
vn -0.300894 -0.300918 -0.904937
vn -0.311841 -0.152233 -0.937859
vn 0.300894 -0.300918 -0.904937
vn 0.152221 -0.311863 -0.937854
vn -0.210758 -0.954548 0.210758
vn -0.15273 -0.937414 0.312934
vn -0.301877 -0.90429 0.301877
vn -0.312934 -0.937414 0.15273
vn 0.210758 -0.954548 -0.210758
vn 0.15273 -0.937414 -0.312934
vn 0.301877 -0.90429 -0.301877
vn 0.312934 -0.937414 -0.15273
vn 0.904944 0.300896 -0.300896
vn 0.301428 0.874011 -0.381112
vn 0.428808 0.79514 -0.428808
vn 0.233469 0.850018 -0.472188
vn 0.089197 0.320773 0.942947
vn 0.119879 0.534644 0.836532
vn -0.0983546 0.19134 0.976583
vn -0.963422 0.257856 0.0729962
vn 0.00715507 0.221261 -0.975188
vn -0.911656 0.259422 0.318721
vn 0.0193023 0.782507 0.622343
vn 0.422581 0.886631 -0.187911
vn -0.383654 0.89693 -0.21983
vn 0.329644 0.943599 0.0309302
vn 0.259214 0.965546 -0.0229978
vn -0.922694 0.385533 0
vn -0.814142 0.579858 -0.0306012
vn -0.9226 0.385653 0.008973
vn 0.0281295 0.338842 0.940423
vn 0.293561 0.795066 0.530746
vn -0.0495919 0.898557 0.436045
vn 0.1642 0.866423 0.471539
vn 0.109709 0.893617 -0.435215
vn 0.0102391 0.97651 -0.21523
vn -0.704831 0.690187 -0.163877
vn -0.858539 0.512603 0.0121808
vn -0.87442 0.438592 -0.20743
vn 0.550339 0.76044 0.344758
vn 0.457216 0.843534 0.281785
vn 0.333827 0.880763 0.335882
vn 0.549608 0.528371 -0.647113
vn -0.403791 0.88292 0.239594
vn -0.231471 0.855981 0.462297
vn -0.161582 0.898175 0.408869
vn 0.069242 0.935817 0.345619
vn 0.201173 0.929124 0.310256
vn -0.114912 0.901643 0.416935
vn -0.445576 0.800892 0.400043
vn 0.938984 0.339162 0.0572628
vn 0.983172 0.180714 0.0267498
vn -0.349189 0.93699 0.01081
vn -0.203063 0.941558 -0.268765
vn -0.446211 0.882664 -0.147644
vn -0.467601 0.837297 -0.283341
vn -0.739751 0.671289 -0.046243
vn -0.56416 0.824855 -0.0365872
vn 0.28828 0.923681 0.252404
vn 0.327744 0.922406 0.204333
vn 0.210758 -0.954548 0.210758
vn 0.15273 -0.937414 0.312934
vn 0.312934 -0.937414 0.15273
vn 0.301877 -0.90429 0.301877
vn 0.974715 -0.158009 0.157997
vn 0.937859 -0.152233 0.311841
vn 0.904937 -0.300918 0.300894
vn 0.937854 -0.311863 0.152221
vn 0.928367 0.206999 0.308685
vn 0.955061 0.264968 0.132853
vn 0.762732 0.609398 0.216505
vn 0.866367 0.491316 0.0895389
vn -0.209285 0.975924 -0.0614252
vn -0.149993 0.980253 -0.128862
vn 0.182709 0.980548 -0.0717094
vn -0.151671 0.983992 -0.0935723
vn -0.974717 0.157998 -0.157997
vn -0.937861 0.311842 -0.152222
vn -0.904944 0.300896 -0.300896
vn -0.937861 0.152222 -0.311841
vn -0.937859 -0.152233 -0.311841
vn -0.974715 -0.158009 -0.157997
vn -0.904937 -0.300918 -0.300894
vn -0.937854 -0.311863 -0.152221
vn -0.210758 -0.954548 -0.210758
vn -0.312934 -0.937414 -0.15273
vn -0.301877 -0.90429 -0.301877
vn -0.15273 -0.937414 -0.312934
vn -0.0923854 0.921821 -0.376445
vn -0.300896 0.904944 -0.300896
vn -0.311841 0.152222 -0.937861
vn -0.157997 0.157998 -0.974717
vn -0.152222 0.311842 -0.937861
vn -0.300896 0.300896 -0.904944
vn 0.138953 0.95162 0.274065
vn 0.777272 -0.552182 -0.301569
vn -0.0504128 0.988035 -0.145757
vn 0.220754 0.963201 0.153336
vn 0.226703 0.889247 0.397298
vn -0.674688 0.708949 0.205396
vn 0.255886 0.933494 -0.251219
vn -0.593934 0.712772 0.373092
vn -0.544165 -0.650869 -0.529389
vn 0.237103 -0.243077 -0.940583
vn 0.378406 0.0542809 -0.924047
vn 0.478591 0.34574 -0.807103
vt 0.653231 0.964558
vt 0.652895 0.964244
vt 0.497012 0.913659
vt 0.653851 0.964252
vt 0.53923 0.362014
vt 0.55926 0.264055
vt 0.579101 0.26249
vt 0.566909 0.375504
vt 0.654707 0.963783
vt 0.447428 0.323517
vt 0.964037 0.363488
vt 0.946628 0.261348
vt 0.955437 0.240099
vt 0.971459 0.161569
vt 0.77245 0.354838
vt 0.639585 0.359989
vt 0.674944 0.344793
vt 0.799242 0.240962
vt 0.662629 0.331969
vt 0.007502 0.00541
vt 0.442074 0.005879
vt 0.442025 0.226655
vt 0.00749306 0.223927
vt 0.855102 0.115759
vt 0.71722 0.301026
vt 0.706047 0.291716
vt 0.843105 0.107545
vt 0.442067 0.476382
vt 0.442069 0.490374
vt 0.00745896 0.483059
vt 0.00746194 0.469228
vt 0.442179 0.973798
vt 0.442187 0.987705
vt 0.00735203 0.976025
vt 0.00735096 0.962132
vt 0.989907 0.57371
vt 0.974978 0.576233
vt 0.97191 0.564569
vt 0.980452 0.556609
vt 0.5915 0.037768
vt 0.598304 0.0173043
vt 0.613293 0.0239757
vt 0.603644 0.0539178
vt 0.931129 0.829552
vt 0.945321 0.825376
vt 0.948599 0.837323
vt 0.940586 0.845819
vt 0.442195 0.996386
vt 0.00735299 0.995133
vt 0.442027 0.24073
vt 0.00749198 0.237691
vt 0.442071 0.504379
vt 0.00745598 0.496887
vt 0.618768 0.0105
vt 0.644193 0.0234231
vt 0.963638 0.853099
vt 0.962938 0.837725
vt 0.974147 0.835736
vt 0.980999 0.845357
vt 0.958891 0.854558
vt 0.959644 0.839183
vt 0.959232 0.4055
vt 0.946819 0.382628
vt 0.971806 0.389416
vt 0.979696 0.398696
vt 0.95379 0.550852
vt 0.955842 0.565927
vt 0.944327 0.568607
vt 0.936685 0.559702
vt 0.962058 0.547257
vt 0.960555 0.56248
vt 0.959801 0.823848
vt 0.95999 0.577604
vt 0.9865 0.378232
vt 0.959232 0.0105
vt 0.919259 0.0455073
vt 0.979696 0.0173043
vt 0.644444 0.0530102
vt 0.816565 0.312506
vt 0.667452 0.236731
vt 0.732187 0.1999
vt 0.635129 0.233662
vt 0.666845 0.0739881
vt 0.862255 0.0853302
vt 0.657869 0.143707
vt 0.937435 0.0792924
vt 0.879223 0.107978
vt 0.848818 0.17622
vt 0.935583 0.172641
vt 0.880194 0.169938
vt 0.654611 0.156502
vt 0.694565 0.282879
vt 0.83147 0.0988476
vt 0.962879 0.822349
vt 0.97717 0.824195
vt 0.9913 0.828681
vt 0.9865 0.037768
vt 0.00749103 0.251442
vt 0.442029 0.254804
vt 0.602463 0.375495
vt 0.5915 0.378232
vt 0.610046 0.392591
vt 0.598304 0.398696
vt 0.00739602 0.743196
vt 0.00739995 0.729345
vt 0.44211 0.739533
vt 0.442113 0.753518
vt 0.926973 0.577402
vt 0.941886 0.579984
vt 0.956769 0.581027
vt 0.628708 0.393806
vt 0.00740305 0.71548
vt 0.442108 0.725545
vt 0.618768 0.4055
vt 0.904947 0.612945
vt 0.914093 0.624501
vt 0.747012 0.790466
vt 0.7355 0.781392
vt 0.923823 0.63536
vt 0.75776 0.800311
vt 0.654497 0.965174
vt 0.654845 0.963877
vt 0.654476 0.964799
vt 0.653647 0.965567
vt 0.754349 0.426019
vt 0.635465 0.483134
vt 0.597106 0.421748
vt 0.653159 0.964686
vt 0.670903 0.986939
vt 0.680841 0.972207
vt 0.986924 0.906819
vt 0.844129 0.767984
vt 0.786731 0.855132
vt 0.653641 0.964952
vt 0.840791 0.735071
vt 0.97889 0.510536
vt 0.77433 0.47042
vt 0.762787 0.497115
usemtl Default
g Rock_03
f 13/1/1 10/2/2 1/3/3
f 1/3/3 10/2/2 3/4/4
f 12/5/5 11/6/6 10/7/7 13/8/5
f 3/4/4 7/9/8 1/3/3
f 2/10/9 11/6/10 12/5/9
f 56/11/11 10/12/12 11/13/13 55/14/14
f 54/15/15 16/16/16 8/17/17 3/18/18
f 6/19/19 8/17/17 16/16/16
f 7/9/8 77/121/150 1/3/3
f 77/121/151 6/122/151 4/123/151
f 7/9/8 6/122/152 77/121/150
f 77/121/150 78/124/153 1/3/3
f 77/125/150 4/126/154 65/127/114
f 1/3/3 78/124/153 13/1/1
f 13/1/5 78/124/155 12/128/5
f 65/129/114 9/130/156 78/131/153
f 2/132/105 78/131/155 5/133/157
f 2/134/9 12/128/9 78/124/158
f 9/130/159 5/135/159 78/131/160
f 78/136/160 77/137/161 65/138/161
usemtl new
f 17/20/20 18/21/21 19/22/22 20/23/23
f 19/24/22 18/25/21 29/26/24 30/27/25
f 21/28/26 39/29/27 40/30/28 22/31/29
f 26/32/30 43/33/31 44/34/32 27/35/33
f 21/36/26 31/37/34 46/38/35 39/39/27
f 27/40/33 44/41/32 49/42/36 35/43/37
f 26/44/30 36/45/38 50/46/39 43/47/31
f 44/34/40 43/33/41 18/48/21 17/49/20
f 38/50/42 37/51/43 20/23/23 19/22/22
f 40/30/44 39/29/45 24/52/46 23/53/47
f 17/54/20 28/55/48 49/42/49 44/41/40
f 19/56/22 30/57/25 47/58/50 38/59/42
f 18/60/21 43/47/41 50/46/51 29/61/24
f 23/62/47 32/63/52 45/64/53 40/65/44
f 25/66/54 34/67/55 51/68/56 42/69/57
f 24/70/46 39/39/45 46/38/58 33/71/59
f 14/72/60 29/61/61 50/46/62 36/45/63
f 15/73/64 33/71/65 46/38/66 31/37/67
f 22/74/29 40/65/28 45/64/68 56/11/11
f 56/11/69 45/64/70 32/63/71
f 28/55/48 17/54/20 20/75/23 57/76/72
f 20/75/23 37/77/43 57/76/73
f 28/55/48 57/76/72 58/78/74
f 49/42/49 28/55/48 58/78/74
f 35/43/37 49/42/36 58/78/75
f 56/11/76 54/15/76 60/79/76
f 54/15/77 3/18/77 60/79/77
f 3/18/4 10/12/2 60/79/78
f 10/12/79 56/11/69 60/79/79
f 6/19/19 16/16/16 61/80/80
f 4/81/81 6/19/82 61/80/81
f 16/16/83 52/82/84 61/80/85
f 58/78/74 57/76/72 62/83/86
f 57/76/87 5/84/88 62/83/89
f 5/84/90 9/85/91 62/83/90
f 9/85/92 58/78/93 62/83/94
f 57/76/95 53/86/96 63/87/97
f 53/86/98 2/88/98 63/87/98
f 2/88/99 5/84/100 63/87/101
f 5/84/88 57/76/87 63/87/102
f 53/86/103 64/89/104 59/90/104 2/88/105
f 53/86/106 55/14/14 64/89/107
f 55/14/14 11/13/13 64/89/107
f 11/13/6 2/88/108 59/90/109 64/89/109
f 58/78/110 9/85/111 65/91/112 52/82/113
f 52/82/84 65/91/112 61/80/85
f 65/91/114 4/81/115 61/80/81
f 14/92/60 66/93/116 30/27/117 29/26/61
f 66/94/116 67/95/118 47/58/119 30/57/117
f 31/37/67 67/95/118 66/94/116 15/73/64
f 68/96/120 38/59/121 47/58/122 67/95/123
f 31/37/34 21/36/26 68/96/120 67/95/123
f 37/77/124 69/97/125 57/76/126
f 69/97/125 55/14/14 53/86/106
f 69/97/125 22/74/29 56/11/11 55/14/14
f 57/76/126 69/97/125 53/86/127
f 69/98/125 37/51/124 38/50/121 68/99/120
f 68/99/120 21/28/26 22/31/29 69/98/125
f 52/82/128 16/16/16 70/100/129
f 52/82/128 70/100/129 35/43/130 58/78/131
f 71/101/132 70/100/133 48/102/134 41/103/135
f 71/101/132 27/40/33 35/43/37 70/100/133
f 71/104/132 41/105/135 42/106/136 72/107/137
f 72/107/137 26/32/30 27/35/33 71/104/132
f 72/108/137 42/69/136 51/68/138 73/109/139
f 72/108/137 73/109/139 36/45/38 26/44/30
f 74/110/140 73/109/141 51/68/142 34/67/143
f 73/109/141 74/110/140 14/72/60 36/45/63
f 16/16/16 54/15/15 75/111/144
f 54/15/15 56/11/69 32/63/71 75/111/144
f 16/16/16 75/111/144 48/102/145 70/100/129
f 42/106/57 41/105/146 76/112/147 25/113/54
f 23/62/47 76/114/147 75/111/148 32/63/52
f 76/114/147 41/103/146 48/102/149 75/111/148
f 24/115/46 33/116/59 34/117/55 25/118/54
f 15/119/64 74/120/140 34/117/143 33/116/65
f 23/53/47 24/52/46 25/113/54 76/112/147
