# OBJ written from D:\Projekty\Diagooo\4_Implementacja\DiagoUnity\DiagoUnity\Assets\_Diago\_Art\Meshes\Rocky Mountains\RockyMountainBoulder.obj
# Units	meters

o RockyMountainBoulder
v -0.00930033 -0.517949 -0.0193131
v -0.320794 -0.39758 -0.0801665
v -0.0683183 -0.514067 0.100866
v -0.166158 -0.350933 0.334467
v 0.0878047 -0.422776 0.276218
v 0.299693 -0.407459 0.127148
v 0.424252 -0.287635 -0.0552616
v 0.268 -0.401857 -0.156816
v 0.251668 -0.235016 -0.385543
v -0.122289 -0.378136 -0.351166
v -0.431817 -0.189324 -0.215704
v -0.353335 -0.278467 0.220319
v 0.0157175 -0.117891 0.505005
v 0.443527 -0.0854958 -0.249122
v -0.0877192 -0.0830536 -0.512212
v -0.514356 0.0554396 0.100049
v 0.365056 -0.11825 0.344938
v 0.505826 0.0227562 0.0787472
v -0.441618 0.127972 -0.228368
v -0.354961 -0.0399786 0.37863
v 0.0103543 0.12642 0.501721
v 0.336333 0.141243 0.365286
v 0.254814 0.137414 -0.428587
v 0.38775 0.331042 -0.150448
v -0.185718 0.285125 -0.388593
v 0.0129398 0.425555 0.291322
v 0.318184 0.386023 0.151288
v 0.0400884 0.325683 -0.402945
v -0.241971 0.433672 -0.178311
v -0.211702 0.315621 0.359728
v -0.314774 0.404862 0.0270367
v 0.00304885 0.502506 -0.155144
v 0.0292047 0.516823 0.0138746
vn -0.257283 -0.93124 0.258064
vn 0.154557 -0.985347 -0.0721336
vn 0.234332 -0.787926 0.569439
vn -0.581449 -0.804031 -0.124307
vn -0.334082 -0.645688 0.686642
vn 0.561434 -0.78798 0.252744
vn 0.765241 -0.639534 -0.073506
vn 0.502194 -0.780921 -0.371435
vn -0.174005 -0.753401 -0.634121
vn -0.765073 -0.557267 0.322672
vn 0.436612 -0.435686 -0.787114
vn -0.850351 -0.356568 -0.38699
vn 0.00623764 -0.275548 0.961267
vn 0.65571 -0.315669 0.685855
vn 0.865339 -0.169685 -0.471588
vn -0.221956 -0.0578889 -0.973337
vn -0.971437 0.11511 0.20751
vn -0.656317 -0.116088 0.745501
vn 0.982962 0.0770515 0.16688
vn -0.827451 0.289763 -0.481001
vn 0.619319 0.353638 0.700988
vn 0.0790243 0.367751 0.92656
vn 0.49641 0.190479 -0.846933
vn -0.366862 0.541683 -0.756302
vn -0.48158 0.637023 0.601899
vn 0.688616 0.649173 -0.323082
vn 0.133059 0.589068 -0.797054
vn 0.12387 0.77216 0.623238
vn 0.626548 0.714603 0.311096
vn -0.480823 0.824658 -0.297906
vn -0.661814 0.74361 0.0951116
vn 0.0326775 0.913644 -0.405201
vn -0.0165561 0.993991 0.108203
vt 0.0501752 0.774304
vt 0.0651041 0.75
vt 0.0697315 0.792837
vt 0.0261838 0.806339
vt 0.0306941 0.758707
vt 0.0532042 0.816451
vt 0.0864016 0.758384
vt 0.08553 0.808076
vt 0.0962741 0.829931
vt 0.104561 0.802356
vt 0.12456 0.805625
vt 0.0055327 0.813054
vt 0.0100707 0.756536
vt 0.0426682 0.828513
vt 0.112934 0.841618
vt 0.0218296 0.847692
vt 0.0629946 0.854237
vt 0.078477 0.856811
vt 0.103118 0.865271
vt 0.00419899 0.866395
vt 0.0341126 0.884914
vt 0.0467255 0.867399
vt 0.0905906 0.878963
vt 0.123848 0.869408
vt 0.0213041 0.896662
vt 0.0768934 0.897292
vt 0.0621954 0.894098
vt 0.113808 0.894837
vt 0.00777578 0.925343
vt 0.0521633 0.928194
vt 0.102378 0.925623
vt 0 0.92685
vt 0.0638458 0.951653
vt 0.0847728 0.939258
vt 0.122134 0.92685
vt 0.0180349 0.950289
vt 0.0332161 0.94138
vt 0.00347494 0.975652
vt 0.104038 0.992104
vt 0.121186 0.962191
vt 0.0645213 0.990477
vt 0.0130209 1
vt 0.0234375 1
usemtl Default
g RockyMountainBoulder
f 3/1/1 1/2/2 5/3/3
f 2/4/4 1/5/2 3/1/1
f 5/3/3 4/6/5 3/1/1
f 5/3/3 1/7/2 6/8/6
f 7/9/7 6/8/6 1/7/2
f 7/9/7 1/7/2 8/10/8
f 10/11/9 8/10/8 1/7/2
f 2/4/4 10/12/9 1/13/2
f 3/1/1 12/14/10 2/4/4
f 3/1/1 4/6/5 12/14/10
f 10/11/9 9/15/11 8/10/8
f 10/12/9 2/4/4 11/16/12
f 11/16/12 2/4/4 12/14/10
f 5/3/3 13/17/13 4/6/5
f 17/18/14 13/17/13 5/3/3
f 6/8/6 17/18/14 5/3/3
f 8/10/8 14/19/15 7/9/7
f 14/19/15 8/10/8 9/15/11
f 11/16/12 15/20/16 10/12/9
f 12/14/10 16/21/17 11/16/12
f 20/22/18 16/21/17 12/14/10
f 4/6/5 20/22/18 12/14/10
f 4/6/5 13/17/13 20/22/18
f 6/8/6 7/9/7 18/23/19 17/18/14
f 18/23/19 7/9/7 14/19/15
f 10/11/9 15/24/16 9/15/11
f 19/25/20 15/20/16 11/16/12
f 19/25/20 11/16/12 16/21/17
f 13/17/13 17/18/14 22/26/21 21/27/22
f 23/28/23 14/19/15 9/15/11
f 15/24/16 23/28/23 9/15/11
f 25/29/24 15/20/16 19/25/20
f 30/30/25 20/22/18 13/17/13 21/27/22
f 22/26/21 17/18/14 18/23/19
f 14/19/15 24/31/26 18/23/19
f 24/31/26 14/19/15 23/28/23
f 28/32/27 15/20/16 25/29/24
f 20/22/18 30/30/25 16/21/17
f 26/33/28 21/27/22 22/26/21
f 22/26/21 18/23/19 27/34/29
f 27/34/29 18/23/19 24/31/26
f 15/24/16 28/35/27 23/28/23
f 19/25/20 29/36/30 25/29/24
f 29/36/30 19/25/20 31/37/31
f 16/21/17 31/37/31 19/25/20
f 30/30/25 31/37/31 16/21/17
f 21/27/22 26/33/28 30/30/25
f 22/26/21 27/34/29 26/33/28
f 23/28/23 28/35/27 24/31/26
f 25/29/24 32/38/32 28/32/27
f 27/34/29 24/31/26 33/39/33
f 24/31/26 28/35/27 32/40/32
f 25/29/24 29/36/30 32/38/32
f 30/30/25 33/41/33 31/37/31
f 30/30/25 26/33/28 33/41/33
f 27/34/29 33/41/33 26/33/28
f 24/31/26 32/40/32 33/39/33
f 32/38/32 29/36/30 33/42/33
f 29/36/30 31/37/31 33/43/33
