# OBJ written from D:\Projekty\Diagooo\4_Implementacja\DiagoUnity\DiagoUnity\Assets\_Diago\_Art\Meshes\Rocky Mountains\TrapGround1.obj
# Units	meters

o TrapGround1.obj
v -0.380326 -0.042067 0.380391
v -0.126754 -0.042067 0.380391
v 0.126754 -0.042067 0.380391
v 0.380326 -0.042067 0.380391
v -0.380326 -0.042067 0.126819
v -0.126754 -0.042067 0.126819
v 0.126754 -0.042067 0.126819
v 0.380326 -0.042067 0.126819
v -0.380326 -0.042067 -0.126754
v -0.126754 -0.042067 -0.126754
v 0.126754 -0.042067 -0.126754
v 0.380326 -0.042067 -0.126754
v -0.380326 -0.042067 -0.380326
v -0.126754 -0.042067 -0.380326
v 0.126754 -0.042067 -0.380326
v 0.380326 -0.042067 -0.380326
v -0.380326 -0.29564 0.380391
v -0.126754 -0.29564 0.380391
v 0.126754 -0.29564 0.380391
v 0.380326 -0.29564 0.380391
v -0.380326 -0.29564 0.126819
v 0.380326 -0.29564 0.126819
v -0.380326 -0.29564 -0.126754
v 0.380326 -0.29564 -0.126754
v -0.380326 -0.29564 -0.380326
v -0.126754 -0.29564 -0.380326
v 0.126754 -0.29564 -0.380326
v 0.380326 -0.29564 -0.380326
v -0.126754 -0.29564 0.500028
v -0.499963 -0.29564 0.500028
v 0.126754 -0.29564 0.500028
v 0.499963 -0.29564 0.500028
v 0.499963 -0.29564 0.126819
v 0.499963 -0.29564 -0.126754
v 0.499963 -0.29564 -0.499898
v 0.126754 -0.29564 -0.499898
v -0.126754 -0.29564 -0.499898
v -0.499963 -0.29564 -0.499898
v -0.499963 -0.29564 -0.126754
v -0.499963 -0.29564 0.126819
v -0.380326 -1e-005 0.380391
v -0.126754 -1e-005 0.380391
v 0.126754 -1e-005 0.380391
v 0.380326 -1e-005 0.380391
v 0.380326 -1e-005 0.126819
v 0.380326 -1e-005 -0.126754
v 0.380326 -1e-005 -0.380326
v 0.126754 -1e-005 -0.380326
v -0.126754 -1e-005 -0.380326
v -0.380326 -1e-005 -0.380326
v -0.380326 -1e-005 -0.126754
v -0.380326 -1e-005 0.126819
v -0.126754 -0.061219 0.500028
v -0.499963 -0.061219 0.500028
v 0.126754 -0.061219 0.500028
v 0.499963 -0.061219 0.500028
v 0.499963 -0.061219 0.126819
v 0.499963 -0.061219 -0.126754
v 0.499963 -0.061219 -0.499898
v 0.126754 -0.061219 -0.499898
v -0.126754 -0.061219 -0.499898
v -0.499963 -0.061219 -0.499898
v -0.499963 -0.061219 -0.126754
v -0.499963 -0.061219 0.126819
v -0.456676 -1e-005 0.456741
v -0.126754 -1e-005 0.441406
v 0.126754 -1e-005 0.441406
v -0.441342 -1e-005 0.126819
v 0.456676 -1e-005 0.456741
v 0.441342 -1e-005 0.126819
v -0.441342 -1e-005 -0.126754
v 0.441342 -1e-005 -0.126754
v 0.456676 -1e-005 -0.456612
v -0.456676 -1e-005 -0.456612
v 0.126754 -1e-005 -0.441277
v -0.126754 -1e-005 -0.441277
v -0.303265 -0.042067 0.303329
v -0.20388 -0.042067 0.303329
v -0.20388 -0.042067 0.203945
v -0.303265 -0.042067 0.203945
v -0.049692 -0.042067 0.303329
v 0.049692 -0.042067 0.303329
v 0.049692 -0.042067 0.203945
v -0.049692 -0.042067 0.203945
v 0.20388 -0.042067 0.303329
v 0.303265 -0.042067 0.303329
v 0.303265 -0.042067 0.203945
v 0.20388 -0.042067 0.203945
v -0.303265 -0.042067 0.049757
v -0.20388 -0.042067 0.049757
v -0.20388 -0.042067 -0.049627
v -0.303265 -0.042067 -0.049627
v -0.049692 -0.042067 0.049757
v 0.049692 -0.042067 0.049757
v 0.049692 -0.042067 -0.049627
v -0.049692 -0.042067 -0.049627
v 0.20388 -0.042067 0.049757
v 0.303265 -0.042067 0.049757
v 0.303265 -0.042067 -0.049627
v 0.20388 -0.042067 -0.049627
v -0.303265 -0.042067 -0.203816
v -0.20388 -0.042067 -0.203816
v -0.20388 -0.042067 -0.3032
v -0.303265 -0.042067 -0.3032
v -0.049692 -0.042067 -0.203816
v 0.049692 -0.042067 -0.203816
v 0.049692 -0.042067 -0.3032
v -0.049692 -0.042067 -0.3032
v 0.20388 -0.042067 -0.203816
v 0.303265 -0.042067 -0.203816
v 0.303265 -0.042067 -0.3032
v 0.20388 -0.042067 -0.3032
v -0.255457 -0.29564 0.251688
v -0.001223 -0.29564 0.252381
v 0.25298 -0.29564 0.253044
v -0.255715 -0.29564 -0.002142
v -0.002447 -0.29564 -0.002416
v 0.252447 -0.29564 -0.001061
v -0.250721 -0.29564 -0.250721
v -0.001919 -0.29564 -0.25546
v 0.25096 -0.29564 -0.25612
vn 0 -1 0
vn 0 -0.707107 0.707107
vn -0.408248 -0.816497 0.408248
vn 0.408248 -0.816497 0.408248
vn 0.707107 -0.707107 0
vn 0.408248 -0.816497 -0.408248
vn 0 -0.707107 -0.707107
vn -0.408248 -0.816497 -0.408248
vn -0.707107 -0.707107 0
vn 0.408248 0.816497 -0.408248
vn 0.447214 0.894427 0
vn 0.707107 0.707107 0
vn 0 0.894427 -0.447214
vn 0 0.707107 -0.707107
vn -0.408248 0.816497 -0.408248
vn -0.447214 0.894427 0
vn -0.707107 0.707107 0
vn 0.408248 0.816497 0.408248
vn -0.408248 0.816497 0.408248
vn 0 0.894427 0.447214
vn 0 0.707107 0.707107
vn 0.010229 0.33213 0.943178
vn -0.609886 0.452879 0.650339
vn 0 0.337576 0.941298
vn 0.613664 0.452199 0.64725
vn 0.927958 0.372686 0
vn 0.941298 0.337576 0
vn 0.64725 0.452199 -0.613664
vn 0 0.372686 -0.927958
vn 0 0.337576 -0.941298
vn -0.613664 0.452199 -0.64725
vn -0.927958 0.372686 0
vn -0.927941 0.372618 -0.009039
vn -0.200097 0.951719 0.232793
vn 0.010692 0.902494 0.430571
vn 0 0.904788 0.425863
vn -0.392565 0.919679 -0.009121
vn 0.209579 0.948652 0.23693
vn 0.392636 0.919694 0
vn -0.392636 0.919694 0
vn 0.425863 0.904788 0
vn 0.23693 0.948652 -0.209579
vn -0.209579 0.948652 -0.23693
vn 0 0.919694 -0.392636
vn 0 0.904788 -0.425863
vn -0.353717 0.865899 -0.3537
vn 0.356147 0.864315 -0.355132
vn 0 1 0
vn -0.355199 0.86426 0.356213
vn 0.357642 0.862655 0.357658
vn -0.354407 0.865331 -0.354398
vn 0.355986 0.8643 -0.355329
vn -0.355364 0.864272 0.35602
vn 0.356948 0.863232 0.356957
vn -0.355067 0.864786 -0.355067
vn 0.355833 0.864285 -0.355519
vn -0.355519 0.864285 0.355833
vn 0.356286 0.863783 0.356286
vn -0.353453 0.866114 -0.353436
vn 0.356215 0.864316 -0.355063
vn -0.35513 0.864261 0.356281
vn 0.357908 0.862434 0.357924
vn -0.353153 0.866356 -0.353143
vn 0.356306 0.864303 -0.355001
vn -0.355036 0.864275 0.35634
vn 0.358211 0.862186 0.358219
vn -0.35452 0.865235 -0.35452
vn 0.355973 0.864286 -0.355377
vn -0.355377 0.864286 0.355973
vn 0.356834 0.86333 0.356834
vn -0.358589 0.861881 -0.358573
vn 0.35489 0.864318 -0.356382
vn -0.356448 0.864263 0.354957
vn 0.352776 0.866652 0.352794
vn -0.353694 0.865915 -0.353684
vn 0.356168 0.864302 -0.355143
vn -0.355178 0.864273 0.356202
vn 0.357665 0.862638 0.357674
vn -0.352996 0.86648 -0.352996
vn 0.356362 0.86429 -0.354979
vn -0.354979 0.86429 0.356362
vn 0.358368 0.862058 0.358368
vn 0.003578 0.999987 0.003701
vn 0.002323 0.999994 0.002386
vn 0.001126 0.999999 0.001126
vn 0.004067 0.999983 0.00419
vn 0.004647 0.999978 0.004711
vn 0.002137 0.999995 0.002137
vn -0.005414 0.999971 -0.005291
vn 0.003644 0.999987 0.003708
vn 0.004961 0.999975 0.004961
vt 0.270218 0.895258
vt 0.270239 0.874313
vt 0.279227 0.874295
vt 0.279227 0.895292
vt 0.270233 0.854365
vt 0.279227 0.854312
vt 0.270203 0.833124
vt 0.279229 0.833141
vt 0.270217 0.812484
vt 0.279228 0.812484
vt 0.270199 0.791686
vt 0.279229 0.79174
vt 0.270152 0.771468
vt 0.279232 0.771454
vt 0.270146 0.751915
vt 0.279141 0.751913
vt 0.270259 0.99822
vt 0.270254 0.978657
vt 0.279226 0.978775
vt 0.279225 0.998219
vt 0.270226 0.957384
vt 0.279227 0.957402
vt 0.270248 0.936408
vt 0.279226 0.936426
vt 0.270245 0.916655
vt 0.279226 0.916613
vt 0.31135 0.89527
vt 0.311352 0.916636
vt 0.308311 0.916634
vt 0.30831 0.895272
vt 0.311352 0.874366
vt 0.308311 0.874358
vt 0.311353 0.854326
vt 0.308312 0.854324
vt 0.311351 0.936371
vt 0.308311 0.936378
vt 0.311351 0.833113
vt 0.308311 0.833115
vt 0.311354 0.81262
vt 0.308313 0.812607
vt 0.311349 0.957388
vt 0.308309 0.95739
vt 0.311356 0.791771
vt 0.308314 0.79177
vt 0.311356 0.771636
vt 0.308314 0.771619
vt 0.31135 0.978748
vt 0.30831 0.978743
vt 0.311361 0.751972
vt 0.308318 0.751966
vt 0.311349 0.998214
vt 0.308309 0.998215
vt 0.297904 0.874283
vt 0.297906 0.895259
vt 0.297904 0.854302
vt 0.297904 0.833111
vt 0.297902 0.812508
vt 0.2979 0.791773
vt 0.297899 0.771578
vt 0.297896 0.751926
vt 0.297906 0.978795
vt 0.297907 0.998216
vt 0.297907 0.957385
vt 0.297905 0.936441
vt 0.297905 0.91661
vt 0.303607 0.89526
vt 0.303607 0.874323
vt 0.303607 0.85432
vt 0.303607 0.916629
vt 0.303607 0.833109
vt 0.303607 0.812562
vt 0.303607 0.936408
vt 0.303607 0.791768
vt 0.303607 0.771603
vt 0.303607 0.957384
vt 0.303608 0.751948
vt 0.303607 0.998216
vt 0.303607 0.978747
vt 0.314296 0.933161
vt 0.314191 0.873045
vt 0.332534 0.891307
vt 0.332566 0.914851
vt 0.374404 0.873013
vt 0.356119 0.891299
vt 0.374356 0.933226
vt 0.356102 0.914891
vt 0.314224 0.812832
vt 0.332485 0.831142
vt 0.332477 0.854751
vt 0.374461 0.812921
vt 0.356119 0.831174
vt 0.356086 0.854735
vt 0.314313 0.752749
vt 0.332598 0.771043
vt 0.332558 0.794587
vt 0.374396 0.752684
vt 0.356135 0.77101
vt 0.356167 0.79462
vt 0.392674 0.891323
vt 0.39265 0.914932
vt 0.434512 0.872932
vt 0.416234 0.891282
vt 0.434577 0.933169
vt 0.416259 0.914908
vt 0.392738 0.831191
vt 0.392714 0.854719
vt 0.434568 0.812841
vt 0.416243 0.831134
vt 0.416219 0.854671
vt 0.392698 0.770946
vt 0.392722 0.794571
vt 0.434617 0.752628
vt 0.416307 0.770922
vt 0.416283 0.794539
vt 0.45279 0.891234
vt 0.452822 0.914843
vt 0.494749 0.873021
vt 0.476399 0.891266
vt 0.49466 0.933105
vt 0.476359 0.914811
vt 0.45287 0.831118
vt 0.452838 0.854679
vt 0.494781 0.812817
vt 0.47648 0.831102
vt 0.476471 0.854711
vt 0.452854 0.77097
vt 0.452838 0.794563
vt 0.494677 0.752693
vt 0.476391 0.771002
vt 0.476423 0.794547
vt 0.268 0.936358
vt 0.268 0.942749
vt 0.251788 0.93635
vt 0.267999 0.929519
vt 0.251788 0.929518
vt 0.267998 0.922816
vt 0.251788 0.922817
vt 0.267998 0.91591
vt 0.251788 0.915909
vt 0.267992 0.772825
vt 0.267992 0.779209
vt 0.251788 0.772827
vt 0.267992 0.76598
vt 0.251788 0.765981
vt 0.267992 0.759272
vt 0.251788 0.759269
vt 0.267992 0.752364
vt 0.251788 0.752362
vt 0.251788 0.820809
vt 0.251788 0.814096
vt 0.268 0.820809
vt 0.251788 0.827658
vt 0.268 0.827658
vt 0.251788 0.834036
vt 0.267999 0.834036
vt 0.251788 0.807192
vt 0.267999 0.814094
vt 0.251788 0.977978
vt 0.251788 0.97107
vt 0.268 0.977974
vt 0.251788 0.984677
vt 0.268001 0.984678
vt 0.251788 0.991511
vt 0.268001 0.991514
vt 0.251788 0.997908
vt 0.268001 0.997908
vt 0.251788 0.950497
vt 0.251788 0.94359
vt 0.267999 0.950494
vt 0.251788 0.957198
vt 0.268 0.957199
vt 0.251788 0.964035
vt 0.268 0.964036
vt 0.251788 0.970429
vt 0.267999 0.970429
vt 0.251788 0.874963
vt 0.251788 0.868256
vt 0.267998 0.874965
vt 0.251788 0.881808
vt 0.267998 0.881811
vt 0.251788 0.888192
vt 0.267998 0.888192
vt 0.251788 0.86135
vt 0.267997 0.868251
vt 0.251788 0.895536
vt 0.251788 0.88863
vt 0.267998 0.895532
vt 0.251788 0.902241
vt 0.267999 0.902242
vt 0.251788 0.909082
vt 0.267999 0.909085
vt 0.251788 0.91547
vt 0.267999 0.91547
vt 0.267996 0.800247
vt 0.267996 0.806633
vt 0.251788 0.800251
vt 0.267996 0.793406
vt 0.251788 0.793222
vt 0.267996 0.786692
vt 0.251788 0.786506
vt 0.267996 0.779789
vt 0.251788 0.779787
vt 0.267999 0.847686
vt 0.267999 0.854536
vt 0.251788 0.847687
vt 0.267999 0.840974
vt 0.251788 0.840972
vt 0.267999 0.83407
vt 0.251788 0.834068
vt 0.267999 0.860913
vt 0.251788 0.854535
usemtl defaultMat
g TrapGround1
f 17/1/1 18/2/1 29/3/2 30/4/3
f 18/2/1 19/5/1 31/6/2 29/3/2
f 19/5/1 20/7/1 32/8/4 31/6/2
f 20/7/1 22/9/1 33/10/5 32/8/4
f 22/9/1 24/11/1 34/12/5 33/10/5
f 24/11/1 28/13/1 35/14/6 34/12/5
f 28/13/1 27/15/1 36/16/7 35/14/6
f 27/17/1 26/18/1 37/19/7 36/20/7
f 26/18/1 25/21/1 38/22/8 37/19/7
f 25/21/1 23/23/1 39/24/9 38/22/8
f 23/23/1 21/25/1 40/26/9 39/24/9
f 21/25/1 17/1/1 30/4/3 40/26/9
f 1/27/10 5/28/11 52/29/12 41/30/10
f 2/31/13 1/27/10 41/30/10 42/32/14
f 3/33/13 2/31/13 42/32/14 43/34/14
f 5/28/11 9/35/11 51/36/12 52/29/12
f 4/37/15 3/33/13 43/34/14 44/38/15
f 8/39/16 4/37/15 44/38/15 45/40/17
f 9/35/11 13/41/18 50/42/18 51/36/12
f 12/43/16 8/39/16 45/40/17 46/44/17
f 16/45/19 12/43/16 46/44/17 47/46/19
f 13/41/18 14/47/20 49/48/21 50/42/18
f 15/49/20 16/45/19 47/46/19 48/50/21
f 14/47/20 15/51/20 48/52/21 49/48/21
f 30/4/3 29/3/2 53/53/22 54/54/23
f 29/3/2 31/6/2 55/55/24 53/53/22
f 31/6/2 32/8/4 56/56/25 55/55/24
f 32/8/4 33/10/5 57/57/26 56/56/25
f 33/10/5 34/12/5 58/58/27 57/57/26
f 34/12/5 35/14/6 59/59/28 58/58/27
f 35/14/6 36/16/7 60/60/29 59/59/28
f 36/20/7 37/19/7 61/61/30 60/62/29
f 37/19/7 38/22/8 62/63/31 61/61/30
f 38/22/8 39/24/9 63/64/32 62/63/31
f 39/24/9 40/26/9 64/65/33 63/64/32
f 40/26/9 30/4/3 54/54/23 64/65/33
f 42/32/14 41/30/10 65/66/34 66/67/35
f 43/34/14 42/32/14 66/67/35 67/68/36
f 41/30/10 52/29/12 68/69/37 65/66/34
f 44/38/15 43/34/14 67/68/36 69/70/38
f 45/40/17 44/38/15 69/70/38 70/71/39
f 52/29/12 51/36/12 71/72/40 68/69/37
f 46/44/17 45/40/17 70/71/39 72/73/41
f 47/46/19 46/44/17 72/73/41 73/74/42
f 51/36/12 50/42/18 74/75/43 71/72/40
f 48/50/21 47/46/19 73/74/42 75/76/44
f 49/48/21 48/52/21 75/77/44 76/78/45
f 50/42/18 49/48/21 76/78/45 74/75/43
f 66/67/35 65/66/34 54/54/23 53/53/22
f 65/66/34 68/69/37 64/65/33 54/54/23
f 53/53/22 55/55/24 67/68/36 66/67/35
f 55/55/24 56/56/25 69/70/38 67/68/36
f 56/56/25 57/57/26 70/71/39 69/70/38
f 63/64/32 64/65/33 68/69/37 71/72/40
f 57/57/26 58/58/27 72/73/41 70/71/39
f 58/58/27 59/59/28 73/74/42 72/73/41
f 62/63/31 63/64/32 71/72/40 74/75/43
f 59/59/28 60/60/29 75/76/44 73/74/42
f 60/62/29 61/61/30 76/78/45 75/77/44
f 61/61/30 62/63/31 74/75/43 76/78/45
f 1/79/10 2/80/13 78/81/46 77/82/47
f 2/80/13 6/83/48 79/84/49 78/81/46
f 6/83/48 5/85/11 80/86/50 79/84/49
f 5/85/11 1/79/10 77/82/47 80/86/50
f 2/80/13 3/87/13 82/88/51 81/89/52
f 3/87/13 7/90/48 83/91/53 82/88/51
f 7/90/48 6/83/48 84/92/54 83/91/53
f 6/83/48 2/80/13 81/89/52 84/92/54
f 3/87/13 4/93/15 86/94/55 85/95/56
f 4/93/15 8/96/16 87/97/57 86/94/55
f 8/96/16 7/90/48 88/98/58 87/97/57
f 7/90/48 3/87/13 85/95/56 88/98/58
f 5/85/11 6/83/48 90/99/59 89/100/60
f 6/83/48 10/101/48 91/102/61 90/99/59
f 10/101/48 9/103/11 92/104/62 91/102/61
f 9/103/11 5/85/11 89/100/60 92/104/62
f 6/83/48 7/90/48 94/105/63 93/106/64
f 7/90/48 11/107/48 95/108/65 94/105/63
f 11/107/48 10/101/48 96/109/66 95/108/65
f 10/101/48 6/83/48 93/106/64 96/109/66
f 7/90/48 8/96/16 98/110/67 97/111/68
f 8/96/16 12/112/16 99/113/69 98/110/67
f 12/112/16 11/107/48 100/114/70 99/113/69
f 11/107/48 7/90/48 97/111/68 100/114/70
f 9/103/11 10/101/48 102/115/71 101/116/72
f 10/101/48 14/117/20 103/118/73 102/115/71
f 14/117/20 13/119/18 104/120/74 103/118/73
f 13/119/18 9/103/11 101/116/72 104/120/74
f 10/101/48 11/107/48 106/121/75 105/122/76
f 11/107/48 15/123/20 107/124/77 106/121/75
f 15/123/20 14/117/20 108/125/78 107/124/77
f 14/117/20 10/101/48 105/122/76 108/125/78
f 11/107/48 12/112/16 110/126/79 109/127/80
f 12/112/16 16/128/19 111/129/81 110/126/79
f 16/128/19 15/123/20 112/130/82 111/129/81
f 15/123/20 11/107/48 109/127/80 112/130/82
f 80/131/50 77/132/47 113/133/83
f 79/134/49 80/131/50 113/135/83
f 78/136/46 79/134/49 113/137/83
f 77/138/47 78/136/46 113/139/83
f 84/140/54 81/141/52 114/142/84
f 83/143/53 84/140/54 114/144/84
f 82/145/51 83/143/53 114/146/84
f 81/147/52 82/145/51 114/148/84
f 88/149/58 85/150/56 115/151/85
f 87/152/57 88/149/58 115/153/85
f 86/154/55 87/152/57 115/155/85
f 85/150/56 86/156/55 115/157/85
f 92/158/62 89/159/60 116/160/86
f 91/161/61 92/158/62 116/162/86
f 90/163/59 91/161/61 116/164/86
f 89/165/60 90/163/59 116/166/86
f 96/167/66 93/168/64 117/169/87
f 95/170/65 96/167/66 117/171/87
f 94/172/63 95/170/65 117/173/87
f 93/174/64 94/172/63 117/175/87
f 100/176/70 97/177/68 118/178/88
f 99/179/69 100/176/70 118/180/88
f 98/181/67 99/179/69 118/182/88
f 97/177/68 98/183/67 118/184/88
f 104/185/74 101/186/72 119/187/89
f 103/188/73 104/185/74 119/189/89
f 102/190/71 103/188/73 119/191/89
f 101/192/72 102/190/71 119/193/89
f 108/194/78 105/195/76 120/196/90
f 107/197/77 108/194/78 120/198/90
f 106/199/75 107/197/77 120/200/90
f 105/201/76 106/199/75 120/202/90
f 112/203/82 109/204/80 121/205/91
f 111/206/81 112/203/82 121/207/91
f 110/208/79 111/206/81 121/209/91
f 109/204/80 110/210/79 121/211/91
