# OBJ written from D:\Projekty\Diagooo\4_Implementacja\DiagoUnity\DiagoUnity\Assets\_Diago\_Art\Meshes\Rocky Mountains\TrapSpikes1.obj
# Units	meters

o TrapSpikes1.obj
v -0.043177 -0.331483 0.295931
v 0.043115 -0.331483 0.295931
v -0.043177 -0.331483 0.209639
v 0.043115 -0.331483 0.209639
v -3.1e-005 -0.036931 0.252785
v -0.043177 -0.680084 0.295931
v 0.043115 -0.680084 0.295931
v 0.043115 -0.680084 0.209639
v -0.043177 -0.680084 0.209639
v 0.20919 -0.331483 0.295931
v 0.295482 -0.331483 0.295931
v 0.20919 -0.331483 0.209639
v 0.295482 -0.331483 0.209639
v 0.252336 -0.036931 0.252785
v 0.20919 -0.680084 0.295931
v 0.295482 -0.680084 0.295931
v 0.295482 -0.680084 0.209639
v 0.20919 -0.680084 0.209639
v -0.29649 -0.331483 0.295931
v -0.210198 -0.331483 0.295931
v -0.29649 -0.331483 0.209639
v -0.210198 -0.331483 0.209639
v -0.253344 -0.036931 0.252785
v -0.29649 -0.680084 0.295931
v -0.210198 -0.680084 0.295931
v -0.210198 -0.680084 0.209639
v -0.29649 -0.680084 0.209639
v -0.29649 -0.331483 -0.209748
v -0.210198 -0.331483 -0.209748
v -0.29649 -0.331483 -0.29604
v -0.210198 -0.331483 -0.29604
v -0.253344 -0.036931 -0.252894
v -0.29649 -0.680084 -0.209748
v -0.210198 -0.680084 -0.209748
v -0.210198 -0.680084 -0.29604
v -0.29649 -0.680084 -0.29604
v -0.043143 -0.331483 -0.209748
v 0.043149 -0.331483 -0.209748
v -0.043143 -0.331483 -0.29604
v 0.043149 -0.331483 -0.29604
v 3e-006 -0.036931 -0.252894
v -0.043143 -0.680084 -0.209748
v 0.043149 -0.680084 -0.209748
v 0.043149 -0.680084 -0.29604
v -0.043143 -0.680084 -0.29604
v 0.209156 -0.331483 -0.209748
v 0.295448 -0.331483 -0.209748
v 0.209156 -0.331483 -0.29604
v 0.295448 -0.331483 -0.29604
v 0.252302 -0.036931 -0.252894
v 0.209156 -0.680084 -0.209748
v 0.295448 -0.680084 -0.209748
v 0.295448 -0.680084 -0.29604
v 0.209156 -0.680084 -0.29604
v 0.209156 -0.331483 0.043146
v 0.295448 -0.331483 0.043146
v 0.209156 -0.331483 -0.043146
v 0.295448 -0.331483 -0.043146
v 0.252302 -0.036931 0
v 0.209156 -0.680084 0.043146
v 0.295448 -0.680084 0.043146
v 0.295448 -0.680084 -0.043146
v 0.209156 -0.680084 -0.043146
v -0.296018 -0.331483 0.043146
v -0.209726 -0.331483 0.043146
v -0.296018 -0.331483 -0.043146
v -0.209726 -0.331483 -0.043146
v -0.252872 -0.036931 0
v -0.296018 -0.680084 0.043146
v -0.209726 -0.680084 0.043146
v -0.209726 -0.680084 -0.043146
v -0.296018 -0.680084 -0.043146
v -0.043146 -0.331483 0.043146
v 0.043146 -0.331483 0.043146
v -0.043146 -0.331483 -0.043146
v 0.043146 -0.331483 -0.043146
v 0 -0.036931 0
v -0.043146 -0.680084 0.043146
v 0.043146 -0.680084 0.043146
v 0.043146 -0.680084 -0.043146
v -0.043146 -0.680084 -0.043146
vn 0 1 0
vn 0.703384 0.102485 0.703384
vn 0.703384 0.102485 -0.703384
vn -0.703384 0.102485 0.703384
vn -0.703384 0.102485 -0.703384
vn 0.707107 0 -0.707107
vn -0.707107 0 -0.707107
vn 0.707107 0 0.707107
vn -0.707107 0 0.707107
vt 0.338446 0.958586
vt 0.333683 0.976803
vt 0.32851 0.975821
vt 0.338843 0.977057
vt 0.343968 0.976554
vt 0.34904 0.975343
vt 0.350278 0.997567
vt 0.344828 0.997974
vt 0.333786 0.998165
vt 0.328421 0.998017
vt 0.339294 0.998191
vt 0.444299 0.974041
vt 0.449097 0.955833
vt 0.454268 0.956824
vt 0.443937 0.955569
vt 0.438811 0.956064
vt 0.433736 0.957264
vt 0.432541 0.935037
vt 0.437991 0.934642
vt 0.449034 0.934472
vt 0.454398 0.934629
vt 0.443527 0.934433
vt 0.396142 0.974639
vt 0.401679 0.956642
vt 0.406805 0.957844
vt 0.396535 0.956168
vt 0.391392 0.956453
vt 0.386273 0.957446
vt 0.385984 0.935189
vt 0.391447 0.935016
vt 0.402488 0.935296
vt 0.407842 0.935673
vt 0.396987 0.935033
vt 0.362866 0.959274
vt 0.357457 0.97731
vt 0.352322 0.976145
vt 0.362604 0.977747
vt 0.367745 0.977427
vt 0.372856 0.976397
vt 0.373304 0.998652
vt 0.367842 0.998864
vt 0.356799 0.998662
vt 0.351444 0.998324
vt 0.362302 0.998885
vt 0.466607 0.97425
vt 0.471808 0.956153
vt 0.476956 0.957259
vt 0.466655 0.955775
vt 0.461519 0.956155
vt 0.45642 0.957244
vt 0.455716 0.934995
vt 0.461174 0.934721
vt 0.472218 0.934795
vt 0.477578 0.935071
vt 0.466712 0.934635
vt 0.374193 0.974556
vt 0.379216 0.956409
vt 0.384374 0.957465
vt 0.37406 0.956082
vt 0.368928 0.956512
vt 0.363839 0.957651
vt 0.362917 0.93541
vt 0.368372 0.935082
vt 0.379417 0.935048
vt 0.384779 0.935272
vt 0.37391 0.934942
vt 0.326521 0.974542
vt 0.33174 0.956451
vt 0.336888 0.957562
vt 0.326588 0.956066
vt 0.321452 0.956441
vt 0.316351 0.957524
vt 0.315672 0.935274
vt 0.32113 0.935006
vt 0.332175 0.935093
vt 0.337533 0.935375
vt 0.326669 0.934926
vt 0.350358 0.974653
vt 0.355689 0.956593
vt 0.360828 0.957736
vt 0.350538 0.956178
vt 0.345401 0.956522
vt 0.340293 0.957573
vt 0.339749 0.935321
vt 0.345209 0.935085
vt 0.356252 0.935239
vt 0.36161 0.935553
vt 0.350748 0.93504
vt 0.420187 0.974788
vt 0.425327 0.956674
vt 0.430478 0.957763
vt 0.420173 0.956313
vt 0.415038 0.956709
vt 0.409943 0.957815
vt 0.409165 0.93557
vt 0.414622 0.935277
vt 0.425667 0.935314
vt 0.431028 0.935573
vt 0.420161 0.935173
usemtl defaultMat
g TrapSpikes1
f 5/1/1 2/2/2 4/3/3
f 1/4/4 5/1/1 3/5/5
f 5/1/1 4/6/3 3/5/5
f 2/2/2 5/1/1 1/4/4
f 3/5/5 4/6/3 8/7/6 9/8/7
f 4/3/3 2/2/2 7/9/8 8/10/6
f 2/2/2 1/4/4 6/11/9 7/9/8
f 1/4/4 3/5/5 9/8/7 6/11/9
f 14/12/1 11/13/2 13/14/3
f 10/15/4 14/12/1 12/16/5
f 14/12/1 13/17/3 12/16/5
f 11/13/2 14/12/1 10/15/4
f 12/16/5 13/17/3 17/18/6 18/19/7
f 13/14/3 11/13/2 16/20/8 17/21/6
f 11/13/2 10/15/4 15/22/9 16/20/8
f 10/15/4 12/16/5 18/19/7 15/22/9
f 23/23/1 20/24/2 22/25/3
f 19/26/4 23/23/1 21/27/5
f 23/23/1 22/28/3 21/27/5
f 20/24/2 23/23/1 19/26/4
f 21/27/5 22/28/3 26/29/6 27/30/7
f 22/25/3 20/24/2 25/31/8 26/32/6
f 20/24/2 19/26/4 24/33/9 25/31/8
f 19/26/4 21/27/5 27/30/7 24/33/9
f 32/34/1 29/35/2 31/36/3
f 28/37/4 32/34/1 30/38/5
f 32/34/1 31/39/3 30/38/5
f 29/35/2 32/34/1 28/37/4
f 30/38/5 31/39/3 35/40/6 36/41/7
f 31/36/3 29/35/2 34/42/8 35/43/6
f 29/35/2 28/37/4 33/44/9 34/42/8
f 28/37/4 30/38/5 36/41/7 33/44/9
f 41/45/1 38/46/2 40/47/3
f 37/48/4 41/45/1 39/49/5
f 41/45/1 40/50/3 39/49/5
f 38/46/2 41/45/1 37/48/4
f 39/49/5 40/50/3 44/51/6 45/52/7
f 40/47/3 38/46/2 43/53/8 44/54/6
f 38/46/2 37/48/4 42/55/9 43/53/8
f 37/48/4 39/49/5 45/52/7 42/55/9
f 50/56/1 47/57/2 49/58/3
f 46/59/4 50/56/1 48/60/5
f 50/56/1 49/61/3 48/60/5
f 47/57/2 50/56/1 46/59/4
f 48/60/5 49/61/3 53/62/6 54/63/7
f 49/58/3 47/57/2 52/64/8 53/65/6
f 47/57/2 46/59/4 51/66/9 52/64/8
f 46/59/4 48/60/5 54/63/7 51/66/9
f 59/67/1 56/68/2 58/69/3
f 55/70/4 59/67/1 57/71/5
f 59/67/1 58/72/3 57/71/5
f 56/68/2 59/67/1 55/70/4
f 57/71/5 58/72/3 62/73/6 63/74/7
f 58/69/3 56/68/2 61/75/8 62/76/6
f 56/68/2 55/70/4 60/77/9 61/75/8
f 55/70/4 57/71/5 63/74/7 60/77/9
f 68/78/1 65/79/2 67/80/3
f 64/81/4 68/78/1 66/82/5
f 68/78/1 67/83/3 66/82/5
f 65/79/2 68/78/1 64/81/4
f 66/82/5 67/83/3 71/84/6 72/85/7
f 67/80/3 65/79/2 70/86/8 71/87/6
f 65/79/2 64/81/4 69/88/9 70/86/8
f 64/81/4 66/82/5 72/85/7 69/88/9
f 77/89/1 74/90/2 76/91/3
f 73/92/4 77/89/1 75/93/5
f 77/89/1 76/94/3 75/93/5
f 74/90/2 77/89/1 73/92/4
f 75/93/5 76/94/3 80/95/6 81/96/7
f 76/91/3 74/90/2 79/97/8 80/98/6
f 74/90/2 73/92/4 78/99/9 79/97/8
f 73/92/4 75/93/5 81/96/7 78/99/9
